<mxfile host="app.diagrams.net" modified="2023-11-18T10:44:29.974Z" agent="Mozilla/5.0 (Windows NT 10.0; Win64; x64) AppleWebKit/537.36 (KHTML, like Gecko) Chrome/119.0.0.0 Safari/537.36" etag="WvPla7RNlpAGs0O2dsTY" version="22.1.3" type="github">
  <diagram id="R2lEEEUBdFMjLlhIrx00" name="Page-1">
    <mxGraphModel dx="2333" dy="1300" grid="1" gridSize="10" guides="1" tooltips="1" connect="1" arrows="1" fold="1" page="1" pageScale="1" pageWidth="850" pageHeight="1100" math="0" shadow="0" extFonts="Permanent Marker^https://fonts.googleapis.com/css?family=Permanent+Marker">
      <root>
        <mxCell id="0" />
        <mxCell id="1" parent="0" />
        <mxCell id="LbAB_rmGIGJ7I_XkYfzX-1" value="User&lt;br&gt;" style="rounded=1;whiteSpace=wrap;html=1;" vertex="1" parent="1">
          <mxGeometry x="300" y="480" width="120" height="60" as="geometry" />
        </mxCell>
        <mxCell id="LbAB_rmGIGJ7I_XkYfzX-4" value="_id: PK" style="rounded=1;whiteSpace=wrap;html=1;" vertex="1" parent="1">
          <mxGeometry x="80" y="140" width="120" height="60" as="geometry" />
        </mxCell>
        <mxCell id="LbAB_rmGIGJ7I_XkYfzX-5" value="email: PK" style="rounded=1;whiteSpace=wrap;html=1;" vertex="1" parent="1">
          <mxGeometry x="80" y="230" width="120" height="60" as="geometry" />
        </mxCell>
        <mxCell id="LbAB_rmGIGJ7I_XkYfzX-6" value="password: required" style="rounded=1;whiteSpace=wrap;html=1;" vertex="1" parent="1">
          <mxGeometry x="80" y="330" width="120" height="60" as="geometry" />
        </mxCell>
        <mxCell id="LbAB_rmGIGJ7I_XkYfzX-7" value="role: required" style="rounded=1;whiteSpace=wrap;html=1;" vertex="1" parent="1">
          <mxGeometry x="80" y="420" width="120" height="60" as="geometry" />
        </mxCell>
        <mxCell id="LbAB_rmGIGJ7I_XkYfzX-8" value="gender" style="rounded=1;whiteSpace=wrap;html=1;" vertex="1" parent="1">
          <mxGeometry x="80" y="520" width="120" height="60" as="geometry" />
        </mxCell>
        <mxCell id="LbAB_rmGIGJ7I_XkYfzX-9" value="lastname" style="rounded=1;whiteSpace=wrap;html=1;" vertex="1" parent="1">
          <mxGeometry x="80" y="610" width="120" height="60" as="geometry" />
        </mxCell>
        <mxCell id="LbAB_rmGIGJ7I_XkYfzX-10" value="password" style="rounded=1;whiteSpace=wrap;html=1;" vertex="1" parent="1">
          <mxGeometry x="80" y="710" width="120" height="60" as="geometry" />
        </mxCell>
        <mxCell id="LbAB_rmGIGJ7I_XkYfzX-11" value="phoneNumber" style="rounded=1;whiteSpace=wrap;html=1;" vertex="1" parent="1">
          <mxGeometry x="80" y="800" width="120" height="60" as="geometry" />
        </mxCell>
        <mxCell id="LbAB_rmGIGJ7I_XkYfzX-13" value="" style="endArrow=none;html=1;rounded=0;entryX=1;entryY=0.5;entryDx=0;entryDy=0;exitX=0;exitY=0.5;exitDx=0;exitDy=0;" edge="1" parent="1" source="LbAB_rmGIGJ7I_XkYfzX-1" target="LbAB_rmGIGJ7I_XkYfzX-4">
          <mxGeometry width="50" height="50" relative="1" as="geometry">
            <mxPoint x="400" y="430" as="sourcePoint" />
            <mxPoint x="450" y="380" as="targetPoint" />
            <Array as="points">
              <mxPoint x="300" y="170" />
            </Array>
          </mxGeometry>
        </mxCell>
        <mxCell id="LbAB_rmGIGJ7I_XkYfzX-15" value="" style="endArrow=none;html=1;rounded=0;entryX=1;entryY=0.5;entryDx=0;entryDy=0;" edge="1" parent="1" target="LbAB_rmGIGJ7I_XkYfzX-5">
          <mxGeometry width="50" height="50" relative="1" as="geometry">
            <mxPoint x="300" y="500" as="sourcePoint" />
            <mxPoint x="450" y="380" as="targetPoint" />
            <Array as="points">
              <mxPoint x="300" y="260" />
            </Array>
          </mxGeometry>
        </mxCell>
        <mxCell id="LbAB_rmGIGJ7I_XkYfzX-17" value="" style="endArrow=none;html=1;rounded=0;entryX=1;entryY=0.5;entryDx=0;entryDy=0;" edge="1" parent="1" target="LbAB_rmGIGJ7I_XkYfzX-6">
          <mxGeometry width="50" height="50" relative="1" as="geometry">
            <mxPoint x="300" y="360" as="sourcePoint" />
            <mxPoint x="450" y="380" as="targetPoint" />
          </mxGeometry>
        </mxCell>
        <mxCell id="LbAB_rmGIGJ7I_XkYfzX-18" value="" style="endArrow=none;html=1;rounded=0;exitX=1;exitY=0.5;exitDx=0;exitDy=0;" edge="1" parent="1" source="LbAB_rmGIGJ7I_XkYfzX-7">
          <mxGeometry width="50" height="50" relative="1" as="geometry">
            <mxPoint x="400" y="430" as="sourcePoint" />
            <mxPoint x="300" y="450" as="targetPoint" />
          </mxGeometry>
        </mxCell>
        <mxCell id="LbAB_rmGIGJ7I_XkYfzX-19" value="" style="endArrow=none;html=1;rounded=0;entryX=0;entryY=0.5;entryDx=0;entryDy=0;exitX=1;exitY=0.5;exitDx=0;exitDy=0;" edge="1" parent="1" source="LbAB_rmGIGJ7I_XkYfzX-11" target="LbAB_rmGIGJ7I_XkYfzX-1">
          <mxGeometry width="50" height="50" relative="1" as="geometry">
            <mxPoint x="300" y="830" as="sourcePoint" />
            <mxPoint x="450" y="680" as="targetPoint" />
            <Array as="points">
              <mxPoint x="300" y="830" />
            </Array>
          </mxGeometry>
        </mxCell>
        <mxCell id="LbAB_rmGIGJ7I_XkYfzX-20" value="" style="endArrow=none;html=1;rounded=0;exitX=1;exitY=0.5;exitDx=0;exitDy=0;" edge="1" parent="1" source="LbAB_rmGIGJ7I_XkYfzX-8">
          <mxGeometry width="50" height="50" relative="1" as="geometry">
            <mxPoint x="400" y="730" as="sourcePoint" />
            <mxPoint x="300" y="550" as="targetPoint" />
          </mxGeometry>
        </mxCell>
        <mxCell id="LbAB_rmGIGJ7I_XkYfzX-21" value="" style="endArrow=none;html=1;rounded=0;entryX=1;entryY=0.5;entryDx=0;entryDy=0;" edge="1" parent="1" target="LbAB_rmGIGJ7I_XkYfzX-9">
          <mxGeometry width="50" height="50" relative="1" as="geometry">
            <mxPoint x="300" y="640" as="sourcePoint" />
            <mxPoint x="450" y="680" as="targetPoint" />
          </mxGeometry>
        </mxCell>
        <mxCell id="LbAB_rmGIGJ7I_XkYfzX-22" value="" style="endArrow=none;html=1;rounded=0;exitX=1;exitY=0.5;exitDx=0;exitDy=0;" edge="1" parent="1" source="LbAB_rmGIGJ7I_XkYfzX-10">
          <mxGeometry width="50" height="50" relative="1" as="geometry">
            <mxPoint x="400" y="730" as="sourcePoint" />
            <mxPoint x="300" y="740" as="targetPoint" />
          </mxGeometry>
        </mxCell>
        <mxCell id="LbAB_rmGIGJ7I_XkYfzX-28" style="edgeStyle=orthogonalEdgeStyle;rounded=0;orthogonalLoop=1;jettySize=auto;html=1;exitX=1;exitY=0.5;exitDx=0;exitDy=0;entryX=0;entryY=0.5;entryDx=0;entryDy=0;" edge="1" parent="1" source="LbAB_rmGIGJ7I_XkYfzX-24" target="LbAB_rmGIGJ7I_XkYfzX-25">
          <mxGeometry relative="1" as="geometry" />
        </mxCell>
        <mxCell id="LbAB_rmGIGJ7I_XkYfzX-29" style="edgeStyle=orthogonalEdgeStyle;rounded=0;orthogonalLoop=1;jettySize=auto;html=1;exitX=1;exitY=0.5;exitDx=0;exitDy=0;entryX=0;entryY=0.5;entryDx=0;entryDy=0;" edge="1" parent="1" source="LbAB_rmGIGJ7I_XkYfzX-24" target="LbAB_rmGIGJ7I_XkYfzX-27">
          <mxGeometry relative="1" as="geometry" />
        </mxCell>
        <mxCell id="LbAB_rmGIGJ7I_XkYfzX-31" style="edgeStyle=orthogonalEdgeStyle;rounded=0;orthogonalLoop=1;jettySize=auto;html=1;exitX=1;exitY=0.5;exitDx=0;exitDy=0;entryX=0;entryY=0.5;entryDx=0;entryDy=0;" edge="1" parent="1" source="LbAB_rmGIGJ7I_XkYfzX-24" target="LbAB_rmGIGJ7I_XkYfzX-30">
          <mxGeometry relative="1" as="geometry" />
        </mxCell>
        <mxCell id="LbAB_rmGIGJ7I_XkYfzX-24" value="Training regulation" style="rounded=1;whiteSpace=wrap;html=1;" vertex="1" parent="1">
          <mxGeometry x="600" y="230" width="120" height="60" as="geometry" />
        </mxCell>
        <mxCell id="LbAB_rmGIGJ7I_XkYfzX-25" value="_id: PK" style="rounded=1;whiteSpace=wrap;html=1;" vertex="1" parent="1">
          <mxGeometry x="780" y="140" width="120" height="60" as="geometry" />
        </mxCell>
        <mxCell id="LbAB_rmGIGJ7I_XkYfzX-27" value="id: PK, manual" style="rounded=1;whiteSpace=wrap;html=1;" vertex="1" parent="1">
          <mxGeometry x="780" y="270" width="120" height="60" as="geometry" />
        </mxCell>
        <mxCell id="LbAB_rmGIGJ7I_XkYfzX-30" value="title: required" style="rounded=1;whiteSpace=wrap;html=1;" vertex="1" parent="1">
          <mxGeometry x="780" y="370" width="120" height="60" as="geometry" />
        </mxCell>
        <mxCell id="LbAB_rmGIGJ7I_XkYfzX-32" value="" style="shape=image;verticalLabelPosition=bottom;labelBackgroundColor=default;verticalAlign=top;aspect=fixed;imageAspect=0;image=data:image/png,iVBORw0KGgoAAAANSUhEUgAAAl8AAABUCAYAAAC851L3AAAAAXNSR0IArs4c6QAAAARnQU1BAACxjwv8YQUAAAAJcEhZcwAADsMAAA7DAcdvqGQAAE+XSURBVHhe7Z0HWFTH18Zfdmmika4oYP+rny0S7AqKxF4iFmIwsUFUxAo2sCuxElus2DVWROwtMRoLimBDigWwI2IoCihld883d3fpsIAiGjO/PJi9bcqZc86cmTv3XjVigMPhcDgcDodTJoiU/+dwOBwOh8PhlAE8+OJwOBwOh8MpQ3jwxeFwOBwOh1OG8OCLw+FwOBwOpwzhwReHw+FwOBxOGcKDLw6Hw+FwOJwyhAdfHA6Hw+FwOGUID744HA6Hw+FwyhAefHE4HA6Hw+GUITz44nA4HA6HwylD+OeF/lPIEHdxE1adeYYKjftjhH0T6CqPlCYpwXuxyicEbytY4qdJdqgrVh7gcDgcDofDZ77+W6Tjzh9HcVe9Bfr1/jiBl0D5htZo/OYEVs10x8aAdOVeDofD4XA4Ajz4+s+QilDvoZh8PBb3Dm/FyXspyv0fAXFV9Fx+EgcmGuCvff5IU+7mcDgcDofzWdx2lCApOgpPkyuieh0TlP+o4WAaEp4+RvQbQgWT6jA31P7sok9JcgweP02EyNAc1SqVh3DHLjUhAVJ9fZRXnPJ+pD3GzWCgXvPq0El5jGvhMjRpVhPaysMfhbcJiE0vByO9ouUsfR2NyGf/IFVNB0bmNVH1q499r/ItUlK0Ub44Cid9jejIZ/gnVQ06RuaoWfUrebtwOBwOh/M+fNLY423odoxqUx3GZvXQsL4ZzCycsDtSojxaiqRG4uh8B7T+nyV+WHoIFy8dx9oR7fB/zfpi+v4wJCtPgywGN4+shVMLExgaGMDAqB7s5u3F6eBYyNh/r24fwVrndjCr3RXu2//CtSv74N61NoyEcw0MYd7ZA/uDXrAzFaQ9/BubxndANbPWGLHxKmIzD+QjGeG+8/BTu1qoaTUG646cxandKzF7zDA4uU3FzyNW4FbqC1w/shHjrM0UZTM0g/W4TTh2MxoxwSexfUon1DBSlKNKyxFYe+gaHj0JwmFvF7QzNYRBFQt0HuKCyVOnYcosL2zwHIgGlQxR1WFPdv1zkPYkAH5rnNDChF3L8jNu0gvO40ZhcE8rtOnkgElrzuJxqvLkApEidNUwuP/xVqWSJd/ZhUk9GsC8+VCsOeYP/9ObML59bdTvPAYbr8VnyTIvsufr0btKZdTrMAgukyZjuE1NRTtUskBf16lwG/EdvjEzRj2XU8orciMNXYVB43wRr9wukOQ72DWpBxqYN8fQNcfg73+atWd71K7fGWM2XkN8oe3J4XA4HI4KhJmvT4H05Qn6ZfIKOnEzlAIPziSbSmJisSBVHnqE3inPKRUS/ekXm8qkLtIj2xXhlKbcTdJo2j/IjMQifWrl/if9I1Xup1Q6NYLtZ6KBZkf6LTrrgBxJlBd1G7iLkjK3760kW10RK7saaVjOodsZygNypBS740fq5nmTpVoIrBzHJnxDuiIxmfXdTPdyniiNowvTW5Je3Yl0UV7wDAqa3pg0hLJpfEOzg7MzkzxYTG002H6o0/8mXsyuZ1oATWuoLsxukkarhXRXotzP0nq4ayD977ut9Ea5Jx+pZ8mlhtAuIM2Ov9FzQRQZT8jPqT5pqonJoOUUOhmTWz5ZJP9BzjXVqbzNCorIyjMnUoo7N51a6YtIZNCZVt/Lrov0xX4aZCYmtQpNyOVwNDszP9LHK6hXpyV0Ry6vVDo3tpaizbS60PpY+Rn08sjP1MrxsLCRh2T6w7kmqZe3oRUFF46J/hxNb6VPIpEBdV59j0lLifSFQm/UKlATl8OURz04HA6HwymSTzfzpdkMIxeMR7emDdDMbgbm/lAT6lCDugYLLUqNRJyaNhhzzr8EVe0PV6f60FQegagK7CYMRgNxAgKWDMEEP2F2S4GGurrylzrU89xfUtMuhwrltNgRBeK6IzB/VANoqBEybm3CsmM55lLS72DzXzXgMaEptJS7ciNF1EYnDFl1A2/K28Jj+VDUzXmiyABWM1fBpWFmbqxE4szfIvZbTfmbIRZn3QoTZ5WfIRJBLMpxnoD0Ie5GSFHD3gOOFirkrabOks1zrbo5+ixdgIFVgPiAXzFs7F68yDcDJMMLn9XY+1iCt5c2wDuwgFVfCScwZdhiBCSowWyAK4bVzS6zyMQOE4c0gHpyMNaNHI89+TNg5TCB3dgRaFSwYBkiVOo2HiNaV1RuZyN74YPVex9D8vYSNngHFrAmLQEnpgzD4oAEqJkNgOuwulntzQoHu4lD0EA9GcHrRmL8nuyZTg6Hw+FwisMnC75EesYwzOzRZPGIfBSHChYjsWpGp1JbhySL3oeVv0cig9RQrpkV2uRZNKXeqCW+0ReBpNE4sGIHoqTKAyVCGy0nTkffykyU0ufYO38lrssf8GOB1bY1iLWbkC/fLN6eg9ei04iTqUGrRW98Z1ZAc2h9g5+cO8OkFBcZSR8cxL5LyUwAjTHG9buSryXT64TeHfSY8kjx8vBKbL2bR3CSUGw9fA8VNdRAGfewc81xFs7kRIane1bJgzNSKwfLdq2gozyiQB0NW3wD1jSQvTyCNTseKPdnI6r6PYb1KuJ5TfWGGObYQbmRiQShWw/jXkUNqFEG7u1cg+O5CwfZ0z1YJQRngt5YtkOr3IVjybaQ6w0rHI6s2YEH76U3HA6Hw/mv8smCr0ySo/7CRld7TD2WiNT4x4h8nqQ88uGkB1xC4FvhrpkIxmbVUE6xOxv1KqhaSYhqCGm3/HGloMVPxUBUuT9mjm8JHTUhnTWY9/tTSGJ8sfx6a4zvaViokNOuHcapp0LPLULlev8HwwJPVEe9Tt+iTmkFX5IXOP7rdlzPUGyW/6rCeyiBNurWrSGfaaOMO7jkn3vlVPLZLbhrtRXzewl1lyHm0FrsepQzQklHkP91vJM3jTFMzfKH2yITExgJBaN0BF8NUOwsDZLPYstdK2yd30sub1nMIazd9YiFkdmkB/njuqJwMDY1yz8YEJnARFE4pAdfRcB76g2Hw+Fw/puUvN8tVWRIT3mDpDRAg/XkqY9PwGPwTPz1Vnn4A8l4nYhk+T0hNWiX02b/5kUH5ZS3rSg9EYmKk98DdTR0noUfa7BKyOJxYuEszJ9/HNXH/oTqKiSc/viJ8padGnQq6BRQPhXIovHnsimYNGmS/G/qohN4VETxZU9PYFb/zhiy9T6UsVehJPlvwLRpG+CvXFUuizoKzyksr6mr8Fcs8FXF8orykgTxsXHyc+TInmP/vhR0/6kF+o2yhyASSrmADd7XWciVSQZev05R3K5T00Y57fw1F2lrQ7GbWDu+lu/7cGR4vn8fUrr/hBb9RsFeUThc2OCtnK1UIOSXomyXAvVGxMqmLDNlvMbr99YbDofD4fwX+cTBlwgGjfvAdd1fuLh5AMxZXyh5fA5/hpbOE48ahkbQk9eQkJaayv7NSyrSlVGIWjkjGCtOLhI1UQHn6XaC+5ROLD+CJGIntmUMxKhGOdZeFYC4vI5yVoXwNimlgPKpQFQV37ougZeXl/xv8bTuqFFE8UXm3THP7ypOTbMo8tbuV21GYtGikWhjoEhUVKsXZixheS0eh46V1JD6Lk1RXjURvtLLvv0nCd6C00aD0MdYBJ32IzG4qab89l74jnU4mRVDacDQSLhtyaA0pBb0IjDWMIp4iAVAhsbyXx+MJBhbThthUB9jiHTaY+TgptAU1uqF78C67MLl0ZsCC4cMZbCmpm0IY90iBM/hcDgcTg4+k15DHTV/WIBxrTVYV6sO9VJac6/ZwhotKwozFDK8evaMhVp5kLzA81jhhpMadJq3R2vlfUmROFMsBYRDaekQa5fLPxsCMcxt2qM+CyAFsepWMi4ywNFq1hJNtRTlexkVgcSymEBRK4/mTj+iZeaTB9InCLtb0pklCZ4+eS6fuVJTr49WrTODoySc2XwWbxKPYIYwIzdtB2JMa6MCE6c0+iDW7n6imO2CJpq3a4YK8qq/wvNn+QMcyYsXeCVvmnJoZtVKsfMDSTqzGWffJOLIDGG2cBp2xJiitqJwOLh2N54o5a/ZvB2aKQqHV8+f5V+Qz/TmhaJw8rWEedeEcTgcDoejik8UfMkQd9kb81aewqPM2z3iKqhpXh5ik1ZoW1/1jFFxEdZijR9cV/4k4tsb/gjME31JQq/iepwMaho1MWiig/IWoTpMqhgrBZOOd+/kP7KQPHsBkVk1dtaHI672A0b0rszyIqQHncVficoDeUhOSlYGLaWDqJoDHHvqyX+/9d+I32+WUA0kd3D+8ktIWcn1O4+GYxOFNGRP9mBfugt2ef+aNSO3bpcXvjcVbu8l4Zz3JtyWT2qKYNLPBQNrqEON3uLm1aA8AY4E4deuy9+jJTYdgDGDqin3fwCyJ9izLx0uu7zxq7JsXut2wet7UxY2E5LOeWOTonAQmfSDy8AaUBf05uZVBOWJviTh13BdUTgMGDMI1T6RFXE4HA7n38kn6jYScPCX8ZgzsTfa9ZyJg3ei8fzKOmz+WwtdZkzCt0VNGRWbr9DRczvm21SC2tMDWLP3aY4gJh4n1/2OUKkeWrlvw+Lu+sr9YtTp2Qvf6KgB0gjcvvlGuV8gEReOx6FZ77pZr3XIhUyqTJ/Yz2KES6LK+H7ZagyrVw4Ufwxev/oj9+MGMsT7L8bohRez1ktJWB4KCFJpjpk5mfAaWOVPaeY5DLZfknleRgYkwk+RPowNxUh/dBATxxxFRvVC3tdALE2Z8lr2W5GqBJFb52NTmBRfNf4ZG9c6ytd1CbdwA9dvxdt2nWEgP09JBVv81K8WC1YJGXe2YfUpZYSp1wULNrmhmS7h8YF18M3xOgnZq+P4bWcoJBWaYuzGJfiu4CcRcpFVZ5IyueSXfWrgemx92w6dcxcOtj/1Qy0WOwoPDmxbfYq1sIAeuizYBLdmuqDHB7DON8frJGSvcPy3nQiVVEDTsRux5LvCH6jgcDgcDqcgxHMYyt9liCbKJQbA74/7iH5wAfvXLcdvR+PQetZubBzVKP9TiR+ClhnaDeyPZuWe4+y2rbgYL4IsLgQnV03H8uvVMPjXXdg0thlyvg1KVLkVOvwvAUEXLuL0qatI0NTG26fX8cfBk4htOwljWyvXK2XxGvcvncGR7ZuxO+A50ojw7p0YlStXQLlK1WBcLv9NykzUKjZAT/sOMEp8gL+3/4Z9YW+hlvEaT0Mv4ejuHTj+zBJu7r1QWfQC14/tx6ZNexD4Qlio9hbvWPBmUsUEFV9dwkFvb+y8+hSpLO+3KWowZvuNdV7gwoGN2LTvOmLYJZTwBBHPH+H2uePYv3kxpkz+FX++bIQf5w1Gc/lttmyEN9wf378Zmw/ckt/+o8QYPH4ejrM7V2DteTE6jF6MLd6TYGXMJMECkqvrxsDR8w88StWGkXkN1K+mxwJUGWJunsSfp07hTGgCZJSEsBuPYdDMCpZmFVC+Zkf0+9YMybd9sW77TaRqEV7dOYblrvNwzqAfPHduw/QOlVQHN6mPcOXIHmzcfBDB/wgFTcY7jaowNTFFjUrCQwwyvLq6DmMcPfHHo1RoG5mjRv1q0GMBoyzmJk7+eQqnzoQigQWZSWE38NigGawszVChfE107PctzJJvw3fddtxM1QK9uoNjy10x75wB+nnuxLbpHVCJR14cDofDKSGf9NuOKc9v4+a9OMgqVkOjJnVgkPUG1I+E9D5Wd22F8X8mAAY9seHmYTipumeU9gr3g8PxNFECLePaaNy4OnQLnPIqJYT87tzF04R0aOiZoX6TeqhU6EtEvyxSY+8j9EE03sjKo3LtBqhftfxHnFFKxuNbdyGp8Q1qF+chi9RY3A99gOg3MpSvXBsN6lf9yN8g5XA4HM6XzGfwYe2yRfbiJKb/4IhfL7xEecsR8Fo+Dd+3ro4KHzOo4nxGSBC80Bptp19FRt2JOH37V7T/jwS4HA6Hw/k8+M+N30VVumHh+Qg8uPA75vUxRLiPFzwmTcaSo49zvWiT8+WS9vad/D1n0tS3SP9PDT04HA6H8znwn5v54nAgfYU7f99CWv32aFb1Y9/r5nA4HA4nNzz44nA4HA6HwylD+LJhDofD4XA4nDKEB18cDofD4XA4ZQgPvjgcDofD4XDKEB58cTgcDofD4ZQhPPjicDgcDofDKUN48MXhcDgcDodThvDgi8PhcDgcDqcM4cEXh8PhcD4JshdXsG/zdvwVVcbfF5E8xt+7NmPXhaf8yyacTwIPvjgcDofzSRBVrgbNK0sx/rfLSFPuKxPUTWEqOYM5rt4Ilij3cThlCA++OBwOh/NpEJnCbu1BTC53AzfSlfvKBHXUGbIVPkMz4B/Goy9O2fMfC76kSE1KRpaNS9KRLhP+/wq3fFdgw9lYCJv/biR44u+LvYeu4UWxKiPBq1u+WLHhLGLfo/LJkX9gw6pDiMycu5c8hf/BvfALiP7XyjI9JRlpH1h4yatb8F2xAWdVCTU1ATEx8Xj7EQRVZP7pUfh7/z4cv/WqyHYqVl3+hUie+uPgXj8ERJegXsX2FVKkxMfgxYsXyr8YvEoWOvlUJMRk749JSFWc/kF8mA1nkpoQg5j4t8W2W2lKPGIy68fq9PJVIt7muYdXLN2RGaPzuMH4Wl25XVawIlXrPwEOdT9WxsmI/GMDVh2K/MS3NktHP4qD6vaWIcHfG3PXX0JcrsMyvGW2Ujq2IFB29f0ghG87fum8izxGi5zs6DsHZ5o8cw7Nmj6VXN08yH2QE62KeElBO12opa4mtVp4lyTKa/7NpNxYTDaVW5JnaFG1kdI/QTvJpaUuabZaSHdLWPnkkAM0taMJadQeR3+nKXfSO7q51IZMWsynIrP/DEm78AtNXelFw0btoX+U+0qK9J8g2unSknQ1W9HCwoQqfU47B9QhQ/1K1HVtZKnqXXHyf3dmFNWqOZB+f6g652LV5d/Ku5u01MaEWswPLZ78pf+UwFek0rNrB2lRn2okFhlTx+n76PLDZJZGLN3eMphqaxiQ5fAltC8wmlmhkjc3abvHaBo3fw/dipeS5NkNCnpWVMk+zIYzkT7fSQPqGJJ+pa60NrJ4iaQ+v0FHl/YhM7GYqrQZQuPGO1KPprWoYfepdDAy7ZPbgWok9GBVF6pmoEdV++2k51mNUFokU8iBqdTRRINqj/ubstxjmVM6+lEcim5vJvNNg6hN/9UUmqHcxZA8WEVdqhmQXtV+tPODG6Ls6vuhfPEzX29vLkNv6/G43d4L+3etxZJ5szHXcxGWTumAd3fv4NUbA1gOHIludcp62PWeyF7CZ80uPFER0etYTMKudd/g4dnHRYy4RDC0HIiR3eqgZLWXIfbSVqw5ch9a+rrA61vYu9xXeUwbTV13Y0PLx/jr8fuP92QvfbBm15Nij8JLC802rphqUQENe1lDX7mvpIgMLTFwZDeoUqmEc9tww2Y/HtzejhZX1uLwy9KradH5pyPo0lsM27URg2qIlfsKpjh1+dei3RSuuzeg5eO/UCxVFRmWwFdowbS5HVz6NIWGuB66De+HNjXKs/0yPL0Zg29WnMPfmyfDvlkV5e0Htv/4GTyvWQ1Jh8ejTf2v0WHkQcRXLKR9svzA+9pwThJwbtsN2Ox/gNvbW+DK2sPIUkcV/karqgV6jvwOTdXF+F//OVi+YhOOnVsLq/u/wsFuDq5V+LR2oArZi8PY/tgBJyMDsarGSaw5k6A8UgrIYnFp6xocua8FhXvci+W+ocqDZUSp6kfxKNpXiFHH8Xdc9nFBg8xzZC9wePtjOJyMROCqGji55gzTxvfgE9T3Q/mygy/Jbfw6chYCLdzh5VALmsrdAqJKnTB/cV/ovWFeV00dzH+UEAniH0YhtkzXKUjxxGcSZhx4AQkpdxWICFXslmN+36+gptxTOGpQL3HlRdCt1x49e/dGn5ZmUNepiTbdWyiPMUQm6O01H32/Kjr3ApE+gc+kGTjwQgKV1fwYiLWhVb8vRnavqjAOSTweRsVm36ouJmrq6szVFIYMskZOWOJsAX3zrpi7ZQpaq5Vup6M6f0KdkV7waF1Bua0a1Wn9uxGZ9IbX/L4otqqW0FeIxEyL1EQQi1gGrFP+c6Yzdtdbim2jm0AIxXJS0dYRrk5TsSXgPoKPboT39tno9JXyYC7y+oH3seEcyGRo5LQEzhb6MO86F1umtIZCHYvhb8RMHjllp9cB/TpVRUb4GZy+L/nkdlAYMnEbjFs8GA306qCf1xaMaSIpvYGeSBf12vdE79590NJMHTo126B7CzPlwfxI4h8iqlQ7klLSj/fwfSX2FTIx2oxbjMEN9FCnnxe2jGkCSYkbopTtoYz4ooOvtEubse2mFM179IBJATWtYDMSw5tqKLcY9AaB3uPRt6M1ern6IJJpQcxNX8y1b4nmzj4sIpfhVfBBzGHbLUZMg1vHphi89aX80qTbe7Bw9lzMdhuOQY7z4HfvKX53qI3m7sdxy9cLLn1dsCM8EFvGfQfrdj0wYW8EC98UyOKvYdPs2Vi2bhmmjZ6IJZt24vddh3E91w1rGWLPLcb4WUfwMOIEFrhNxdaAZ7h10Atj+jlj86UDmNLbBn2XXMSr235YNnYQ5p5OBklii8xfAeFNoDfG9+0I616u8IksbBFqOh6fXAJ3zw3YsXEd9txIBGnoolo9c3YsFfcOzMa4CR5wH++KCbM34GpCdh1e39oFz2ke8MiU0f23yiM5YB3UucXjMevIQ0ScWAC3qVtxnVl/6r0DmD1uAjzcneFgPxrrrgqtoeT1LezynAYPDzcMH+SIeX73UUDKCmRxCNjiiRlzZmLcTwMxZu0VxElicNN3LuxbNoezTwJ0DIGog3PYdguMmOaGjk0HY2uuEbkEsbd84eXSFy47whG4ZRy+s26HHhP2IiKP2OhNILzH90VH615w9YlUyjwd/1xcA1dBTs4OsB/ni8caTEGL3VbZyOICsMVzBubMHIefBo7B2itxuTqRgvKXvLqLK3vnwX7UFjxkYw9J7C34ermgr8sOhAduwbjvrNGuxwTszVOZgutSAKkROLLYDWPHjcWI4S6YMf1nTN71HBlPLmHLVDs0b+4MJmY26L2K7VP6oHmLMfBLkiH67HwMaG2Bb751hvc1xZqq5NDdGNu1E0Ztu4MUReoKiiErlXaVeg8HZo/DBA93jHedgNkbrkJQ1eLKIr+vUO4vDNkzHGF6v7HyTHi7NIGOcrccWTTOzv8eXTt3Qg9nb1z75yvUbtEIstMT0bXTKGy7k7PmBfgBwUDkFGDDbCBzactU2DVX6LYw03B1+xT0ad4CY/ySFJel/4OLa5i9Mlk4O9hjnO9jaIhU5aMKKd6+Y+ep68PIINvpfkw7kMbdweEV4zHgZ28Eh+yDx/cdYdVpOFYHvEZy2B5M7W+DNh0HYemF+CzbEMkewHfeVEx0tEP3/u449VITImkc7hxegfEDfoZ3cAj2eXyPjladMHx1AF4nh2HP1P6wadMRg5ZeQHxOI8tJ+mOcXOIOzw07sHHdHtxIJGjoVsP/NKLgO9ceLTN1/1UwDs5h2y1GYJpbRzQdvFVxfdJt7Fk4G3NnZ/qye3j6uwNqN58OfybWouy9xPohy+37WMEQXIDvKzrf3BTsd27Db9lY9Ff6HTlMzx74zsPUiY6w694f7qdeQlNUfP9a4voqkcVcxPrZme3viq03XyuPFLOfKg2Utx+/QKT0aHl70hRXJccTqcp9hSAJI88W2lSj2zRaf/QGhfw1i9pUNCXH4+/YwTS67FaPdDqvo5fy29HCdl0q13ICbd74O/nHSiktZDl1ajaKTiYIx1Mo2KsjGZl2IdcpLuSx6xJdWWtPphrVydbFk7aeukB+rs2ovMlQOpzMTpc8oo29TMl21WP52o/Eo45kXq4hDVt9mG6wtHOTQcFzLEmn3VISlmVI4x/Q5fUDyUzDnDpOXkPbvMbQz0tOUVTARnIw16IWnmGUnhChOn+SUJhnC9Ku0Y2mrT9KN0L+olltKpKp43ESap8bKcUeG0WWHX+hmynC5ks68KNZ1povSdgiaq1rS6ujWbnTLtOkejrUftlDeb3Sgr3I1pLJKF5I5x2FLO9Exub2tPNx3joyMoJpjqUOtVuqXAPC2mdRa12yXS2sj2Hyn8Tao/0yeqhImLxsLWmUImF6J7SFsTnZ71TIMzcpdGW2DXVbFCyvW9rFiVSXyW7kGaYfrLxurLyd171UXCds1y1HLSdspo2/+1OuppAmUMSVtWRvqkHVbV3Ic+spuuDnSs3Km9BQhVBZkT2phXYN6jZtPR29EUJ/zWpDFU0dSVCpwuSUUWRb5SHlCs226UaLghV6enFiXdIwH0lCdQrPX0qJUQG00cGctFp4UphESgkRV2itvSlpVLclF8+tdOqCH7k2K08mQw+TXEVV1CUfkru0vk8bGrL3oXydizRmN9mbaGW1ZdplN6qr05nWKYyJ0i65su1utFHefGl0cw6rb51xdD4z7eQTNKb/wnzrB6VFyUqlXaVT2KLWpGu7mhRNMInq6bSnZQ8zipSFoIuF+4r8pOzsQ9oa9ahTt3pkbLOM7uZY65KLtJs0h+VTZ9z5LLtLPjGG+i8saD1abj/ACqXahuW6nFO3L5Er2+4mFzq7tkBZCGfmzacAUnZSH20NarskgqWURs9OTaVWeuWpwZgT9A9Loizs4E3UNdoypCZrs940Y6MfBdy5TCt6VSGt/+tH7kt30vnbgbRzcG0q12we3RHkn3KZZtlPoONyHUwm/8mNSdNsKB16HEXXtgyhmizf3jM2kl/AHbq8ohdV0fo/6ue+lHaev02BOwdT7XLNaJ48oTxIY+nYKEvq+MtN5mkE93iAfjTLXvMl6H69nLov2EK5ljRh80b63T+W7Qih5Z2aMV8m70gohfnMjkam1MV1CrlMP0zPkgq399y8h36o8n3FzldVe+f1O8LZKXR5lj1NOK7IN9l/MjXWNKOhBx8W6V9zU8L6Ftb+zBxK1E99IF/wzBdBKhFuW6lBmPkvGhFMrIfCqacFGlr1QofqCYiKUET3IuGWQQ5EIhFEBg1h5zQIrY1TcHzREoQ07o4OesJRHTQeNQG96BxOi4dgrkNbNLduhCoaZujqOg1Du1ih5w9dUOvNQ0T+w1JPu4yT59/BxLSSfBpS16otvkYspGadYWGsuuAi/TpoadUQJuqV0H7wCAxx+w3ek7ugpmU7NKyimHYV6dVWnb8SkYk1hjr1hEVDK/TqUB0JURF5nkhhSMKxYe5uGA5wRBNh6C6qhM62FsicO1Sr3BZD3J3RyZiNRkIjEacmQ2JCIpNhEo4t8UJYkx7oIF9IpY2GI8ajt+wQlnjfkF+rErXKaDuEjco7GUMWG4rIODXIEhOQyMqXdGwJvMKaoIciYWg3HIHxvWU4tMQbN/KOkhIP49f1UtjaN2AlENZ3TYfPiZ2Y2EqLbbE2zdXMbJu1s0FDOzgNao1cTSHSYyNRazSqogGzrq6YNrQLrHr+gC613uBh5D/ZI0KRCayHOqGnRUNY9eqA6glRiGBCLUxOKGZbZZJ4+Fesl9rCvoG8Nmgz3Qcndk6EvDoCBebPdKymJdo1rKK8PSBi2TaHdaMq0DDrCtdpQ9HFqid+6FILbx5GIivbQuqSl5STS/BLVHu49Kshv80vMmyEBqY5bgEItqP8KUcsziF3TTQZ7YYeyfux1k8x8xV/wg+vvx2E+nnuIhSp1yrtSozKbYfA3bkTjGWxCI2Mg5osEYomKIYsWIqF+YqCqYjqTWpC49JM9B9zCE8LWl+m2QSj3Xogef9a+MlnvONxwu81vh1Uv9i3cQq3YUGX5acoEStug8pRK0QWhdcmP4RXgb/j1/lzsfysNhy2XsGlld1gmJnnR7aDr2p+A+uGVaFhaIEBQ/ugRaM2GNy7KcRpVdF57I9o36QZ+vZqDu2nUXjIfELK6fXY8TgFYbtWYvlyb/irNUWH+lI8e22Ob6wboqqGISwGDEWfFo3QZnBvNBWnoWrnsfixfRM069sLzbWfIkpIKA+S8A2Yu9sQAxwVM5uiSp1ha5HjzgprhNwuRmgXAzS0c8Kg1sZIOr4IS0Iao7uiI4FO41GY0Itw7rQYQ+b0RvmjRdh7EajUDxW+T6Ok+RbL7zBSTmP9jsdICduFlcuXw9tfDU071Ic0Oql4/rUICqtvoe3/LOHD+qkSksskvyzEMKn3PxgyJ/b4kRAAlAQtaLKeIyM9jbmVIpBE4lZIHNQ1tbMNq1xjNK4DPIt8qLhfLhiZWg7t1tJgKiyFVMpS12yIr+ulI/RWuPxcWWIikrTqo3H9HEarCpauSI2lp5HTeti+nC2rKv8C0FJUHml5DycH4GoIoaLeV1mKI2aRbWbKIoPW6N3yGbzHe2B7uD6qVRIJM6tyGd0OiYdYQyNbRtqN0IjJ6EnEQ+UOFTAH1bp3SzzzHg+P7eHQr8Y6VJYuQYLI2yGIF2sgu/raaKRIGA8zZ5+VSJ7ex8MkGSuTcofIEE2+bY96Ba6rKQrBQanlcKZa0GBik0qlBeuMliaTeQbSmVALlZNAsdtKgqf3HyJJJshBgciwCb5tXw8FVidH/gJquRREyJa1Y65s5ZVBgSqSJ61sJIgKuoU4XUMY5UirJIiM+8J1qDFOLNuAkPTn8D1G6DHAvGBHpUpWKu2KdSyte6PlM2+M99iOcP1qqCRiclRWp0SyKI6vUCuHBqP247hXByRs+RHdxxzG83wBmAjGfV0x1PgElm0IQfpzXxyjHhhg/n4uulAbzodqWRQPFoy2HoJJM3+B15I5GNunMfQLK3ap24ECoc1yosF8jVCJzLNF6hpQl7Hr2X+xUY+QyAI/x4kTMZH9uS3egdN/7IBLY3VFvspr5LB0NFgqWfIQqUNDXSaoQz6SA64ihCpC76vMFHIGuUXBfNmtEMSpa0I765JyaKzoSJgvK6G9F0Hx9eMD81Xhd6SxUXiUyAbWjop2mOi2GDtO/4EdLo3Z0RL61yLIrq+K9v+/xx/WT5WQwkzki0DHdgjsa0lw5YBPwU8zJd3G1TvJyo3CkRu2VJYrgBNUUa4EokqozEbSrx7cyzEyZqN5ZqTV/pd7kX+BqH+NKVvmwPz0fMxc9hsWLb8Lqy3bMK5ecce7ZYhYG9oaqXh4L/d6H8FhCrJIOTcJnUbeQXvPJZg80BLGmRFRpozuhyMmS0bCMXVUr1NLsamKlHOY1Gkk7rT3xJLJA2FpnGkcIlSqbAzxq/sIz05YkXL1OqiVR/giQyPoyYJx5tTT7LZMvoLjZ4V1e4KxC82cu5VL2AsVi0LlVCJEMDTSgyz4DE49zS5z8pXjOFtGT4zlRw2a2qyLjApHeGGv7FETOjepsMY7G0F/ssSsieajx6J9lDe81nrjnL49ehooD5UElXaVgnOTOmHknfbwXDIZAy2NcwTvH4vyaDpuH47/ygKwzYPQbWwBAZhmc4we2x5R3l5Y630O+vY98T5Vz49iMJZXtxWBzqeQhYLSsYOSIoaugR4klw/iYA67kUYHIehJQZ1E8RFra0Mj9SHu5VoAmClnhjywy6v7mS4m05c9wL0cs3tido16tf8xX/Yx7V2V7/t4+Yp1DaAnuYyDB3P4Y2k0goKeKDc+Bira/5nhh/VTJeSLDr6gY43ZG9xQL2gOfpp5Ek9yfL9C9sofm1bfgkYt4YkvZiBM2NkdgAKF0agzozAC3Q+A/6t0xN/yg19QAmRvU5AsNJDIBP1H9odxwDZ431D2OG+CcPOVDUYPs1A87sqUWsbSyp2+clsWixMrz6De0t+x2HUsPFZswHy7woI21rlpqoMS4xH3LgrB4YpFgiSM57L1iKFIW8hTjqr8hV8FV56dkYfyHWHX2QDB3u5Ye1NYrJuMB5EvIElOQPy7dDy/FoCIt+nIkMiQEnEBQU8lSE2Jw927qbBjMqrEZLQuQLl4OOEqAmM7wHlYU8V2TtTYaEmdkBgfh3dRwQi5ew0BEW+RniGBLCUCF4KeQpKagri7d5FqNxL9KwVg27oA5YLsBFwNjEUH52FomudZY1HlHrDvqI5zs36E29bTuHh2N+Y6b0N0TSPWzCxANCLcD/DHq/R43PLzQ1CCDG9TkguZNWUyFUaDeeSWtc3+LxNkrNhSIpwvLVxOYY/kDlBVW2UjQuUe9uiofg6zfnTD1tMXcXb3XDhvi0ZNI2bWheav/CX8yDGalbF8hX25zs/cLiKtbMSo3akzGsTtwSTndTh/9xFCTh7C1RxOWlzJGIYUievXEpAefwu+BwIQL01EHLOtzLNE5g5w/UEb+z2OoIaDTb6nArN4X7uSPse1gAi8Tc+ARJaCiAtBeCpJRUrcXYQ9EjpHFbIQ0i/QXPLsUJLBdFZoc4l8xqY8vh7LArClVoj1HoQuI/cgItc3dUQwd3DFD9r74XGkBhxsCqt5fj+g0obFlWBsSIi8fg0Jgm77HkBAvBSJca+YTamShaxAf5MLqQRSlo9EqKdyVy7YsY9rBwrk8hfOV27Lybkt/GYyErb1utqji/g4JnYbjMX7/8TfJzdjmscxvDFggbn8GuFcxWUKcm4Lv1mdch1XUL6jHTobBMPbfS0U7vEBIl9IkJwQj3fMQatXqgwjuo8AfyZ3pvt+fkFIkL1FiqIjgUl/5suMmS/zvgFFT/IGQTdfwWb0MFioF2HvuSihfqj0fSXJlyHIRi7BnGTLT95OmX5Hryvsu4hxfGI3DF68H3/+fRKbp3ng2BthyFGEf81FyepbaPsbmcr78mL3Ux8Kq8wXT+KtnTS1Xytq2LgV2fYaQIOdnGnCnN0UnCQ/SsE+rtRWT52MbKbS3sAwCtg9iaz11cnYdgYdDU8m6TMfGtFEn8rp16Xus47RkSnNqFZbR1p64q5iES69ocB1w6l96x40coYnzZs6lVZeiFUsXkwMoYOTrUhPbEQ27j50414g7ZlkTfrqxmQ74wiFJYbTb12MSV2kTlo6FUhX35hM61iS3awTBb74Ly1wEdmaGlLtbz3oSNgN2je5PRmKK5DlzxvoovyFjG8o5OAUam8gJj0rN/K57K8y/4CrPuTaVo/UjWxo6t5ACgvYTZOs9Und2JZmHA1X1i8baewl8vr+GzI1NCWLrsNprrMtmTW1oynel0lybysNamBAejVa08C5vrTZqRbp17WjlYGCoAUZDSMrSxtycJlALo6jyetv5QLPfKRR4CJblkdt+tbjGEWn36OtgxqQgV4Naj1wLvludqJarC3sVgaSPOXAdTTMypJsHFxogosjjfb6m5RrWvMhjTlPCwdYkKnuV1S5sR3NPfOcFGuJpfTMZwQ10S/HytydZh07QlOa1aK2jkvpxN28UkhkMp5MVnpipjPu5HPjHgXuydaZIwFXyce1LempM5lP3UuBYQG0O0vmRynkZiFyOndNta7I9TUnUoo5v5AGWJiS7leVqbHdXDrznNUmMVhl/kHXDtKU9gYk1rMiN59gehR8kCZb6ZGY6YC7zw26F7gnWwf2HKIdKtJi5pGHFArZ9jO1NtOlCiaWNMzbhzxyPjwhfUYHRlmQUUUTatjdnfz8JlPzujbkuOAQheVISxK+kDrYLC78JYkfZFcSurd1EDUw0KMarQfSXN/N5FRLn+raraRzTDaFyuJIAF0twldkk0z3zm4h929NSCzSo5YjV9HhOwmsxZIodP/P1ERTjaAmJoOm35P72rP0KKueEgpf2IFsFqt+iWtOP7Dv7L4ibJjp9oFRZGFUkUwadid3Pz+a3Lwu2TguoENhrwuVhWC2OfM5JiyMz0HyvbO01aMTmYhFpNtyNK07epvicp5ShB6Wlh0khR2m6basrfWtadKeaxQVepwW2dUg9XIW5LThAkU++JNWONQjDY265PDbBXrCIuHY84uo/9eVqZyGDlWx/JHWBL0REqLD023JWF2frCftoWtRoXR8kR3VUC9HFk4b6ELkA/pzhQPV09Cgug6/0YUneVuIpXvJi77/xpQMTS2o6/C55GxrRk3tppD35Wi57vuMaEL65Zh8u8+iY0emULNabclx6QnKdDGCLxvevjX1GDmDPOdNpakrL+R42KcQey+AEuuHSt9XzHxL6HcSWL2ksedpUf+vqXI5DdKpYkk/rgliPUUR/jW/IyxxfQtsfzkl6ac+DDXhH2UcxvkUpIdj+y+nYPZTL5gkx+P1mxQkJT7D1a2HoLVgP6b932d4+/GTIUV6ujDK+bInbL8oJHcwt1Ur/DnwDs5PqoXiavPrQ2PhFucOb0fl+9ZKyr/Wrl7j0Fg3xLl7w7Fq2eq5ND0dapqa7ydvTqkiTUsDaWmV8YtCJUhNBbS1P8HrSSXpkKhrlnF9Py3czj4pUkSsHYMFD6vDok4dNGzaAm2sbdClRwc0aPANLM144JWNBKGLrGBY0wlHc73wifPFIEtE1O0wvIi7ifUHxLDr956B17/QrmSJUbgd9gJxN9fjgNgO/co48JKELoKVYU04ceP69CTswyAzI3RaXpbfhJQhZlt/VKncHWtVfT7lY5ByDE41DNFuQSjz8v8d+MzXJ0WG+POe+H7IctypaIE2jc1QQe0d3qEauk2eg+FN3+sxvC+Yt0hMFENPr7BnnDmfG+kxPnBqNggBfY7jyopOMFAxtJVcnwHL1gsQWq4xft52AmvsTN8z+Pq32ZUE12dYojXrfMo1/hnbTqyBnWnZj4vfJiZCrKcHbl2fntT4OEh0DVGhTMcJbxEfT9AzKF/mszKSpESk6uiVcX0/LTz4+hyQxOFe4A1ExMtQsVoTWDaukvsN2BzOvxFZHILPXkRksuBiRKj4P2vYNNJX4diTEekfiATzlmhmXgoW8G+yq+RI+AcmwLxlM5RG1TkczucND744HA6Hw+FwypCyn9vmcDgcDofD+Q/Dgy8Oh8PhcDicMoQHX58Lkkj8uW0z9l15gTJ+1oTD4XA4HE4ZwoOvz4TUC8sxdukVaFarzBuFw+FwOJwvGN7PfxakIehGeUzzW/tJHjHncDgcDodTdvCe/mMjeYVbviuw4WysituJGvhm+ER0Mf4X3HBMjsQfG1bhUKTi9X+yBH94z12PS3HFKHuxZFE4yZF/YMOqQ1BmzdJ7Cv+De+EXEP0Z3qqV4NUtX6zYcBaxBRVOlgB/77lYfykud9llbxEfE4OEwj5MXRRFyliCp/4HsdcvANElEJrk1S34rtiAswVW5n1IR0py2nu2mxQp8TF48eJFIX8fID8BWSJCTu3DvrP3lN8L/QhIU1g7Z5c5JuYlYuNfI/U93qqp2gaL0MOPhhSpScmslZVI0pGeK/90JL2KwaukrDM+I4onM9nbeNZuCcrvMBZAnjbO96e8tni29QnkVZiP4pQOwqsmOB8J6T8UtNOFWupqUquFhX+rTfJgFXWpZkB6VfvRzoI+6Pi5kBxCB6Z2JBON2jTu7zT5LsmDTTSoTX9aHZoh3y6UYsqiMJJDDtDUjiakUXscKbNmvKObS23IpMV8Ci1pgh8VKf0TtJNcWuqSZquFBX+fUPKANg1qQ/1Xh1K25CT0YFUXqmagR1X77Szw254qKaaM391cSjYmLWh+MYUm/SeIdrq0JF3NVrSw0I8tloQ0uvDLVFrpNYxG7flHua8ESEJpfksTatJzMP08cgQ5tKlCYq261NVpJI1w/J461NKnTmtjlCe/D1J6fnA41TX9iQ7m/4xc6ZD6nG4c+5X6VhOTyMiSBk6YQXNmT6PRDt9S82860I9zD1PEO+W5RVC4DRZDD0uZd5HHaJGTHX3n4EyTZ86hWdOnkqubB7kPcqJVUdkFSL44mSwr65NeQ1f6O9/3QT8lxZQZs99VXaqRgV5V6rfzeYHf/pOEzqeWJk2o5+CfaeQIB2pTRUxadbuSE9NZx+87UC39TrQ67FqxbOuTyKtAH8UpLXjw9bHJCKY5ljqFd4bSaPKd4UbbQxPowQE3cvA4SfHKQ58T0pcXacviBbRgVj+qp2FE1s6L6EBICU2yKFkUiJReXtxCixcsoFn96pGGkTU5LzqgPMaQvqDDY53ot8jip5gXacx+Wv374wId6PuTQcFzLEmnBJ2eNNqXZrhtp9CEB3TAzYE8Tr6HJhRLxlJ6cXgsOf2m/Nh1McgInkOWOqUVfDG//i6eLqz3ouPvM9hIu0arFh+lBPmGhMIXtCRNve9pf4p8B0mfbKFfNkQqNt6bFLrh9RO5nylmBPReJNPOPuVIo+UCCs8h1jdBK6mnqSZV6b6GQrMGGu9LyfXwfUm58St1Mq1NP+yMZOF1NtKXZ2iCZUuaeUPpLzJCydttDp18HkeBaxxp6PLbuc7/9BQlMylF+84gt+2hlPDgALk5eFBBppp2bRUtPqrQUpKE04KWmqT3/X6mWQJSerLlF9rA/FaRtlVW8pLG0P7Vv9Pjz3j8/yXBg6+PjSSMPFuo6AwzXtKL2OwjqdHPc3zF/jMiNZYiQ0Mo5MYSsi1XjYbsDKYniSUsaFGyKITU2EgKDQmhG0tsqVy1IbQz+InyiJK0F/T8fYUmeUx7f6xLHZYWPxApHhIK82xRok4v4+ULylaFVIp+HlvygLDYMk6jFyVIXxLmSS1KMfgSgpvY2PecVpLG04uYzKAof/BF0kR2vGTTAxlxURT5Mk+XJo2j59GZiX4MUmh3vwr5gi+hY471GURV1XWp0+oo5b73peR6+F5k3KJ5zcuTXs9NBc7YJv25mH49n6rciKGYrKaXUuLz5/TmPc3341CUzDLo5YvYbPtKjS7Q/0jjX1C2muYNvgQ1ZceZmhZpW2UiLwk93vsj1e2wlD5gHMspAV/+mq/UCBxZ7Iax48ZixHAXzJj+MybveoJHl7Zgql1zNHf2QQJkeHF1O6b0aY4WY/yQJIvG2fkD0NriG3zr7I1r8nvxyQjdPRZdO43CtjsFrASRxSFgiydmzJmJcT8NxJi1V5BrCQa9QaD3ePTtaI1erj6IzPyCqEiGB77zMHWiI+y694f7qZfQLGarpEYcwWK3sRg3dgSGu8zA9J8nY9eTR7i0ZSrsmjeHs08CK9cLXN0+BX2at8AYvyTIos9i/oDWsPjmWzh7X1OsaUgOxe6xXdFp1DYUVLX0xyexxN0TG3ZsxLo9N5BIGtCtVg/m5eNw228ZxvYfhS0PpYAkFrd8veDS1wU7wgOxZdx3sG7XAxP2RiDXB1MLk0U+0vH45BK4e27Ajo3rsOdGIkhDF9XqmbNjqbh3YDbGTfCA+3hXTJi9AVcTsgX++tYueE7zgIfbcAxynAe/+2+VR3Igi8W5xeMx68hDRJxYALepW3E9naV87wBmj5sAD3dnONiPxrqrgoYoeX0LuzynwcPDDcMHOWKe330UkHIOCG8CvTG+b0dY93KFj7yyEry67YdlY/tj1JaHWR/PFckewHfeVEx0tEP3/u449VITouLKNC+FyDi7buPhOmE2NsjrJkHsLV94ufSFy45wBG4Zh++s26HHhL2IyJMJvQmE9/i+6GjdC64+kYWWQRYXgC2eMzBn5jj8NHAM1l6JQ8aTS9gy1Q7NmzvDJ0EHhpIQbJ/SB81bjAFTTTkqZZ+JSB8mlbWVGwUg0oWJYQpuHfTCmH7O2HzpAKb0toHdzG3wnWuPlvL8WRlfBePgHLbdYgSmuXVE08FbFdcn3caehbMxd+4vmDFpLGvje3j6uwNqN3fH8cCi5CRD/LVNmD17GdYtm4bRE5dg087fsevwdeXx4iCCca8f0aNyMi7sO6jYlXoPB2aPwwQPdzg72GP0uquQq7vkVW4bLJSC9FCBSlspyq8pSbu0GdtuStG8Rw+YFOC/KtiMxPCmGooN6Qv8uSLThn7GyoBkiNk1kthb8PVyQV+XHQgP3IJx31mjXY8J2JtDCWXx17Bp9mwsW7cM00ZPxJJNO/H7rsO4nmu9VHH0uTjtVJjMRJA98MW8qRPhaNcd/d1P4WUBTlukbwLVasqOl1duMAq1rULkVRx/Wzx5yRB7bjHGzzqChxEnsMBtKrZef5vbR72vH+IUjjII+zKR3KX1fdrQkL0P5dO00pjdZG+iRe3ksxxpdNmtLul0Xkcv5aOINLrkyra7bVTc9ku7SXOalac6485T5uAl+cQY6r8wNHvEk0UKXZltQ90WBcvPTbs4kepqmNPIM2ykJ5+J0KYa3abR+qM3KOSvWdSmoik5HhfOTKHLs+xpwvGX8hmIZP/J1FjTjIYeKvp2k+TueurTZgjtfSivGcXsticTrXa0VBi2pF0mt7o61HmdIl1Ku0SubLvbRkW6aTfnULPydWjc+aya0Ykx/WlhAWuApLHHaJRlR/rlpjBek9LLAz+SmXLNlzQxigI2OpC5VgvyDJOQNCGCrqy1J1ON6mTr4klbT10gP9dmVN5kKB0WJiJUyiIvbPR/bBRZdvyFFFm/pAM/mmWt+ZKELaLWura0OprVkNV3Uj0dar/soby+acFeZGs5Snkr4B2FLO9Exub2tLOg+XTlbTqFTjBYGRe11iXb1dEsLaYjk+qRTvtl9FCRMHnZWtIo5T2GdyHLqZOxOdnvLOiWpWL0rF2jG01bf5RuhPxFs9pUJFPH4/ROmkhRARvJwVyLWniGKfJNuUyz7CfQcbkyJpP/5MakaTaUDj4sQqZ5USXjwuqWkUARV9aSvakGVbd1Ic+tp+iCnyvTERMaqsxEPjrXrkHdpq2nozdC6K9ZbaiiqSMV2HQpV2i2TTdaFCwcTKOLE+uShvlIEswh7bIb1dXpTOsURsdU05VtdyO5aqqSfaEUMPPFkMY/oMvrBzJdNaeOk9fQNq8x9LPXJXn+9XLmL5SnXEuasHkj/e4fy3aE0PJOzVgbK24XpTBd6mhkSl1cp5CLxy66dLkIOT3aSL1MbWmVXNcS6aijOZVrOIxWH74hP56JNO4crXQbQz3rapC4qjUNGzeexo+fQFO2BLGaMySRtLQtO2b6s7BBYYtak67talKo+yRWh/a0jAkmrw3mR4UesqOqbUWFX8uFlB4tb0+a4qrkeCLvsTwUakMPKS7iCq21NyWN6rbk4rmVTl3wI1fmg02GHmYWwZA8oo29TMl2lcLeEo86knm5hjRs9WG6kXPmSVoMfVbZTqpllnJ5FtlPOK7oN5L9aXJjTTIbeohtqKCAma9MVNqWCp+TUaS/Laa85ChvtbZTznzl8VHpReXFKTHFnGP5d5Jycgl+iWoPl341oMm2RYaN0MA0+7PpIlHu6ovZcEJN+RuaTTDarQeS96+Fn3yUEI8Tfq/x7aD6yPfh9cTD+HW9FLb2DSAMdDTbTIfPiZ2Y2EpLcZyNlEysh8KppwUaWvVCh+oJiIqIgyzlNNbveIyUsF1YuXw5vP3V0LRDfUifPVNeVxgpOLnkF0S1d0G/GvKawbBRA2RXTcTqpvwpR8xGSlk1Y1UbDbceydi/1k8x8xV/An6vv8Wg+nlrJkH4hrnYbTgAjk2Er/2KUKmzLSyUA1iRbk1YtmuIKsrLRHq10dy6EapomKGr6zQM7WKFnj90Qa03DxH5T+ZIqxBZKI9mIQnHhrm7YTjAEYqsK6GzrQWUWUOtclsMcXdGJ2M2aguNRJyaDIkJiSydJBxb4oWwJj3QQV84UxsNR4xHb9khLPG+Ib9WJWqV0XaIO5w7GUMWG4rIODXIEhOQyAqYdGwJvMKaoIciYWg3HIHxvWU4tMQbNwoZ/olMrDHUqScsGlqhV4fqSIiKQBx0UdOyHRpmCo6Rcno9djxOQdiulVi+3Bv+ak3Rob4U0UnViyHTvBQi48LqBj3Ubm6NRlU0YNbVFdOGdoFVzx/QpdYbPIz8J7ttRCawHuqEnhYNYdWrA6onRCGigGmQxMO/Yr3UFvYN5NaANtN9cGLnRMjNgSlmbtUUI0s1Vci+pIj066ClVUOYqFdC+8EjMMTtN3i7tZXnn20JDKE8IgM0tHPCoNbGSDq+CEtCGqN7Bz35YZ3GozChF+HcaTGGzHVA25aq5ZR2+STOvzOBaSWhlrqwavs1ECuFWWcLeXqZiAw6YJzXYjg01oLIvCumLFuBFSuWY/EwS7mvEmYjZMJXdzWFLTVUbjsE7s6dYCyLRWhkHNRkiUhggslrg4VRoB7KirCVIv1aJgSpRML+VVPMyKigcBvahKjqzWHdqAo0zLrCddpQdLHqiR+61MKbh5GQq3raZZw8/w4mppXkOqRr1RZfIxZSs86wMM6RsahofS5OOxUssxScXr8Dj1PCsGvlciz39oda0w6oLy3KZxdBIbalyufcqlCEvy2uvApClNtHFc+3c0pCES3wb0aCqKBbiNM1hFEub1tcRDDu64qhxiewbEMI0p/74hj1wADz/CKTPL2Ph0kyZH2iXGSIJt+2R72vlNu50JL704z0NEhio/AokXU4jhMxcSL7c1uMHaf/wA6XxspzC0EShaBbrAs3NMrdkRQXkTH6ug6F8Yll2BCSjue+x0A9BiB/1ZIRcDUEVFEPX2Uey9lZCqjl6UyFzkwtxwlaGqwzkUIqLej77dmyyHc0OQBXQwgV9b7KSj9ncCwyaI3eLZ/Be7wHtofroxpzomwwwWQTidsh8RBraGTLRrsRGtUBnkQ8VO5QAeuIW/duiWfe4+GxPRz61ZjjEtZGMn2KvB2CeLEGNLITRiNFwnhYjCfAtRSVRZq8smqCqJRIERv1CIksoHQU9ID9uS3egdN/7IBLY/USyjQvOWRcaN0EhCBELYc+aUGDXSeVSvO3jYCWJitDBtIVlcmBBE/vP0QSixwyj4gMm+Db9vVQoDnkRGX53gMmM5Eak1V2gxUBa+NbIYhT14R21iXl0Lgxa+Nnkco2Vi0nzYZfo156KG6FCyezAUFiErTqN0b9zFFDcUkLR3iUDNr/15RtiGDQujdaPvPGeI/tCNevhkoiYb2u4tR8NlgEWXqYodpWiu/XxDCp9z8YsgHq40fCAKgwirYhYUCcW9XlwoVc1TUb4ut66Qi9FS5/hYUsMRFJWvXRuEDhlm47ZclMEosoVsfKbR0VPnuiGxbvOI0/drgozywFsmwro2ifo8o3lEheBZHTRzE+yA9x8lISm/2XoQZNbaYaUcyJFfIiFjVBs6RshKncFhA68CxV0myO0WPbI8rbC2u9z0HfvicMlIdyImJBkJ4sGGdOPc1OK/kKjp99qdwoGLGuAfQkl3HwYI7rpNEICnqi3CgENdY5aEoRFR5eyDtmFEYjleWqmSI4UaLZfDTGto+Ct9daeJ/Th33Pgmomhra2BlIf3su9LkuQ0ce2N7E2tDVS8fBe7nVFme2Tcm4SOo28g/aeSzB5oCWMM72TqBIqG4vx6n44YrKqLxxTR/U6tRSbqkg5h0mdRuJOe08smTwQlsaZHZMIlSobQ/zqPsKzE1akXL0OajHf/P6IoWugB8nlgzj4NDttaXQQgp6oWsdTQgqtW2kigqGRHmTBZ3AqR12SrxzH2ZdsWx4oSJFbNZX6VBblEzqQfPnLi8DIbOMHuJdjNC9m16hX+1+x2lj96ynYMsccp+fPxLLfFmH5XSts2TYO9YqYmcqNDNE+W3HsHxP0dbRj2yk4N6kTRt5pD88lkzHQ0jhHZ/wBFGErJfFrOrZDYF9LgisHfPC4IJVNuo2rd95+mA2pf40pW+bA/PR8zFz2GxYtvwurLdswrmTClfPe7STWhYGeBJcPHkS2eksRHRSk/F2afKDPKUV5cUqfLzj4EqN2p85oELcHk5zX4fzdRwg5eQhXhQ5AebySsSEo8jquJaQj/pYvDgTEQ5oYh1dZbwMUwdzBFT9o74fHkRpwsMmxOjIHoso9YN9RHedm/Qi3radx8exuzHXehuiaRuwo61hYcnmDFXkgpNcV9l3EOD6xGwYv3o8//z6JzdM8cOwNC4RSrmPjhJGYfbCARc3i2ujUuQHi9kyC87rzuPsoBCcPXUV21SrB2JAQef0aEtLjccv3AALipUiMe5X9okORORxcf4D2fg8cqeGAgqtWHh3tOsMg2Bvua29CWBOd/CASLyTJSIh/J8St8ooRc81Z9WO9mkzYl6u+mdsqZJGX8h1h19kAwd7uWHtTnjMeRL6AJDkB8e/S8fxaACLepiNDIkNKxAUEPZUgNSUOd++mwm5kf1QK2IZ1AcqnBxKuIjC2A5yHCbMIeWCBrKY6ITE+Du+ighFy9xoCIt4iPUMCWUoELgQ9hSQ1BXF37yLVbiT6VwrAtnUBypdvJuBqYCw6OA9DU3X5jlxQwZUV+nrhh/yQICsBva726CI+jondBmPx/j/x98nNmOZxDG8MmKNUKdO8FC5j6fPC6haGR8IgRJitynNh1jb7P2tlZdkzKagMIlTuYY+O6ucw60c3bD19EWd3z4XztmjUNBIx1TSGIUXi+rUEpMffgu+BAMRLExH3irWlyvIpk88HQcLOJ4kkv50wWK0VeqpEvVJlGNF9BPgzW2D5+/kFIUH2FinJwkkimPRnbWzM2tj7hnJg8wZBN1/BZvQwWMjbWLWcZLEnsPJMPSz9fTFcx3pgxYb5sCu0l5RBIs1bMSlenpuHQZP/QCWntVjSx5Dteo5rARF4m54BiSwFEReC8FSSipS4uwgTBMPyzmWDeShUD0Um6K/CVlT7tTzoWGP2BjfUC5qDn2aexJM05X6G7JU/Nq2+BY1aFRXyVWFDMqbrgixzlTZzWxaLEyvPoN7S37HYdSw8VmzAfLtaKFi6H9ZOhduuHrrad4H4+ER0G7wY+//8Gyc3T4PHsTfKkwqBJMxXMV1lepoPlm7BtqXUR1U+R5VvKJG81KCpqQ5KjEfcuygEh79m+xTpZPoolXmxGsSeXw63OX4qbJWTC6aMXzApFLLtZ2ptpksVTCxpmLcPeeRYXC19doBGWRhRRZOG1N3dj/wmN6e6No604FCYYoGnHAmFL+xANotVP7ovjTlPCwdYkKnuV1S5sR3NPfOcnZ9IwT6u1FZPnYxsptLewDAK2D2JrPXVydh2Bh0NTyZp7Hla1P9rqlxOg3SqWNKPa4LoDUtP8mAF2RoZklHtYXRYWHiZl5QQ2vZzazLTrUAmlsPI28eDLHWUC+5JSs8OjCILo4pk0rA7ufv50eTmdcnGcQEdCsuxOlISTgs72NBiVc+gS2Ppktf39I2pIZladKXhc53J1qwp2U3xpsv3g+nglPZkINYjKzcfCn7EtidbkZ7YiGzcfejGvUDaM8ma9NWNyXbGHjq0Q7Us8iKNvURe339DpoamZNF1OM11tiWzpnY0xfsySe5tpUENDEivRmsaONeXNjvVIv26drQyUHgm+w0FrhtGVpY25OAygVwcR5PX38qHD/KRRoGLbFketelbj2MUnX6Ptg5qQAZ6Naj1wLnku9mJaunXJbuVgSRPOXAdDbOyJBsHF5rg4kijvf5WPrCRm8RgH3Jtq0fqRjY0dW8ghQXspknW+qRubEszjgbRtYNTqL2BmPSs3MgnWFjcLaXY84uo/9eVqZyGDlWx/JHWBDFNSAxRIdMjFJbrbQ1F6FvIzULqdo6VZzJZ6YnZde7kc+MeBe7Jvu5IwFXycW1LeuqsDFP3UmBYAO3OKsNRyt90Uoo5v5AGWJiS7leVqbHdXDrzXKlj0md0YJQFGVU0oYbd3cnPbzI1r2tDjgsOUdhr1bLPhzSObh9dR6OafUVqYlPqOnMrnYtUvC5CGn+L9k1uT4biCmT58wa6+Cw7f58RTUi/nD7V7T6Ljh2ZQs1qtSXHpSforrIeQhsPb9+aeoycQZ7zptLUlReUr39JpBBVcmKNIQn/jboYq5NIXYt0KuiSvrEp1bG0o1knnsvTziL5Hp3d6kHfmohJpFuXbAc60WiXkTSk37dkbetAHjuCKC5LryR0b+sgamCgRzVaD6S5vpvJqRYrv91KCoxm+pHTBhNyK6NqPQxnfk61rRTs1won8dZOmtqvFTVs3Ipsew2gwU7ONGHObgrO0YCF2VBiyEGabKVHYlZWd58bdC9wT3ZZj4RREvNXv3UxJnWROmnpVCBdfWMyrWNJdrNO5Hm9xYe1U5EyYz7x/KL+9HXlcqShU4Usf1xDgqkWhjTuNh1dN4qafaVGYtOuNHPrOVKqqdBARdpWoT6nKN+QWFx5KUgLXES2zM/X/taDjkULMszhoy77F+GHMujGgnZkUm8c/VnEMxccBWrCP8o47MtHcgdzW7XCnwPv4PykWije5OtrHBrrhjh3bzhWLeOJQjZy2TruV9T4dTFs8q5xzYPkzly0avUnBt45j0m1ijmt/PoQxrrFwd3bER9SNUl6OkSaml/YNKoU6enCaLDsayVJl0CdjUI5/z7Sw7fjl1Nm+KmXCZLjX+NNShISn13F1kNa8POdpjzr/ZEyW1P7KLYmRVoaQUvrM9a79HBs/+UUzH7qBZPkeLx+k4KkxGe4uvUQtBbsx7T/K/7ttNJpJwnSJer4bE21FOXFKX2+rP6yFJElRuF22AvE3VyPA2I79CvzwCsBt/dvRlxnF1gXEXiVDBkSo24j7EUcbq4/ALFdvw8KvNL9p6GpQUNM/FtY0vmlIEHoIisY1nTCUeXdmLIi5ZgTahi2w4LQgm6icT5rpBFYO2YBHla3QJ06DdG0RRtY23RBjw4N0OAbS+VJ748kdBGsDGvC6SMoZcK+QTAz6oTlWR9O/dyQImLtGCx4WB0WdeqgYdMWaGNtgy49OqBBg29gaVaCQKJU2ikFx5xqwLDdAnyeplqK8uJ8FP5TM1/pMT5wajYIAX2O48qKTjAodMQiwfUZlmi9IBTlGv+MbSfWwM60bIMvWfx93H1XHQ1MixN5pSPGxwnNBgWgz/ErWNHJAIVX7TpmWLZmnXs5NP55G06sscOHVU2GlMQkaOjpFrKW4N/KWyQmiqGnV6qRbzGQsNFpKnT0KhRzZpbz2SCLx3nP7zFk+R1UtGiDxmYVoPbuHVCtGybPGY6mRT7uWTRvExMh1tND6WtlKuLjJNA1/Fz1Tob48574fshy3KlogTaNzVBB7R3eoRq6TZ6D4SURbmm1kyQJiak60KvwOUqsFOXF+Sj8d4IvWRyCz15EZLJQXREq/s8aNo30C5/6S46Ef2ACzFs2g7nwnqnPGFlcMM5ejISiahXxPzbCaaRfeESVHOmPwARztGxmjs+8ahzOvw5J3D0E3ohAvKwiqjWxROMq3MpKDUkc7gXeQES8DBWrNYFl4yrv7cP+E+1UivLilC7/rTVfHA6Hw+FwOJ+Ysr2XxuFwOBwOh/MfhwdfHA6Hw+FwOGUID744HA6Hw+FwyhAefHE4HA6Hw+GUITz44nA4HA6HwylDePDF4XA4HA6HU2YA/w+lNPfNYKXpQgAAAABJRU5ErkJggg==;" vertex="1" parent="1">
          <mxGeometry x="540" y="200" width="206.73" height="28.61" as="geometry" />
        </mxCell>
        <mxCell id="LbAB_rmGIGJ7I_XkYfzX-37" style="edgeStyle=orthogonalEdgeStyle;rounded=0;orthogonalLoop=1;jettySize=auto;html=1;entryX=0;entryY=0.5;entryDx=0;entryDy=0;" edge="1" parent="1" source="LbAB_rmGIGJ7I_XkYfzX-33" target="LbAB_rmGIGJ7I_XkYfzX-35">
          <mxGeometry relative="1" as="geometry" />
        </mxCell>
        <mxCell id="LbAB_rmGIGJ7I_XkYfzX-38" style="edgeStyle=orthogonalEdgeStyle;rounded=0;orthogonalLoop=1;jettySize=auto;html=1;exitX=1;exitY=0.5;exitDx=0;exitDy=0;entryX=0;entryY=0.5;entryDx=0;entryDy=0;" edge="1" parent="1" source="LbAB_rmGIGJ7I_XkYfzX-33" target="LbAB_rmGIGJ7I_XkYfzX-34">
          <mxGeometry relative="1" as="geometry" />
        </mxCell>
        <mxCell id="LbAB_rmGIGJ7I_XkYfzX-39" style="edgeStyle=orthogonalEdgeStyle;rounded=0;orthogonalLoop=1;jettySize=auto;html=1;exitX=1;exitY=0.5;exitDx=0;exitDy=0;entryX=0;entryY=0.5;entryDx=0;entryDy=0;" edge="1" parent="1" source="LbAB_rmGIGJ7I_XkYfzX-33" target="LbAB_rmGIGJ7I_XkYfzX-36">
          <mxGeometry relative="1" as="geometry" />
        </mxCell>
        <mxCell id="LbAB_rmGIGJ7I_XkYfzX-33" value="Enrollment" style="rounded=1;whiteSpace=wrap;html=1;" vertex="1" parent="1">
          <mxGeometry x="583.36" y="640" width="120" height="60" as="geometry" />
        </mxCell>
        <mxCell id="LbAB_rmGIGJ7I_XkYfzX-34" value="_id: PK" style="rounded=1;whiteSpace=wrap;html=1;" vertex="1" parent="1">
          <mxGeometry x="770" y="510" width="120" height="60" as="geometry" />
        </mxCell>
        <mxCell id="LbAB_rmGIGJ7I_XkYfzX-35" value="id: PK, manual" style="rounded=1;whiteSpace=wrap;html=1;" vertex="1" parent="1">
          <mxGeometry x="770" y="640" width="120" height="60" as="geometry" />
        </mxCell>
        <mxCell id="LbAB_rmGIGJ7I_XkYfzX-36" value="title: required" style="rounded=1;whiteSpace=wrap;html=1;" vertex="1" parent="1">
          <mxGeometry x="770" y="740" width="120" height="60" as="geometry" />
        </mxCell>
        <mxCell id="LbAB_rmGIGJ7I_XkYfzX-40" value="" style="shape=image;verticalLabelPosition=bottom;labelBackgroundColor=default;verticalAlign=top;aspect=fixed;imageAspect=0;image=data:image/png,iVBORw0KGgoAAAANSUhEUgAAAjkAAABSCAYAAAC2R8XdAAAAAXNSR0IArs4c6QAAAARnQU1BAACxjwv8YQUAAAAJcEhZcwAADsMAAA7DAcdvqGQAAEc5SURBVHhe7Z0HXBTHF8d/VygiSkcUsGDBqBgRe0ERjb1gi8EuWLGCohJ7x27sKGDvJRrFkhh7QSyAImoARcWCAQ4BaXf3/nsFODooGuU/388HvZ2dnfLem5m3M7O7POIAg8FgMBgMRimDr/yfwWAwGAwGo1TBnBwGg8FgMBilEubkMBgMBoPBKJUwJ4fBYDAYDEaphDk5DAaDwWAwSiXMyWEwGAwGg1Eq+b95hFwS9jtW7bqL5IptMNypPSqrK08wSgXSuCCcufAM6SmxSK7RBT83M2EePIPBYPyf838yDkjx7pYfLr8zRce+7ZiDUypRh161KqggTMeH+BSwlz8xGAwG4//AyZHi/YXZGLr6PqJv7sP+W28hUZ75dhDj/pJWMK7UAWseipVhhSBOQFx8EeP+H5D2+ip+G+OMycu24nxYPFKU4QwGg8H4/6UEnZw0xEU+wdPXCd+WEyEV4R3fHot8veG9dxV6l32PGKny3DcDH5VtfoR+8kekZpuCkOJjzHM8fhiCp1EiTsIZJOGEc00YV+8L35efW5lUxL18iofBD7k84jPzSIuLQ6Ly97dPKt6lWcPz8l34B17F6sbpiP5CXo4k/iUehzxFVLxCUtKEeCR8c/bEYDAYDBkl4uQkBW7DCJtKMK5WG7XNK8Gy5wrcFClPfjapeOF/HBudm8DEQB/6+kao330sJo4Zgm6tW6CD41RsvBCZ55174oO9mNq9FX4avQz7zt7Ajb+OYsPUnrDtNB7bbsdyLoQCyes7OOHlglamBlz6+jAwt8Nk79MIfJdj9JJGYUuPiqhg2RYDXaZi2gg7VDOUlckY1r1dMd1tFHo2NIORpQsX9y3un9gI58YVYMClqW9oiZ5z9+BMUDSXrxTvg05i09hWMKtqDzfvE7ie0hW+989hhpWQyygBD/ZNRy/rmmgxYgNOXb+G0+vHoq11GwxfdgKhIg1Y/9QGFYVS/Ht9PZybmSnzsEDPjaGZjopU9AjntruhvUVNdJ7ujcvPs9wkxAdj/8zeaFSjIQYsOYhL/tfwh5cHBnXqisGu7hg2cBFupirjqiCN2oIeFSvAsu1AuEydhhF21WAoy9vYGr1dp8NtVE80NDOCpYsf3t7n6pipN0NYOizAgXPBiObEKn0fhJObxqKVWXV0mrkTlx6/QNDBmehU3VCuA30Dc/zkcQh33mToIBXPLm/HpLaVYdZ8FLZdD8btE15waWXK1b0iJ4+hcJk2HTPc52Dl1kUYUMcYBpUcsZ/z1D6G/Yn1zs1gpiyHRc+NCM0SEh6d2w639hao2Xk6vC8/V3EmVRA/xzFXe7T4ZQVOXj6P3YvHoP+giXBzXoTTnPHla0PPnuLP9c5oZqYIN7ToiY1ZmUP06By2u7WHRc3OmO59GRGRd3Fy20TYKuMbmNli4vZTuP/6LYLP7IR7h6oKeRtURNNRm/D77Zdg83kMBoORD7KNx59F4iVybfQDtXHoQ52sDEnIA4GnRjUn/k1JyiglQcoFF6oqkG21UKd266NIwoWlvzhOzrXViSfQp6buZ+itLFCOhGIu/krN9PjE1/+JNjxJV4ZzZ94cooFmAuJp1yeXE6/l6chJvUXT6whl8yik1nghhYiV4apIImlt9w60/EGK/DDl4gSykJdJgzpuiZaHSd6dpJHNnOS/uRh0dpQZCbg0oW5PG15n5iZHHL6COvbbRR+Ux3Ik/9Jf0xuTLp9Pxr18KVKlTtHHh1EVAY/4Ok1oko8f3XyukHDS+TFcuHwbCvG0rMn9Upw8XMEH2jVoCO1LVB5yiCOP0bgG5YmvVpOcTrzJkoGMxAfk1acKqZuNorOKamZDErmWundYTgoRpNDFCRaK+ml0JIUIJPTu5Ehq5nRCdkApZ0eRWabeVOQtQxxBKzsPoL0JymMS05N19qTD5+JzNmQzL4iyNMchiebq0pkW3c8oWCr5z6hLnFtIUGtGSx9nKS392V4aULMn+WYIN+k8jakikMsIPC2ydr9E2aS0axANURVSNtLp4bKWVE6/Px1QuUh0cz61NO5G3iJlQL42lETnx1RRyAk80rJ2p+wq2kWDhuyjzNzT79CvVmqKdBrOpeBMIYjpH88WpCZLR1iTplxNVYYzGAwGIy8+eybn4+1QWPx2E5eOHcGZgEtYYluO68bT8fzS33hSgreYPKEAAp7yQInQvBdWLBmAioiF/6rhmHDgjWJ2Js4P7sM94R/Hg1k/VwyvJZsdUcA3ccCUoXUgTAzG5tGTsD9jpoAvgDAjA4EQ3ICUB0KYOEzAqHoayuPc8I07Y9Ko5sojQE2YkTdX/hyJ8spooby2FrhBK5PYU+4YsfIORLwq6DdhACpnaogPoy5j8UttAaTxd7D/1L+obK4lPyPU0kHj7j1QQ53zMD8GYvWQsdj3ImPRUACt8trQyMhbHIK1Q0ZgS2ACytq7YUG3HE8hla2Hkds3YwTnveWJ0AQOE0YhfxHwYdx5EkY1L684VBNyUlMg5HSYDZ4mymiXgUamegSoNWohxtRRk9tQ4PbVOBWrPMWR9sAbf1f1wOQGGZnzObXxkd0sJHj2OAySqv3h4WSdJVuhFnQad0ePGupc2h8RuHoIxu57kbm0KtAqD+1MIeVAEoFTJ24jMSkcIf8kKQMBnWbT4elsAUlKYTYkhJZOY3TvUQPqPMLHwNUYMnYfslQkswONbPG5yxXwud8qFRRkGhGXV5ZZMxgMBiMPPtvJ0bIbA5fmOooDDUt0bleL66J5EBiboEKJLIYVjG6HHmiry2UkeYcT63zxWCLFy/2/4UCkGMQrA5tWzaBwBTIQom6ThtDjLpG+O4mNu/5RhhcBfiX8PLw7lLXNBy794U7K38VE+hIHNhzES4lssqEBmjfWVJ5Qol4fTax1OKVJ8f7UJux8mjFK8qHfzhO7ZzWDDp8gfnEILoNX4H4ea3gJp1dg9TURl4IQVnbt89aR7k9wm9kdZnmM+fxKP2N494IlAGFdDHdqqzwoJppNMeXX3vJySaIOYOG6u4rlI87R2LExGg6TW6CsPGI+SP7BsYPXkCir33hX9FSJzNdvB8/ds9BMNlUkfoFDLoOxIi8h5UIAPlceSr2HpV3bY8yWG3grd+A10GzkGNhq5yXEHPD10c5zN2Y14/RHYrw45ILBK+6zDdIMBoPxBSlC71wcJPj33zhIeeXRtm93mJRw6nmiWQu1qspGY0L6g2u4EZuGOzfuIlk22c83gqlZDkeBg29iAkNZ2SgNwbf8FYHfAml3cONusmxNgyu6GUxzPerOR6VKxnKlUfoD+N9W3RqshSYee7G2lyl35y+F6Oo8OLr64X3GlhY5qbh97hLeyXwjvi5qWHJxFSdyIECNTp1R9z+ZKeCjQt/ZmNRUCzxKReDGBdjzUoy3R9fgbvNJ6GZQkFGJ8eb0Kuy8m644LFsOOf0PrSYe2Lu2F0wFPEhFVzHP0RV+2YWUG0FV9BnyE2cznAP5/ha2jrNFbSsHzDn2GClVf4BlgV6XClpN4LF3LXqZCsCTinB1niNc/d4rZh8ZDAaDUeKUrBuSdh9n/nqJMk3csGhY5RJKPAE3ts7AjK03ECsfDaSI+GMR3KdOxfTf/kY0yqF8WcV8PoljER2Tgvj4JMXAIVsO0cy+mCGDr6kJRTDnGMXHy8O+CdLjEZ+kGPJ4GhllVIWPMmXKKJZnSPY+mMTsA6SgGoZs24HxdTXlDsJjLyc4eYerPO0mxus375SyKQcdndyy+SYQ1sXYOYMg812lsX5YOmchFp6uggmDq+RvU9KX8JvTFz8N9cVTpY+TNwJUG7INO8bX5eRLSH3sBScnb4RnCSkPBLBw9sHB2fYwVeNkRhLEP/4dC/s1QfORBxFRjGVZQbUh2LZjPOpyyqXUx/BycoJ3AZlLX/+F1e5TMZWz96lTp2OZ33PmFDEYDEYRKUEnR4LI3UuxM74TVu2cCZv8t60Uk3JoMXoZlo1uAX15afmw6D4Ly1euhOfEdjDmpSBZ+dw1j18OujrqMDDUVVSMG+hT8nhCCGnpyidoeNA0MJL/+q/g8VRUoGYAQ9nSGwelpiCvoqemKZ/M4ZWBoZGynirw9dvDc+9i2MmEJXmLU66DsTYk42keAbS1yyr3sKQiVTWDjxG4vGspXEeNhLOzM5xHjsGMNScR8qV9QK7+OesgQ6fDTLh34OpHYoTt3oH0AWNQr6CZJb45uiw4jltnZ8A69+Rddvj6aO+5F4vt9Lm8JXh7yhWD14bk/VRVBnxjtJt3HkE3fOHWqTq0+ZwUpQl44D0aY7ZGqDiShcGHfntP7F1sJ7dnydtTcB28FpkqygG/Unu4Ll+JlZy9r1zpiRldquYpLwaDwWDkpsT6S0mELyZ6RsNp3044W8pGIzHEX+PZVvFLvIiS3dvyIKzdDM2NNNG4VSNoy0Zy6XtEvcrtKojfvMF72ajEOQqNWjdTBH4hZBtjFRByfUAjNQ08TU2l08Gh3hitGmnLj6Xvo5C76GK8ffNePqDytBqhdfMyiuAcaNSfjF2bHVFVjQdKDIJ/8Ef5EpjsrcCNmjdEGXkGsXj5UmW5S8sCbQb2R8VHO+Ht7Q3fo3GwHtEDdQvZflMofEGmkeWsvszRShNoKsqTE4E57NrUViyn8XVgzOm1cHgo29gZg5pmrPNJ8OLRY+XvHGjUx+Rdm+FYVbbJORFB/sH4mLuACsSPcXD/Tc4J4sOg0VCsPPMQD07NRUdT2bUfcO3sZXxQRi0aGqg/eRc2O1aFGo+QGOSP4HwzZzAYDManUjJOTkogVrnsQKWl+zCzkTqSE97j4S4PrLic11xEySJ+cAnXZZtM+Hr4aZwT6gv5MOnjggFVhfKnaO7fupNjRkSM0Nt35UtfAtN+GD+wsjL8SyCESUUjhZApGUlJ2QcycdRb7k7dXDGQy+CboI/LAFSVPYf/8T5u3ckhP3EI/O/K3u8jgFnf8XA0z099fJj234BdUxsqnL1M+DD/ZQoGWchkk4r7V68iQXlGjkAfeuUVafLK6kK3KH5FIQhNKsJIWcy05GTFjwzEr/CGb4bKJbn3h18Zjk7doCv7/fEGtu25Lw/OC75pf2zYNRUNswspDxIRcmAfLmf6hJqo2nkuDm4dAnNOeeplymR7Qq5I8E3Rf8MuTG2ocGoZDAaDUfJ8vpMjjcWf0wdj7rnr2NLXAuW0taFd3hj1xzyAgVWxu/58IakUUqWPQFLl4oA4HL4Lt+ORpBysRm7DJqeqCodBtyOWbHdDIx1C5JHNOJr5QjnZDMlprN8dArF2A0zYthw9MzaycumLJcoMuPSLtO+Bi6coCUEiyesaAWp0646GWtwwJgnHg+CPynAZCbh2+j0a9azNuUJZ6HZcgu1ujaBDkTiy+Siyii5F9B/rsfuRGNoNJsBreQ9kFJ3SUpCQkvN7TTpovWAvVnRWbFTORK8zPPcsQFtjPqKPr8KGwM97vkfK1VsOcbKQ5CGBGt3QvaEWN5BLEBZ0P9uMh+jKacQ06oFamV5edqQZ6ZEUeSTNwdmEWKKsdzrSxbJffOgZGUCQ9hzHpozHH+lV5Gdlm8xTElKQkl1I0Gm9AHtXdAYnjgKRPt8F9zl/ZdvIXUZfD1rCyugz6CdoywLytSFCWkoCUnJnjgV7V6BzrszFsssVyOSqcpmUy0P5i5O38ieDwWAw8kQwj0P5+xOQ4NnOwegx+yricgxCQsu++HVSB5jmM4AVHdkbj0/jkLc3jgTKlmoIoreRiAq9gN1rN+GSoC3GefrAa2rrzBkD2bKFVrV26NPeDIlBR7F5532kaBDePziFNa4LcFG/Dxbt3oFf2yocANnbak8d2obtB+/irWzTalIyBCYVUbFSdZjkeZefguc3T2L/Nm8cC/5XXqbEZDVUMjWBaVVjyHyaDPgVmqFtzTjcuXoN58/dQJyaBpKj7uPvk2fwtqkbJrTIsa+Gp4Vq7fqgvVkigo5uxs77KdCQvkPQidWYsugyDPouwu4dv8qdFOAjwi/vx4bl6+H7dzjUDU1hXsscOhky5xuiYYfaeHP+KWoM64UflN6UpllrDOhrA/WXf2LTMh/cF4mRIopC6LWTOHLyJmJNWqG740D0b/eD/FH7PEl5jpsn92Ob9zEE/8uNtpSIZLVKMDUxRVVjmVOjhF8BzdrWRNydK7h67ixuxalD8+NL3P3zGM5Et8TUCc2h3IaURfxTXDt/Eju998E/KhVEyUgWVEAF7TIwrmykWN6SvMadU4ewbftB3JUpjeLwIiwKz4Mu4vQhb3i6T8Oqv96h3qAF6KN/F/s3LMd6378Rrm4IU/NaMM8SEgwbdkDtN+fxtMYw9MoQkirS17h0PAjqWuE4dvgmXn74gLfBv2PZsvMwcd2JjYOrQ5ifDekCT/7YiOXrffF3uDoMTc1Ry1wnc/aOb9gQHWq/wfmnNTCs1w/gv7nLpbMd2/cH4I0snY/JnAhNUNGkPN5fOwYvr9249ZJzaOkjknhGXLgJapjKXivAYDAYjJzwZG8EVP4utaREP0XIP6/xQVoWFarXQe1KZb/+oJD6Hk+DQ/GScyg0jKrDyqpKljOSLymIfnIbf/8ZBKrXDm0a/4BKZYtf8pTXUUjgnI8sJzALsSgSjx5F4F2SFOpl9WFiURM1TLSzltBKjFS8fxqM0JciiDWMUN3KClUKF8DXI+U1ohI4JzUvISEBUS/FqGiuB37KWzwKfIx3Yj3UsLaC+SfoIzcpeB2VABNT5dImg8FgMEqE/wsn5/slDf6zmsBuSTB4DWbh4q0FaJLr3TkMBoPBYDDygt04fuOkJn2E7CG19I8fC37EmcFgMBgMRjbYTM63jvgtAi+FgGfVBj9WKMnHkBgMBoPBKN0wJ4fBYDAYDEaphC1XMRgMBoPBKJUwJ4fBYDAYDEaphDk5DAaDwWAwSiXMyWEwGAwGg1EqYU4Og8FgMBiMUglzchgMBoPBYJRKmJPDYDAYDAajVMKcHAaDwWAwGKWSUuzkSCEK/B3ePqfwIEEZxMiFJPohLvldwIPYHJ+RZ/w3SKLx8JIfLjyI5Sy4FCGOxOW93th75SUkyqDvjlKoG2ncffzu44NTIUnKEAajdFF6nRzpexybOxk7owxQuZwyjJEDMR4c+xsJOIe1eyK/38GnFCF+cAx/c075ubV7EFmaFCI0han4POa5eiFY9jG275DSqBu+TmWUf7IFk5aeQbwyjMEoTZRaJ0cacwWRDbbiyK/NoaMMY+REiAZjnKEvagBX52oQKEMZ/x3CBmPgrC9CA1dnVCtVChGixlBfHB6WjhuPvk8vp1Tqhm+AdkuPY1XVf3AjURnGYJQiBPM4lL+/USRIio1GjCgBiYmJSExKwsePaZAI1KEpzN9H46lVRr16RiijURYaKh2SNO4Gti0/jWSrhqisxVOG/v8i/ZgAjUo1UUmvDDcMlRzFkrP4PQKPb8OJNxZoaFEWxdNKIsL/9MWeB3poVFv/+/fapR+RoFEJNSvpoUxJKOSzZPvpJIb/Cd89D6DXqDb0M5QiTYd6FWvUNy1feN3Ez3DlyHk8SKuAGhW/XrkLpKR1k4E0Dje2LcfpZCs0rKxVSF3FeB94HNtOvIFFQwuULbRpBeL4thN4Y9EQFvlF5pVH7XatUVNdefx/RFpSIsRCdQg/xcAkSYiNjoEogRuXZGNTzr8kMdS0P71flYoe4tyJi4hUqwYLwy+jHElSLKJjREiQlzkJSR8/Ik0igLqmsJh9qRRxN7Zh+elkWDWsjFxd/n/UD8n4DsYEMeIj72L/+GYwN6uP7lM8sWHzb1jmNgQdmtjAbvACnAxPUcbNIAnXZtnBqk4tNJ95hTvKgmJCceX8BQS9Y3tQIAnDxt7WqPtDPQza87pE9xkUWc7SGNw9MB9jnKZjR0Acive12CSEHF2EUUMm4LeLUaVguU2CsI29YV33B9QbtAevP1chnyXbTycp5CgWjRqCCb9dRFSmUopXt9Srq+HkfgQxOt+K41rCulGFYhB65TwuBL0rpA1KEXP3AOaPccL0HQGIK0Sh0pi7ODB/DJym70BAnpHj4Ld1G+6LZLlKER/kje3nvv6iVZzfVmy7L5LXXRofBO/t577K0lna1SWY470VY10OIEYZVhwkT9agi3UnjJoxF/PnTUVfG3NUazsCc+bPw+wpjmhV52f4fsY4wy+vj+TzczB08XnuVu7LII6PxN3949HM3Az1u0+B54bN+G2ZG4Z0aAIbu8FYcDIcOUfXvCHEhF7B+QtByFXl/6gfykT2FfLvgcTdvaiMWlNaEipWhnB8uEPrupmSesUutDEkVRlIlB7iRW7zzlBUTABtdBpGa4KyzhWK5C0d2rCHIiXK42+JEi2bhF4fnUVuO0Mo7p8j5OboQWdilae+NunBNM9Gi5otfUwq2i0YyTu66uNJS5bMoT6WamRoO5aWHXmoPPm1kNDbQxtoTwkZi+T1UZrltpNC4v6hI26O5PGJCpG8PUQb9kRypeP4FNl+MhJ6d9WHPJcsoTl9LEnN0JbGLjuiOFOsuqXSzflDaM5VkfL4EyjhdlxSuvl80il4ng1pNVtKj4ug0PTgeWSj1YyW5hlZQv/6TSZrYwOqVMmQTBpNo/MxX7/jk/zrR5OtjcmgUiUyNGlE087HKGz3SyNOptgrW2jl6ahPyi/19m/k+Uec4kAcSkuaqpPuz4coSR4goRc+i2lr+Ge2uqR7tHLwTDqfrDz+EiTupl5l1KjpklCVPuID3VnXjUzVK1KXjSFci/xMvmo/lJ3vxslJ2teHtHM6ORyS6MM0sJKQdDpsoAjlqYS3bylB8ZOLIKKoqA9FNGIxRR4YRLXarqCCbTOdYiLC6d1na744FLVsRSWd3r2JzjK4lNcUFf31Ozg54ke0qElxG0AKRYeH0MOH92i5fRmqPHQ3Bb8oYFBMj6GI8Hef31hVEEceoEG12tKKklEIpb97Q9FZCqHXUdHF73zFkXRgUC1quyJcIctPku2nkxIdTiEPH9K95fZUpvJQ2h38Qh5evLql09uod59R3pJuKyWkmxJBTI8WNSmykyN+tIia5OvkKEiOCqQrV4Lo9ZccSAsjOYoCr1yhoK9ciKTo6KyxophIYt/Q24zi5nJyZEMPdz5ReVBE0mMiKDzHwCKJiaLXGYl+CZL2UR/tnE4OhySaDg+sREKdDrQhY3D9VL5yP6TKd7+FgW/UHYO6VkDilYM4pnzkQfLmL6yd4QEPtxEYOHId/BMFiilv8XsEHV+NCX3HwOdZzsUNKaIvemLSnJN4FuaHJW7uWLv3AOb3b4rGYw8jjjv/PvgY5nHHTUbNgFu7Bhji+05+ZULQfiydOx9zZfk5LcDxJy+xx7E6Gk3egaMrXdDbZRdCA3wwsactWnWdjANhWRsvpbG3sX3uXKzevBozxk3B8u27sWfvCdyNVp3zy1m2aVjp7YXpDo0zy/bm1k6492qMJuOPI0H6GhcW9kNz64ZoP9YLt+VpJSJk3wR06jAGOx7IFvD4kP5zFAumT4GTQxf0nXkW79T5EEcHFlpmVUR3d2Lp4lVY7TkXU0e5Y+cTTq455SyORuDRlXDp7YJdoQHwmdgTtq26YvKBMGRLlT4gwGsSerezRXfXwwjPb39qWiTOLJ+JRVt3Ydvm/bgnIqjpVIalaTLuH52P/k0bY+zhOE5s7xF8bB533ASjZrihXYMhyunjBATtX4q58+fCbcRAOC04jicv98CxemP8eiNNPr3q77MIs+bNxsTBAzB+003E5JiClUZfhOekOTj5LAx+S9ww3fs0rvlMh0PjjLzf4NZOd/Rq3ATjj8fj9YWF6NfcGg3bj4XX7Wj51HxiyD5M6NQBY3Y8kC+p8qX/4OiC6Zji5IAufWfi7Dt18IsqOxnSaFz0nIQ5J58hzG8J3Kb74i5XHTn5ylaKt1e3YG6GHbj64n7mWkE8AvcuwgwPj0w5Pf2oPJWLNESeWY6Zi7Zi17bN2H9PBFLTQWVLc/nZPOsmP5ODlCc4MtcVSzeswXjH/hi3+RbiOGEV3S5ztpXp8D59ET7THdC48VgoVHMLO917oXGT8TieIP06upEjwt2dS7F41Wp4zp2KUe478UQixvug41g9oS/G+DyDhLsyOvAoVrr0hsuuUAT4TERP21boOvkAsleV8CHAC5N6t4Ntd1cczrexKKAPAfCa1BvtbLvD9XC4snwpeHJkLtyXH4TfvmWY5LoZt2TCLkoZpLG4vX0u5q7ejNUzxmHK8u3YvWcvTtyNVkZQUgQZpTw5grnuy3HQbx+WTXLF5luyHk2CmAcnsHZSP4z0CsbDgx74uV1rdBixAf7xiXi0fzr62rVAu4ErcCW/11/k1Y7TX2Rrp1oGYjzMbKfKd43IbXAiJnvMxFgVG8wJX88EFTSVB3nA1+HOa3D1P7YS4/uMhfe1I3DvYQeH2dy4ML8/mmbY4/tgHJvHHTcZhRlu7dBgiK/8+oxxZf7iWZg6IWtcaTzzdOF2V1T9FATfCN0HdUWFxCs4eCxSHiTX1cTJ8Jg5Fo79xyl1Jevyg3B89QT0HeODXEOrKgX08fGBe7EoY9yWjaMqnY00xh8+i2Zh3uyJGDxgPDbdjJHnWySUzs63iySGLq5zo/HdapGaoBLZDp9IkyZNosnuPnRH7vCKKXxFS+6cKY08k0KpwSvJ3maMcuklmR6u6UBG5v1pd6SE86wjyH+bI5lrNKFFj/LyJ5VTwa0y7gBT6bqbJWn9tJneyW/bZMe1qEzTyeS9bQ/diJZQ6sM11KERl5981jKJgle2I0PTjuTqPo7ctpygTf1NSa2KPbks8qWzV46Ta6OyZDLsBMkdfPFz2tbdlOx/UywtiP5wIvMydWn4hhN0L9esSl5lq5WtbNdcuePO20he9dT7NI/Lq8bES5wUFCT6jae+S0PknnTS9TnUf/JpxbWJN2ialTqZDTtGcWE3Cy6zKul3aHbL/rRHPoGSQkFLR9Hi++m55CyJC6Obm/qTqVoVsndZRL5nr9Bx10ZU1mQYnZAlKvfyNalq5xm05Y979PDvOdSivCk5nc7jro67uzg1xobaLb4vv2OSvDtCg8zUqPrEy4pZmtTr5GapRT9tfqe405Yd1ypDTSd707Y9Nyhakiq3iUZjzpBCZcG0sp0hmXZ0JXeXX+nEqwS6OdeOOi8Llsst9eoUqqVmTqPPp8hiZ0OxFNAqayZHnpdq3tfIlTvuvE2mkVS6P4+rc42JdClLITS+71IKUSiE5vSfTKcVCqEb06xI3WwYHXtWiOxyopwWbpVtJid/2eZtB79zB6mcLduTDScnRVN6SGs6GJF5/915LAFJKPrUGLJpt5juK5RCRwaZkVr1iXRZppR86vZ7rhUfMT1a1px07DfQay5q6vWpZKnVhlY/Sy+eXeZqK7K03KiW1k+0WdFYONW4csedSa6ar6Sb9DuzqWX/PaRoLkG0dBQnr1QRRfhvI0dzDWqy6BGJJXEUdnMT9TdVoyr2LrTI9yxdOe5Kjcqa0DBFY5HP5GhW7UwztvxB9x7+TXNalCdTp9OZ7VwV+UyOZlXqPGML/XHvIf09pwWVN3UimfrFj5ZRcx172qAQNk3l2k2b1c9IUoQyPN/WnUztf1PYgugPcjIvQ3WHb6AT96Ll+WZQlLa/rLkO2W94zVkR16dN5frbNqvpmeQDRdz2oaHVuDL0mEXbjvvTg+trqXtFDfqhz0xasfsSBQXspiHVy1CjBQ84jeckKf92XGA7zc8G5THzJ4+ZHBmS2H/o+pYBZMbl3W7aRtqxcjyNXHlNbo+WqvYos88yTWmy9zbacyO6gHHFhTz2XivE7oqqHwnFXFxHbuO7cbIRUCXb4TSRG1snTXYnH8XgSuLwFdSSO2c68kwBupKQKMKftjmak0aTRZTn0FpIP1TQuE1JN2muXWdaFizXJF2dwvkC5qMpjy45T779mRy+PtpOXAlPRyto8M3RyX011q5dizWew2Gj3HAulcq2MqlDXSMBp5avxKP6XdFWT3ZGE3VHTUIP6e9Y7nWP86yrwaZVXVQsxuOffH72feB8Pp8rUl04OA9Ec6MknF62HA+tuqCtruysFqzGTEZ3uohzgmFYNrorbOtVhJpZJ7jOGIaOrbvhl44W+PAsHP/K3NDU6zhzKRkmpsbyu1qd1i3xI6IhMfsJ1kaFq0ZWFlUEAn7WrnX1+hjn1hWJhzbhuHwmJxZ+x+PRfmBtCLh703NbdiEy6RH2rluDNV43wGvQFrUlr6FbvXHBZVZFKkaa6ByWjFuDv55LUG/MLAyuxsknh5z5utzdh209VFQzQyfXGRjWsTW6/dIRFh+eITwzUT5MbIfBuZs16rbujrZV4hARlttbF4duxfx9BujnVJ+TNneV8U+wt1ZTnJTD5Z9NZdwxJyf9ug5wHtgcRkmnsWz5Q1h1aQuFyqwwZnJ30MVzEAydhx5l/8CqLRLY96/DWQ8nxha/4rDfbkxppiGLXQiyvJQ/5QggyCyMOuqPc0PXxEPYdFwxWxDrdxzx7QeiNienpHNbsCsyCY/2rsOaNV64wWuAtrUleJ1QpQiyK4z8ZJufHbzibiNPYfnKR6jftS0UTakuRk3qAenvy+F1T+X2S4Y4FFvn74NBPyfUVygFP9lbI0Mr+dXt1asc6XDWW6HlUMwc2wFG0miEhMeAJxUhToTi2WVeyNqt8qccgUDFTr6ObqTiNIjOLcG4NX/huaQexswajGpCHVSzaYW6WY0F1Rvbol5FNZh1csWMYR3Rutsv6GjxAc/C/81sD3wTWwxz7gbruq3RvW0VxEWE5ZptzIRvAtthzuhmXRetu7dFlbgIhHGReRVaYih3R97BSIrokHDE8KQQccKWFlqGVFw/cwnJJqYwVnRcaPkjEC0xw0/WRoo8lRTa9nkV0HLoTIztYARpdAjCY3iQiuIgkpZDtYa2qFtJDQbW/TCsVxPUazEEPRoIkFrpJ0wY1Ab1G/VG98aaeBnxLGsGIwPRiQLacUHtND8bzE+4BcPXq4GmrevCRGiMNkNGYajbeni5teROqPTVMmT2yY11dR2cMbC5ZgHjylDMd2xZiN0VVT9cv9h2IlZ6OsJKgw/zTu5YzY2ta9d4YnjW4CrfKKyuzsktX13xoVPNBq3qVizkNST59UMFj9uiE6uwRWKP/nXkmkSLXw/Db/cUFKlL5sim6u+TVISGRkCq+QMa1HqBoIexEKipZRmQZj3UqwG8CHumOObl6Ow+B3E4Ah/GQKiumZVfGStYcfm9Cn8G2UqBbIDlqVizhhpnPBIJJHLLqYsfLdMQEhgqjysViZCgURtWtVUH7U+FD6Perhhm5IfVWx8iLeooTlFX9DPnai+JRsRzEdeYnTBlyhTuzw2eu87hz10uiisLKrMq6o0xbcts1A1cgM61a6DltHOIyeg9cspZ1oizJ8qZK5dmrkRlaHCNCkhPS821Ez/R/xYeUnnolstIXbWDKhxxeCAexgihrpl1TRkrK9TAK4Q/S4P45VM8S+AadkbGfAPUb98GliXwQkm+UW+4DjOC3+qteJgWhaOnCF37mXNykiA64jlE3KDjJNfHFLh57sK5P3fBxUpYTNkVhopsC7ADcXgQHsYKoKaWla9mvXqcnF4gjJNTNhL9ceshobxuuUydZznchdQtG1yn27wHmr7ywiSPnQjVq8x10rJ9g8qzRbXLT+Br6Ea98TRsmV0XgQs6o3aNlph2LkZ2OQdP+X8GXJqcTWelqgFFVSV5PpmioVAoUosiBw3uZhDpSOMi8/Wbo0fTV/Ca5IGdoXqozI2I3I2vMmJBZVBH3R8tkRYSiFBFxwVRggZqW9XOdGyzUZCMuIG9eY+meOU1CR47Q6FXmbvhk+0VlUeUlUH+Q4kaZ4/y1QflMR9CNSGkXJly8untuGAb/CS4uvN5XJ1V2lKBFGFcKVCmxdVPAaSGhiJCqokfGtTh8ixIV7IuP5uyCkGlH+Lqm/+4HYaXT58hQZqVD9+gPtq3sURRu+TilOqbRPr6MHxP/QuT3k5wqGiCCkYCvH8aireZjrdMbEJUqWGhOCwm8tkSiTTzDkqGTNxygXN3rPL8/nmicjfJ3SHyhahc04IztUIQ/gh3n3kwP7cQs1evx7I1j9HaZwcmWhbsD2cgN6qcZVMxOpkTMm5CG0R4rcQmr4vQ698N+rJwgQ70dcW4fuwYXmZezN2Z3rmj/F1EpO+RVG08DgU9xtUNPSE55oJfFt5UnvwyCDQ1oZbyDE+y7UHg6qzS8SnEkl1jGb0U37gCjATv8c+TrLtizksCX1gZNS3UuQZkCF1pMM6ffZl1PvEmTl9Q7L8qGMVglTPvrLKpo/G4CWgT4YWVm7xwUa8/uikUAh19XYivH8OxLIVA8voO7rwoaIH7MynADjLk9DT0bZYc5E2pCmpwcsqGQBOaail49iRjr4cChS0Wp25JuDi1A0Y/aINFy6dhgI0RijouFIrc6ZbIbkyzkJUvq7F8cd1I3yeh2vhDCHp8FRt6SnDM5RcsvJnDYfyKJF2cig6jH6DNouWYNsAGRkUWthA/uvtgnvk5LJy9GuuXrcHj1j7YMdGSk1YxSbqIqR1G40GbRVg+bQBsjFQGus+g4HZcUDv9gjaoCleA3PYoN8nPH1dKSj/S1zjsewr/mvSGk0OFL6arzPrmOW5Xh4GhLqTB53FWpf0l3jyNC0V8PJ9T9feBVMx5qcrfGUjeXcSCgdPwp7EzNi3vBQO+CfqO7gtj/x3Y7K98O07cLQREt8XY4Q0Ux/KOV8XDzwaP8y6FIFEsYpIjEByaBOMKhqCn/rjxPg2xgcdx/E4cpB+TkCiTrzI/Iy4/r3vKtwl8uIP77+0wbri1/CVQUs6KszkeMjKOpdHwW3celiv2wNN1AjzWbsVCh/yMOGfZEmFsZAAKv4vbcbKyHcUR/1hIRDF4n5ahfD7MHV3xi+YheJysCke7sspwXXTq3xGC01PQeYgnDv11GWe8Z8Dj1Af52QLLrEr6A2xffhhR/Apo5rwem8fWQVqCUu7y+Cpy5tKUysKyJ6o85v7nipz9nOw4V44o284BP+kHw2vmJtyX7RNM/Afhb8RIjItFMufwQcg1GEPCU/8bnBxiEXj8OO7ESfExKVHe2fFN+mJ0XyP47/BClsru473dOAy3FoJfoSv6txPi4pxBcPM9h6sX9mH+2B14Xc1QEVkFHncrIiQRYmOSEREcyvVDxjAyIITfvY04Wd5Hj8A/VgJRzHtkqIRv7gjXXzRxyOMkqjraIVMjnfqjo+A0pnQeAs9Df+HyGW/M8DiFD/pct1Sg7HLA4+7UhQRRbAySI4IRGl+QbPO3A4WcjDk5bUZWUwpAdNuxGN4gxwxM2XZw+EkfwV4zsUmhFPwT/gbixDjEJksKrpsqkijc9g/Dx7R0iKVJCLtyBy/FKUiKeYxHz2UDQhHtMldbiedUYwQDCsfd23FIiw3E0SP+iJWIEMO1a6Vqvrhu0h9sx/LDUZyNNYPz+s0YWycNCUmyiIr4snQUcGnK7lxzJJJxTHkrNA85cHDhnNRynJOlLUHUbX+EfUxDuliKpLAruPNSjJSkGDx+9Fw2/BZQBimi/dbhvOUK7PF0xQSPtdi60AE5fd9MCpCRJOo2/MM+Ii1dDGlSGK7ceQlxShJiHj/Cc4kiTn5ykCH7TfLtCtkpsB0X1E7TC7bBfCExJ0eCWJxr4UwOcRKVdU8ZCLmbCEN6Cv8bXJ6cPR4/fgdx0o9Ikg0sRRhXCra74upHjFyTYZJ3uLhgIKb9aQznTcvRy6AwXSn1ojLjkh2ZnmRxlIdK5NcUOG43RIWu/dFOeBFzBrnB99xVXNg3H2N3vEY1wyK6L1wm3ziJ9OSCL3m0NyEBX4dq2Q8g53EuNHpoH2pva0+OHrvoTrZ3O3yggM3DqbWNHTm6TCYXp3G08rJyg9mHh3TMvQ3pC3SptdthCo5TvU5BasAysjc1oOrtPejUawlJXh2mUfX1qIxeLeoy5xSddG9EFi2daIXfY+WGR1l+I6hN8640etYiWjB9Oq27oni8VPTwGE1rrUsCQzuaefgePQnYT1Nt9UhoZE+zTj6iBHEore9oREK+kDS0tElHz4hMa9iQwxw/ispdtDzKdoTGWBtSeZO61GXmcTo+rTHVsnOiJb8/UtmMKabQpW3JzjPHo3uSaLq0rC/9WKEMqWlVJJtBG+nOhyKUWXm5nJTzNLlhHbJ1nEqLli+kyaNn04lILpeccn4eTMemtSZdgSHZzTxM954E0P6ptqQnNCL7Wfvp912u1FJXSIZ20+lAwCPy3zeVbPWEZGQ/i/4IzaqJAglFX1tJPzc0JQNTa+o0Yj6NtTejBg7u5HX9tfz8q8OjqL5eGdKr1YXmnDpJ7o0sqKXTCvJ7rEzrQwBtHtGGmncdTbMWLaDp09fRFZWN3pK3l2hpP2sy1SlHFawcaP75qOyyyyA1gJbZc+Wo3p48TinzPjKGrA3Lk0ndLjTz+HGa1rgW2Tktod8fqWgkdCm1tfPM8QgwV69Ly6jvjxWojJoWVbQZRBsVCilAdifpUa7nX1MpYJk9mRpUp/YeB+nCwUJkm48dyJHJaXhrsrFzJJfJLuQ0biVdVm6UzIkk+hqt/Lkhl68pWXcaQfPH2pNZAwdy97ouO5t33XIhpie+A6mOvi5VbT6A5h/1JmcLParlsI4u3i6GXXLkbCtcY6EjY6zJsLwJ1e0yk44fn0aNa9mR05LfSUU1X1Q3KecnU8M6tuQ4dREtXziZRs8+QZHiD/TwmDu10ReQbms3Ohz8nDueRq11BZzOZtLhe08oYH+Wzvb/votcW+qSkJPD9AMB9Mh/X5Yc/gjNvglbFEyHXVuSrpAr3/QDFPDIn/Zllu8PenjflwbW0Sfdqs1pwPyj5O1swbUZB1oX8KrAMpx8JKLQ9R3JSMgnoYYWaevokZFpDbJxmEN+OTuuwmQkekK+A+uQvm5Vaj5gPh31diYLrq91WHeZAk78SvZGQtKznUr7b0dQyOll5FBVSGWsnWnrlXD656+15GipRmq1HGn9lRe52mj+7bigdhqfrw0G5POsuSQmiP7YPIYaleORwLQTzfa9SOHKp8AlsYF0cFobMhBok83IrXT1lbKUnD0eHlWf9MpwaXeZQ6dOulMji5bktMKPFN1U/uNK4XbH9flF1E/ikwvk69GeTAR80qllTwOcx5HL6KHUp70t2Tt60K47Ku8sEuenqwB6zY0b7m30SaDbmtwOB1P2oVVEwYcL6+MLGLe5f99eWkr9rE1Jp1wFsnKYT+ejcmo7f3iyf5T+DuOzkCA1laChkXOfQQGkhWLn4rMwG9wdJomxiP+QhATRK9zy/R0aSw5hxg/FnvzNg3j8PsENMTO94FTpu5m4+zpIUpFKGiiOykqC+N8nwC1mJrycKn0/U6n/JzDdFIU0hO5cjLNmg9HdJBGx8R+QlCDCq1u++F1jCY7O+EEZj/Hf8KX1I0Fammy29Eu0kE8YRwuBteMSIu7gQJgZdsCa8KKu00sQtmk8ljyrAusaNVC3QRO0sLVDx65tUadOQ9iYfZ6DIxVFIOjRG8Tc34IjAgf0YQ5ODuJwcKAZDDusQZFV9jlIRYgIeoQ3Mfex5YgADn3YIPrNwHRTLCRhmzB+yTNUsa6BGnUboEkLW9h17Iq2deqgoY2ZMhbjv+LL6keMkGWtYVDNGX8oV5ZKkuKPo4XDZnJKjBTExoihY6BdxM1dUsReWoSfh67Bg/LWaGFlBm1eMpJRGZ2nzcOIBp/zOI8Yd2fZoPmSEJSxGokdfhvhYMq67VykxCJGrAMD7ZKYMSsY8d1ZsGm+BCFlrDByhx82OpiygfQbgemmeEhjL2HRz0Ox5kF5WLewgpk2D8nJQOXO0zBvRIMiP/XC+DJ8ef18hEgkgK5uEZ/hLhbFHUcLhzk5/zXiGDwJuIewWCnKV64PG6uK8ve/fDaJ4bgREAfzpo1gXiIJMj6PRITfCECceVM0Ygr5xmC6KT5ixDwJwL2wWEjLV0Z9GytUZKL7hmD6yYA5OQwGg8FgMEolbFaWwWAwGAxGqYQ5OQwGg8FgMEolzMlhMBgMBoNRKmFODoPBYDAYjFIJc3IYDAaDwWCUSr7Tp6skSElIBr+ctuI7T+I0pPHVkfUCxjQkvI9FiqY+jMoV/jmzr4sY7wNPYK+/LhxH2is+hZ8H0o+xiP7Ag66JHmQfmC+coqX7n8hGGocb239DcJ3xGNXKoIQ9awmSYt/jQ8YnmGVf/OVsQbO8DnQ0c7xpQZKE2Pcfsr7WzBNC29AI5fgfERsdnz1cnwvPIR5pagI+pGtAV7twuYmT4hAvi6urBQGkSEsVQ10j93WSpFi8/5D7a+sZ8DT1YKJXkAXkqD94EGobcrrl42NsNOKzheehc0kKEpL5KKeskzgtDXxBOkRKOfE0dGCsr5W3zjh5xnDx0mTxNHW4crJniBkMxrdFyY43X5iUiNPwHNkbvQZOwJwVq7B41gy4Tf0VHsNcsDUy6w2JSddmwc6qDmo1n4krX+CtjJ+OFDF3D2D+GCdM3xGAuPxGNkkYNva2Rt0f6mHQntfcVYVRxHQ5/hPZUAxCr5zHhaB3RahLcREjPvIu9o9vBnOz+ug+xRMbNv+GZW5D0KGJDewGL8DJcOVH7sQiRNzajXHNzGFmNRDrLz/Fv8my8HhE3j6ASa0rw6zOz1hzMRTvkjNK+hGPj8zGwJ69MXzSbMybOgzd2nXByN+uItdHcCVvcGmNM7p37I1Rv67C+rVL4OE6AZNmTsXoxX9CWQoVJHiypgusO43CjLnzubT7wsa8GtqOmIP582ZjimMr1PnZN3c+2RBDFHELu8fJ6m+Fgesv46miUpxcbuPApNaobFYHP6+5iNB3yUr5pyDitCdG9u6FgRPmYMWqxZg1ww1Tf/XAMJetiEzl5HFrG4Y3NIdprUHYm2cBpIj06gOLSpXRcspRBL5UfNyVwWAwvilkMznfA0n3VlEH0+r0y+5wUn77TI7k3XmabNOUZt9LVwSkh5CX2zw6ExVDARudaNiaoGzx/3vSKXieDWk1W5rjI4AZSOj10VnktjOE4v45Qm6OHnQmVnkqJ5K3dGjDHoqUf8WssHQ5vpZsspXr65C4uxeVUWtKS0JVKv/hDq3rZkrqFbvQxpCMmibQjh6apNZ8GT3JJqckOtCvHKk1XkghmeEf6PrCNmRabyydfpNVGUnMVfJoakSWww+S7HukctLDaNeA6mTaYQUFZPv2ZDpFHhxCdRx8KE4ZkkUq3f7Nk/5QnhCHLqGm6rr086EkRYDkBfks3krh+elThYQdPUhTrTkty14pSjrQj8qpNaaFmZVKonurOpBp9V9od8ZXBOVI6N35yWTTdDYpmlIsbe+hT+XKaFLjhQ+4WuQg9Tb92kyPtPnlqd8BZXkZDAbjG+P7mMkRB2HV6DkIsJ6JlY4WiiUqJXzjDljo2Ru6H5QzOSkG6DFvLjpV0kejcV5Y298QqQXeCX9teBAKC3phtRSCFhPhOaQOdGv0wUqf8agvzqsCErw4PBWzjryBWD5zU1i6HF9FNjnL9XXgCQS5XwNezgbjfdaiH+88PCZvwzO5ifAhkFk9n/tfdqgCny8Aj/vLaBQfr86D06LHaDN3MbqYZDUVvn4r/Lr0Z0j2uGDS7iguRIKnm0Zh4unKcN8yBY2yvTddiMp9l2NuGx7icn2ORYga/Yaiva7yMCd8U/Qe0RMVClGrDL6iUtz/iuNMZPXkKevMIQ5ahdFzAmA9cyUcLbK1JBh3WAjP3rpQNCUhhOXawbG3IQK3r8dfifJImYj8tiOkvgMshXwUZnYMBoPxX5HVc3/DpF7zxo77EjTu2hUqY00m2najMaKBmuJA8gZ/rZ0BDw83jBg4Euv8E+UdvDg6EEdXuqC3yy6EBvhgYk9btOo6GQfCxIrrOKSxt7F97lys3rwaM8ZNwfLtu7Fn7wncjc7uCRSelhSxt7dj7tzV2Lx6BsZNWY7tu/dg74m7yvMyCB8CvDCpdzvYdnfF4fCMa/mQ/nMUC6ZPgZNDF/SdeRbvcn3tVYroi56YNOcknoX5YYnbdPjeTVOeyy9dji8um7zK9RHvg45j9YS+GOPzDBJxNAKProRLbxfsCg2Az8SesG3VFZMPhEGlpCUG36g7BnWtgMQrB3FMZUmzcD7igs8+/CNsig7t9JRhWWg174K2xnE4u/MwkHYLWzdeQUqzfuhXNY8Rn18B/ScNQ7Vcp/jQM6lQwJ4rPnS482pvA3Bw6Sj09jiJp3/Mxc/tmsPWwQ17Qz4q4xWVVFzz3oH7ksbo2tUkj8avDbvRI5DRlMArizbjR6De24P4be8LTrtKJM+w90AqHAZXK7HvyzAYDMaXIA+X4VtDireBwXhF+qhcRS/vAvN1oKvDnUl7gFV9nHGt0XQsWbIKmzyscG10ewzf8xwfElIQHXACp07vwsbzfHSd6oqm0dsxZbEf5FtTJJHwGdYbBwydMHmsK2Z2ScCGiZ74W8QDnyfPRYkUiYWkJYn0wbDeB2DoNBljXWeiS8IGTPT8GyLujjoD6durOBZUCcMWzoZdrDemLD0v37Px8cZ8TDpWGS5L18B7z2xY/DUGPSafUFyUCXfXbeeOBY41oVa1CzxWeWK4jeKuPL90v45s8iiXdToSU2Nw98Qp3H+TAmliAlKiA3Di1Gns2nge/K5T4do0GtunLIbfp+wRksbi0m9TMX3fA6RKX+LscldMnjwZU6b7QuH3CVGrVlXwxRF48jTLjaKoS9i8eCEWLsz4W44TT1KyNgBLXiLkcQygXxGmZZVhqqhZwMKMj/SnDyGJuoWAZwSDqtWgr2qg0mjcPeaNTRvWY/2GDdi69xpeFsfPkiOFKD4REX8fwulTPth+3xQ9h3SCftAGjOgzC5dV/RyKwqXNi1XqtBDLTzxBSkalpG8RGPwKpF8ZVfTybvp8HV3ImlIGQqtRcOnAw4VNW5Xy5EwpYDv+MhuO3gbZlM9gMBjfHHn3dN8UxN39i7l/eZlT7vmRcGo5Vj6qj65tFXfemnVHYVIPKX5fvh0RVRrDtl5FqJl1guuMYejYuht+6WiBD8/C8a/sFjX1Os5cSoaJqbFcKDqtW+JHRENi9hOsjVQz5kO3esFppV4/g0vJJjCVP+Kkg9YtfwSiJTD7yVqRBAffxBbDnLvBum5rdG9bBXERYYiRJuHcll2ITHqEvevWYI3XDfAatEVtySvlVYWTd7pfSzZ5wDmg1WxaoW5FxT0/X7c6GtvWQ0U1M3RynYFhHVuj2y8dYfHhGcLlmRUTvj7aTlwJT0craPDN0cl9NdauXYs1nsOh9PsglcpGeXWoq3w0l2fcCP2cnOHsnPE3DHbV1Dkry6Lg1TYhhELuPx53RboYMgtNT0vLfg3fGDa9OkPo9yumzL8G3c6tYF7sqQ/OcbRsgcY1dTjH0QGz54yC47C52P3bIBhFHMb+66nKeBw8YzTq56RSJ2cMs6sG9YxKkQRi2RoiL2tJrlB4pvh54gBUCt2B9afiuIBY/OH9FK1HtkIZRQwGg8H4ZilyX/ffIYCJZU0YcJ1r5HNR1pR5LsQID3qIWIEa1DJHKk3Uq1cDeBGGZ9xdKJ/Pl49JGWiocaOgRAKJfAysix8t0xASGArZDatUJEKCRm1Y1c6Yu89OQWmp1/0RlmkhCAyVpwSRKAEata2QT1LQUOeuTU9DqjgaEVwdK7R0wpQpU7g/N3juOoc/d7koYxaPzHTp68omN7LHupU/ZXAH/OyZcS4Il5c8M1WkeLOxA7Q4b0Io/9NCu3UqyyZFIhWhoRGQav6ABnVUyqumDUOTiqhYMePPGOVVlwUFpqhlUR4UG4WXOfajyJG8xdv3BLVa9SAws0IdYx7iHgZBdXVQDt8Alc3Kc/+ZwVxbGfYJ8GTul8q+o3ItW6KBQISYGNWpITVoG5qo1KkijMurZzVygQksaxpwfkoknouKLkVtu/Fwto7FsfU78eTpHhyivhhaky1UMRiMb5/vwMkBtOyHor+FGDePHEae2yoSgnDrwUcYVzCC4P1ThL7N6sBlQ6mwSg1k22OZF8If4e4zD+bnFmL26vVYtuYxWvvswETL4nfmwh/d4TPPHOcWzsbq9cuw5nFr+OyYiEKTEuhAX1eM68eO4WVmFSR4feeO8venwv9mZFM8uHIP3IHAkBCEyP8CsXNopWIZrfT1Yfie+hcmvZ3gUKE4V2qj/UAHmKX54/xfscqwLCRhl3AtUhedh/aTGShGj/gRwuC98L6R35qbilP3ScgcQFUnkEACM1SrIptOKipasB/aHxbimzhyOJKzrNwkBN3Cg5xOnfAHOI/vAs3rG+Ay8U9UG94LBt9Fz8FgMP7f+T66Ki1bzN3qBss78zB49hm8UJmhl76/ge0bAqHG3XWb9B2Nvsb+2LHZX7GXBHG4FRCNtmOHowE3FkilUtkj89mXFDKOpdHwW3celiv2wNN1AjzWbsVCh+xPcqlSUFrSaD+sO2+JFXs84TrBA2u3LoSDiidBxDkaOd/BKL9WF536d4Tg9BR0HuKJQ39dxhnvGfA4ldc7SHhQVxeCRLGISY5AcGh8Aenyv6JscpeLS0heLGlG2bi8ZL8zDhXkPFYg0DVFLUtLWMr/asFcN+9BXSqW5Bq0Je8uYsHAafjT2BmblnMDszw0HemyJRuxbIkpO+np6SAuPGNCSafTImwcVQHnFy/Ahdgs5xBp4dg5axtieq/FqkGVuAANNPbwgWeHRGwbPRGHIlQMtBiQOB1i4sqVzw5sSfQbvJZXUoqYC5cQ1mgEhjRWaCE9XbZglse1XJ3SZWkqK6VlOxdb3SxxZ95gzD7zAlklleL9je3YEKgGC/mME3ddClce+Tk+KvSZiIFVI+Gf1h4jmynW/RSyEstW6xgMBuPbRPYc+feCKHA3Te/TjOpaNSP77v1oiPNYmjxvHwUnKCNwfAjYTMNb25CdowtNdnGicSsv0zsJd+3DYzSttS4JDO1o5uF79CRgP0211SOhkT3NOvmIEsShtL6jEQn5QtLQ0iYdPSMyrWFDDnP8KCrH+14KS0sUup46GgmJL9QgLW0d0jMypRo2DjTHL4pEwYfJtaUuCblrpx8IoEf++7Ku/SOUEiXRdGlZX/qxQhlS06pINoM20p1s713JIjVgGdmbGlD19h508MLBgtPl4n8N2chQLdep1yJ6eMyd2ugLSLe1Gx2+foOOTWtNugJDspt5mO49CaD9U21JT2hE9rNO0iMVXRaNRHpywZc82puQgK9DtewHkPM4Fxo9tA+1t7UnR49ddCdGWcjEJ/TndndqV0FAfJ3GNHLdcQqUnUsJo799fqWOlQTEK9eQRqw5Qveilddw+rixcRR1budAY2YvpWUL3GhYj640ZMlZepHz5THpr+jShonk0L4j/TzKlWZ4zCDXMQOp988u5HnsIeWjRg4JxQT9QZvHNKJyPAGZdppNvhdV3weVQn+NrUwatTrRuCkz6Vf3MTTA0YNOPJe9+4ar/5/byb1dBXn9G49cR8cDY7gUUyjsbx/6tWMlEvDKUcMRa+jIvWguXIaIAndPpz7N6pJVM3vq3m8IOY+dTPP2BZNc/JycLvjMIPuKZtRpti/9HZbCBYrp8ap+NPKo7KVNEvpXXl4b0ubKW6njLHl5GQwG41vjO/2swxcgLRQ7F5+F2eDuMEmMRfyHJCSIXuGW7+/QWHIIM34o+tJMWuhOLD5rhsHdTZAYG48PSQkQvboF3981cPzoDGWswhAjTSyEenFWI74UJSib75bEIGxx6gfXwxEw/GUfbu3uj0pfbR40FRfGWaLnm0WIPj4I7OMJDAaDUTTYyrocCcI2jceSZ1VgXaMG6jZogha2dujYtS3q1GkIG7NiDOKSMGwavwTPqlijRo26aNCkBWztOqJr2zqo09BGGakwknDKuSoMWi1ByH++FFCCsvme0f4RY/b744rXaFS9MgUD5v6Nd3ltavlCKBYO2f0Ig8FgFAc2kyNHithLi/Dz0DV4UN4aLazMoM1LRjIqo/O0eRjRINsrbAtG9t6WRT9j6JoHKG/dAlZm2uAlJwOVO2PavBEoclLiBIhStKCr/V87ESUom9LCx0hcPXoIl9/poWaDFvi5fR3liS+DNOUZvPo2xMS3Lrj65zw01fsWpvcYDAbj24c5OaqIY/Ak4B7CYqUoX7k+bKwqfvLSgDjmCQLuhSFWWh6V69vAquJ3vshQgrJhFIdUPLt+FoHKN0vz9X5Au7a18X/oWjIYDEaxYU4Og8FgMBiMUgnbk8NgMBgMBqNUwpwcBoPBYDAYpRLm5DAYDAaDwSiVMCeHwWAwGAxGqYQ5OQwGg8FgMEolzMlhMBgMBoNRKmFODoPBYDAYjFII8D8UJJk2fNlZgQAAAABJRU5ErkJggg==;" vertex="1" parent="1">
          <mxGeometry x="530" y="611.32" width="199" height="28.68" as="geometry" />
        </mxCell>
        <mxCell id="LbAB_rmGIGJ7I_XkYfzX-46" style="edgeStyle=orthogonalEdgeStyle;rounded=0;orthogonalLoop=1;jettySize=auto;html=1;entryX=1;entryY=0.5;entryDx=0;entryDy=0;" edge="1" parent="1" source="LbAB_rmGIGJ7I_XkYfzX-41" target="LbAB_rmGIGJ7I_XkYfzX-42">
          <mxGeometry relative="1" as="geometry" />
        </mxCell>
        <mxCell id="LbAB_rmGIGJ7I_XkYfzX-47" style="edgeStyle=orthogonalEdgeStyle;rounded=0;orthogonalLoop=1;jettySize=auto;html=1;exitX=0;exitY=0.5;exitDx=0;exitDy=0;entryX=1;entryY=0.5;entryDx=0;entryDy=0;" edge="1" parent="1" source="LbAB_rmGIGJ7I_XkYfzX-41" target="LbAB_rmGIGJ7I_XkYfzX-43">
          <mxGeometry relative="1" as="geometry" />
        </mxCell>
        <mxCell id="LbAB_rmGIGJ7I_XkYfzX-49" style="edgeStyle=orthogonalEdgeStyle;rounded=0;orthogonalLoop=1;jettySize=auto;html=1;exitX=0;exitY=0.5;exitDx=0;exitDy=0;entryX=1;entryY=0.5;entryDx=0;entryDy=0;" edge="1" parent="1" source="LbAB_rmGIGJ7I_XkYfzX-41" target="LbAB_rmGIGJ7I_XkYfzX-45">
          <mxGeometry relative="1" as="geometry" />
        </mxCell>
        <mxCell id="LbAB_rmGIGJ7I_XkYfzX-69" style="edgeStyle=orthogonalEdgeStyle;rounded=0;orthogonalLoop=1;jettySize=auto;html=1;exitX=1;exitY=0.5;exitDx=0;exitDy=0;" edge="1" parent="1" source="LbAB_rmGIGJ7I_XkYfzX-41" target="LbAB_rmGIGJ7I_XkYfzX-52">
          <mxGeometry relative="1" as="geometry" />
        </mxCell>
        <mxCell id="LbAB_rmGIGJ7I_XkYfzX-41" value="Graduation conditions" style="rounded=1;whiteSpace=wrap;html=1;" vertex="1" parent="1">
          <mxGeometry x="290" y="1140" width="120" height="60" as="geometry" />
        </mxCell>
        <mxCell id="LbAB_rmGIGJ7I_XkYfzX-42" value="_id: PK" style="rounded=1;whiteSpace=wrap;html=1;" vertex="1" parent="1">
          <mxGeometry x="80" y="950" width="120" height="60" as="geometry" />
        </mxCell>
        <mxCell id="LbAB_rmGIGJ7I_XkYfzX-43" value="id: PK, manual" style="rounded=1;whiteSpace=wrap;html=1;" vertex="1" parent="1">
          <mxGeometry x="80" y="1080" width="120" height="60" as="geometry" />
        </mxCell>
        <mxCell id="LbAB_rmGIGJ7I_XkYfzX-44" value="name: required" style="rounded=1;whiteSpace=wrap;html=1;" vertex="1" parent="1">
          <mxGeometry x="80" y="1180" width="120" height="60" as="geometry" />
        </mxCell>
        <mxCell id="LbAB_rmGIGJ7I_XkYfzX-45" value="overViewReference: required" style="rounded=1;whiteSpace=wrap;html=1;" vertex="1" parent="1">
          <mxGeometry x="20" y="1280" width="180" height="60" as="geometry" />
        </mxCell>
        <mxCell id="LbAB_rmGIGJ7I_XkYfzX-48" style="edgeStyle=orthogonalEdgeStyle;rounded=0;orthogonalLoop=1;jettySize=auto;html=1;exitX=0;exitY=0.5;exitDx=0;exitDy=0;entryX=1.02;entryY=0.589;entryDx=0;entryDy=0;entryPerimeter=0;" edge="1" parent="1" source="LbAB_rmGIGJ7I_XkYfzX-41" target="LbAB_rmGIGJ7I_XkYfzX-44">
          <mxGeometry relative="1" as="geometry" />
        </mxCell>
        <mxCell id="LbAB_rmGIGJ7I_XkYfzX-50" value="" style="shape=image;verticalLabelPosition=bottom;labelBackgroundColor=default;verticalAlign=top;aspect=fixed;imageAspect=0;image=data:image/png,iVBORw0KGgoAAAANSUhEUgAAAlwAAACrCAYAAACzFEI4AAAAAXNSR0IArs4c6QAAAARnQU1BAACxjwv8YQUAAAAJcEhZcwAADsMAAA7DAcdvqGQAAIkbSURBVHhe7Z0HQBRHF8f/d8cBYqFJUbAbScSG2BUUscYW1KBBEws2xAoWIMYWYkFsiRV7L6jYW2LsBVFERLBQ7AqEooC0u3vf7t1RPaqg5sv8EuR2Z3bmlSlvZ+cWAXGAwWAwGAwGg1FuCJW/GQwGg8FgMBjlBAu4GAwGg8FgMMoZFnAxGAwGg8FglDMs4GIwGAwGg8EoZ1jAxWAwGAwGg1HOsICLwWAwGAwGo5xhAReDwWAwGAxGOcMCLgaDwWAwGIxyhgVcDAaDwWAwGOUMe9N8Mch4/jc2bzmPl+JmGDJ9AL5WUyYwSo80HIeXbsft1GroOMIRXWqqKxMYDAaDwfj/g61wFQP1Gp1g/21tJF47hktPpcqzjI9BFn0DJy9Gw6T7QHRmwRaDwWAw/s9hAVdxSAvDAe91uBYThHUz1uFuivL8F07afR8MbmmJ1s2aY8Dqu/hSxJbFnsMvw5bhTsx17N5zA29YDCvnS/UXg8FgMD6ez/5I8X30G2QYGEMnT+gnQ1rME7zINEAdk8oQKc9+LtKf3kEwzNCylhZSnt5EmKwJWtTRVKZ+qaTj6Z1gwKwlamml4OnNMMiatMDnF1uG+JCLCErRQ9UKQqQnxEL9m05oavjlxP7pCc/x9GUCMtT1UaO2CbT5BbiMBCRk6EK3kiJP2fOl+ovBYDAYZcFnmuUy8Pr6Nswa1AL1Gk/Fn2nK0zwpwdg4og06Td2Lo559YNnHE+djZMrEokjHM38/rB7VCsb6etDTM0CTPk6YNO4n9LZqh64O07D63FNkVyd9hVtHfODcwQT6elx+/RqwmbIJJ4Je4dWtI/Bx7gATrpxqFt0wzHk6ZrrNwGzv9fAc3BCG+tXhsCeZix/e4M7RNRjVylhRRlUz2M3fizPBMVxoIUPs3aNY49QBpvV6wH3bBTziLskDf/3xTZhqU0Mpgwk6OG/AxSiFlLLYYBxb6oDGBvqo1vR7zNl+BYE3c2TT0+OCApsp2HQiCNGZufWpBotuw+A8fSbcZsyG93pPDG5oCP3qDuDFfh/+J/4Y1Qam8jKqom6/1QjLkFfJVZqI0DMb4dqlLr7qORObLj7hPJYbGV6u64tqRmboNMQZ06aPhE2dqlw5ejC06A+Xma4Y0685TA3M4Hw6XXkNR/I97JrWBx26jcWi3adx7dpfOLhqGvpZ98CEDTcRn+Vm2Uus61sNRmadMMR5GqaPtEGdqrychrDo74KZrmPQr7kpDMyclRfkUHq93iJ4jzv6t6iP5oMXYN8Ff1w55gOPoT3Q60cXzBg+BJ7XOV1kr3H76AZMsjZV+ssU1pM24vidV3gTfArbZnRFbbmsnL9aj8Gawzfx5NktHPFxRgcTfbmN9GvYYMqmEwh69aLY/pLF3MWJza7oXEtRhkHT7zBhwlB0adEMHfqNg/epKK71MxgMBuOLhV/h+mRIY7j/b9Je7ynUvU4FEnDVC3QG0f4UZTql0KVpDUldbEnz7mUSxfhQD00hGfXfTi+lyizFIO2cM9UWgQB16vzHS+IvzXzmR6O+VieBSI9azzhFb7LLS6cbMxuSGicLxC3p1/sS5Xkuxd+NzNX4csTUZuEDyk7JjKJdg7+iflveKU+k0ekxpiTiy1DvTH+8yiusJNKbeg7eRUnK4w/JpJD5liSWy9CEZgVyumcjpWi/kWTZYTodf5ZzPv3GTGqolK3lr/dzZOP08XczV+rThhY+yEnJjNpFg7/qR9lip5ylcbVE/AonQaBFFjMuUIIyiefd9qH00+5k5VFupPR0RR/q6nWP05wj7TxNrKsoR6P7OoqRZ4mmo6PbkOORVP6IpHHn6ec2uiQU6lG3VQ85jZVIX9P+IZztBJWoifMRkptO+pRW9OlKXvfkpXPFT6S6cn9qUPd18tK54o/S6DaO8s8fUFK9JE/p0PhmVEUopq8cj9DrPO5Lpns+A6iWuimNOa2Qh/fXrZ8bK/3VnOYE5/hF8ngxtRPzsqrRV1Mvc95Qkn6DZjZUk8skbvkr5TSzEvhLEka/tRbLy1Dv/Ie8TyRddqWGYgEJxDXIYY+irTMYDAbjy+PTrnAJDbj/W2KQ61Jsm94B3ISVl+TT8Nn+ABkCPRjyj5gqG8NYG4g5sR67Iou/0UegJoKIi+Zyo1bjOyxZMBjVEA//pSMwce9rKBZUhBBx+RXZReA+ZiMUiiDMV4406gHCpbVh7+EIi1wKiNWyvrqolqcMHoFmBVSqoMGlFISAkyHnelH29RI8OfwLZl7shO1nvNCrRk4JQhGXTykbL38OQi5NqNQnCymiHoRDWtseHo4WOXZX04J2yz7oW18dAnqPoGU/wWn3My63ApFWFVTSyKeMEjVjO0wc0wgayuMPEBqi5+QxaFuFlyQBJ2eMwGL/BAhMv4fLiAY5thAaw27qMDRUS0bw2rGYvIf3ixqM7SZiTKMCS+eK74nJY9oqj/JRIr0kuL/iJ4xcF4SkirZwnd8bxnl6RUU0Gr0Ra0fWzfNoW42zvwIh9zmXtTnnZeXL8SkH15ay8/G+U3ziKIG/uE/iXEXyVGrZA9bVhKDMFzi44RBeF3cxmMFgMBiflM/0SFEITU2NfJMMkHHnEm7wz5UE6lBX50QT8MGHAJQRhEuXE5W5So9O177oxG8Wk0bjyMoteFDizdpSPD60D1eSuQm38QS49KuoPF8OyOJx/fcpWPq8D5Yu/RENtZTnS4P0MQ7tu4JkLpBpPMEFucUW6nXG4h2z0Eabm7Qlz7Df+UcsuZP7Ga8qhKg+aAT6cMFwYaiZj4BjJw3Inu/B73ufQkICVLDsgDb5dFEzb4XmupxfZNE4uno7HlN1DBrRB4UXrwbzEY7Kzx9SbL2STmDJsitI5JqdWmMbdDFS1SV00M3VHX1MVQefZU4h/lIJv+bFIeCCvc/UoRkMBoNRBF/U+JwaEYmX8iBIxC8CcAgUK0yUgacRUZDwpz4GzQZoUJufNAmZ967gWrzidHGRvD6BpdtuI1N+VBGVK5WT+dIfYfeYzrA/3Qiu49tA76OqkeD1iaXYdlshNSpWRn6xtVp5YNeK72DCBbeyxMuY6+CCk7Flt1SScesabqfyUYEQBiam+GAfuNAYxlV5oQgZwTfgn3+fWykpjl7pN8/gQjTf6ITQqW/G5VWcz4+ofg/0NM+3vFQuFO2v3CT7n8TFNzIIxLVgP8YOKuNFBoPBYHx2vqDhWYbkpGRI5XfrAgjyLH8R3ie9Vz4CLIwkXFvvBrf115QbsGWIPOaJGdOmYebvfyMGlVGloqJgksQjJq64S1wyPD85GwO7DcOWR8qJsLyQvcRRpx4YvvkuXpzxwMjlwaXfDC17jpOzB6LbsC0oXGwR6vy0AVsnmENTQEh/4ANHx02IKPEKoGoy375FitwfAmhW0PxgZRNCTWhqKv2S+RZvk8sq2CtaL8mr14hWylZZW/tD2YpC9gp/LZuBaVwb439mLjqJJ6UVv9j+4rJGHceCqcPQ3+UcdHqMgdfR8/AZaMxWuBgMBuML5Qsan4WoqFUhe8JTBFwyyORvrRCgQsUKxRC2MtqNXYRFY9spV4WEqNtnFry8vbF4UmcYCtKQmq54/iIQVoaOdnGnVyFqfDsffjdOw82idN/TFwiLaWqhMb5duBw/1RNDIEvAhV+GYOZf8cUINlUgrIFv5/vhxmk3FCm2UA9dFu/CbzZ6nLZSvDnugh9X3M/37cTSIdavqnztBxf0pKkKHzOQqaxIoKkPA+0ybJZF6CWqVAnKGBzp6blle4/Ii9ux0GUMRo8ahVGjRmOc23Icvf9Wma5EWB1dXLzgzbUx/mex27eoXVrxS+AvYZ3e8Fi+DWdv3cW1o+swrUftgvfTMRgMBuOzU4Yz28dToU5tVJM/0uECLT7CIBn/PzcLq6FGnVo5G61Li+Q5nr2UFwi1r9ugrUHJ1BdUbIlRQ1sj673o0meheKCcf/mNzwqUG2pyk54BkWZOMFk4IqgZ9cOK7e5oWVkASruP1cPHYteT0i43CVCx5SgMbZ0tNZ6FPlB+zodGE0zZvhYOtblgj5Jx1z8Y71WoU1LUW3ZAi0q89jLEvnzx4Yqd5DVex/L6cYF1C6sP9nh9NIXopd6iLZpXUMgW//w5cp5maqFuxyGwrxaKbZs2YdOWg0iwGIm+5kVsXPtoSuAvBoPBYPxr+KICLg2LDmgpX91IR1oqf0YGKRcfCcSN0b69Pn/io5Dcu4Cr/H4doS66jXdEkxJHcELUdHBEbx3+83tc27ATd+QWVINxNQOlMTOQKpc9B8mL1xCa1ixRwFip7S/Y4d0bRiKC5OUhTPpxMW6/VyaWFGFNODj2hkLsa9iw8478tCqEJvZYtX0amssDpLJBaDwAzoNrQ01AeH/nBm7li7gkYTdxm38GLDLB9xOGoGY5tMqC9BLW+AFTh9aVy5Z+5zIuJykT5Iigp1tF4VdBRejolG51s8SUwF8MBoPB+HdQDlNbcZBxQUmaYi0oMwMZWasoun3gNLQ+xLI4xMRIuLgrEW9TuNNduTt+s+J/Q4xk/KPIrM/KlSFJBLb8uhGh0spoPHoD1jjW5qZTHi6vRKpcl1IEeFnIZBLlnjJOzEyJPI9Q1wD6ogw8OTQVE45lopb8OY4I9Xv3QXMtbjKXhuPunXf8SSWJuHQiDi36NlDWpxqZNGsFS6pY3ePCswajfPDHYFPuOhkSr87DDxMPQr5Ax5FbNlluofPok4lMiVxq6BroQ5TxBIemTsCxzFryVP7LCGlJaUhTlpOFttV87FrSE8V/+TtnN6X4xH3II44cHXRfsBGuLbRBTw9g7cGsV3JwyGJx4o8duC+phGYTN8Crn/6HjZLzoaJ44urh7CP/XAgl0ksXPRfvxPxOhhDG+GHpqqCcF+MWgiSrXcllylUR3/ayPmb7lIM7L8lxWC4dSuAvcD7PKjLbJgwGg8H4NyCay6H8/AngoqeUF7h2+jA2rN+G68+4oEuWiCSBMaoZmaKuoTbqWLWG1p298HughQp3duNASh+s3uaG1nn/9k8B8G+aP4H9mzbhQFAsNyEREt88xcuwc9ixYg0uiDph/OLN8JlmBfnTRP5N88f3Y8PGfbj9ht+lnIJUESdLNSNUfHEe+zdsxL7bb7hpkJDwLBwvn9zF+RP7sWnxDExf+heiGw3F/J9agl80ERq1QaevEnDr0mWcOX0DCeqaeP/8Nv48dAox7adhYlsd1dEt/6b5EwewceNu+L9MB9F7vBcaof5XDVBL6x889f8Lfv4vkUlSxAcdx4n7MlSQvcSdg9uVsnFSp4pgXK0aqteW4QEnX7Y+lIBn4S/x5O55nNi/CYtnTMfSv6LRaOh8DNC7jT2rvPDHlr8RoV4VJjUaoIZ2VkgoRNXmXfH167N4VH84vvum4LW5tCfXcXTPBmw6FIx/uAiAklMhrm4CY5PaMOQDUCUCrTroPKALTJPv4uDabbiTpgGKvYfjy10w/7weBnjuwNafO+ULhtLw5PpR7NmwCYeC/5H7MzlVjOomxjCpbYhcxWfzPuJiyfXSNIXV4IGwVH+OP9cswuY7iZCkJXLt5gqOHjiK6/HG6NDHAUPsO+Mb7Wjc5trMxo17EPCat/57pHL+Mq5mjCqxV3DIxwc7bjzngj3C+xQBDLjzBlqvcenABmzcdxuKZpYKkXE1rs1XwIvzvsXy15BakTh9cBM27bqO51wkScnpnJ2ro5ppnTx2ZjAYDMaXyWf/W4qqeY+XwYGISKuOpi3qoiz3UJc76bF4FByG54kSaBjUQ+PGtZA9339ykvEs6AEyajVHff49VyUl7RVeJnHBTQn3uhVJWgwe3X+MV+9kqGhUDw2/ro6Kn9LHheklScTT0FBERqdApl4ResZ18VV9Y1T6JD78SH8xGAwG44vlCw24GB+PBPeXdEbbmVeQ/tVknL67HDafaAsSozQwfzEYDMb/M+w2+v+YzPfv5Y8cZanvkV7kxifG54b5i8FgMP5/YStc/89IYxFyKQhpDazRwoS9pemLh/mLwWAw/m9hAReDwWAwGAxGOcMeKTIYDAaDwWCUMyzgYjAYDAaDwShnWMDFYDAYDAaDUc6wgIvBYDAYDAajnGEBF4PBYDAYDEY5wwIuBoPBYDAYjHKGBVwMBoPBYDAY5QwLuBgMBoPBYDDKGRZwfcnIEhF0eBM2H7+HJOUpBoPBYDAY/z5YwPUFI4s9hDlTtuGlfk1UVp5jMBgMBoPx74MFXF8sMsRdeopm6w/g57baynMMBoPBYDD+jXzmgEuKtKRkZCiPIMlAhkz5WU4GkmLfIDYpO8cnRRIbhIMr1uNcTB6h8pKWgDdv4vG+kCylQwjtHhPg1LwCJMoz5Y4kFkEHV2D9uRgu3PsQWcI1+MxbhytxeVNl7+M5GyQgTXnMYDAYDAYjL58l4EqLPIHFo/vjuyETMXvJUvw2yw2u036Gx3BnrH8qVeYCUq7Mgk3jhmjQ1h2XUpQnPxGyuNvYO28cHGduRUBCAX/fW/YKO39qhUYNv8GA9ZFc+FiGpFzBLJvGaNigLdw/hfKyONzeOw/jHGdia0ACVGlMcWG4dPYc7kbnCrik4Vjd3wLm3zTC0J2vVAZqDAaDwWD81/nkAdf7O8vQ13oy7nb0xv5da+A1fw7meS7CkhmdkPrgHmITlVO9JBS7D1eEZ2A4/hz/Fls2BOeshH0ChPqWGDy2J+qrKU+oIOH8VgTa7Mfju9vQ6voaHMkdiJQEWTR8V+/Cs+zLJQjdfRgVPQMR/ud4vN2yAcG5lJdF+2L1rmdlG9wI9WE5eCx6FqKwqL4jdl71hXPDrDwyvD6yDU8dTiEi4HfUPrUaZxOUSQwGg8FgMLIREIfyc/kjuYtf27XHMqOVuH/EEdXzhXvJ57zgozYZLh01uINoRMMIRpX4FBnevnoDoXF1VP6EIaI07De0a3EcdoFX4GYmUp7NQoa46H+gbWQIefghicHreD1UMywkQlOJFM/2DUfXdU1x6q9pqCuvJhnR0YCRQnnI3r7CG6ExqvPKS59h3/CuWNf0FP6aVhf5pfoopGH4rV0LHLcLxBU3s2KULUHMmwToGxso8qa/xqt3Rqhu8FkWThkMBoPB+GL5pDNj+pVN2HpHipa9esFYRc2VbMZiZDOx4kD6Gn+tcIOHhytGDhmNlf7JEHHXSGKCcNDbGf2dtyMsYDMm9bNGh15TsDc8Z6eTLP4mNs6Zg2Vrl8Ft/FR4bdyBnbuO4HaevVhcsBB0EN7O/eG8PQwBmyehn3UH9JqyF7mKkkPvAuAzuT86W/eBi2+Eck9VBv65vBouUzzg7uQA+0kH8VQsFxBBB73h3N8Z28MCsHlSP1h36IUpe8NV7MWSIeb8YkyefRRR4SexwHUmttzml7KkeP3XCrh5eMB15BCMXumPZF55WQzOL56M2UejEH5yAVxnboE8exbFqVsWj5sb52DOsrVY5jYeU702YsfOXThyO0aZgYPeIcBnMvp3tkYfF19E8BdLYnHXbxkmDhyHzVFZD0+FkD0+iPkzp8LR7lsMdD+NaHUhMt4EYN/CMejvcRSPjs3BoM5tYW3nil333yuvkyBopT26jt6OyDJ9DstgMBgMxhcKv8L1aZDSk+UdSV1UnRxPpinPFUB6MHnbWtK4U/Hyw9SQ5dTVoAbZ74iiuPDrtMbehMS1bMnZcwudvuRHLi0qkvHwI5TMZ5Y8oQ19TMj296dcjUSJxxypRgVzGrHqCAXG8GeUSBMo/PoasjcRUy1bZ/Lccpou+blQi4rGNPyIvCSShHpSK83a1NNtHR0LDKG/Z7ejKiaOdCKVT1tEbbVtadUrrsz0qzTNTIs6LouizIRwur7GnkzEtcjW2ZO2nL5Efi4tqKLxcFIWm49MCp5rSVodllCEhD9Op2BvW7Icd4rk2qeG0PKuBlTDfgc95cXPDKa5llrUYUkEybPnQlpk3RJ6sqEPmdj+rigr8Rg51qhA5iNW0ZHAGF4p8mylSbV7utG6Y4EU8vdsalfFhBw5haWJkeS/wYFqaLQiz1BFzSlXZ5P9lBMUzZeVfI2mN1Yn0+GHKPrB37SgizapN+5H0+etp11b5lK/OuqkbjaVLqTwV6ZTwJK+ZPXjJnqcXwkGg8FgMP4P+YQrXASpRML9K5CvVBVG0nEveIc2Qa9OuvJjTfMxmNxXhsNeGxFZqyWsG1WD2LQHXNyGo7tVb/zQvS7eRUXgH34BK/0qTl1IhbGJoXz5TtuqPZoiBlLTbrDI/ahLqIN6La3RqJoYpj1c4Da8O6x6/4Dudd8hKuKfnP1RQmNYDx+F3hbmsOrTCbUSIhEeJ4PAqD2GuTuhq4EMMfcjECeQITEhEdCph5bWjVBNbIoeLm4Y3t0KvX/ojrrvohAhF7AIko7DyzsUTXp1glx7TXOMmdwXssNe8An8cI0sN8Ii607H1VMXkGpsAkOFcdC+KRAjNUU3CwN5GfyqlbH1cIzqbQFzqz7oVCsBkeFxXN46sOxgjmrZzxlTcGbddjxNCcWulcux3OcaBM064WvpKxiatUPLr7Qhrm2HX2aPgcPwOdjx+1AYRPpiz9V07lp1tJh2BJe2j0T9Mn0mymAwGAzGl8knDLhEMDb7CvqIx9MniTkBzQdIEHE3BPEiMcQC5SloolGj+sCzcERlcEILhRBkpwEaYnVAKoWU342mbo6mZhm4HxQm32QvS0xEksbXaPy18lFlHoRcWQIuBMxCA4qipCq/pQcNdS5UyERGOkGo1xZ9W7+Az2QPbAvTRU0uguECWEU+Tj5hXgG56zj55AIWjiTiLkLiRRDnKA/NRo1QH88QzitfFIXWrQ7zpmbIuB+EMIVxkJikga8bfw1V1uHtoc7ZIzMjXWEPAVe2/DyHNAaRnB+N2jti6tSp3I8rFm8/gz+3O8uT5VYVibL3gVVu3x7NRImIi2PPEBkMBoPx3+MTBlyAlu0w2NeV4PoBX+R6+0MOSXdx4957GBoZQBT7CGFvcsIyPoRQq1UfdbkAoFDUmmLG5rmoceZX/LLsDyxa/gBWm7di0geb3j+OlPPT0HXsPXT09ML0wZYwyBUgfQxCQyMYiGLxKOxNTlCqUB71i1S+KNTQdMZmzK1xBr/+sgx/LFqOB1absXVScTbI50OkDT0dCa4eOoTn2YJK8erWLeVnPkTLHWASSGSKOrVK+qUCBoPBYDD+/XzSgAta1piz3hVmt+bix19O4Rn/dEmJLPYaNq4KgrhuFRgPHIuBhv7YutYfijdQJeBGQAw6OY1AM26+lslk8tWkPOtFWceyGJxceRZmS3ZisctEeKxYj1/t6kJ1qCLjyuKuy/dFzexj7jdXU956+GOS4uVNf4S/z0CmRIaU8Eu49VyCtJQ4PAh9Aiknn4yXJ6+A+Y6zEEBdXQ2UGI+41EiEJHTD2IGG8N+6Fv7K128l3AhATCcnjOCVF6hDXY2QGB+H1MhghL1V5Mmm0LpliDm5EmfNlmDnYhdM9FiB9b/a5QpiuXxc8JRfztz2kFtEfqiDHvbdIToxFT1/Woz9f13EqU1u8Dj+Tp6VRxrzGq/kgbUMcecuILzFSPzUkq9MikjfnzHB62/EFrzUyWAwGAzG/w2fNuDiqtOzWYg/L6xAh0fz8W3LtujS1x7DRo+H65qnaD1xGCwr8qs8A7D60DI0vzYRfYZMwNQJM3Gx+TpsGVMPyfePYtuf4Uh/eAqb/O7g0a0D2P53JDIencHWk2FIpni8enEHK2y0oVmxMnT0DGH6VQv0n3MKr/JM7m9x/+g2/BmejoenNsHvziPcOrAdf0dm4NGZrTjJBVR+m04jPCMCf245gFthN+G7/W9EZjzCma1nkdl9DAZWOQHHVh0waq8YVtYmiD2xBn/HxOLEtj8Rnv6QC0D8cOfRLRzIvu4kwpKV1WcjQp2udmiX4IMf7DbhuV5dDFh9CMuaX8PEPkMwYeoEzLzYHOu2jEE9fhlKVAdd7dohwecH2G16Dp3cf2Tx7X0cLbRuQvyrF7izwgbamhVRWUcPhqZfoUX/OTj1KgH3/DbhdHgGIv7cggO3wnDTN8cep24H4OiWM3icHo6zm/1wLxGo5rAW+3/rDrW/5mFovx/wy4U6mOjaWSkMF5/9cx7Lp3tg1kxnTPCriSXbXNBIvsCVjscX92PfUX+8ZgEXg8FgMP4DfNr3cH0KMsKw7bfTMP2xD4yT4/H2XQqSEl/gxpbD0FiwH27flPEubWkGMvhVp08cupaODIRt+w2nTX9EH+NkxL99h5SkRLy4sQWHNRbgoNs3ynwlRYIMiRrUs58WpuPceDP0e+2JGL+h0FKeZTAYDAbjv8q/IkwoPlKEr5mABVG1YFG/PsybtUI7axt079UJDRs2h6VpGQdbkvtYZKWPOqOOKR99ftlIw9dgwoIo1LKoj/rmzdCqnTVsuvdCp4YN0dzSVJmrpKTg+Kja0O+wAPdzfYmSf/jI/8tgMBgMBuP/boVLhvgLnhg0bDnuVbFAu8amqCRIRSpqouf0uRjZLPfztzLifSISRTrQ0VAef8HI4i/Ac9AwLL9XBRbtGsO0kgCpqUDNntMxd2QzlNo6kiQkpmlBp5IioJWlRcFnYHNMeuOMy3/ORWtdtlGewWAwGP9t/v8eKfJI4vAwIBDh8TJUqdkElo2rscda2UgQ9zAAgeHxkFWpiSaWjVGtTI2TjqirpxGkfKu/UPcbdO70demDOQaDwWAw/g/4/wy4GAwGg8FgML4g/s/2cDEYDAaDwWB8ebCAi8FgMBgMBqOcYQEXg8FgMBgMRjnDAi4Gg8FgMBiMcoYFXAwGg8FgMBjlDAu4GAwGg8FgMMoZFnAxGAwGg8FglDPsPVwMxhePFE8u7MZf4RnQt7BDP0u9T36nlBF5BntvpKNiwj1E1RiEiX3r41/wxxUYDMYXSxrCTu7G9fSm+K6fJfT+A8s/bIWLwfjSyQjAmvGOcN/1Gob1Pn2wxf/JrOTnj/BEWB8NU/7Emp3XofxDAgwGg1E6kk5j0eS1eFClNnT+I5EIW+FiML5wMm64o9ucKli43x1ttZUnPwfxh7BwdWUMc++K6uzPYzIYjI8g+cwiLHo/BPPsakDxV3j//2ErXJ8bWTqSEpKQLl8xkCE9PUN+mv+ccM0H89ZdQVwxVhMksUE4uGI9zpXJ0kNBdcvwPv4N3iSkKY/LgOQI/Ln+dxyOkCpPfBwZkRexf98JBMUWbocS20sah+BDK7Hur2jOCp8SKZ48V0eTBjG4eSc+b90pEbh88goiU5THxUCSHIs3r1/j9ZtoJBbkRlXlpt3G5sXn8Sr5OV5LlOc+mhRE3g5RsVomQUzoRRw/fAJXI5I+tHfyE9w4fQLn78dwOUtDBpJi3xRug1IhQTJfLmffN9GJKKjo5Cc38fepEzh1PQrJynMlITniT6z//TBK3mUkiA06iBXrz5VyhVKC59cOYa+fP16VaScohlyS57h2aC/8/F8Vv/9JYhF0cAXWn4spuz4ricKl/ftw/E7sJx0HMpK4fhubxLXcj6A87KGSFDy5uAVeO24XKm+l7m7wLGmwlfIEF7d4Ycftj7JE2dizNPArXIzPQTIF+ThSV9sBNHqiM40Y0I269rSlbjPPUZo8XUKPNw6hdgNX0f1M+YkCkf5zi3Y4tyZt9Ta08IFEefZjUF235PHv1L2mHulUH0A7XkqVZz+C5BA6MLMzGYvr0aSL6Ypz0td0fsVUcpq2nE5FpBKlB1NAEPe7WKTS2XF1qc7gnRRViBlKbC9pPAXumkhtddSplWcoZx0F6fc30vAOFtT6u+m07dY/lHDRj05Hf4xdpBT/IIxe5hJJ+noXfW8sIrG6mDSazaKbisbBkUbnJ9YlEURUd+IFUlpPJdL4BxSmLDQlfAc51BIRBJVowO4U+bm8qCpXQg+W21AVNTGJxdrU5Y+IbBuUirQXdGWTGw2wMCTNWk70V7ZOHEl3aM2PLaluVS1SE4AE6jWp/8aH2fWl3FlJfRu0ockHTtPiXl9Ry8lHqKimmFt/HknkcupUQY2Mu3qR/zvlyTIhhcJ3OFAtESd3pQGk0rzpl2l278l0LPokja5Vnyaez6180SSHHKCZnY1JXG8S5XSZ87RiqhNNW36KFF0mgD7sMlL659YOcm6tTeptFlJph4nUO0vIxrgV/Xr/o1pALoorVyrdWWJDxq1+pWJVLf2Hbu1wptba6tRm4YOPa6+5SPt7AtWvNZC2RpRVicUg+TJNtzQiXR1zcrmYrDxZQsrJHh8ioad/r6DBDcRUacBurkeoIp5OrPOhwAS+40opMWgjbTidqEgqDMlT+nvFYGogLmjsKiZlYc9Swla4PhMZ/r/hp8XApIMH4PP7Kmw+4Iel3cT4JznrCa8I9R134qqvMxoW8fhGqG+JwWN7on6ZPeZRUbfsNY5sewqHUxEI+L02Tq0+iwRlUmmQxVzBltVH8UhDF9p4i6C9y3HwvoSzy1FcUWsA3cdrMahpA7TotgBXBQUpJkO072rseqa8X8u4hSvvR2DXhiGoXchtU4ntJdSFxaBx+DbPBRkIuiPCqA3e+EHvCjxszNB+Qzzq6Ze+S8liT8LdaRU4MyhJwWWv5XjcYwNuPfoTs6sdxcKdz5R3p2J83c0ePax6YlD3BihQFVksTro7YZWyUK3a7dG8RmEyfliuLOYQPDenw3F/CEIPjELqVi+ceavIXWKkr3D9yGlcPXcYR4NikJlnQ4MEYWduwnTuZUREP8Gf0yyhmfkMx9buRRgvvjQUfzi745SgAwb16YphvWsjeJUT3A4X0hLz6c+vGD7edxDPbJfhlN90tKqsPF0maKF2++Yo1LzqHTDv2FI0PH0OWrP2Yp51cb96IEPMlS1YffQRNHS1gbdB2Lv8IHc+A/5Hr0CtgS4erx2Epg1aoNuCq/iwywihbzkYY3vWL7itFAPNZi7Yvb41nv79lLNk6ZFF+2L1Lr4tF1cuTTRz2Y31rZ/i76fFqFmoD8vBY9Gz7AZFjgzcufwODjs3YljdT/UQTILQ3YdR0TMQ4X+Ox9stGxBcmmWZcrGHKkSoaTMWQztULeTxmTZa1wyFo5khTEyM8PWoh6jVMqsj5hvTcyOqCZuxQ9Gh6seELWVkz9KiDLwYn5h/1nenCtUdaH/uFZHU8+TldV65wlUyJKGe1EqrrFa4VJAZTa9jcspOe/WSYj5mMScthiLuh1BIoBfZVqhJw3YE07NEKXcjFk3/yMtNpzf3rlFAVJI8uyokT/fS0AadaEnW3Wbaa3pZTKFKbC/JA1rYRivPCpdU+jEGyEfSLVrazYjEpmPodFYD4O5K7998SJxZFHVlvqSgO8+oiAXPXCTRraXdyEhsSmOyCpVEkreVuJAVrg+RvAri/MAvmXD+4f5NibpDIR+1ksc19WMjyVgIEtXMt8KVi/RLU6i+mhrVGn2C+PtfSch8aiEGiS3nUjBnhJQ9A6myQEi69nvl6R+iQn/Oey8Cb5JcnYIoiV+5vLlzSyK9yYqTscAVLjlSehP1tIC7/4JJi4mg+yEhFOhlSxVqDqMdwc+4s1L6J/ofhQzpb+jetQAquMtIKNSzFWl9xAqXgnR6/TImj94lQvKU9g5tQJ2WZK2UlkCu9OL3ca6Tk2crrTJc0cmkNy+jy6is4pJEb97kOFSa+JJeviul5cvcHgWRRqdGm1CVAle4FKS+DKJLl+7Sq1x98YMxPT9pp2i0SZWPWOEqQ3uWgo8JFRkfgXa7TrB4txejOv+I5RdfKZ4la7aD40hLiLmPkti78Fs2EQPHbUaUVIKYoIPwdu4P5+1hCNg8Cf2sO6DXlL0Iz7eJhd4FwGdyf3S27gMX3wgunv8QWfQ1rB3bFZbNrTB86WW85G4YZQl3sdulH76bfgihL3LXrbxIKMPjg/Mxc6oj7L4dCPfT0VAXFl+u3GQ8PQUvd0+s374Ba/cEIpHE0K5phhraQggrJuD8vEmY4jEHcxcsx+ZTIUhQcbMjizmPxZNn42hUOE4ucMXMLf6IfXAde+fbY9zmqOy7b1mcPzZ7zsLcXybhx8ETsOZ6nHKFSEFx7PUB0me4snkmBrRuDSffBK6S17ixbQa+a9kKE/ze4tW5X/F9Wws07+IEn5uK/RLJ93djYo+uGLf1Hj7YcpV2BysH94f7n9GQ/HMas3r3xMj19zmba0Jyzwu9W/fCRI/R6G4zCYdfCyHgLpE8+wtzBrSERTNLfLf0rgq503Bn5WD0d/8T0ZJ/cHpWb/QcuT7X6hnhbcBS/NDSFBU1jdB2+klEc4KqKlekVwHhy+3Qbeh0OPe2xk/7k2FcFYi/tRojrCzQrHkXzL2Shmd//gK7FtxxCwf4FLXBSCiQ61Egsjc4s+04nps4wHt+D+6emLNhYCAeyAUSQ8xfLOTaC2fdpHuBCPvgLlWV/mvw15n5mDRmDL5r/x2W3uUKe3sPm8bYoHkzC7SdsAyrHFuhmqYmqraYhCOvVTQ8JRnh+zG1V0/8ONEO5oZm6P3bxbz7HektApb+gJamFaFp1BbTTyr2/ins2xo9vrODg0q/qSIDT095wd1zPbZvWIs9gYlc1KmNmmY1uDQhKiacx7xJU+AxZy4WLN+MUyEJedr4hxDeBfhgcv/OsO7jAt+IXFK8DcIuTzd4eLhi5BBHzPd7hPfKpLSHBzCHr8d9MlymzMH6G3w9JRwDZDE4v3gyZh+NQvjJBXCduQU523EKkisNDw/MwaQpHnCf7IIpc9bjBj8oSGIQdNAbzv2dsT0sAJsn9YN1h16Ysjc8r13pHQJ8JqN/Z2v0cfFFbnXzU+B4kfYQB+a4YOGq5ZjgYI/xa2/kjEuyOPhv9sSsub9g0o+DMWHNddX7bqVxuHdkBSZ/Pxo+wSHY5zEIna26YuQqf7xNDsWemQNh064zhiy5hPjs66V4/dcKuHl4wHXkEIxe6Y9kETdtF1d3VRRij7dBu+Dp5gEP15EY4jgffo+yvM9RXD2zScfDvTPQv5M1egzzxIlnWY5W+HOG1z6c3L0Ik13Wyv354Zh+W5lfBekPsXdGf3Sy7oFhnifAFy19dgWbZ9qhZUsnKIblG9g24zu0bDUBfknK6wqyp5Ki5ouPRhl4MT45mRR1yIXaG4lJINKhb+xm0b6QrPt0KSVG+tMGhxqk0cqTQjMSKPz6GrI3EVMtW2fy3HKaLvm5UIuKxjT8iOIZtHzFRrM29XRbR8cCQ+jv2e2oiokjnSjgTl76dD311DUkB98E5ZkkOuU+lXa9ycxbt/xGI4WuzranKSei5Xe1ydemU2N1Uxp+KKpIufIjjTlO4yw70293+DsUKUUfGEqm2Xu4uDvdRW1J23YVveIqSr86jcy0OtKyKNV3IJnBc8lSq4PibkiaSJH+G8ihhkbOKlTKdZpj05MWBfNGSKfLUxuQuMZYOptWcnt9sMKVfpVcG2hRt7UKm1D6FXLhjntuiOcP6M7cFlSx/iS6kFVe8kmaMHBhgftPMm+6UyMxSJRrhSvp70nUQKxG38y4wZWYRPsG6ZKoSkfyljsljc6Nr0UiqFEDlytcugoyb5J7IzFBpGqFS0wNxhyll3G+5GAgJIF6lp3zl5tCl6c3Ik0dO9oex92VnnAkE3ENcjz+jis/iGZbcGUJq5Ejb7jUIzTMUEgQW9L8kMLX4fhyqhW0wvUugFbbNyAtATcDQ0g61l4UlC6hx4vbcaE5F2u0WUgPOROk7B9EOlweoeEwOqLKb6r0TztH4/k9bGoNyOWKos2Fe7XnyhWQyGQAbY34h/YN1iehQJ2slkaqXglIvUE/N6tAlXpvoph0zgbNuD6s3omWP5HmrHCJG9CYoy8pzteBDIQCUu+4jBTNuBh+y4OUYo6PI8vOv5Giy0TTgaGmOXu4JKG0qK022a56xeVMp6vTzEgru678KFaSNGv3JLd1xygw5G+a3a4KmTieILn50oPJ29aSxp3i2zCnZshy6mpQg+x3PCVpQfVkFj02fUBmMM211KIO+Va4CpJLErqI2mrb0irFoEDTzLSo47IoykwIp+tr7Ln2WItsnT1py+lL5OfC9Tvj4SSvWr6io0m1e7rRumOBFPL3bGpXxUTRVlVR4HhR2LiUQtfn2FDPRcFyWdMvT+X6bA0ayw8y+XkXSTc3D6M6nLx9Z20gP/97dHVFH6qm8Q0NcF9COy7cpYAdP1G9Ci1o/j2+/6RTsLctWY47RXKPpIbQ8q4GVMN+B0XFFaG7KoqwR3qwN9lajiOF+1MpZHlXMqhhTzuellBP5QqX5jd9acaizbRr4y/Ut64maZhPp8tcGy7In3wtecZ0VchXuDTpm74zaNHmXbTxl75UV1ODzKdflq+mpV91pQZa3WitcgU+/YoLd9yT5MNyIfZUqFjwfFFWsBWuz4YaatstxcV7l7HB2QIpp3/D4JYtMGhjKHc/K4R2HUt0MK+m+AaHUAf1WlqjUTUxTHu4wG14d1j1/gHd675DVMQ/ORG40BjWw0eht4U5rPp0Qq2ESIQXcAsirPkDJvTXxMnN+/GSyyKLOYpzol7oZ6SWt26elDNYt/0pUkJ3YeXy5fC5JkCzTl9D+iqpeHJlI0HY+nnYrf89HJtoccdCGHazhQW/pCdHAKP2w+Du1BUG3J3w/Yg4CGSJSEgsxj2GUBt1LDvAvFrO3orEI0uxTmoL+4aa3JE62v3si5M7pqJN1raZEtjrQ4T8AksuRBAJs9Zs1NFkvCt6Je/HGj/FClf8ST+87TIEXxd760cyTm3YifBMIYxNTbnWog4jIz0I3l3D9t1B8hxC0cfsI9FA4062qF6xKvQrc1GLLBbR0Ypb3Tzlvj+HTdtDkVlZA8l3LuDqqwxo0Cv8dTKAS1RlA+XHj6FyC4zfdxPX1g5EHS5eSry6FhuvpkMgUNqX+y2vhkjZxopYLcuDEPnNJlQqUaHNAHxftxIMq1bh35eDhLg4PuL7gLTzG7D1Xgb0TGuiinpjjF2yBB7zpqCPSS7lNRqjk211VKyqj8oCTs7YaCjNWzK/ScKwft5u6H/vCEWXMUQ3Wwv5KrgcgRHaD3OHU1cDrg/fR0ScALLEBBTWZYTG1hg+qjcszK3Qp1MtJESGy1cqko57wTu0CXp10pXn0zQfg8l9ZTjs5YNAaQH1oJhjUzEoSC6BUXsMc3dCVwMZYu5HIE4gQ2JCIqBTDy2tG6Ga2BQ9XNwwvLsVev/QHXXfRSHin6yauf5jPRyjelvA3KoPOtVKQGS46lWLgseLQsalxCNYuk4KW/uGkF/V7mf4ntyBqdmDTC4q10Fza3NUF+vD4vvh+K5VI7T7qS+aidJRvdtEDO3YBC3690FLzeeIjOIaS9JxeHmHokmvTpB7RNMcYyb3heywFzZG1iqG7qooyB5JOO7ljdAmvaBwvybMx0xGX9lhePkElkxPJeoNB2POzBFwcJyPfVudUPvxfuy+zvXjAvxZmNR5UUfDwXMwc4QDHOfvw1an2ni8n3+BKpckX/XOBdfXsoflQuzpEygper4oA8pieGSUAumbl3gt5dqDQWs4rvwb92/twthvYnBw2nRsU37nWpBnNuMnt9wTiwbE6lw5UqnKSQEa6lyTyURGuspUjsro5jQMtS/7YGNIOqL230LVAR1RUZmau25pTCSeJHIDruNUTJ3K/bguxvYzf2K7c2MutSRyJcP/Rgioig4qZxWfu0NwZem17YvWL3ww2WMbwnRrgl8wKf6b4riJOFtsCZ4/ikKSjLteeUao3wRdOppxmqugSHuVDKFBf7gMN8DJZesRkvESB48Ten1fo/gdTvoKkU/4VyIIoKGpKb9OJJ+opXge+VSepWyRIFPFswhZXCSeJshAKW+R8D4VGSY/YNXR49g0pqEyR3mhjaZjN2C5Q3WI6B0SE4WoWs0QmnxbyQq0uDbG/xYZVoNxWe4Flgd2BKlEUX5eZIh9FIlYKSHpbSLnDSGqd5kMT7d+qFeYDJLMoh/1qCLZHzdCCFV0Kme3HREX1eZ0GT207dsaL3wmw2NbGHRrGkLI2ae4rVhDneusmRlIJwki7oYgPutxrRxNNGpUH3gWjihJYfWUcGwqBjly8Sq2Rd/WL+Az2QPbwnRR01DIP5lRZOQn2KxAnEdDzPVjKVe3qpo1oCg2XYVchY0XBY9LkuePEJXE9Y+ci9CkS0eYFfRljPwBgZizN1djzvVqEKvJ+KYNScRdhMSLuCw5+mk2aoT6eIbwqIwS6q6KXPaQROBuSDxEnDw57m8EhfujSq5nPjQtW6NpBW4MSeB6TGH+LDGasGzdFBXeJoArulAKt+f7ks0XpaTY4z+jbEm/6oMN/jkbTyo1/AEr/xiD+mkRePS0VENziVGzcMSothHYvmo1tkeaYVAT1TOGSFsPOpKrOHToec4ExAUEt249Ux4UFxE0NcVIi3qYdx8F19kU/S0F56d1xdh7HeHpNR2DLQ1yDf4lRQj9qjqQBZ/F6ec502by9RM4x29W+mgUwZ1UlrssXo+s7qqOluMnomOkD7zX+OC8rj166ymTVJF74OQR6cNAXz3XJEbcnJ3J/csN/lX1leeKoiQrP6oRVqwMLZEAlPwO4m+6oWfPntxPD9g2NeaK5wd8ZcYy4T0iLp1EQPaLvnTQrq051NQaoFFDMSq1aAlzNa5Czg7ybzdytue/5abdxBLfqGy6H6//hwhRiQt+xNxdeVLgDQTldOHyQaQJTXEaoh7m3V/ItzNFlzmPaV3H4l5HT3hNHwxLg1wTZokQwtDIAKLYRwh7k9Om+bLUatVH3cyyqqfkpJyfhq5j76GjpxemD7aEQekHhUIobLxIKnBcEupXhY4sGGdP5xobk6/jxLlo5UHpERoawUAUi0dhb3LKVjgE9etykVJZIjSEkYGIu5kIQ4775ZWhVv26H69nWgreU12YNVAvc3+mpbwH1TUDV7RiTOKCzrzDsmJ+KdyemuU8XyhgAVcRJN/aDa+FC7GQ/1m8HueeFxFGFxfpI+zwXIOg7M18MsQ9eYaUWl3Ro7GiM8kn7+yIm5tc+M/ZE7qC7GPuN3f/ocybhaKhFYiwFhzG9UbqjmWIavM9audqDXnq1ukB++4inJjaEz8t3o+/Lp7CJjcPHH/HRxBFyJWHiuhs1w16wT5wX3MHvOrJjyPwWpKMhPhUSDNf4qZ/ON5nZEIiS0H4pVt4LklDStwDhD750O4C7vZMjRIRH5eKyOAw7oxCX5m8biGMetmjs9p5zB7qii1nLuPc7nlw2voKdfivFXN5SmYvLn922RxqRjCsSgi/5Y+4jHjcPXQQN+OlSPwnBhlSRQcV1nCAyw+a2O9xFLUdbLJXD1UivzvlapFKIJG+QXiEAD0GdIWeUIb4mBj+vhXxCW9B4jroZddScU2WLAUKrVhp4AqFRCLFm/AIJMp9xaflXPNBMblPaHeEbWstLsi5iY1LzshfTCmLu4jdR8I5B+hCpzI/YqUjLU2GjCcPEKl8rUl2WQXBB038b6nyN4fszXY49+iNDm2+w29/PkPa+wc4dPI+qg1yxfCvRBB9NQhDOlYB3sXLNxUnJ6dAKqqJAT92QyVlGXlRpX9e9RS/s2T+IEHxOx/aXfrARkcISfguLNmp+IJGRtRVXOPbKHeN/KrsS7PaWK62lq/8lNsbMGXsHBxStZu7YmfYddNDsI871tyR9xg8jngNSXIC4lO5VvHyJvzD3yMjUwJZSjgu3XoOCTe5xT0IhYouw1WZywBZyGUWwnjgWAw09MfWtf7KL3Yk4EZADDo5jUDj6MLqKckYwCFQh7oaITE+DqmRwQh7W5hcUry86Y/w9xnIlMiQEn4Jt55LuEk2Dg9Cn8hvePg+mffSrGPut8piVclVyHih+7rAcelBKjc2dlbD+dlD4brlDC6f2415Tlvxqk5VZbn54GXNli+L3Mf8Z8VYIzQeiLEDDeG/dS38ld+0SbgRgJhOThjRjLvDKFR3VXBpBdlDaIyBYwfC0H8r1uZUhoCYTnAa0QxCo14l05OD0tOUL/+VIHKfH55+6wrHRoJC/Sn7YExXBSE9TflaYUkk9vk9xbeujmjEmURkaAB9isDtmwnIiA/CwQP+iJcmIi6WuzMq1J7qhc8XZQVnbMZnIOWAC/Ue4kDf9elPDsNG0E+DepFt74m0PUTxddd3IYdoRkc9EulYkavvVbp2YDpZ6Yioqo07+QY+pIA908haV40MbGfRUf8b5OvSnnTUqpLNzL0UEOpPu6dZk66aAdnOOkZhBW2i5Em7Rm69p9J5xb5JOXnrDib+/XTSmAu0aGBTMqogJq1qljR09S16R4kUcqgQuUJVfD9dGkNXvAdRcxN9MrHoQSPnOZGtaTOym+FDV19l0MMtQ6ihng7VbjuY5h3cRKPq6lIDu5UUoOqr7ukBtMjWhPTrdSGP4484WWZQRz0R6Vi5km8w/2UAKb25sJC+tzAh7cpG1NhuHp3lX4CZGFxCeyVT2JEZnF5c2R1caE/gP9w5Kb30m0CWVSuTUcOeNPPQIZresgHZOP5Gh+7nCCsJW0idbBYX/XX31Os0p1UVEgqrUP2OjrQhJJ27OIr2j7Ug42ajyGePJ/WqXYu6L7gs3/CZ+fQsubauSAIIqHL7mfTXM1UVpNL1Oa2oilBIVep3JMcNIRRzdzV9ZyLiRlgxfTPqMN25+DO1rSQgCKqQ9ewr9CLqw3JT7vxOfWtpkkBQgao17kA9Rv6hfGGohMI3fkfVxULSqtma7CY4Umd9ITd3G1CPJTcpTrFvNS/SeHpwyY+WfV+XuPFRvrl8yB9H6NbLTK4t+tOv7XSJX1CDQETiCsZkOdKHgnL5PjN8Jw1v2pIc1++in7uYkc2c88rXiKgiv/5B9PisK7WuyOtbmdrP/Iuexd2l1d+ZkIiTRdxwNB25c4Hc5foLScdmPl1T+QqCTArfOZwaVhZy8lelbzp8S0PnHqNnkkS6u/o7MhFx8ou/oVGH79DFn9tSJU4fQRVrmn3ljQq/pdPjFbZUVb8q1RtxRFl+XqQxV8h7UHMy0Tchix4jaZ6TLZk2s6MZPlc5FzykLUMakp5ObWo7eB4d3DSK6uo2ILuVAZS/yyQG+5JLex1Sq2pDM/cGUKj/bppmrUtqBrY061gY18r57yuspRFWlmTj4ExTnB1pvPdFku8/LrCe83SzpGMApVPAIltOn3rUxeM4PQgqXK63D7fQkIZ6pFO7LQ2ed5A2japLug3saOX5m3RouhXpiLh+7O5LgQ8DaE92P95Dh7e7UHsdNU6umbQ3IJT8d+fIdUzloFjAeMG188LGJembC7Twewsy0ebGgsZ2NO/sS+WXAfKRFEpHfrYlAzVdsp62h25G3qcTi+yotloFshi1ni5FPKa/VjiQmVhMDRz+oEt8n34XQGtHWJGljQM5T3Emx/HedJF3SGJIIbofpQ/NnkjBvkXZ4x0FrB1BVpY25OA8hZwdx5P3ReWXgjiKrSd3RZz/Rpr0bTvqZDeKps6YQM5zDtADpcklBfmTN2aeMf2V4oLcSOPIf+Mk+rZdJ7IbNZVmTHCmOQceyNuuHOkLOjDOgqpWMSbzb93Jz286tWxgQ44LDlOoooGrtqecgvxfdrC/pchglCNvD0+Ea5w7fByrF72cnP4aIXeeQ9PMEvV1szZWy5D0NBjBz9Khb9YMXxuWdAdnOl6H3MFzTTNY1tfN+SJESUmPRuidx3in/RWafWMk3zirQIr4R7fwMLMWmpsb46P3l0rf4knQPTxN1YTJN01QX1+x2puHjFg8CHyM1OpN0LRmpSLsWkb6q0ASH47A0FhUqNMEjU0KXb8sElnMFkxaWhurFtsozzAYnwsp0tMJGhqqt5j8XyBNRzpp4FOryAIuBqOskSUi8t4rVDBNx/bJ29Bo1Qr00lGmMRj54N+Bt3/dn9AaMhV9a5ZlSMhglJyEfYPRYFQ0PIL+wtR6/4/tMQH7BjfAqGgPBP01FZ9SRRZwMRhljOT2LFi2XYD7FRpj9NaTWG1nUvTqFuM/igzxjx4gtVZDmHz08iCDURakIT5OAm39SmW6IvxFkRaPOIk29Ct9Wg1ZwMVglDnJiLgWgIQardGiBv/yJAaDwWD812EBF4PBYDAYDEY5w550MBgMBoPBYJQzLOBiMBgMBoPBKGdYwMVgMBgMBoNRzrCAi8FgMBgMBqOcYQEXg8FgMBgMRjnDAi4Gg8FgMBiMcoYFXAwGg8FgMBjlDAu4GAwGg8FgMMoZFnAxGAwGg8FglDMs4GIwGAwGg8EoZ1jA9SWTkYLkdJnyoAyRxCLo4AqsPxeDcij9EyPBs2sHsffwTbwuljISxAYdxIr15xBTCuWTI/7E+t8PI0KqPCF5jmuH9sLP/9X/gS0/EykPcG7fPpwOSfz8NpQ8wWXfvTh6KzqXLDIkXPPBvHVXEFciASVIjn2D169f4010ItKUZ8ueDNzfPQuTJrpi7bUk5bnPgRQp8by+bxD/vqSe/FS2YjA+Hyzg+lLJuIwFszdhvZMz9sYpz5UFsjjc3jsP4xxnYmtAAv79f0hTDVUrRMBn3CRsfpAVBRWEDHG392LeOEfM3BqAhBIqn3L/IDzH/ISJv5/Hy6yq1AygFemD8ZM2o8jqGSpJPvMbhs35E6n6VT77gJRxfSVGT9uPf3T0c8lCiAu7hLPn7iK6RHFEBqLPuKJtjeqoXn8U/N4rT5cxsmc74D5pMdat/wPTpq3GfYky4TPw9tpC9P7aFOZOR1Gy0O/T2IrB+JywgOtLRb0dXGZaoJJ5H1jrKs+VBUJ9WA4ei5711ZQnvnBk0fBdvQvPCpnotCymYdfa5og695S7xy4MIfQtB2Nsz/pcmFYSZIi5sgWrjz6Chq42N6sEYe/yg8o0TTRz2Y31rZ/i76elj7hk0b5YvetZ2a/wFMN+n5c0XAkQwGXv77Cr9tnDLQRdSoD9js0Ymad/iFDfcSeu+jqjYYkajhZqt2+OGuWq1lucWbgG0fY7cPfhUbho7sOiQ59r5VqE6r2X4+QBV9S+tg8nE5Sni8WnsBWD8XlhzfuLRQRNja/Rf+y3qF7WXhKoQU2k/FxsJIiPikRMhvLwkyDFM99pmHXgNSSFrkYJUc1uOX7tXxkC5ZmCEUCtxMoLoW3WEb379sV3rU2hplUH7b5tpUzjEBqjr/ev6F+56NpVIn0G32mzcOC1pIxXHItrP8678VGI/LTOVSJDs0krMaWZlvL4c7SzLISoNcILc6x1lMelQCb7INgpZasoHrJ01HD0xd9rBuObWt0w79QRuHxdULj1oWyFU3B+GaenaoQw6roQJ/wmoxEVXpuqIsrVVgzGZ4YFXJ8NGeL8N8Nz1lz8MulHDJ6wBtfjMvHsymbMtGuJlk6+SNDShyRkG2Z81xKtJvgplujTHuLAnEmY4uEOJwd7jF97AwkFjopx8N/siVlzf8GkHwdjwprrefeg0DsE+ExG/87W6OPiiwiJDG/uHMQ8+9aK+jkZY4MPYS533GqMG1w7N8NPW6Lllybd3YOFc+ZhjutIDHGcD7+Hz7HToR5aup9A0EFvOPd3xvawAGye1A/WHXphyt5wbipVIIu/iY1z5mDZ2mVwGz8VXht3YOeuI7idZ1OVDDHnF2Py7KOICj+JBa4zscX/BYIOeWPCACdsunIAM/raoL/XZcTe9cOyiUMw70wySBJTZP0KCO8CfDC5f2dY93GBb0RBz2Ey8PSUF9w912P7hrXYE5gIEmujplkNLi0NDw/MwaQpHnCf7IIpc9bjRi5nvA3aBU83D3hk2eiRiuckshicXzwZs49GIfzkArjO3ILbXLCR9vAA5kyaAg93JzjYj8faG7w3lLwNwi5PN3h4uGLkEEfM93uED0v+0H6bztzEwXn2aN3SCb4JXI7YYByayx23GgM3185o9tMW+ZWfwrc57ewENKppIy5/O9sYUmZ1RV9bi7FdLdHcajiWXn7JhaEyJNzdDZd+32H6oUdI57Ml3cWehb9i3frFGC236UM83+mAei1/xqWXd+G3bCIGjtuMqAIWMTPC92Nqr574caIdzA3N0Pu3i/n62lsELP0BLU0rQtOoLaaf5PeIyRB/azVGWFmgWfMumHslDc/+/AV2LbjjFg7wichE7KUFGNiaO27WHF0n78Oj91LE3FyL0Z2/hatfJDKEhviqyk149OyGodOd0berC/58J+YqfIt7m8bApnkzWLSdgGWrHNGqmiY0q7bApCOvuZrzU5z8yQjaMArtv2oKO5cZGGzVGE2bt4VNj5+wKojzivQlTv/mhImzF2LxbEd0bNIB4/dFyv319t4mjLFpjmYWbTFh2So4tqoGTc2qaDHpyId7L1XaisH4P4AYn4WU63PIpuciCk7lDtIv09QGYqox9ix/QFddG5BWt7UULeVzptMVF+645waKJwmFLmpL2rar6BWXln51GplpdaRlUfKM+Uih63NsqOeiYFJUMZUaiGvQ2LNpRJJQ8mylSbV7utG6Y4EU8vdsalfFhBxPyHNy9ZvlqZ+Xp0LrKbRpw066FiOl9JDl1LXFODqVwKenULB3Z6pq0p1cZjiTx64rdH2NPZmIa5GtsydtOX2J/FxaUEXj4XQkmcsueUIb+piQ7e9PiS8+8Zgj1ahgTiNWHaFAruy8ZFLwXEvS6rCEIiRE0vjHdHXdYDLl9Og8fTVt9Z5Ao71OU6T/BnKooUGtPEMpIyG88Pp5G3q2Is3aPclt3TEKDPmbZrerQiaOJ+R2youUYo6PI8vOv9GdFP4wmg4MNSVxvUl0MZ034yJqq21LqxTOoGlmWtRxWZRcr/Rgb7K15GwUz5eTSiHLu5JBDXva8TS/jhyZwTTXUos6LIngpOPg/LOorTbZrnrFlcXZfxrnj47LSO7m9GDytrWkcYqCKZX3hUENst+hsGde8tqPJ/2qK9dmutFahXPlxw0qtKYpmzbQzmsxn9C3hbezK48flWFdUnq6vifpGjqQr1wvjqRT5D51F73hs6aH0PKuLTibKhJTON91rmpC3V1mkPPPfhQa7k8bHGqQRitPClXaMQ+pN+jnZhWoUu9NFJMeRLObiUmg3omWP5GSJNKbrMQggbgBjTn6kuJ8HchAKCD1LH9mcvktxARhNUX/Sz1CwwyFBLElzQ/J5DK8o9Nj65AIQjIcvI8bAzjSr9Cs0b9TOC9LymWa3kiTdOy2UxzXzk44mpC4hiMdf8eZKNyL2vN1i0xowNYI+mffYNLn67ZaSpEq9Cgqf+qFydwYwh3brKRn0kwK/KUpiYUGZLftJWdhzsZru1MVkTEN2vOGJC9Wko06SFjNkeTDiiScvNpzegpEZDJgK0X8s48G6ws5O1nRUqUwRdqKwfiXw1a4PguJOLJ0HaS29mioyR2qt8PPviexY2obeapQmNctIpFQudQugFH7YXB36goDWQzuR8RBIEtEQqKK+7/EI1i6Tgpb+4ZQVPEzfE/uwNQ2Gop0CGFsPRyjelvA3KoPOtVKQGR4nPxOUijMu7DPyyPUM4fdqCFoa5CCE4u8ENL4W3SSP3nRQuNxU9CHzuOMaBjmObRHS+tGqCY2RQ8XNwzvboXeP3RH3XdRiPiHKz39Kk5dSIWxiaF8eVXbqj2aIgZS026wMCi8OQp166O1lTmM1QzR8acxGOb6B3ymd0cdyw4wr6Z4TCjUqVd4/UqExtYYPqo3LMyt0KdTLSREhn/4DTRJGNbP2w397x3RhH/iJTREN1sL8OsHPAKj9hjm7oSuBjLE3I9AnECGxAT+m3ZJOO7ljdAmvdBJvv9OE+ZjJqOv7DC8fALl1xaKwAjth7nDqasBZDH3EREngCwxAbybk457wTu0CXopCoam+RhM7ivDYS8fBBa0SJcbzpd5vMv7VqgHc7tRGNJW85P6trB21r7+V2VYlxA1f5iA/ponsXn/S84/nL+OnoOoVz8YcVmTTiyCV0hjfKtQGlqNx2FKH8L5MyIMm/sdvqlniQ7m1VDQg+i08xuw9V4G9Exroop6Y4xdsgQe8zi7meSSQ6MxOtlWR8Wq+qgsIMhioxEt9xdvf3kOJSJw3T0XldFl0mi01CTEHl+PHZFSZNy5DOo4CHU4gd6f24TtoZmorJGMOxeu4lWGBujVXzgZkK7wLV9EhTYY8H1dVDKsiipc3ZQQhzhVj5gLzS/Dm8A7eJLJqaJvCH0ur6GBHjf+xCPQ/wG40xBV1oO2hgwp795DmimRjyWU8A/+ka8KZulZAW0GfI+6lQxRtYqAu+FPQFx+YQq0FYPx7yZP12Z8IiTP8SgqCTLKGmiE0G/SBR3NKiuPC0IIvbZ90fqFDyZ7bEOYbk3wN8PZxeRC8vwRopJkOWlCfTTp0hGqq9CAujqQmZFe9B4iSQSCQuKgpq6ZM3FXaIzG9YEXEVGQb73hB25BrslUQwx1SCGVcqWrm6OpWQbuB4XJ88oSE5Gk8TUaf50VxhQBV65QwJUnzj1Zc+dyt+TC6leBhkJ5pOdPTvbHjRBCFZ3K2R0lJ/jlqtFri76tX8Bnsge2hemipqGQXzGW2+huSDxEYnGOjTQboRFno2fhUcoThcAFQG37tsYLn8nw2BYG3ZpcUMGVS5Ag4m4I4kVi5KiviUaKghH1sfuePrdv81OWdVXuBqdhtXHZZyNC0qOw/1ZVDOhYkUvgbBoUgjg1dWjmKI3GCqWzbSrI08ByI0Pso0jEcjIlvU3kpBOiepfJ8HTrh3qFbbCXZGY/Gi0K0dcjMK6HDgQpl7F+/SX8eTIFLXvzgaYMcZFPkSAjpLxNwPvUDJj8sApHj2/CmIaq7CCQ+5WkEkjz31yoJHd+Ti/rzmjM3Xikx75GrEyGV69jQWrV0alLU+4mRAiTIbvx5NU5/Pj8Z3w/4xRec24iLlAraLuX3LUkhaQoYUpgKwbjS4YFXJ8DLvipqiND8NnTeJ491iTj+olz8k/ywZ0bhHIPQ/xEzg2rOD+tK8be6whPr+kYbGmQa+LNi1C/KnRkwTh7+nlOOcnXceKcYg9WYchX2PLXL/+PQ2gIIwMRYh8/RM6CkYi7Rg01v6rLTYhFoNYUMzbPRY0zv+KXZX9g0fIHsNq8FZPMSryLv/wRaUJTnIaohxF5BnyFL4CU89PQdew9dPT0wvTBljDIckaWjR6F4U22jfg0NdSqX1dxWBgp5zGt61jc6+gJr+mDYWmQFbgJYWhkAFHsI4TlFKwouVZ91C3S+Bx8EMOFBXkmQfnEyP3+xL4ttJ0VRYnbkRosHEehbcR2rFq9HZFmg9BEHhBl2fQxHuZaARVxsqnV/KoYNhWiEheQiwUyJAXeQFBJg14BH1QqPxeE0BgDnQehpjATDzaNxlJJZ3TXliegYmUtiASE5HdifNOtJ3r25H562KKpcdkP7eqWs3Ds6C+werkVUydNxOKgbzBt52mstlO8QkPyaBt+bNUGzretsOT3gahT9iJAkhSPtyW1MYPxhVAOXYJRJEIj9LLvDLXzszHUdQvOXD6H3fOcsPVVHS5RBEMDfVDEbdxMyEB80EEc8I+HNDEOsanPcdM/HO8zuDs+WQrCL93Cc0kaUuIeIPRJ3t28QqNesO+shvOzh8J1yxlcPrcb85y24lWdqlwqN6lxc4t8ks2FfHWGm5gMjaqCHvnjWixfvx/8biVA9j4Fyfx8xA/+YwfCwH8rfAKVryd8dwt3Ym0wfoSF4nUL3GzOr97lLV95LIvByZVnYbZkJxa7TITHivX41a6gyVwAdXU1UGI84lIjERz2Vn6W+FWO3LO0suzsFcPC6uc/qVaey5GPip1h100PwT7uWHOH/8pCMh5HvIYkOQHxqRl4edMf4e8zkCmRISX8Em49lyAtJQ4PHqTBjrORIWejtf4pirISbiAgphOcRjRTHOdGoA51NUJifBxSI4MR8uAm/MPfI4N/LJMSjku3nkOSloK4Bw+QZjcWAw39sXWtPxd+8yTgRkAMOjmNQLMPVlQ+tJ+aoRGq0iP4X4tFRnwQ/PxuIUH2Him8cz+pb4toZzxlVpcCYS0HjOudih3LotDm+9rKwU8I44GcTQ04m/oEKl+4+Q637sTCZvwIWChtKu8bMhVthEO7Sx/Y6AghCd+FJTujuNYJZERdxTW+T/Ly85myL8wqQ/lboAsd+bdb05GWJkPGkweITFbmyL6Ga4qdxmOEhTrorSZa97OSbxPg0e5oi9ZaQObNjVhyhn8dhAxxF3fjSHjuuvPVmf07H0XllzzAweWn0OCPazi0ai0OnNyPBYMagl8n5L9AcsbLHXsfZcK8Wy/UfssFRnI/ctdm/VYUrvzNfcr3O7verGM+b67fGQHz0c7UAMaNnXFKMRQwGP8uuIGE8TmQvqELC78nCxNtqmzUmOzmnaWXyo2s0hcHaJxFVapibE7fuvuR3/SW1MDGkRYcvkd3tgyhhno6VLvtYJp3cBONqqtLDexWUkCS4trcSN9coIXfW5CJdmUyamxH886+JAklUrCvC7XXUaOqNjNpb0Ao+e+eRta6amRgO4uOhSVz9fvSmCa6VEG3AX07+zgdndGC6rZ3pCUnH5B83zm9o4C1I6lj2140dpYnzZ85k1ZeipFvXqbEEDo03Yp0RFXJxt2XAh8G0J5p1qSrZkC2s45SaGIY/dHdgNSEaqShVYm0dQ3IpL4l2c0+SS9VbIxND1hEtib6VK+LBx0NDaR90zuSvqgSWY5eT5df8AZ7RyGHZlBHPRHpWLmS79Vrhdbvf8OXXNrrkFpVG5q5N4BC/XfTNGtdUjOwpVnHwpT65SCNuULeg5qTib4JWfQYSfOcbMm0mR3N8LlKkodbaEhDPdKp3ZYGzztIm0bVJd0GdrRS7gzeRiPIytKGHJynkLPjePK+GK2w0QekU8AiW66OetTF4zi9ynhIW4Y0JD2d2tR28Dw6uGkU1eV8YbcygOQlB6ylEVaWZOPgTFOcHWm890XlxvMPyW2/4/zmfukL8h3ThHQrcO3m29l0/OgMalG3PTkuOUkP5Mp/Ot8W2s7KuK4s0q65Ue+p5z/4ggRv05Ed21KvsbPIc/5MmrnyEmXtvX8XcohmdNQjkY4VufoGU8IH5WdS+M7h1LCykATiqvRNh29p6Nxj9EySSHdXf0cmIi5eEH9Dow7foYs/t6VKApCgijXNvvKGu1ZC4Ru/o+piIWnVbE12Exyps76QIDSgHktuUlx2XVJ6uaE3Gbb5je7n2fCeQnd+70u1NAUkqFCNGnfoQSP/8Oe8mLvuhjT6yB264N6aKnJ1C3VsaP61GOX1WRSdPzPwF2oqFpGumTV179GDevTsTXZDnLlx6SFnz0y6Obs5aQkEJK75Lf28ZTkNraVGAk4P28U3KfHuavrORMTFTWJqOPoI3bngTq0rCjg9dchm/jXO1kXbKu38ZKovFpDIcDDt/UcpNoPxL0LA/6OMvRiM8icjDNt+Ow3TH/vAOJm7C36XgqTEF7ix5TA0FuyH2zdf4KPFz4YUGRn8KtW/ZCH6U/r2C2xHkvhwBIbGokKdJmhsolj3KR5SxD+6hYeZtdDc3BhZX2vJjzRsBeZctsP8MbU+eDSRHh2KO4/fQfurZvjGKGv9q4xJuYZ5Xfvg1xvxyL0dUqDZBr/dvgL3hu8RdSsUqTUs0NBIHRkxobgdpQazFg2gVybukCLuQSBeaXP2rVaQlRiMLxcWcDE+IVKEr+iGXoHOuL69P/SUZyF9Dt/Z26Hj9jO6FvW9gf8MEtxfZI02f3yN3Y82o09J5u/Pwqf07X+nHcle+mLi0LWoNGMfhjzZinD76eivr0z8xCRfnI2eE4Px7cKZ6GIogkySjvgH2+E24Sb6XrqNXy0/eKbNYDBywQIuxidEhvgLnhg0bDnuVbFAu8amqCRIRSpqouf0uRjZjEVbeXmPxEQRdHT+DXfzn9K3/512JLk7H23bzMfzloMx9Mdp+G10swJXwMqb5Eu/oMuPp9Boxiw4NDOCRnoMwi744Tx+wLK53eWv2GAwGAXDAi7Gp0cSh4cBgQiPl6FKzSawbFwNWX/YhfEv51P69j/RjqSID7uKu8m10aplTeUG9c9IWjTCgu4j6p9UiKpUh1nTJqitzbYBMBjFgQVcDAaDwWAwGOUMWwRmMBgMBoPBKGdYwMVgMBgMBoNRzrCAi8FgMBgMBqOcYQEXg8FgMBgMRjnDAi4Gg8FgMBiMcoYFXAwGg8FgMBjlDAu4GAwGg8FgMMoZFnAxGAzG50DyFBd3bcKuS88hVZ5iMMoSScRf2LppH66/linPMD4nLOBiMBiMz4GaCUwkZzHXxQfBEuU5BqPMSMOl5ROx5Lo6arK/u/RFwLzAYDAYnwU11B+2Bb7DM3EtlEVcjDIm/RYCK7rBb40dTNhM/0XA3PAZyEiKxZvXr/H6TSyS8o+zkmTEvuHS5OnRSExTni81Ejy/dgh7/fzxKs+qsgwJ13wwb90VxH3G1WZZwjX4zFuHK8USQoLYoINYsf4cYj5a5oL0l+F9/Bu8Sfhow6tGEouggyuw/lwMV1MhSFKQlJb3QVPJbJWMiD/X4/fDEfkeV0kQdWk/9h2/g9iPtGHKg3PYt+80QhI/2hnFIzkCf67/HYcj8j+Ay0BKcnrh9iwWZWebD+wvS8A1n3lYdyUur5zcQc2BU+DQQE15ooRI4xDstxLr/nyjWv8C632P+DdvUOpmXmi9xe2nZWnvshwbvnSKqau4OUZO7Q6DEtgjOeJPrP/9MLK7mOQ5rh3aCz//V6rb12elKDt8pjG+EFjA9cmRITU6FH+tG4v2tU3QeNhePMvdGNL+QeS1NRjSvDtmnw7F65SPbeZqMNCKhM/4Sdj8IPdERYgLu4Sz5+4i+jP2JIoLw6Wz53C3SCFkiLu9F/PGOWLm1gAkfPRfAFWtvzR8NfpbmOObRkOxM2+E+vHI4nB77zyMc5yJrQEJnAQFkHETXr+sx5aJ47E1lwzFt1UK7h/0xJifJuL38y/zBlzpl7HMcQYOxGlD76N6fzLO/DYMc/5MhX6VTzCMpNzHQc8x+Gni7zj/MrdGGbi8YDY2rXeC89445blSUma2UWF/ikPYpbM4dzc618QlRfjq/rAw/waNhu7Md0NUDGSJCD7wG5w5mTf5x6tuT5+83hL00zKzd1mPDV8yxdW15D5OuX8QnmN+wsTfzyO7i6kZQCvSB+MnbUae6eOzUxw7fIYxvij4P17N+Bwk09ER1Ugo1CHrhbcoRXlWjuQhedlPpLNpyuOPRkqvj0ykUX9EkER55t9JJgXPtSStNgvpQXkoIn1FB2e50rb7CfT4gCs5eJyieGVSmZEZTHMttajNwgeF+EJCqYnXaYOXHz0tqZ7SaLq8eTEtWDCbBpiJqaq1Ey06EKJMJEq/Po9+mn2ZEpXHpSb1FLn9uJTu5Gm45YM0+jJtXryAFsweQGbiqmTttIgOhGQqUzlrpcbTpXXedOKlVHmmdJSJbYqwf26krw7SLNdtdD/hMR1wdSCPU6VobZIw+q2VFrX49X6x+3b511u8fvrR9pa+of2rdtJTudvLeWz4oiha15L5WErRlzfT4gULaPYAMxJXtSanRQeUaRzS13Rk4ij6I+IjDJvHV2VFKXz+Kcb4QmAB12cjjU4796YBA74mTQ0zGnssmmv2SiQRtGzoFDpXZgEXTzq9fhmTU8e/EgmFerYqv0E1M5pex+QUnPbqJcWUtcEkoeTJTVSFB1wcaf9QTGJpKk+jmIj7FBISSF62FajmsB0U/CxnSst885Kiy8J2Ka/pVXwu+TLjKDIimmtl5UBaDEXcD6GQQC+yrVCThu0Ipmd5bJNCMTFJys+lp2xsU7j9c5MZ/ZpymlsavSpN/5Q8pkVtSxZwlX+9xeunH2dvCT3dO5QadFpCijignMeGL4qidS2pj9NiIuh+SAgFetlShZrDaEfwM2WKkvTX9LLUg2F+X5UVpfD5pxjjC4E9UvycCHVgvWgfFlnHYZPjcKwLy1Am5EMWj5sb52DOsrVY5jYeU702YsfOXThyO0aR/jYIuzzd4OHhipFDHDHf7xHeK1KQ9vAA5kyaAg/3yXCZMgfrbyTIHy1IYu/Cb9lEDBy3GVEqloolMUE45D0BA5w24cqBGehr0x9e11NylecEB/vxWKssr0gSb2Pbwt+wdNlizJk2BjO2PeSFwF2/ZZg4cBw280JIYhB00BvO/Z2xPSwAmyf1g3WHXpiyNxx5t7oR3gX4YHL/zrDu4wLfiA83HMuir2Ht2K6wbG6F4Usvy5fIZQl3sdulH76bfgihL1ToL5Th8cH5mDnVEXbfDoT76WioCyWICToIb+f+cN4ehoDNk9DPugN6TdmLcBX7nDPeBGDfwjHo73EUj47NwaDObWFt54pd97M8ooTeIcBnMvp3tkYfF19kq5D2EAfmTMKUed6Y7TQY49feQILCYXltpYqMpzjl5Q7P9duxYe0eBCYSxNo1YVZDm0tMw8MDc+CycBWWT3CA/fi1uMEXnPEGAfsWYkx/Dxx9dAxzBnVGW2s7uO66n92GspG9wZ2D82DfuiWcTmigmnYcgg/N5Y5bYYybKzo3+wkbQwJx0NsZ/Z23IyxgMyb1s0aHXlOwN9tYMsTf3Ig5c5Zh7TI3jJ/qhY07dmLXkdvK9LxkPD0FL3dPrN++AWv3BCKRxNCuaYbqb69h80w7tGzpBN8ELehLQrBtxndo2WoC/JKUF+dHFgf/zZ6YNfcXTPpxMCasua7c21GAbeTIEOe/GZ6z5uKXST9i8IQ1uF7QHroC7V8RsXf9sGziQIzbHJX9iFcoe4yD82diqqMdvh3ojtPR6qBnV3LpxdX++kbRemUjRcTucejcri8meu/BjdcZxa5XWOy+p4r89WbZp6B++rH2liHm/GJMnn0UUeEnscB1Jrbczho7Cx4bZG8uY92cLL1dsOXOW2UKP4TugqebBzxcR2KI43z4Pfqg9eeQFo6ji10xcdJEjBnpjFk/j8b0XS+RWZjv3r7CuV+/R1uL5uji5IOb8k1Hybi/eyJ6dB2HrfdSFGXnoShbFKyrSh8r0/KSgaenvODuuR7bN6zFnsBEkFgbNc1qcGkKP02a4gH3yS6YMmd9Lj8V12aqfVXoPFLIfKYa1XZQOceVwRj/USgDL8YnJ41OTxxKK59KSfrmKI0106SKzabT+QQuKc8Kl4SebOhDJra/K5ZjE4+RY40KZD5iFR0JjOHuPILJ29aSximXjFNDllNXgxpkv+MpSSWh3F2oNtmuesXd3aTT1WlmpNVxGUVJpZQY6U8bHGqQRitPCv3g7kBK8Y+v0rrBpiSu0Zmmr95K3hNGk/fFgALKU15WIJl065f2ZL9TcaefdnchjfntDkkTI8l/gwPV0GhFnpwQ0oRwur7GnkzEtcjW2ZO2nL5Efi4tqKLxcDqSzF+puKPRrN2T3NYdo8CQv2l2uypk4niCUuUl50X6dD311DUkB1/eqDxJdMp9Ku16k6lC/xS6OtueppxQrDQmX5tOjdVNafihKAq/vobsTcRUy9aZPLecpkt+LtSiojENVwiVCylFP/ibFnTRJvXG/Wj6vPW0a8tc6ldHndTNptIF/vGbfIVLk2r3dKN1xwIp5O/Z1K6KCTme4DXg9FvUlrRtV9ErToj0q9PITKsjLeMMnN9WHyCNoePjLKkzZ1e+Gmn0ARpqKqZ6ky7KV50koYuorbYtrVIUTNPMtKjjsijuhu8B/b2gC2mrN6Z+0+fR+l1baG6/OqSubkZT5QLng7vWlbu221rliix/3KACtZ6yiTbsvEKPH12nNfYmJK5lS86eW+j0JT9yaVGRjIcfId5akicbqI+JLf2uaMx0zLEGVTAfQauOBPKl5UEac5zGWXam3+TPLTnbHhhKpuJ6NOmiYh0t/aorNdDqRmuj5ZJQ+hUX7rgnbVD5jCCFrs+xoZ6LguVtJf3yVGogrkFjz6YVaBu+1JTrc8im5yIKVlxEUxuIqcbYs3yBeSnM/tJEivTfQA41NKiVZyjnZY6UqzTbfgqdkMueTNemNyZ10+F0mJO9RHrlWmnKTA2lbRMdacEF5WpGCeo9FFVU38tHYfUW0U/LxN5Zj5M65F3hKnBsKMzewd5kazmOFENoKoUs70oGNexph6rnX5IHtO67djRsb5S8X0nf7CZ7Yw3qsESxXaNQ36XfoblcX6g/6UL2eJV8cgINXKh6dbJgW5Re17xIKeb4OLLs/Jtia4A0mg4M5cb8epOI72KF+alENsvvqwLnJS6tsPlMfiY3hdlB1RxXFmP8x8FWuL4AhEZ9sGKfJ1o/X4Efx+zEkzwLGOm4euoCUo1NYMh7S9sK7ZsCMVJTdLMwQNJxL3iHNkGvTrry3JrmYzC5rwyHvXwQKDVC+2HucOpqAFnMfUTECSBLTECiTAjtOpboYF4NIvlV+RFCt35rWJkbQ82wI34aMwyuf/jAtUPdAspTXlYgMkgyEnFmwXgs/+sJpI3GYdaPdSDUrgPLDuaophRCqFMPLa0boZrYFD1c3DC8uxV6/9Addd9FIeKfnEqExtYYPqo3LMyt0KdTLSREhqv8pqWw5g+Y0F8TJzfvx0suXRZzFOdEvdDPSO1D/VPOYN32p0gJ3YWVy5fD55oAzTp9DemrJNRraY1G1cQw7eECt+HdYdX7B3Sv+w5REf/k3JXJEcLQrB1afqUNcW07/DJ7DByGz8GO34fCINIXe66mZ+czth6OUb0tYG7VB51qJSAynP8WmQBG7YfB3akrDGQxuB8RB4EsEQmcgfPbKj+SsPWYt1sf3zs2gRZ3LDTsBlsLsSKRQ2DUHsO4u8muBtwd5/0IxAlkSExIBCcw2rX8Ctri2rD7ZTbGOAzHnB2/Y6hBJHz3XFVenRshhALlRzncsVAIPXM7jBrSHvW/agnrRtUgNu0BF7fh6G7VGz90r4t3URHgXZh+9RQupBrDRNGYYaVozDDtZqEoLhsJwtbPw2797+HYRK4RDLvZIpdK3CmubuVHOSJRPtlykXgES9dJYWvfEJrcoXq7n+F7cgemttEo0DbcvziydB2ktvZoqLgIP/uexI6pbeRF5qZQ+wu1UceyA8xzOS/lzDpsf5qC0F0rsXy5D64JmqHT11K8eMHdUpdELyWUdAve45chZeQKuHc0UFxfgnpfJdUqVt/Lj8p6lRTUT8vC3gVRUJ0F2zsBx728EdqkFxRDqCbMx0xGX9lhePkEysvMTcopL/wW2RHOA2pDnTsW6jdCQ5NcnbIw36k3wXjXXkjevwZ+8hWueJz0e4suQ75WMQ4XbYuS65pvuUYShvXzdkP/e0coupghutlaIKuLFeynpBLZ7AMEBc1LKHw+K2C1SbUdVMxxZTLGfxx52gbj86HZdCp2bvwJWkcnYsjCO0jN/taFOsybmiHjfhDkTxy5CTgxSQNfN/6a6xgSRNwNQbxIDHH2gKyJRo3qA8/CESXRQ9u+rfHCZzI8toVBt6YhhPy+PWVOATc4FIZAIIRArJ5TtrDw8gpGHS2nr8Mv5kGY3/Nr1G8/HWfilHVzdeSRgh+wBLlmFw0xd7UUUqnqWjTUuWEvMwPpKpMro5vTMNS+7IONIemI2n8LVQd0REVlam79pTGReJLIDQSOUzF1Kvfjuhjbz/yJ7c6NuVROJm7UzJFKA5xZOJmkKnWX5+QG2qyOXrl9ezQTJSIuLk8krUQDChXSubK4wKVtX7R+4YPJHtsQpluTC7L5fZbKrPltlYtk/xsIoSrQqZyVg6s/1ywt1GuLvq1fwGeyB7aF6aImF/BwN1yKRC6bgM+fIzDaNxMhMa503/rjA7C8LpQbC7wL1c2bwizjPoIUjRmJiUnQ+Loxvs4dSMlJhv+NEFAVHeSoVHTgURCS548QlSTLsaVQH026dIRZ5UJsI3mOR1FJkOVcBP0mXdCRvygfRdmft3BOc5MiJvIJErkJzZFva9yP6+LtOPPndjg3Ls3rIQjvrq7HHwcC8fRd/jZWgnpL2PcKrzcvuftpWdi7OOTUWYje3zzF3ZB4iMRivhso0GwExRAapTyRhQSRt4IQp62PqqVqh0IY9HfBcIOTWLY+BBkvD+I49cL3NbIdlEMJbVEsXfO3rWR/3AghVNGpnD2uiERc31V+LthPESWwmQoKnEeKmM8K2HGTm/zzQXmN8aVFhacZnwchqn33O3bPa4qwBU5YFZYVzquh6YzNmFvjDH79ZRn+WLQcD6w2Y+skM25I5+76jQwgin2EsDc5cTjfaNRq1UfdzPOY1nUs7nX0hNf0wbA0yNVBSkNKacuTITalDibsv4sHl1ehn/QQnH/4VZlWvqhZOGJU2whsX7Ua2yPNMKiJ6glNpK0HHclVHDr0POeORvoKt249Ux6UBL6L5u6m3GAiMkWdWkVNpik4P60rxt7rCE+v6RhsaZBr4CkckaYmxGlReJhrH4e8XuWAnXJ+GrqOvYeOnl6YPtgSBvkK/kBiEsG0Ti3lUW74gYkzjSz3fR93ZfbEUDhqTWdg89waOPPrL1j2xyIsf2CFzVsnweyDW3wRNDXFSIt6mLO/jYcfmLOqkgegUuQVJVd6LoT6VaEjC8bZ07n8m3wdJ85FF2wbLiirqiND8NnTeJ5zEa6fOKf8nENR9s+LCNp6OpBcPYRDOQVzze0Wbj3jApcS6KVAAO3uS7BhWBpWD3PGPn45VyVF1FtiiltvXsrC3iWjEL1f6MPIQITYR2HIGUJ5edRQq35dxWE2AqhrciFoZBjCCnqFU1G+U2+J8RM7ItLHG2t8zkPXvjf0lEl5KLUtSuBjkSY0xWmIehiRZ58e32Z5cQv2k2EJbKaCAueRIuYzLgD6GMp2jC8dLOAqguRbu+G1cCEW8j+L1+Pc89IMTKrg4vmMVGRm5h5FtWA5fRc2OFRBQnxWk5Ah5uRKnDVbgp2LXTDRYwXW/2qnbHxCGA8ci4GG/ti61p+brnkScCMgBp2cRqBx9E34h79HRqYEspRwXLr1HJK0FMQ9CJU/tpRPBjJF51INl8JF+FmSSF8WUt6729gwZSzmHMrbeRVk4t5GL/i+FMKozSj8sdYJDTOUO4DlnTvXygM3UvF3ddnHcnKOiThp8iYqyygAYS04jOuN1B3LENXme9TO1eLz6K/TA/bdRTgxtSd+Wrwff108hU1uHjj+jh8OOZn4fPnqVT2ZKpDGvMYreVORIe7cBYS3GImfWvJO48pRqQJ3QvoSN/3D8T4jExJZCsIv3cJzSRpS4h4gVOGwvLbKRcXOduimFwwf9zW4w5s2+TEiXkuQnBCPVGkmXt70R/j7DGRKZEgJv4RbzyVIS4nDg9An3PTAIY3Ba4XAkMWdw4XwFhj5U0v5cR7UuMG2KuGR/zXEZsQjyM8PtxJkeJ+SnN1OZJwPeX3yiKk8lsWcxMqzZliyczFcJnpgxfpfYadyJK2IznbdoBfsA/c1d6BQKQKvJclc30jlAj5uADU0gD5F4PbNBGTEB+HgAX/ESxMRF5uRLUsWQqNesO+shvOzh8J1yxlcPrcb85y24lUd3YJt8yAVPew7Q+38bAx13YIzl89xN0RO2PqqjrLUHAq3Py8N3344/ZXO0+lhj+6iE5ja8ycs3v8XLp7aBDeP43inJyqRXpzj5OUStNFtyU78XPMknH9ciqDsgKD49RbV9/JSeL0F91NpmdhbHvyoq4ES4xGXGongsLeF1FmI3lVNMHDsQBj6b8Vaf+XG9YQbCIjpBKcRzRTH2YhQr2s3NIzbg2lOa3HhwROEnDqMG7le8lS074So4eCCHzT3w+NobTjYZK2350NohF6F2KJUuvI+zk3FzrDrpodgH3esUTRaPI54DUlyAuJTMwrxUxrsim0znry+unPpUgHzyAOk2RU8nzVTcb9a1HxQnmN8qeAKZHxqJM/o2u6F1L+eHrVxXksnQhLybghMvkkLf5xFfys3zYf90Z0M1ISkpqFFlbR1ycCkPlnazaaTyvcOvQtYSyOsLMnGwZmmODvSeO+LJN8vKXlIW4Y0JD2d2tR28Dw6uGkU1dVtQHYrA+hVyCGa0VGPRDpW5OobTAl5BJBSfNA+mt5Rn0SVLGn0+sv0Qr7ZseDyEh+vINuq+lS13gg6krUjNJs0OjulOTW0dqBpnl7065Sx9MuRp5zgIXRoRkfSE+mQlasvBT8JpkPTrUhHVJVs3H0p8GEA7ZlmTbpqBmQ76yj53/All/Y6pFbVhmbuDaBQ/900zVqX1AxsadaxMPmmbJWkXSO33lPpfC653qnQXxpzgRYNbEpGFcSkVc2Shq6+Re8okUIOTScrHRFVtXEn38CHFLBnGlnrqpGB7Sw6Gpr/dQRp9JdTTdJo0IPGT3Wnn2eMo8EOHnTkCW/ARAr2daH2OmpcWTNpb0Ao+e/OKetY2Ft6uGUINdTTodptB9O8g5toVF1damC3kgJe5bNVXodxSCnmijcNam5C+iYW1GPkPHKyNaVmdjPI5+orznVbaEhDPdKp3ZYGzztIm0bVJd0GdrQyIInS/nKimhoNqMf4qeT+8wwaN9iBPI48UbmRl6/nhe8YaqJbgbv+W5p9/CjNaFGX2jsuoZMPkimRs+t0Kx0ScT5y9w2khwF7cnx0NJQSw/6g7gZqJFTTIK1K2qRrYEL1Le1o9smXyvJzIY2hK96DqLmJPplY9KCR85zI1rQZ2c3woav8Rl7pCzowzoKqVjEm82/dyc9vOrVsYEOOCw5TqIrGIH1zgRZ+b0Em2pXJqLEdzTv7Uq5jYbbh3x90YeH3ZGGiTZWNGpPdvLP0UqVhCrP/I64NzaCOeiLSsXIl32D+Sxxc/guLaGBTI6og1qJqlkNp9a13yqKKqZc0mgJ2u5I1V66u9XTad+s1hf3ehXSEYqr57Szafv0RBRe33kSufRXS9/I08yLqXbfDh6YW0k/flom9idIDFpEt1zbqdfGgfef2FTE2FGJvrpcHrB1BVpY25OA8hZwdx5P3xVyv6clDCoVsHU1tTbWpkrEljfDxJQ9LrexN88XzHTemL+xENouLeDVMAbZIDC5qHCxM17xIY66Q96DmZKJvQhY9RtI8J1sybWZHM3yuFt4vSmSzvL46/jyswHlEXnJB81k+irLD63Ib40uPgP9HGXsxvkgyELbtN5w2/RF9jJMR//YdUpIS8eLGFhzWWICDbt8o830ByGKwZdJS1F66GDYaynP/OdJxbrwZ+r32RIzfUPkG6i+d9HPjYdbvNTxj/DC0nAXOCNuG306b4sc+xkiOf4t3KUlIfHEDWw5rwO+gmzIX41MgyZBATb2ox9yMQpHcw7w2bfDX4Hu4MK0uPngyrpK3ODzRFXHuPnCs/l9+yCRFRga/+vUZbCDJgERNHZ+69bNHil840vA1mLAgCrUs6qO+eTO0amcNm+690KlhQzS3NFXm+gKQJeDu/k2I6+YM6/9ssKVAsYD9L7qP4UT9JBJLw7FmwgJE1bJA/frmaNaqHaxtuqNXp4Zo2NxSmYnxKUg5Pgq19Ttgwf0PNwAwygdZYiTuhr5G3J11OCCyw4D/dLAlwf1FVtCvMwrHVL2CrDxJOY5RtfXRYcF9Fdtfyhe2wvWFI4u/AM9Bw7D8XhVYtGsM00oCpKYCNXtOx9yRzVC67++UPbL4R3iQWgsNTf7b0ZYsLQo+A5tj0htnXP5zLlrrfuErCLI0RPkMRPNJb+B8+U/Mba1bfnd9snhc8ByEYcvvoYpFOzQ2rQSBojFj+tyRaPalNOb/BBIkJaZBS6dSMVdlGKrIeOOLUS2GwP+7E7i+oiv0Cuw8EtyeZYm23CRfofFobD25GnYm//X1jvdITBRBR+fTzxmSpESkaemg0idu/Czg+lcgQdzDAASGx0NWpSaaWDZGtX/Ds6r/HOmIunoaQco/XS/U/QadO339xQTFqkiPuorTQTGKDb1CXXzTuRO+LmeBJXEPERAYjnhZFdRsYonGrDEz/o3I4hB87jIikvkpVIgqX1nDppFuwY+NkiNwLSABNVq3QA3W5P+TsICLwWAwGAwGo5xhe7gYDAaDwWAwyhkWcDEYDAaDwWCUMyzgYjAYDAaDwShnWMDFYDAYDAaDUc6wgIvBYDAYDAajnGEBF4PBYDAYDEY5wwIuBoPBYDAYjHKGBVwMBoPBYDAY5QwLuBgMBoPBYDDKGRZwMRgMBoPBYJQz7E/7fCYksUE4sssfOg6jYWuoIu6VPMe1o1cRbWKNfq2rFzMyliA26Ah2+evAYbQtVBVbYjJSkEwVUEmjFIVJUxAf+w7pBbUwgSZ0jXWhqTwsKbLEEJw9cx/iZr1ha1ZRebZskabEI/ZdOhQqCCAQCqGuWQXa2pol/KO/MiRc24jfgxtiwpgO0M9vTkksgo7sgr+OA0bbGn6yOyFpWhJShZVRSZ0/kiAjg9NPPVftGUmIjU+Dpp4BKsvzfEEU02ay9/GIeSeATgFtLa+PP0SgqQvjyknF808526tYsupqQpZwDRt/D0bDCWPQ4YPGxmAwPgcs4PoMyOJuY/ccZ0zYIIBb8BW4mamautMQ5P0tevp2xrlrs9CwyNldhrjbuzHHeQI2CNwQfMUNKostCRmXsWD2HWjEhMFkyVoM1leeLybSUE+0t/WFQbfWMNFMwb1j+3C7clf8aFMTlPgI58+KMS3sNJyMSjkhyF7Bb7QNJmYuwoPtdqikPF2WpL+6g7/2emL8jMN438weQ3t+DW1JDB7fCsADiRn6TZ2LGX3rFSNolCJ80zAMO90WG/Y4o6Ga8jSPLA63d8+B84QNELgF44qbWQmDuRKSFokTKxdi0/X3MG5QD0YVZEhNToNI4w1iqv2KdRPrKOtPwZUZHTFwYwSqjjgC/6XWKJ+wthQU12bScPzRyxZz/SWw+SMA+4fmv3mRItSzPWx9DdCttQk0U+7h2L7bqNz1R9jUJCQ+Oo+zauOw98enmD2pKP+Ut72KIat4GsJOO6Fq5CYMG3YabTfsgXOexsZgMD4bfMDF+PRkBs8lS602tPCBRHlGBdLXdGTiKPojopA8ecik4LmWpNVmIRVWbPGRUGr8JVrnfYJeSpWnSkD6zd9p8bEExYEkjBa0ViedQfspRX5CSs82/0bri61bAaQEkveP7nQ2VXlcHiTvoO8qiKn1gjDOIlm8o1sre5OJejX6dvV9SleeLTWZwTTXUovaLHyQq45ygLPX0q4mVO+HHRSRW2hpNJ2dYkmtfwnkWpGCzPs+5Dr3FL2MC6DVjsNp+d2P1rJsKdJmUnp1cBa5brtPCY8PkKuDB52KVyZlk043f19MOc10AbVW16FB+xWtlKTPaPNv6ykirWj/lL+9iilruTYgBoNRWtha82dCoKZW9CqG0Bh9vX9F/8oC5YmiEEBNrSzXRkTQ1Pga/cd+i+qlaClq9b/HsC46yqP8CGHSfyT6GZVEXgnioyIRk6E85NGywNQVE9BIpjwuDwQiiD4QszIsJ2zGiu8FOOsxBRuipMrzpUSghjJ1nUokuLt0LGYHWMDd2wF1cz/yEhqi66+L0V/nHbI0SdPvi7lzeqC6XguM91kB+6rpKE8zl5gibSaDqN0kLP6pIXTqD4D35gloIsmvgRrqfz8MBTdTE/Qf2Q9GXH8tyj/lb69iylru7YjBYJQGFnB9ZuhdAHwm90dn6z5w8Y3gpkSeNDw8MAeTpnjAfbILpsxZjxsJ3NAtiUHQQW8493fG9rAAbJ7UD9YdemHK3nDldVkQ3gX4YHL/zrDu4wLfiLypOcgQ578ZnrPm4pdJP2LwhDW4HpeJZ1c2Y6ZdS7R08kWClj4kIdsw47uWaDXBD0n8ZWkPcWDOJEzxcIeTgz3Gr70BXrz8CHWNYVTIszahtjH0U4JwyHsCBjhtwpUDM9DXxg6/bN2FefatFfVzMsYGH8Jc7rjVGDe4dm6Gn7ZEy69PursHC+fMw7zfZmHaxPnwe/gcOx3qoaX7iaLtJIvHzY1zMGfZWixzG4+pXhuxY+cuHLkdo8xQDIQG6DO0F4ySL2HfoafyU2kPD2DOpCnwcHeCg/14rL3Ba8BvN7oLv2UTMXDcZhQam9E7BPhMRv/O1ujj4ovcrnsbtAuebh7wcB2JIY6cvo/eK1P4J2z+2Ow5C3N/mYQfB0/AmutxH0726VewaesdSFv2Qi9jFV2/kg3GjmwGsfJQ+vovrMiqb/RK+CeLuAFDgpigg/B27g/n7WEI2DwJ/aw7oNeUvQjPMS7ib27EnDnLsHaZG8ZP9cLGHTux68htZbqS4rTn4vipQJsJIXt8EPNnToWj3bcY6H4a0bn3p8kRQtfYqJBHwkJoc+nZjwYL8Y9qe/FqBuGgtzP6O29HWMBmTOpnjQ69pmBvtsGKaa/iyiqJxV2/ZZg4cBw2842t2OMGg8EoV5QrXYxPjCTUk1pp1qaebuvoWGAI/T27HVUxcaQTqXzaImqrbUurXkmJ0q/SNDMt6rgsijITwun6GnsyEdciW2dP2nL6Evm5tKCKxsPpSLK8VAr1bEWatXuS27pjFBjyN81uV4VMHE+QqiduKdfnkE3PRRTMJ6ZfpqkNxFRj7Fn+gK66NiCtbmspWv4oMZ2uuHDHPTdQPF/HorakbbuKFOJNIzOtjrQsqohnjh88UuSRUvzjq7RusCmJa3Sm6au3kveE0eR9JY6r3yxP/bw8FVpPoU0bdtK1GCmlhyynri3G0Sn545UUCvbuTFVNupPLDGfy2HWlSDs92dCHTGx/p6d8+YnHyLFGBTIfsYqOBMbwGZRIKe78SnKd0JsaiEVU3XoETZo8mSZPmUGbbykeF0killB7Ls1k9CnecbSorTbZrnrFXcnJPI3ToeMyipJKKTHSnzY41CCNVp4UquqRD3etZytNqt3TjdYdC6SQv2dTuyom5Mg3CI70YG+yteT0lT8SS6WQ5V3JoIY97eAVSLlOc2x60iKFI+ny1AacPcfS2TQ+bw7SJ8upozqnh+NJypf0AQXWFxVH4dfXkL2JmGrZOpPnltN0yc+FWlQ0puEK45LkyQbqY2JLvyuMS8cca1AF8xG06kigPD0LaTHac6F+KsJmKVdnk/2UE4o2lHyNpjdWJ9Phh+VpBfHBY7osSu2fTEoIv05r7E1IXMuWnD230OlLfuTSoiIZDz9CvJrFtVd+CpJVmhhJ/hscqIZGK/LkGlvRdmYwGJ8CtsL1OREaw3r4KPS2MIdVn06olRCJ8DgZBEbtMczdCV0NZIi5H4E4gQyJCYmATj20tG6EamJT9HBxw/DuVuj9Q3fUfReFiH9y1jOExtYYPqo3LMyt0KdTLSREhoMrNh+JOLJ0HaS29mjI3zKrt8PPviexY2obeapQmLdpiERCKB5sCmDUfhjcnbrCQBaD+xFxEMgSkZCoYomrSLg79vqtYWVuDDXDjvhpzDC4/uED1/aVuPrzPkbl5RHqmcNu1BC0NUjBiUVeCGn8LTrJH69oofG4KehD53FGNAzzHNoXYad0XD11AanGJopvcmpboX1TIEZqim4WBnyBSoTQ6zQJ3osd0FhDiBo9ZmDZihVYsXwxRlgqn8fJZPJvjKmra3CmMUL7Ye5w6moAWcx9RMQJIEtMQKJMCO06luhgXq2Ix8hCGFsPx6jeFjC36oNOtRIQGc6vVCXhuJc3Qpv0QiddPp8mzMdMRl/ZYXj5BCLxyFKsk9rCXuFItPvZFyd3TEUbTqTckFQCCSesgPNl4RRS38ZI1GtpjUbVxDDt4QK34d1h1fsHdK/7DlER/8hX1dKvnsKFVGOYKIwLK4VxYdrNgi8sG2GR7bk4firIZik4s247nqaEYtfK5Vjucw2CZp3wtfSF8rrSUBr/BHHdtiWsG1WD2LQHXNyGo7tVb/zQvS7eRUWAV7O49iouQu06sOxgjmrKxla0nRkMxqegqJGX8anQUOemykxkpBMXWLRF39Yv4DPZA9vCdFGTG4i54FiRjw88BLmCEQ0xd50UUqnqL5tqqHOBQWbGh69mkDzHo6gkyLK/pCqEfpMu6GhWWXlcEFwQ0rYvWr/wwWSPbQjTrclNhsTJp0wuBQIBF8yJ1SEu7lY1SQSCQuKgpq6pDAI5KjRG4/rAi4goyLd4FWondZg3NUPG/SCE8Zm5gDExSQNfN/46+3FacUkPC0OkTBPfNGvI1amHtn1b44XPZHhsC4NuTUMIOcNkmYZ/pUTx0eCCON516SBO37sh8RCJxTn6ajZCI07fZ+HheP4oCkmynHqE+k3QpaMZ8ntSZGyGr/SB+KdPuCBQeVIVhdYXxR1wtuUC4hzraoBzH2dbqSL4NG8Ks4z7CFIYF4mJSdD4ujG+VmXcMvVTLptJYxD5JJG7OXDE1KlTuR9XLN5+Bn9ud1bm/ViK6x/eXryaXBvPo6bcYODVLJG9igvXp/K0thKOGwwGo+xhAdcXSMr5aeg69h46enph+mBLGBQ7EikBQn1U1ZEh+OxpPM+efJNx/cQ5+Sd5cCCVyVcssuCDPkIKzk/rirH3OsLTazoGWxoUP1AqAfIVtvz1y//jEBrCyECE2McP5SsECkTcNWqo+VVdbiIpCjU0nbEZc2ucwa+/LMMfi5bjgdVmbJ1UwtcxyF7Bd8tx/GPcH452RrzjMK3rWNzr6Amv6YNhaZBrAv4YsvR9FIY32fryJauhVv160K+qA1nwWZzOcSSSr5/Auejc1uPQssUw+7qQXD8A36eqNpIl4e6Ne0gutL66isNCUGs6A5vn1sCZX3/Bsj8WYfkDK2zeOqkUryn5CD+JtKGnI8HVQ4dytW8pXt26pfxchnwx9mIwGF8yLOD6XHDBC/8wKu/9JXdMUry86Y/w9xnIlMiQEn4Jt55LkJYShwehT7gYhAtC+MAnz4U5x0TciJ83UX6c7wzneSP0su8MtfOzMdR1C85cPofd85yw9VUdLlEEQwN9UMRt3EzIQHzQQRzwj4c0MQ6xqc9x0z8c7zMyIZGlIPzSLTyXpCEl7gFCnxSyG5wknD4EiUTVNl1OOu5uPyc8UIOhUVXQI39ci+Xr94PfrQTI3qcgmc8kNMbAsQNh4L8VPoFpikve3cKdWBuMH2HBXc1RqJ1kiDm5EmfNlmDnYhdM9FiB9b/a5f3WXm5kEl68vEijcX7+EEz/0xCj1njhO33u1Mub8A9/j4xMCWQp4bh06zkkaSmIexAK3jTyVcpcK1F54c6rdB13QqmvIafvWv8URULCDQTEdILTiOYw6mWPzmrnMXuoK7acuYxzu+fBaesr1Kmav3trwXrOeria3cLcH3/BqWfpyvMcslhc27gKQeK6qFRofc34zJx5eVvmFTbrWBZzEivPmmHJzsVwmeiBFet/hV1Bxv0oPxViM+igh313iE5MRc+fFmP/XxdxapMbPI6/U2QqAJJw7Zprqx8209L6h7cXrybX27m8eS5XHpfIXrkoWFYOedl8ncrjwuwsi8GF5a6Y68eNL4oEBoNRHnCDAONTkxhMvi7tSUetKtnM3EsBof60e5o16aoZkO2sYxRyZwsNaahHOrXb0uB5B2nTqLqk28COVp6/SYemW5GOiLvO3ZcCHwbQnuzrjpL/DV9yaa9DalVtaObeAAr1303TrHVJzcCWZh0Lk2/QzYP0DV1Y+D1ZmGhTZaPGZDfvLL1UbuiWvjhA4yyqUhVjc/rW3Y/8prekBjaOtODwPbqzZQg11NOh2m0H07yDm2hUXV1qYLeSApIU1+ZHGneXjq0dRy0qC0hk0oN+2XJe+Q4oKcUH7aPpHfVJVMmSRq+/TC+y6/elMU10qYJuA/p29nE6OqMF1W3vSEtOPlDq8Y4C1o6kjm170dhZnjR/5kxaeSmGK5EjMaRQO4UmSSjsj+5koCYkNQ0tqqStSwYm9cnSbjadzPfCseSH52iLRxcyFglJu4EtDR41npzHDqMBXazJ1sGDtt+KU9TJI3lIW4Y0JD2d2tR28Dw6uGkU1eXkt1sZQK9CDtGMjnok0rEiV99gSshTTSIF+7pQex01qmozk/YGhJL/7mlkratGBraz6FgYrzGv7wiysrQhB+cp5Ow4nrwvRivrltKbCwvpewsT0q5sRI3t5tHZLEeqIjGIdswcQG3MG1Mb2z70/U+jyGnKXNodnNuBBdWXSCGHppOVjoiT1Z18Ax9SwJ4cWY+GJpEk7A/qbqBGQjUN0qqkTboGJlTf0o5mn3ypLFvJR/kpvmibSWPowqKB1NSoAom1qpHl0NV0652y7g+QUtzdY7R2XAuqLBCRSY9faMv5CFJ8NeLj/JPI+X66lQ6JuH7p7htIDwP25PTLo6GUWFx7ZVOYrBzvOLvO6Eh6Ih2ycvWl4CfBhds5IZAWdDAms0l/FfllCgaDUXrYm+YZ/0EyELbtN5w2/RF9jJMR//YdUpIS8eLGFhzWWICDbt8o85UWKTIyBHn/RE6ZIUV6OkFD48t9e3hG2Db8dtoUP/YxRnL8W7xLSULiixvYclgDfgfdlLmKQ1n5SYIMiRrUv1CTlZ29GAzGlwx7pMj4zyENX4MJC6JQy6I+6ps3Q6t21rDp3gudGjZEc0tTZa7SIsH9RVbQrzMKx5RPl8qShH1DYFq1K5ZHfKEPf6ThWDNhAaJqWaB+fXM0a9UO1jbd0atTQzRsbqnMVDzKxk8pOD6qNvQ7LMD9L/GlU2VoLwaD8WXDVrgY/zlk8RfgOWgYlt+rAot2jWFaSYDUVKBmz+mYO7LZB9/uKznvkZgogo5OvvcylAlpiI+TQFu/Usk2+H8qZPG44DkIw5bfQxWLdmhsWgkChXExfe5INCuBccvMT5IkJKZpQafSF2ixMrQXg8H4smEBF+M/igRxDwMQGB4PWZWaaGLZGNW0lEmMj0YS9xABgeGIl1VBzSaWaFxq4/43/FR29mIwGF8qLOBiMBgMBoPBKGfYHi4Gg8FgMBiMcoYFXAwGg8FgMBjlDAu4GAwGg8FgMMoZFnAxGAwGg8FglDMs4GIwGAwGg8EoZ1jAxWAwGAwGg1HOsICLwWAwGAwGo5xhAReDwWAwGAxGOcMCLgaDwWAwGIxyhgVcDAaDwWAwGOUK8D9v+RK434iLCAAAAABJRU5ErkJggg==;" vertex="1" parent="1">
          <mxGeometry x="258" y="1081.13" width="204" height="57.75" as="geometry" />
        </mxCell>
        <mxCell id="LbAB_rmGIGJ7I_XkYfzX-60" style="edgeStyle=orthogonalEdgeStyle;rounded=0;orthogonalLoop=1;jettySize=auto;html=1;exitX=1;exitY=0.5;exitDx=0;exitDy=0;entryX=0;entryY=0.5;entryDx=0;entryDy=0;" edge="1" parent="1" source="LbAB_rmGIGJ7I_XkYfzX-51" target="LbAB_rmGIGJ7I_XkYfzX-57">
          <mxGeometry relative="1" as="geometry" />
        </mxCell>
        <mxCell id="LbAB_rmGIGJ7I_XkYfzX-61" style="edgeStyle=orthogonalEdgeStyle;rounded=0;orthogonalLoop=1;jettySize=auto;html=1;exitX=1;exitY=0.5;exitDx=0;exitDy=0;entryX=0;entryY=0.5;entryDx=0;entryDy=0;" edge="1" parent="1" source="LbAB_rmGIGJ7I_XkYfzX-51" target="LbAB_rmGIGJ7I_XkYfzX-58">
          <mxGeometry relative="1" as="geometry" />
        </mxCell>
        <mxCell id="LbAB_rmGIGJ7I_XkYfzX-63" style="edgeStyle=orthogonalEdgeStyle;rounded=0;orthogonalLoop=1;jettySize=auto;html=1;exitX=1;exitY=0.5;exitDx=0;exitDy=0;entryX=0;entryY=0.5;entryDx=0;entryDy=0;" edge="1" parent="1" source="LbAB_rmGIGJ7I_XkYfzX-51" target="LbAB_rmGIGJ7I_XkYfzX-62">
          <mxGeometry relative="1" as="geometry" />
        </mxCell>
        <mxCell id="LbAB_rmGIGJ7I_XkYfzX-65" style="edgeStyle=orthogonalEdgeStyle;rounded=0;orthogonalLoop=1;jettySize=auto;html=1;exitX=1;exitY=0.5;exitDx=0;exitDy=0;entryX=0;entryY=0.5;entryDx=0;entryDy=0;" edge="1" parent="1" source="LbAB_rmGIGJ7I_XkYfzX-51" target="LbAB_rmGIGJ7I_XkYfzX-64">
          <mxGeometry relative="1" as="geometry" />
        </mxCell>
        <mxCell id="LbAB_rmGIGJ7I_XkYfzX-71" style="edgeStyle=orthogonalEdgeStyle;rounded=0;orthogonalLoop=1;jettySize=auto;html=1;exitX=1;exitY=0.5;exitDx=0;exitDy=0;entryX=0;entryY=0.5;entryDx=0;entryDy=0;" edge="1" parent="1" source="LbAB_rmGIGJ7I_XkYfzX-51" target="LbAB_rmGIGJ7I_XkYfzX-66">
          <mxGeometry relative="1" as="geometry" />
        </mxCell>
        <mxCell id="LbAB_rmGIGJ7I_XkYfzX-72" style="edgeStyle=orthogonalEdgeStyle;rounded=0;orthogonalLoop=1;jettySize=auto;html=1;exitX=1;exitY=0.5;exitDx=0;exitDy=0;entryX=0;entryY=0.5;entryDx=0;entryDy=0;" edge="1" parent="1" source="LbAB_rmGIGJ7I_XkYfzX-51" target="LbAB_rmGIGJ7I_XkYfzX-67">
          <mxGeometry relative="1" as="geometry" />
        </mxCell>
        <mxCell id="LbAB_rmGIGJ7I_XkYfzX-73" style="edgeStyle=orthogonalEdgeStyle;rounded=0;orthogonalLoop=1;jettySize=auto;html=1;exitX=1;exitY=0.5;exitDx=0;exitDy=0;entryX=0;entryY=0.5;entryDx=0;entryDy=0;" edge="1" parent="1" source="LbAB_rmGIGJ7I_XkYfzX-51" target="LbAB_rmGIGJ7I_XkYfzX-68">
          <mxGeometry relative="1" as="geometry" />
        </mxCell>
        <mxCell id="LbAB_rmGIGJ7I_XkYfzX-51" value="Overview" style="rounded=1;whiteSpace=wrap;html=1;" vertex="1" parent="1">
          <mxGeometry x="760" y="1140" width="120" height="60" as="geometry" />
        </mxCell>
        <mxCell id="LbAB_rmGIGJ7I_XkYfzX-70" style="edgeStyle=orthogonalEdgeStyle;rounded=0;orthogonalLoop=1;jettySize=auto;html=1;entryX=0;entryY=0.5;entryDx=0;entryDy=0;" edge="1" parent="1" source="LbAB_rmGIGJ7I_XkYfzX-52" target="LbAB_rmGIGJ7I_XkYfzX-51">
          <mxGeometry relative="1" as="geometry" />
        </mxCell>
        <mxCell id="LbAB_rmGIGJ7I_XkYfzX-52" value="contain" style="ellipse;whiteSpace=wrap;html=1;" vertex="1" parent="1">
          <mxGeometry x="530" y="1130" width="120" height="80" as="geometry" />
        </mxCell>
        <mxCell id="LbAB_rmGIGJ7I_XkYfzX-55" value="" style="shape=image;verticalLabelPosition=bottom;labelBackgroundColor=default;verticalAlign=top;aspect=fixed;imageAspect=0;image=data:image/png,iVBORw0KGgoAAAANSUhEUgAAAqkAAACMCAYAAABf2DBrAAAAAXNSR0IArs4c6QAAAARnQU1BAACxjwv8YQUAAAAJcEhZcwAADsMAAA7DAcdvqGQAAHP7SURBVHhe7d0HXBPJHgfwXyodwYbYxV5O7A3L2Z5nA8XewIIFsWDvoiL27snZFbtiw4Z3ehZQwXZW7IioSPEQlBYgyf9tYJEWIAgqevN9H96ZyWZ2dmZ295/Z2Y2AOGAYhmEYhmGYAkTI/5dhGIZhGIZhCgwWpDIMwzAMwzAFDgtSGYZhGIZhmAKHBakMwzAMwzBMgcOCVIZhGIZhGKbAYUEqwzAMwzAMU+CwIJVhGIZhGIYpcFiQyjAMwzAMwxQ4LEhlGIZhGIZhChwWpDIMwzAMwzAFDgtSGYZhGIZhmAKHBakMwzAMwzBMgSMgDv9vJp8pQ6/j6NnHiClcF1adzWHEvhIwDMMwDMNohIVNX40Sr/dPx6BRS+EjKAFDVtMMwzAMwzAaY6HT16IMw1/nAtB80UGs6WLyc1W0MgKPvc7i7IX7CFXwaQzDMAzDMPmIBalfyycfvKvrij3ja0Nb9VoV2F29gVexSe/+uJTB8Jw7BGPXHcPxjY4YOHY/XiTw7zEMwzAMw+STrzgnNRZhoYkoalKIRcKcBJ+pMG+5BpKpV/GPS0OI+fQfjfLjawQmlESFYslboIgIwGt5We61KOk1wzAMwzBMfvgKQWoM/D03YrHLGpwuuxr++3pCl3+nwIl+Ac+dm7Df8zbexEuhp6cNqa4p6nUeBJvWQfA43xCjbctDpAzG1V3bsP/IcZz1C4dSYIza3fqje7d+sG1Ris+Mk/AOV/ZsxK7zzxAnlUIZF4ME7bKoa9EEtUwicXL5ThjMOIEVHeXw0SQ/XrynIxo7eOCTQAyJRAQBCPKEBCiFEkjF3FcAUiAhUQ6SNMSss/NhenwvDp04Cu9XcYC0NBp3t0LPfiPRw9wA8qensX73IZw45p00qist1Zhbb0/07VYCdw/sx5HjZ+EXroTAuDa69e+Obr2bI/HcMXie2o+jdz8AhcqhRllDrgw8RRzev36Ff0uOwJHTU1Az1Bt7D57E8X1HcDec+Hy6wbL3ILQqmxzIKt9dwd4DycvciauA/w3siz79B6N1uewCXSU+PjmLXVv24tyjD1BI9WCgo4vi9bpiiG0zBGw7hrKTR8Hg3HrsPnQCR71fIQ5SlG7cHVY9+2FkD3MYyJ/i9PrdXN0c4+omaeO5uumG7m1/gezB37ksc2+0Kp+IJ38fw7GL/ogWV8KQnUcwp6lB0vIpkj633wPH9h/DPdRGj/7WsOrXHxamqV/dol94Yuem/fC8/Qbx3HbpaUuha1oPnQfZoHWQB843HA3b8uxLAMMwDFMAKZ5hQ6+uWHkngYtOVASQ1p2Cp0ftk17liSpIzT8yeuSxnpZN7UhlRAIy6udOMfw7BU3E9TXUo4oxVejkREcehpOcT1dEPaczi7pTZV0pVZt8jeL5dBW530JqKAGJa0wj37RvcOIe7aJhdUvSL0O2090IBZ+qoMgHe2lUPSMq3HQWXfg3JT1ZdvmlFeVmTTX7b6f7EcmlVIS4UjspF5O2WEEvk5ISKfz+PhrVoBUteJiYtEyMhy2ZCAVk0H03RSalpBVHJ4eUIKFAn7q5RfBpKnLyW9iQJBBTjWm+6bZddnEMVRCBtKx2ZWpT+bvjNLydI12U8QncJ32n1SAxl0/N6de50qmTSLdm1aHKDn9zpcmB/C2dmt6KShWrR8N+v0ABnwsQTf6ei6l7FV2SmAymEykZxXiQrYmQBAbdaXfmjae4k0OoBFc3+t3cKHXrv7TMn+jGktZUhMtPYmZD7m/Tt3EyVd61qd6sWxnyjaDra3pQFeMK1MnpCD0M/9wLKer5GVrUvTLpSqvR5GvZdA6GYRiG+Y4+eY4i84p1qH79+vxfMxqxL4h/N2/y+Uq8FqpbjsGU+cPRqgA/byn+wRr06jwZ3pUW4syxebCuWRgp41RC/UroOOMAji/6FQh/DyWfriIwNoKhgPtvkWIonmZgS/F6H4b8NgzuBo7Yv3kIzD9vuxCFavXH70eWounTpejVew0exPNvcbLKLz0lohLqYcxiW/xilNVCYhT+pR+WzWoP7ZjkEouNjWEoFEDPyIhrlYyEMDY2hFCgCyPjpBmzPAGMjVSjpAIUKVb8c52oiIoUgXEWTSoy7QyH/rXSLC9GSdPi3FqEKGZSIovpHkIUL8Ztd4kSkPAp6kXi0owu6LPyDTps8cRmh9Yo/3loXg9mv03HoRPL0FbyEZFyPllsDGNDIQR6RjDKvPEQ8nWja2ScPF84yZeW2QD1enRAFYkQioA9GDloNe7L+Lc+E3GfK4oiRYulyTceD9b0QufJ3qi08AyOzbNGzcIpNSiEfqWOmHHgOJK7YdpeyDAMwzAFhOIFdri+xeAzt3DrVsrfVWzqV5JfIG+yCDvySKADbe3PF4QLFvkjrHOYiwvRjTBx5UhUk/Lp6UhRY9R89C7+EZniDY5AwAVAKZunfI+j0yfD/W0RWDmOQE01k01F5W0woW9pRF5agEnbApDxhvh0+WXCBU09HTCwbM5NZfCbA4bX5jeIyzApy6wz5vDLZMKlc0Fc+veyWlZFDPMhw9AiTUAo5D6vIshm/aplsntfJd5nCcauvQfBr5Pg1FUVRGYmrjocznZl8OlDSjCnypf/b9Jr9TKuOi9lljYbhSm/GnNtPBv9ppxFeLq4kvtMhs/JH62Dw9wLiG40EStHVuN6nBrSGhg1vzeKf1TXCxmGYRjm+4q+uAobnooQ6XUWD8JTRoryz9cJUjlZn+a/r9iL67HhWjQkTfugX5Ushy8BrSZwcukPI/5lVpShx7DjZAiUOo3QplUhPjUjbTRt0wyF8AmXdh3A81w+tklsZAR9/t/Z0jaCUdqB0W8iCsfWbcazr/Ioqmic3eSGR4lSNLK0Qukse6sU9UY5onNWQ73fgEBSFaN3b8GQSko8/mMohm5/gax311hcXL8B16IlaNqnH7Lvhk5w6Z9TL2QYhmGYb0wRgJ1L9+L5Mw/MH94VdcpVQ5e5pxGYj7Hq9zurfxcJuHP2AoIUQpSsWRsmOWy9UJRN9MBLvHMD92IJItMKMMsmkpRWrIgyIoLc7yZux/GJPyD69Bp3U4b0b/rg3M6ZWHnqQ7ppEfkm4S4u+/wLpbAEqlUvmm1nFZpUQPn09yx9cyLT7li3fz5aGobi5IR+mHc1in8ng4Q7OHshCAphSdSsndMzdIXQoBsyDMMwzLclMkHvTdfge/4Qfp/ZB/X0XuPMQmu0tt2LV/k0cPUfC1LlePM6GApus/UM9dPNuUwmg9/xVZjWowEqlC2DsuUboNfs7bgSnHUIpoiMwEcCBNp60M2mNgUGBkmjoZTwCR+jv9UcQ0Lk3y7oaWkJy3R/PTDzZPAXBZbKdzdx7PBhHFb9uR/CgQN/wS/qKz3FTB6C4DCupwsNYVQo95EaRf4Nl54Zt90SPWaeRDZNmie69adi7+aBqBB/G8sGjsahN2pWJH+D18Gq7dKDob6a7ZL54fiqaejRoALKlimL8g16Yfb2K1+tzAzDMAyTe7ooblYTjdr2goPLfvjeO4MZzfQQeGAiph4K45fJm/9YkCqElrYUAtXjjD5EZpobqrosX7PbRCxa3BMlQt4iWLctJs0diuZpHheUkdDAEHoCLiCKi0ZsdkFEfDxU90wJpIYopP+tql0Ao7azcPjECZxI93cEi7qaflHji6r1wPwlS7BE9bdsNbadPo6ZjTLf+pTTXFMVJVH2ywm1oaua20wJiE/IfYQmMGqLWYczbvsJHFnUFeqaNF/KzNVqqZ6u2DenKfRe78Mom5W4K8sQxAu1oC3l8lB+xIdINV83tWui28RFWNyzBELeBkO37STMHdpcbZkZhmEYpiAQlWgH5/2rYFkkHH8dOc+n5s1/7LQngXndmpAIlAi5eyvL4WhR0t3fXNBiWAhZ3lDPk/5ijhpcwKEIeYWX0XyiGvKgtwhVCiCu0QD1dPjEn4GoMrr0bYEi6eI2IbS1VF8GCDJZPP/ctIwIcXEJkOroZD1/WVITNSuLIVC8g/+LGD7xa8mnMifRQ+OZ++HapwyiL89Bv4meiEgbY0vMUbemBAJlCO7eeqXmy5KKKPkJDNyaDAsZqRn1ZxiGYZiCRVimN+y6miD+31A+JW/+Y0GqCOV7DkS7QgLIbx/E3rtZ/55nchCSfSiiIizbHb1bGQJxN3HJO4s5iJDjyZUbCFHqo8WAPtneKPPjEaN608YoJlQiPCCATwN0ixaFPpcW8vZtFjcQyfH27UcUL5XNXFNRWXTrYQFdxODKSU9k+yQmeSjeqaYG5EG+lDkFV/Z+m/ZhRiMtPNs8DKMOq6aZ8ETl0XNgOxQSyHH74F5k3Q35/pdzN2QYhmGYAkCKUqVMYFS6HP86b/5jQaoqqLTF0nltUFhxH79P+wOPvuh359OMswnLYcjCSWisFwaP33eqv8s94i9s2P0QOk2mYumIimpGxXI5p1PDHwlLXir7ZbN8N5dFQsRZLN90i3/BddNGLdDYQIm33hfwSF3EF3kJh6+WRiuL7IaVRTCzW4hxdbQQfsIZTn+mf27tZ8pQeC7eAO+0N6Tx5c92MzK8+cVl5gpF6tZk0Axz9/+OHiU/4KbvizRlF6Ks7VLMa1MYivu/Y9ofj/BF3ZCnkMVm+LwCstiMOapJU8iQOSljXhrmryYvzfJnZU3FypqKlfWz/0RZv3b+P1Jd/EhlVUP5L/55QOg+qD2fkDdfJ0ileMTHK5GY5WXT70mKmmMP4NjCDtC/Mg1d+67EpaA0T9jnxIS9xydVRCFI/5xNioyE6h4hiokB/8z8JNoNZuLwPkdUveME21l/4l2aAEf54TpW29rjhOlEHDwyEw3SPCIqq/xyQh8/IVpVsVGfkm7aUkepyltJiIuO4bpkRkpERn6CkmSIiUn7LnHpUUkBVwxXprRFUnKvY1XrSojP/OxY2VPsGDUbb+q04xO4jlXKBgtntIT+wzUYNnYfHn6eexmL11e2YZzlBDzrNw+DSuXQBfWaYd7+jRhQ4TU2920Lm2Un4PchJS8lol6cxUqHmbjbYjx6pfysqjISkVHKpHnC6TaPp6qbT1zdyLhtSvv2l5aZPn3imuIjItW0hajCIGzZMwX19DMMh0prYuyBY1jYQR9XpnVF35WXkL4bxiDsPddG3L+ymwMrv+2MpsWMUW3kaSSP48tx27kpihlXw8jTKSP7atLkt+HctBiMq41EalLGvDTMX01emuXPysrKysrKyvq18/+R6uJHKqvqh5F2Ydp4Fxx+xM915M69t/+YhMPlFmJe+/x53E4+B6lKBF9xw5LJq/FXhBJx3hswYdF2eAXlIgL7FoRF0GLGKdy7uQfDTbwxy7IF2nTthQED+8K6Sxu0H+mD6tO34fxBLvBUxT2q3+7fswozp2zHXS4Ald/fgrFjnbHNKyg5P4hQqssKXL7tjr4xmzG0aw8MHDIEQwb1RrdBK/Hqf264eXEJfku58yXH/LKgDIXPvjWYPXUb7qg+57cLs2atwp6rae7Ulz/FGVcXjFl4AmFcIBZ1diFspq3AkXt8F33mCVeXMXD2COOC1Cj86WKDqcuP4O6Lq9izaiambL/LdWM57m8Zi7HO2+D12h9//zEfDlP2JI0SJ1ycj99+S71TvmvHNqhfpQGGn6+Mrh2Mk9aRTBt1p53E5d1jUPnhQvxWvSwqVK6CSma10XnWBRiPPwqPKfXx+cejsiGtagM3X1/sm1gPofvGomWFojCtWAsNLNrDduVD1Jzqihm/FuE6sxxPz7jCZcxCnAjjgtSos1hoMw0rjtxL3qnkz+Cpqhtnj+S6+dMFNlOX48j9lMnEuSyz8h2u7F6J6bP24ME/bpgxezX2XgtJF9yrFGq5AAfWWqFkhiF0YZEWmHHqHm7uGQ4T71mwbNEGXXsNwMC+1ujSpj1G+lTH9G3ncdCxatZzUqW60NfVhYGhzuedWaqrD11dAxjqpO7emdOk0NXXha6BIVKTMuelWf5q8tIwf1bW7PJnZWVl/W+U9Wvn/yPVxY9U1sSQWzi+aQ5616uMX1q1QZs2ffF77HBsX9UZxT/nlTcC1W+j8v9mGIZhGIZhGA0oERVwA1fvhwFFKqJOw5oooeanyPOCBalMLingv8cBIzYGo9VCN8z9lf0aEsMwDMMw+S+fBmSZ/w4BdIxLoFSpkjAxyPx8VIZhGIZhmPzARlIZhmEYhmGYAoeNpDIMwzAMwzAFDgtSGYZhGIZhmAKHBakMwzAMwzBMgcOCVIZhGIZhGKbAYUEqwzAMwzAMU+CwIJVhGIZhGIYpcFiQyjAMwzAMwxQ4LEhlGIZhGIZhCpwfJEiNRVjoRyj5V7kRGxaKj1/yQSYNBYK9d8L1yH1E8SnfXgJCb7rD7c9XXGlSxQY/wf179/EkOJZPYRiGYRjmZ1DAg9QY+HuuhF3zqjCfcA4yPlUTMf6eWGnXHFXNJ+Bcbj74FSU8OY31cwaieVUzVDCrih4bX6YLuDKR38WS9pVhVqEizLuMx7JtFxGY7Qe+EsUTbJ04AmOGzMeJjFFqwgOs7FwVZma10H9H+gAyv8T7HcIs6zqo1KQf5nr4Q86nq4gjL2Hmb/XQcNgeBLMvIwzDMAzzbSmeYYM1FwdUqIAKSX9mqGr9B/9m3hTgIDUej0/swNFLf+Mv36BcBajxj09gx9FL+PsvXwQVkABVRVqtM8Y6r8fImuEIDHiOE2s2wCeb8n30XI/fL75AwBtCy0nLMHVYa5QT8W9+RYo3T/Eihn+hIqqJcW6nccxzNXoZ8GlJFAjYMRPbE60xytIIF+fPxfH3+R8patXsDefVw1FfzCekIa0+Am67x6LinbM4F8En5pNM9cAwDMMwTDpR51Zjy31dFC5SBEWS/kzxay8r/t28KcBBqhaqW47BlPnD0cood8XUqm6JMVPmY3growK4gbowLVEKZmbFQc93Ye2RMPXTGJSB2PfHdeiUkUAgNEaRot8gOk3yASfmz8fpDMFmoRrtYWVRFlL+tYoyzBO7Xljj0PHFmLrmb1xZWQKnN11BNP9+3kXh5OTWsLCwQIt+m/BQrkSoxwS0bjODf19FiCLtluLAfEP8cyGST8sP6uuBYRiGYRie4gV2uL7F4DO3cOtWyt9VbOpXkl8gbwr45X6OQAfa2gL+RW4IoKOtzf1/wSMQ6qLZ8KEwF4fj1O/b8ETNNfKE25uxU9YXg+uowkLBN9oOBQIPjsfk/UEazf8V6rbCxKVDUFNX9UoLFXssw8bx5vnYqQzQdcVFXL16FVfPz0cbPRFMrFbj4oXF/PsppKg2whXz/qfDv86r3NUDwzAMw/wXRV9chQ1PRYj0OosH4Wkn4+WPgh+kcr44QCuIESpPXNUOo/9XCAk3t+D3ixmvKUfijOsZVBxpi/LpWkiBF57rMMuuB6wse2DB36qbhZQI83HDPPs+XJo1ph0NSRNYyRHquwvOE0dhyIABGD5zE7yCsuhEynB4LbFC68F78VL2CDtHdIOl9Ux4hHG5KcJx/9gqTJi4FQ/Sflxfgg+XNmH2qAHo1Wsg7Oe54U6cPnRzXU51YvD01GpMGWGLgYNGYb77U8QS/1aKhCB4bZ4LB7vBGNhvJGauPoAbmUY+FQi/647lUx1gZzsIdpOX48j9yKzXnV09IAFBXpsx18EOgwf2w6DR8+B2432mvBThd+G+fCpXLlsMspuM5UfuIzL7jWUYhmGYH4siADuX7sXzZx6YP7wr6pSrhi5zTyMwP2NVKuhknjS8lJiM+rlTDJ+kGRl5Di9FYqN+5J67D35lMjrvUJ+GHI+jqL9GUXmRkIy6bKW3Cv5tjvzleurQYDJdkcXQXms9Ekjq07z7ify7RNHHbamEUIu6bI/kU4jir0ykKmIJWSx7QfKklGi6saIj1e+2mm6EcymRV2lqHQlJyg2ig+/SrCwdOfk5NyCJtCWtCuCXiXtA7k69qZa+gEQVxtAFWXIylyFdcbakLpMO0r3QTxR8fRP1qyQl7aojyCMk+bOalVMNRSidndSAKrdzpr+DZCQL8aG13UqTWCCisvbnuRpULfOODg4sR0YtXehOlILiAw+RrZmEDNuspeefM5bRQ9duVK3xeDrxKo5beRCdn9uKiuhUov67XlBqjWakph5IQe8ODqRyRi3J5U4UKeID6ZCtGUkM29Da1BWS7KErdavWmMafeEVxFE9B5+dSqyI6VKn/LnqR9QoZhmEY5gcTQ6H+D+n6+UP0+8y+1KC4hAQCKVXov4cCsjzB584PMZL6s9JvPQZ29SX4+NcGbL6X8tUjATc37wYNskcTLT4pA0lhY+hnaDmRsTEM04wcx193gd2CGPRfORYNC4uAQo3Qv28T6Iffx/3Xufiao10LPeeuhX0TCZ+QLOHGMow7VgtOS3qjdnEDlGg0DAtHNoLi2U4s3v4saRlNypmZEuEnpmL4lkIYt3Um2pTUgpZJEzgsHYOGaW+cSriB02ffwbh2M1TnViIt2xXWLY0Rc+c67iUmL6J4tA6jpl9H4xkL0bWcNiAtibZzt2JWo2AcGOeALQG5eRZBAm6cPot3xrXRrLo+hNKy6GrdEsYxd3A9dYVYN2o6rjeegYVdy0EbUpRsOxdbZzVC8IFxcNgSgO/xcAaGYRiGyX+6KG5WE43a9oKDy3743juDGc30EHhgIqYeCuOXyRsWpH5P4uqwG9MZheX3sW3dGSTd9vPhBFz/rI6Rg8zw5bdKcQHVgcN4UrwuGpROyUUM82le+BB1Fwsbp739SQNCfejppo0s5Xhw4iT8PtzE1smOcHRU/U3Cujd1MXL0SLQtl4dr28q32P+7O0Iqt8SvpVK7p6h0eZROOzdZuyOcT57BoVktoBUbCO9dS7HnZiwoQYb4pNXLcXu3G3xllVHbPGnSbDKRGfr2aQbpx4vYdySQT9SENjo6n8SZQ7PQQisWgd67sHTPTcRSAmTJK4T89m64+cpQubY5t+umEMGsbx80k37ExX1Hvs8jxBiGYRjmKxOVaAfn/atgWSQcfx05z6fmDQtSvyshTHqMxQAzAd4dWYc9AQnw37UZzzqORhdjfpEvIsfrwCAoEuKRkHEe5xcRQphu9FOON6+DQcVaYtzKNVizhv9buw7rf1+Hhf1r8Mt9gYR7uP1ABoGefqZR2PSkKFu7PII2D4XlwKXw0e+Ink2N00xDluHJI38ouLKL0kX7QhSuWhkmQiWC37zh0zQjLVsb5YM2Y6jlQCz10UfHnk1hnKZeZE8ewZ8LQoXpVwhh4aqobCKEMvgN3rAglWEYhvlJCcv0hl1XE8T/G8qn5A0LUr833RYYPaIJtKO94Lp2E9bvk8B2RIN0j3pSJ13MmIkQ+ga6oODr8H6S4dK+/Cmu+ea18wigo6MNxaMLOP86Y9QlQ1ho6qOgsi+nOsT9D1xA9xZvs5uVILuNpZ0tMMnfEhvdXTHV2hyF0z1HVQzDQnoQKF7D35+/HM8TSLWgJRCgeElTPkUTMtxe2hkWk/xhudEdrlOtYZ5+hRAbFoKeQIHX/v5It0aBFFpaAgiKl4Tplw+PMwzDMEwBJ0WpUiYwKl2Of503P36QqpAhNoH/9w+CuCgsdYBThMpDx8CymAJPXKfgRG17DCyXtlkyD4UKdfSgLSDERH36fGe5LPwDorlF5XJVeCRFQ4uG0JPfw6Y52/Hsc/3I8MB1Bc7GpHsif3pc8AZSQqHMvN5UEtTl8jeI88KScZvwMM0vkkZ4L4aLe/JclJzLqYbUHPVrcQFwwEnsu/yRT0xBUPCfk/39B9ZekaOJVWeUTBv4ceVOLrkUFr+1RmF6jT9P3Ez3YxDxb98iTNIAll0r8ilqZKwH2d/4Y+0VyJtYoXP6FSa1p4rU4je0Lkx4/ecJ3Ey/QrwNk6CBZVdUzDJIVUCWsSOr69tq0hSyWKRPUpOXhvlnzkvD/FlZU7GypmJl/YyVNRUra6ofu6xqKP/FPw8I3Qe15xPyiL+BquCKO042RYWk130PRfNJnyXeogUN9UlaYQSd+sSnfRZHx22KklCvO+3J9MHvKYaODChD3XelLbCMrkyqRhJpPZp7J80t4IoQcm0nJYgr0wTveD6RE7GfehcWkm7tobTBw5OOrJtEw2zaU0WxkIr+tpCOXnxIER+9aHpdXRIIJFS8XncaMc6BbP5XnSpbbaEXWd9WT+9+b0tawuJkueYinftjGe15rFo4nLZ01CJRqeHkmXJ3f4wvzWtkwOUvJMMq7chmjCONHtCGqtd3oDPh/B3xmpRTzYMGPpx1oKpSAYlNfqVp+3zpuf8dOurchcpLBKRVfxztO3uLZBfHUAWRiEzaL6BTN67R8VXjqUsNQxJK6tKYLRto09kQUiT60foOxUls2IzmXotIzjzmAa1qX5rqTr5Aqc8cyEhNPdw7T2MqiEhk0p4WnLpB146vovFdapChUEJ1x2yhDZvOUogikfzWd6DiYkNqNvcaJa8xhh6sak+l606mC1muMJFuLWhI+tIKNCKlI6vr22rSEm8toIb6Uqow4hQlJ6nJS8P8M+elYf6srKysrKysrKys/7GycpHLfTeaOm4huftFJScoIujW7/2p4/hTFKrm3P4lCvBIqhLBV9ywZPJq/BWhRJz3BkxYtB1eQWlvypFCV18XugaG0EmzJcrgK3BbMhmr/4qAMs4bGyYswnavIP7d70f12/2uLuOwxPMdLq4ZC+cNJ+CXNAqphSaj7dHF2gEja6suISsRefsw1s8fi/XXEgH5SxxymoYV2/nf7jfqjnkrbVAt9AAmD52A7WFtMGdyS5iWqIMWNYygXaI0DA1bYOEpDzj3qg3Jc0/sd7+E0JqzcHS3XTajeUKYdLOHXQMxLjs7YFPCr7CqHADPVTOw1ScRyhBPrHHagWuhXBvoNsacU2ewyrYZir73xv7t+3E5siEWHlyJjoX5xtCknGp6oHGHVThzcDo6FnuEdYPboHm3+bhboy0aFq+MFnVLQFikFLRaTMIy+yaQXF+OoTbz4FVyJNbO6AhT7RDculsM7dqaQCiugTEH/8KWIYY4NqAxmnSyhnXfeXjeZS/OLGmNQvz6MlNTD7V/xaRl9mgiuY7lQ20wz6skRq6dgY6m2gi5dRfF2rWFiVCMGmMO4q8tQ2B4bAAaN+kEa+u+mPe8C/aeWYLWWa8QUl196OoawPBzR1bXt9WkSXWhr6sLA0Odz5dFMuelYf5q8tIsf1ZWVlZWVlZWVtb/WlkTQ27h+KY56F2vMn5p1QZt2vTF77HDsX1VZxRPXWWeCFSRKv9vhmEYhmEYhtGAElEBN3D1fhhQpCLqNKyJElk8OvNL5VOsy3wP0VcWw7pFG9i5PQW7afwbkfthy+A2aNVrJa6nnXfKMAzDMP8pQhhUaILfrCzxW/P8D1BVWJD6AxMbFIdpyVIoVVi3IP8C7M9FoIsipqYwNS0GA7b3MAzDMMxXwy73MwzDMAzDMAUOGwtiGIZhGIZhChwWpDIMwzAMwzAFDgtSGYZhGIZhmAKHBakMwzAMwzBMgcOCVIZhGIZhGKbAYUEqwzDMVySP/YiPkR8Rk+OPXjMMwzBpsSCVYRjma5HfwJxGxWDSeBLOhrKf3GAYhskNFqQyDMN8JfJ/jsEzpgt+93BFjzIiPpVhGIbRBAtSGYZhvgo5/HziYeO+C3bVpHwawzAMo6kfJEiNRVjoRyj5VxpJiMSbZ08R8P4n+YF1RTC8d7riyP0oPiH/xIc+w/179/EoKJpPyYtYBD+5j3v3nyA4lk/KQUzARezadxXvs23gaLw4txP7roXnrh/8ZGRB17Df7W+8TnflOPd1/i0ogr2x0/UIvkKX/UGIYT5+FSY20OdfFwSa7Ues7RiGKQgKeJAaA3/PlbBrXhXmE85Bs3AzBve2DEH9UsVRrmo1VDQtjsqd5sIz6HvPB1Mi7MpGTLJuhCpmFVChghlqtbfDgiOPkO5+CvljHJrZG02rmMGsahP0nn8agVzRFU+2YuKIMRgy/wTy97zxER7jm6Fem/E4GZIf3UGMyEsz8Vu9hhi2Jzj7gPLjLeya/BtqVmsLu1UXEKZ2YSXCfbZj4v9qoEaHEVh3+T1y/B1fxSscXbsGO5ePh+POJ8ivlv/oewG+H/kXSeR4cdkLr75F14r3w+E51qhTpTlsFp5K6hOpclHn34wCT7ZOxIgxQzD/RMYem4AHKzujqhm3D/Tf8W3q73uI8cacVpVgVrEBRh9//53bJTf7UXZtx7Xeg5XoXJU7PtXqjx0/beMxDKMxxTNssK4Kswqq2CY5vqlq/Qf/Zh6pfru/YJLRI4/1tGxqRyojEpBRP3eK4d/JTqTnaDKv3oUmrnajfTtXk2P7sqQlEJBBk4X0Tzy/0PcUc42m/SIhgcCArPdG8YkZKELpj/8ZUaN5tyiOT+K2jPz+Ok5XAjXYCPlrevI8mn+Rg2gPGly2Cg09GkQKPinPFP/SOUdzKtHdjf7lk7KUeItmcfUhqb+AHibyaWrEX5lIVcQSarzoMcn5tCwlPiS3lYfp4fER1GaKF9eT8kfijdnUutlgmr9xL7kf3EmrJ3WhZsMO0wf+/a9OEUArW0hIXMmRvDJ2g9zU+bcS6Ud/Hb9CGbus/OVG6lKjPU1fOp4sSpSjQYfD8q/vfQfy108o8+4WT/dcWlEt63m0aFgdKlJtHF1Qs7ur/+zXo/F+lEXbcY1HG7vUoPbTl9J4ixJUbtBhCvuRG49hmDz75DmKzCvWofr16/N/zWjEviD+3bwpwEEqL+4oDSwi0jBIDaPdjuPoWHCao6b8Of3OBXxCkRmNvZhf4UpeKOjt5s5kJBRR6WGnSG2Y+ukYDa43mI5F8K9zKfzoMOq3JkCjE3/c+Vlku/wfjb4A5Er8Y9pkO54O5bQN8he0zCLnIFX+2IUaSTQMUlUUgbR/xXZ6nK9NHkk+q7pTZT0h9yVDQqYtp9LJt9/yDB1BWztpqQ9SVTSt8++J+wJ2ct5k2v4wucfJXhymKUOc6XIW39cKvnA6OqwfrQlI3w/kr/bTrFlHKCCpT0fR/e2jadiqfzJ8YVL/2a8p1/tROgoKPTmPJm9/mHy8kL2gw1OGkPOP23gMw+QVF2Ot7dqFVj/N/RFFEwU/SJV5kl0psWZBqiKY7tx5neng+2FHV9IVGlFf93wPxb7Mp1M0rLSIhEZdaVtQxhOUgoJ3WFPjyVe+aARQ/uoADTTTpZarNAtSEyMj1AfK+SEmgiJz2gi5Py1vrkGQ+mQxNcnVyTWGIj9pMOr8BRRxYfQ2OOoLTvJ5FUnbu2QTpKpoUuffVRR9+pShZ8Z/osgCsmvmjpxeHRhIZrotaVWGQFMR9YkyDpDGREam2aez/uzXlPv9KL2oT58yHFfi6dOP2XgMw+SDqHP2VKWKFTltOUX3/83mJP6FfogbpwT8f3MkLIE6dcog44NeJFIJhOLKqFldi0/5zgw6wGHILxB9/At/bPODnE9OoniBvXsjYDWkCdKWVhF+H8dWTcDErQ/SL/+ZEuFeS2DVejD2vpTh0c4R6GZpjZkeYYh754u9Cx3gdOwd3vtuwkSbIZh12D8pH4H8Nc6tmojJ2x+pz1cZgktrHNC3mxUsrbrDdvpWXA1Jnl0Xfd8d80f1RHebKdh7P3nGcEKQFzbPdYDd4IHoN3ImVh+4kcMNURko38N71XBYW1mh+4AxcNp4IcNNQlxdhPli+yw79Otvj0WnAtLP6U0IgtfmuXCwGw2HEcMwep4bbuRQANmba9i9YDRXPyFcPd+C21w79O8/Ci4n/NXmPXbMFEybYI+xGfLWOB+OPPgKti2YidlzpsNxwjxsv/QU74JDEBIagdhcTl7Mqc4TQm7iwOKxmLk/AIqYp/BY7ojBA4Zg+hbf5OXiX+Is1wds+w6AwzJPvFLfwXLZFxQIv38MqyZMxNYHaTPUh+TDJWyaPQoDevXCQPt5cLsTB31d/m0VeSh8dzlj4qghGDBgOGZu8kJQVmXiRd7bhwUTxmLs2PGYuWwDlq09lqbfJCDIazPmOthh8MB+GDSaW+eN5DmiiheeWMf1pR5Wluix4G+o7jtThvnAbZ49+nBp1tOOgt/E9JTh8FpihdaD9+Kl7BF2jugGS+uZ8OAnVgt1EvDcfTmmcuu0HWSHycuP4AUZJO/TOXw2PRneXNuNBaOdcCyEq9Nbbphr1x/9R7nghH+mXoXgK9uwYOZszJnuiAnztuPS03cIDglBaETmO+qy3o+yajuu9SQfcGnTbIwa0Au9BtpjntsdxKU0XkwALm2bgzFrriL+4wMcmD8K/fvYYsLqswiIT16EYZifiCIAO5fuxfNnHpg/vCvqlKuGLnNPIzCH43Wu8MFqwSXzpOGajqSqJaPL4yqTcfvf6eW3H/rKkiLQlToYCkhUwZ7OpRlyib8xk5pZbqK0V5HjHriTU+9apC8QUYUxF7IdYZX7OVMDiZQfSVVQ6JXNNKmjGWkJJNR45Gwa2qUVVTEUklbz5eR3NyVfMVVy9KIsxx0V4XR6eEUSi8rSqHNp1x5PVyb/SjaHkucUKt4dpIHljKilyx2KUsRT4CFbMpMYUpu1z7Metck0khpPTzZ0JfNOLnQxOPVbWcoIUH37xeTYpx/ZT3GkXrWNSKjThFwe8Msp3tHBgeXIqKUL3YlSUHzgIbI1k5Bhm7X0XG0BFBR2dQtN7lCeJKr6GbeERnXqQgNGDKWOVfVJqN2AFtzVJO9c5MORv9hBPcpXpkHuQVy9KCj45HCqIhGQVsla1LTlAHLNckg580hqTnUecWMXzbCsnNT+5g5ryGnwIHKYNokGNi5OYmERslp/nJYP6EQ97MaRvVUNMhTqUIP5dymrEmjWF+LogbsT9a6lTwJRBRpzIXW5yCvOZNllEh28F0qfgq/Tpn6VSKpdlUZ4hCT1IYq+QSs61qduq29QOLcBkVenUh2u3csNOkjvshhwlPv/QV2b2tOZUNUWf6KHW3pRxcYp/UlB7w4OpHJGLcnlThQp4gPpkK0ZSQzb0NqUThF9nGxLcPtEl+1cDfPir9DEKmKSWCyjF2r7joqc/JwbkESaYTRU9pBcu1WjxuNP0Ks4Lqug8zS3VRHSqdSfdr1IqdksPpuWIoyubplMHcpLSCBpTOOWjKJOXQbQiKEdqaq+kLQbLKDUbiWnFzt6UPnKg8g9iCuwIphODq/C9UctKlmrKbUc4Jq8VI77UdZtxzUeOVt2oUkH71Hop2C6vqkfVZJqU9URHhTk/xetGtGEigkFZNhtLjl3qk31WzSnmiZaSVNjyvTeTa+yrEeGYX5MMRTq/5Cunz9Ev8/sSw2Kq+63kVKF/nsoIJ/2958/SP3XnQZWbEhzb6TeglQwRNLxwaVIJCxM3d34EzRFk+fIRmR7JPOkQkXwBmonzW2Qmizx/jyqJxFS4XZryI8LbmIC79K918n1kZxvDkEqR/54KTXTFlNFbv2f2yHmAjlaziJf/oNxx22oqIQ7saXM/Y3zoMHFRWTc/3CaG8AySBekRtGdDf2pw7Dd9CTDRiafXEVUupcb+fPri786iaqKpdRqdWDytsYdJ5uiEq6OLvJ1FEceg4uTyLg/Hc6m+RNvzqRaqry7byY/fuNkl8dTJbGELJa9SAr2NMlbo3y4z50dUZrExW3JI6VM8ie0qLGExNWmkE92jaAmSNWkzuWPFlLDpLrbRS/5zylCNlNHPQFp151If4fyPSX+Gk2pxgVmzZZmEdQn06QvcGug4A3tSJo20Im/TjPr1aOZN1NDYLn/cmrOBejSJovosVxGvjNqk2HLleSfsv7Eu7SkhTHpm6fNO72wTb+RXpUxdOETn6B4RRtnrOSD1Dg6blOUJBXGUGoVDabiImPqn9Jw8V7kWEmcPkiV+5FzA65f5jpI5dKWNSdDU1s6nmYejfz5KmqlJySjDq78l2UNgtQkiXRzZi2SiEpT981+fH1zX7zHVyKxxIKWpRQu7iyNKC2m4rYeqe3+ZBE1loip2hSfz/u2RvuRurbjcrg+sx7Vm3kz9QsMv+8KpE1o0WOuHKp9pJiQpNVsaM+j5JIqQs6QQ00uUBWVJ/vzKSVjGOZnJA8+RzMtjEkoLE699oXyqXnzkz/M/yMuLFyN0JFbMLOhNp9WUBRCR3sbVBdFwHPjDjxVqK50H8eOu80wpJMRv0wqob4edDWe95CeQKoFKUSo/r8uqCoFdMuao3aZ5PrQNF9RFVuM7GiIVwf+gAd/LfnDqT148+tgNOCfU67d0RknzxzCrBZaiA30xq6le3AzlpAgi9fg8TuRuDrfEiNvWWPbpoGoqnZmhhCl6jZCOX594lKlYCIkRIbzz3zU7gjnk2dwaFYLaMUGwnvXUuy5GQtKkCE+mwIIdLShzeVdrmkbVOWvXEoqVUJZbu+IjPiQ/KgeDfLWKB/lR7wMCINSKEx9/puoDMzKakP5NiDrS+1Z0KTOBTo60BEIUax6bZTh605oVAHlCgshKF8XTYrzJRGXR9mS3L8/fURkNs/50qQvqNpKX0833VQd+YMTOOn3ATe3Toajo2PS36R1b1B35GiMbFsOyvgbOHD4CYrXbYDSKXN2xOaY5vUBUXcXovHnvNMzqFgBxfz/gHXzvlhw6B4+UDmMXDQRNcWqd7XR0fkkzhyahRZasQj03oWle24ilhIgy65TfCn5bex284Wscm2Yp5nCIDLriz7NpPh4cR+OpH9+WA4E0NHm9lVhOTRtUxXJWUpQqVJZroYjEfEhuaGUH18iIEwJIdevUojKmKGsthJvA15lmMqTw36kpu24xsOJk374cHMrJvNt5zhpHd7UHYnRI9uinJIrh0AKqVQA7dqd0b16ckmFJh0w27Ed9JVBuHLhYVIawzA/J1GJdnDevwqWRcLx15HzfGrepB7RfjpKvDs6DSvjp2DnJPN08zsLCmn94RjZUg/xN7dj45UYBO7fg9DOQ2GhLp7mTj5fGKNmT9N8hSboYd8LZSJPY/OeACiUgTh4VI5uA8xS5wBLy6J2+SBsHmqJgUt9oN+xJ5oaa1Zq+nQb+9yu4M7lU/AN1TB4kEgg5kK/xMQE/uQqRdna5RG0eSgsBy6Fj35H9GxqnPP2CdQsIRYn5a1UKDXPW5N8hMaoV68SROH3cOsZHzooI/E+PAHadRqhTm47qiZ1rraNuSCZazhKF4wKIeKOCERcWbNrAk36AkcoTL9W+ZvXCKZiaDluJdasWcP/rcW69b9j3cL+qIHXCAxSICE+ITmg15B2axccWNMXZd8cwby+DVDRvBcWnX/3+fm40rK1UT5oM4ZaDsRSH3107NkUGnbL3JM9wSN/bs1c5aabGy8sjKqVTSBUBuPNm9wEqVl1Ky4C59pJwTeU0Lge6lUSIfzeLaR2q/cIT9BGnUZ1sj/+ZdqPMrcd13h4HUwo1nIcVn5uuzVYu249fl+3EP1rJH0jUEOIovXrwkysRNTHT3wawzA/K2GZ3rDraoL4f0P5lLz5aYPUjz6L4ehRDytWd4NqcKhAElXAAPtuKKH0x761S7HGXYQ+tjW5E0bBpNd6FGx+kePqti24/s8unCveH91TRuE4sttL0dliEvwtN8LddSqszQtrvC0CwzZYsnMCaobsxkjb9fDLxY0WnwMt2W0s7WyBSf6W2OjuiqnW5iicX5WZb3lL0XDaRji1fo/N9tOw9/I1eK6fhG3vu2O161hUSxfZ5CwvdZ4XOfUFdVQjutqKR7hw/vXnADKFLCwUkdCHgS4h+Lo3nmQYUZY/vZb1lxcu8G88Zg/+eeoDt6kdUPTVEczu1h2L7qoykeH20s6wmOQPy43ucJ1qDXN1DZdfQavYEIX0BFC89od/Ip+WRACplhYXcBZHSdNcNrImpA0xbaMTWr/fDPtpe3H5mifWT9qG991Xw3VstUw3k6qT/gtLBgId6Ggr8OjC+Uw3MnKNh9DIrL/VCLjtlnKnmuKmpnwKwzA/LylKlTKBUely/Ou8+fGDVIUMsRluco25sw4Oa0WY+PsIpN7Qr0Tk/Vt4WsDuMjXuMhoDq4oQ7rEYh0rboI/q2nCeCLj/JY/c5WY0SiPi2hg2vDV0nu7EGIcb+MW2LfT4t1TBwN9/rMUVeRNYdS6Z7qSozPbsl0IAg5YLsNulNXBxBgbMusgFLbkj+/sPrL0iRxOrziiZvgB5rov8zFso1Ueh8laYu9AaRSNDoKg7B3/d2o8Rv+R2Skpe6zwPsu0L6knqWqChQRy8lozDpodp7jaP8MZiF3eESRrCoqEe5Pc2Yc72Z6l3m8sewHXFWcQYqN83PuxehHXPFBAVa4BBS07hxsmxqJ5wFxcuvVM1HP5YewXyJlbonL7hUoMyoQ70tLm9JiYKn1JiLVk4PkRzC8jlSBdrZqQa5kwa0eQzk1rgt9aFQa//xImbaX8jLx5v34ZB0sASXSvy5cj42TwRQqpfCOWt5mKhdVFEhihQd85fuLV/BHLdrdSR1OXaxgBxXkswbtPDpKcgJIuA92IXuIelboM8MTHdPiF78QJvhDXwv98q8ykZKSDLeBBXl6bmWK+QxWZ6ckbmNM3y0ix/VtZUP3hZWV2k+uKyqqH8F/88IHQf1J5PyJuCH6RSPOLjlUiUxWcOBuS34dy0GIyrjcRp/tf7om+vRu/e2yCvLIT3xuVYvpz7W7YYTuN6ov2MC6BvMcyUG1qNMHKEBXSFZdFjeBcU5pMz4bZf1TkS4rOPsgXGRjAUKvDM+yS8z2/E8r1PoFDIuW7J1c2nT5nrMCnf5DmMOZ8qhSjbbyS6Ff8Xz/T/h8F10lamAHo62qCP57Fx+Wnc9PHA6mlr4fWRIH/li32um/Gn2pEwmaoIQGICVw4t1Bq3Exv6FIPfWhsM2/Hi8w6hmvup+rc8UZ5aTi7KUP07MSF5KYGeDrTpI85z7X76pg88Vk/DWq+PIPkr+O5zxeY/Qz9fzkyLYmVcCMHlw51cP1MokuosN3krNMiH2wLcWz4c069EgSI+QWRYFMbSGAQ9f4nQmIxDVBkoVXXFbXMCt08kVYJmdU6qNuaWT+DqOBVXLm51JE9MKl8yOeTJhc0+MEuSXV9IJotXrS+B23+TXwuL98Q0xwbQDTmNsRZ10d52LCY4DERbiwkI/60/KklKov8MB9TRDsOpMS3Q1Hokxo+xRYd6PXChsS1+TTPHMy2SXcPvTgcQwG+ecS1zmOlVRIOGJqqGg4424aNqXzh9Ez4eqzFtrRc+khyvfPfBdfOfCBVWQq3qBpBf34Z5G0/g7NH1mDx+Kx5ylaDw98KRE5fgp3akUABjI0MIFc/gfdI7qW/sfVYYvec7oX3hl9g2bTF8+G9asQ+3YrtPBTi42KNGUoyq5rNP1LU/ITZ5B+H6VXKKikLVeFxaare6h+XDp+NKFCHikwiGRY0hjQnC85ehSNutNNmPVDK2Hdd46DnNEQ10Q3B6rAXqtrfF2AkOGNjWAhPCf0P/SqlfAOLvXsDfKY/TSniC7Rv+hKHtQoyrq+7gK8dt56YoZlwNI1MO4urS1Bzr5bed0bSYMaqNPP35p6Izp2mWl2b5s7L+NGVldZEPZeX29Qe7MG28Cw4/ik5OUEbi9h+TcLjcQsxrb5CclkcFOEhVIviKG5ZMXo2/IpSI896ACYu2wyso7clCCl19XegaGEKH2xL54w3o2WkKPF/cx8GF0zB16tTkv2kzseD3P2HQoTeqpB1MKRBEqGhjjx5tB8GupfqzsOpZjqtmbIVPohIhnmvgtOMasrzyadIN9nYNIL7sDIdNMtQr8w9c5u7FQ7kcfjsmY/L6859/Kz1tvu9Or8w238+MOmHUQAt0G94fFdLVpRZaTFoG+yYSXF8+FDbzvFBy5FrM6GgK7ZBbuFusHdqapO9uytCr2Dl/DvY84IKjZ4exyGU3fN6LYWpWGrrKtzg2qh26TliJQ8f3YsHcffDjtuHxwYVw2eOLgDuHscLJDf9wUVXgyZVwOXAHcS0mYZl9E0iuL8dQm3nwKjkSa2d0hKl2CG7dLYZ2bU0ydfioe+5YvMQdT7m8H+6bj8X7ruPV3SNYPnsHbqnyPrECC/feQIxF9nk3KeqFpRrk80EpgGHFKigRsAuje3RC+zat0LxpI9StVRGmRcuj/QIvRPBlS0fxCufXz8L2G3Io353k8v0DFwLFOda5RfgJLJ2/F/e5cr04ugwublcR9PI8XOesxJlg7sufzxZMXnYMD0Ju4+Ci6dh2i/tCE+CBpQv24Ca332Ury76gwAvPVZix1QeJyhB4rnHCjmuq+Um6aDznFM6sskWzou/hvX879l+ORMOFB7GyY+GkttFvsRCnPJzRq7YEzz33w/1SKGrOOorddhWzvmQt4Pabu86wbNcTw8dPgsOkS6ix8QjmW2hx3bIFJi2zRxPJdSwfaoN5XiUxcu0MdDTVRsituyjWri1MhEboPm8lbKqF4sDkoZiwPQxt5kxGS9MSqNOiBoy0S6C0obpDpRAm3exh10CMy84O2JTwK6yqiSCuMQYH/9qCIYbHMKBxE3Sytkbfec/RZe8ZLGldKNvPpheFe+6LscT9KeTyh9g3fzH2XX+Fu0eWY/aOW9wXikCcWLEQe298gFJgiIpVSiBg12j06NQebVo1R9NGdVGroimKlm+PBV4RiLp7QIP96Bb+Udt2XOs1noNTZ1bBtllRvPfej+37LyOy4UIcXNkRhdNUj7RwBLfv9sIAGxv07jYO3o024ez6Liimrgo5Ul196OoawFB1EOdlTkt/rE9O0oW+ri4MDHVS92s1aRrlpWH+rKzZ5f8jlfVr5/8j1cWXlzWRO88c3zQHvetVxi+t2qBNm774PXY4tq/qjBxmf2lMoLrFn/83wzBfneqLhhMW+LXF+E6F8OHfD/gYFY3YmCiEv/kHhzY9Qy/vExiRIaBnmGypAkqnBfBrOx6dCn3Avx8+Iio6FjFR4XjzzyFsetYLz06N4Bf+SuI9MbxiVxyy2Ifgg735JxEwDPPzUiIq4Aau3g8DilREnYY1USK3N//mgAWpPwhFwH6MHb4Bb5vPh9u8tjDm05kfi+LZH+ja2QuD7+xHb30+8bNw7LabBZ2VG9EzZcDtpyTHg01DMG5fPKxW7IZjw3w+qv3nKPDsj67o7DUYd/b3RuZutRt2s3SwdWNPPiFv5A82Yci4fYi3WoHdjg1TnxzAglSGYfIZG675QQi0jWFasiRMixtCwqcxPxol3l/0wOWAC9jgtBNe/hFcuJacHht8G+5O43GpngMsf+oAVUUAvSJcXzYthWIGBW7+zY9H+R4XPS4j4MIGOO30gn9EyjOoYhF82x1O4y+hnoNlclo+EOgVQUlTU5QqZpB+CgYlz3NWZLhximEY5kuxkVSG+ZbiX+DogimYt+UMHv6bCJFUF9oSEQwrt8XQ2Uswy7oK8uNmbOa/Jf7FUSyYMg9bzjzEv4kiSHW1IREZonLboZi9ZBasq3zdXpUQ8hBeJ5djjMNuvCjRDcs2OqFfW3OYskFyhmHygAWpDPM9KKIR/MIf72KFKFTSDGYmeuyyBpNniuhgvPB/h1hhIZQ0M4OJ3rfpVQmhj3E34CM+32onNER58xr5Pj+NYZj/FhakMgzDMAzDMAUOG7xhGIZhGIZhChwWpDIMwzAMwzAFDgtSmW9MjoSEnH4xgGEYhmGY/zo2J5X5ZpQhhzFrSSDKJV7CrV+3YnOvzL8AxTAMwzAMo8JiBOabEepVQKP/tUMVAzEKGWuzzscwDMMwTJbYSCrzbX08jc0e1TDUpiLEfBLDMAzDMExGP8hgVizCQtM8g08T8ki8efYUr8JlfAKT7xJCcdPdDX++UvAJHEUwvHe64sj9KD4hg0KdMeK/GqDGv4PP/j249O7HnJMb/eIcdu67hvD/7JTiGLx7fB/37j9FyJccVqJf4NzOfbiWHxWobt/jxAY/wf179/EkOJZPYRiG+baUsnAEPn2Kd9F8Qh4U8CA1Bv6eK2HXvCrMJ5yDZucFBQKPOcKijAnKVa0GsxKmqG2zDX4FLlaVI/jqDjgN74Y2LVvConFDNG3fDxPXnMGLGH6RAisefodmwbpOJTTpNxce/vzPMHIUT7Zi4ogxGDL/BDKGqQkPVqJzVTOY1eqPHRlOrt9PAu4t74iqZmb4ZaAbAr9KABaNO7unoOsvlWFhswieb1Lr60egDPfB9on/Q40aHTBi3WW8/89eexHh37OT0K5eE4w+/IFP04AyHD7bJ+J/NWqgw4h1uJynCsx631MRR17CzN/qoeGwPQj+z36ZYBjm21Mg1HcrJnRvB8vRy3H0+kt8yI+bpFWX+wsmGT3yWE/LpnakMiIBGfVzpxj+nezIbi2lPn3m0n6vu3THaw/NaG1KYoEuWSx9RHJ+me9O9oIOjq5PxUq3pZnu9+nfRFViIoX9s59mtC9NRlX70aZ7UUmLFlwKerWqFUlFZcn+vIxPU4kkv7+O05XAeP41T/6SNnapQe2nL6XxFiWo3KDDFKbg3/uO5P4bqHPN32jmEgdqXLwc2R79l9uyryGR7jnVI4m4Ok31zVA3P4L4KzSxipgkjRfR4wKzI+UXOb1+8pyi+VfZUoTQyZHVqVR/d/rEJ2kmnq5MrEJiSWNalOcKzGrfU1HQv+ccybxEd3L7l0/KJ/LXT+i5RpXEMMx/iuID+a6yIrPSrcnp75B8jbUKcJDKiztKA4uINAxSE+nhyRPkl+a4rQjeQp0MhKTbfa9GQe5Xpwiiw4MrklSnLs24quaIH3OD5jbQJXFJK9ryPCl6LVg+naBJvzajZs2aUdOqRUgo0KKSvzSl1tPP8guoo6DQk/No8vaHyW3ABemHpwwh58vfORDnAg4Ppynk9igu6WXc0wPkaOtM3l/pRBy2sQNp/ahBqvwxuTSS/JxBavhRGtZvDQVo+u0k7j6ttZ1Gp3N1QJHTY5dGJMlLkKrxvhdPjzfZ0vhDEfzr/BBOR4f1ozUaVxLDMP8NMXRzya9U1KA+Tb+cn8ecZAU/SJV5kl0pscYjqZnIztGosrrU0PkBF8J+fxEnhlIZkZCK9NxLWQ10RLj3p+JCbpluO+htAT4nxBzoRQZidaM5mUV9+pRhhDKePkV+768NURT5KUMFyyIpMjlmzXcftnTMVZAaH/KUngTnXLffhPwJLW6SxyA1PoSePgmmArJFyeSv6MBAM9JtuUrzIFUlOoIic3VAkdOTxU3yFqSmkfO+F0MRkflV03J6dWAgmem2pFUsSGUYJo0or8lUS0tKtaf70Nc4df4QN04J+P9+CfkzHzwqNgpLxtT6/jfrKMNwfOthvFVqJT2KqQifnJFRu85obkD44LkN+188hee6WbDrYQXLHgvwt+p+CC4fH7d5sO/DpVlPw9GQ1HkfCUFe2DzXAXaDB6LfoNGY53YD7z+/LcOba7uxYLQTjoUoEH7LDXPt+qP/KBec8E/gl8lGzFOcWj0FI2wHYtCo+XB/GouMs+sU4fdxbNUETNz6AGlny+lLPuDSptkYNaAXeg2058p1B3H6uvy7CQi5eQCLx87E/gAFtxoPLHccjAFDpmOL7/ukG+biX57Fqom26DvAAcs8X6XLO52o29gzaxh6WFnC0qo7Bs89AX95OK6uG8WldcfAidtx8yO/LKSIvrMVcx3sMHhgPwwaPQ9u9xJgoM1tR+BpzB9iDStLS1hZ22HO/jtI/pgcj485YTjXHr1Gu+J6ZFKieh8f4uiyibCzGQCbMYtw8pXsc30pXl/F3hXj0ZcrZ48FfyOpWSPuw2P9VNh0s4L1lNWY0+0X1LKYgkvxuWk3OYKvbMOCmbMxZ7ojJszbjktP3yE4JAShEdnfTCMP9cUu54kYNWQABgyfiU1eQerrWREG3+1cn+zXH/aLTiFAVQTFa1zduwLj+6btpxG477EeU226cXU4BavndMMvtSww5VJ8UjbcAgi/dxgrpnL91XYQ7CYvx5EHkVAmXIdLm2poMvEM12Xf4NruBRjtdAwhinDccpsLu/79McqFa9dMmx6MK9sWYObsOZjuOAHztl/C03fBCAkJRURs5rlRynAvLLFqjcF7X0L2aCdGdLOE9UwPhCnj8c53LxY6cPX97j18N02EzZBZOKya/8mV4f6xVZjodBRBfD65KmMSBcJ8t2OWXT/0t1+EU0kVmAMN9j1u54fX5rlwsBuMgf1GYubqA7iRuvPzuP5z1x3L09b5fa7O+XczUYbDa4kVWg/ei5eyR9g5oht3zJkJjzDVJxIQ5LU5/f5zI3l/TZXL9TEM8+NQvMT2eRvxSKsNRo9pBG3umBAdHZ+/+zcfrBZcMk8a/oUjqVGP9pN9g+rUc9uTLxuFzW+yszSilIggMqOxF7MZ5Uj8h+aYSwgCQ+qxV3VJPJqO25YgoVYX2h6ZvEjqHDcLWvYieWRG8e4gDSxnRC1d7lCUIp4CD9mSmcSQ2qx9TnJFGF3dMpk6lJeQQNKYxi0ZRZ26DKARQztSVX0haTdYQHezGRlShJ6lSQ0qUzvnvylIJqMQn7XUrbSYBGnmxcU9cCen3rVIXyCiCmMupI6YRV4hZ8suNOngPQr9FEzXN/WjSlJtqjrCg0IUEXRj1wyyrKzFlcucHNY40eBBDjRt0kBqXFxMwiJWtP74chrQqQfZjbMnqxqGJNRpQPOzK6w8gPb2K0digT61XR+QNIIbftiGzDusojufL+Ur6N3BgVTOqCW53IkiRXwgHbI1I4lhG1r7PLk+Y+4sohaFhCRp4Ex+aQe/4i/RuFq/0rLHWZdB8fYYjTSvQparr1FYfBwFXV5M/zMRkSDtSGrcaRpWUkRaXbZTarP60tTqYpKYj6ZVY5tT7f7ryX2Tpu0mpxc7elD5yoPIPYgrsCKYTg6vQhLVZeFaTanlAFd+ucyib6ygjvW70eob4VwukXR1ah2SSMrRoIPvkkfAU0ZS69vTYsc+1M9+Cjn2qk1GQh1q4pJylSKOTg8rSaIM/dR3anWun5rT6FVjqXntAeT2UlWZ8eS3yZqqN51IZ15z9SF7S+fmtKQiulVo0G7vpPYzajOZtkzuQOUlApI0HkdLRnWiLgNG0NCOVUlfqE0NFtxNvToif0E7epSnyoPcKXnTT9LwKlydaZWkWk1b0gDXh/yCGcj9yLmBhKQpI6mKULqyeRJ1NFP1x8Y0cvZQ6tKqChkKtaj5ojN0wKk31dIXkLiSI3lxxVaEXdWwjCkjqfXJfrEj9elnT1Mce1FtIyHpNHGhB1l3JY32PW7np4MDuTpr6UJ3ohQUH3iIbM0kZNhmLfHdmSOjh67dqFrj8XTiVRzXBEF0fm4rKqJTifrvepHNlSY5+Tk3IIk07UhqzvvPl6+PYZgfgdxvITXijn1S8/40fXQf7lhZk4ppaVOJxsNpp1/+jKv+pEFqJPluHEltKuiTSAASCAtzgdt1zW6M+Jpi9pK1noAgqUUzb2Z3VgqgVS2lBEip9dq3XEI8eTlWInG6kz9/4kgTpMYdt6Gikgo0JiUAjvOgwcVFZNz/MD8Mn0g3Z9Yiiag0dd/sx9enjC6P5/JOk08min/pmG0ZMmy7nl59vtonp6dLmnJ5pb/kqAjeQO2kaYPUeLo+sx7Vm3kzTUDhT8ubcwGEtAl/6VNOjxY2TCpXr10vuU+oKChkc0fSE2hT3Yl/Uyi/3vhrU6iaWELNlnKBd3KSeh/O0mguSBGZ9qLd9zzI/n8j6Fjw58Jz4ui4TVGSVBhDqdU1mIqLjKn/4ZSdK468J1YliXZjcnmY2l4y70nUtPeerG/8UrylXdYlqEi3nVwQzqdxW39rVu30N07Fe5FjJXH6IJUPmiT1Z9HV0LjkAFHTdovjvgRxwUtxWw++vbnsniyixhIxVZviw9erGjJfmlHbkFqu9P9cp4l3l1ALY30yn+Wb/Dk+SBWV7kVu/inlv0qTqopJ2mo1BSYVNLt+Wp9mXQ2lOL4+5I9XUMtCJcjmWJp5yfKntKKlLgm1K1LPpafpUQS3cOJNmllLtd7utNmPPwLILtN4rt4kFssoddNHUGlxcbL1+Lzl9GRRY66+q9EUnyy3nFssQ5CaJJHuz6tHEu640W6NH7dVMRR49x69VmXNBf4b2kk/B6lJNCojH6Sq+ribP98W8XR1UlUSS1vR6uQKzEzTfS/uONkUlXD73UV+v4sjj8HFSWTcn1K6s9xvGTU3NCXb42nr/DmtaqVHQqMO5Jr05UEddUFqzvvPl6+PYZgfQdjm30hHIKYKfbbQPdXxmhNxdQ41MRCStOp4upAPt538pD/6UwiNR27E3y9e4/bOUahnEAnvxbOw4+s8X0hzQl3o6QgAikdsXDZlITkSErkYVSCCvqEen5gz7Y7OOHnmEGa10EJsoDd2Ld2Dm7GEBFnK8LsAOtraXDnKoWmbqki+2C5BpUplIUQkIj5kuoCYRPl2P353D0Hllr+i1OceI0Lp8qWhnWEuhlBfD7pp0+QPcOKkHz7c3IrJjo5wVP1NWoc3dUdi9Mi2KKdUrZMrl44OBMJiqF67DKRJHxTCqEI5FBYKUL5uExTn1ysuXxYluX9/+hiZ+XJnWsYdsOiP0agSfgQO/1sG/RnL0K1E2u6ujY7OJ3Hm0Cy00IpFoPcuLN1zE7GUAFl8Sttoo+mYMWgpuY1Nq//kL/dH4a+dV1DL1grFsth7FM92wfXUB9Tk6it1GTHMypfS/Jlv2oVgUiTlV7k0azflx5cICFNCKExdi6iMGcpqK/E2IOspEgk3DuDwk+Ko26A016rJxObT4PUhCncXNubbI5mwVF00KseniEuhlIkQFBmuwbNTtVHIpAi0k4omxz+7dsAnrgrM66RM+eCIKqFf76aQxr9GEFVCFSNuYYEOkje9KdpU5ZeVVEKlstx7kRFI3nQlPr4MQJhSyG170hIcEcqYlYW28i0CXmU5OSQLAki1uG0UVcf/ulTltl8XZc1rowxXDq6DQy9dB+doVEaesBTqNirH16kYpUqZQEiRCM+iAjXe97Q7wvnkGRya1QJasYHw3rUUe27GghJkSO7Octze7QZfWWXUNk9b52bo26cZpB8vYt+RQD5REzntP/m9PoZhChY5gt4Ec/8vhXnnPqitOl5zjJpNxdw+paB4vgsbT3+eW/fFPh/2fkpCY5jb/I7d0xtzB+67uHFHg7lfX5OkOqpX4sIARSgCX8fxiWooghGsepaiuDLMf9HnEzUgLYva5YOweaglBi71gX7HnmhqnP6EKshwflURi8VcYKyEQqn+RJlw7zYeyATQ09fPucNwUUK6Vcjf4HUwoVjLcVi5Zg3W8H9r163H7+sWon+N5JnCQi4YzYTLS8SFoumCUaGIKwOXxpU1p7ioUBsnzO9RFNHhQXgfKcu0vLRsbZQP2oyhlgOx1EcfHXs2RYbqgqiCLSb0Lol3h1bB7aUCyrDj2P24FYa0y7pdZHdu42EiV18GBvm2g2nSbkLjeqjH9a/we7fwjI/LlJHvEZ6gjTqN6kArOSkT+etABCkSEJ+QrqY1IIFEVYTEROTucXgyPPbz5w5uIohTouIkQhSpVgUmQiVCg95x76sI0venJGJu21WbzrVH0nqFMK5XD5VE4bh36xn/OSUi34cjQbsOGtXJasu/BBcIZyqQJmVUT5JcgUjMogI13/ekKFu7PII2D4XlwKXw0e+Ink2N05RLhieP/KHgchFlqPPCVSsn1Xnwmzd8mmay33/yf30MwxQwqhOTQBcGBhI+QUUfLf9nAUNE4+Wzt3zal/u5g9QkIlTu3AE1JTrQ1ct8KvmmRJXQzaoBdBCDW5d9km6WUUfxygc3XyugZd4Tvc25k1iSnMsuu70UnS0mwd9yI9xdp8LavHD+3CyW9Mu53Enl7Vs+AMgFgQ50tBV4dOE8uE1KTxaG0MhcRTe5Ent7I/Yl9MKgmqHYM24SDqd7urkMt5d2hsUkf1hudIfrVGuYF1ZXWwbo4DgC9RK98PtaLzw7eADhXWzRKO3wYkYp9cWdhLOvLy64yapZk/LIJWlDTNvohNbvN8N+2l5cvuaJ9ZO24X331XAdW43bE9QT6htAl4Jx3ftJhvLK8fSaL0JzaqI0ZRVkvUFpvmyIYVhIDwI1o5wCLW1oCYQwKVUyV31X2nAaNjq1xvvN9pi29zKuea7HpG3v0X21K8ZWy2rLC4oMX8TS0nTfk93G0s4WmORviY3urphqbY703Zmvc8Vr+Psn8mnJBFItrs4FKF7SlE/RRE77T36vj2GYgkWMshXKQotiEBGRftBNYmqKoty3eX1DAz7ly/34QapChticBkjlciiKWKBN/fwcUfkSIlS3d8aIamIEHfsDB16rO/vHwGeTG24KqmLk4rH4Jem4L4SOnjYEXGeI+pTyGRnCP0RzJzc55EnnABn+/mMtrsibwKpzyXQBifJLAp40pOb1UYsLNANO7sPljKP3pODXnwVJXVg0NECc1xKM2/QwTWAeAe/FLnAPy1vZshRxAU7zXmLAurVw3TQZ5uEHMGH8frz5XH1/44+1VyBvYoXOJdPVVqb4UFxjOBy7FsbLXZNg4yZEr4FZB3wq2nXqo4ZEDr+j+3Az0zcRrr5Sog2hTtL0D/oUic+xuiwcH6K5AijkyK5a1RNCql8I5a3mYqF1UUSGKFB3zl+4tX8EflFdqs6CtKEFGurJcW/THGx/lrozyR64YsXZGBhofJRQ9VMdrp9+QmTqBvH9NG0/kcLit9YorHyF82fuIu3um/DuHd5zwbaVZcVs6zgToRT6hcrDau5CWBeNRIiiLub8dQv7R/yCbDY9iSquThrx/EpdMS803fdkf/+BtVfkaGLVGem7c0oAzNc5vcafJ25yrZIqnguAwyQNYNm1Ip+iRnIlQZFSSTnuP3lcH9dfZBkP7GqO9QpZbLr+o5I5TbO8NMtfTV6srKl+pLKyukj1hWU1atsJLQwScc/3RrpBN4qOQqyoBlq2KsmnfLmCH6RSPOLjlUiUxWcebZDfhnPTYjCuNhKnk36DMwGBXgdx8PLL1AqTB+Lwak+YTp+DboX5tO+pUFsscV8Pa8PzmDFsOXwj0gaqsXi6ZzSGbZPBcq07lrYz4tPFqFSrOgzk17Ft3kacOHsU6yePx9aH3BlK4Q+vIydwye8jdHS0QR/PY+Py07jp44HV09bC6yMXxr7yxT7XzfgzVIFYrh7BhT+JaSIghUI1xJmIhIydlCcsNxBTh1SB0H8LBnWbjv3XX+Dl3WNYtYc7+Sj/xT+eR/Hnbf6BPFz+qmwS4vnHDAmLo+c0RzTQDcHpsRao294WYyc4YGBbC0wI/w39VdMfuJaVxSdw/5+AxLRl4Mql4FLliWmGYFVfOLj/JCZkE8Ip3+DghCVIGLMMPbkTqG7j6djg+AvCj07E6K0vkkekBHrQ0SZ8PL8Ry0/fhI/Hakxb64WPJMcr331w3fxn6ggitw3WEwejasw9vKo0EL3LZL/biKoNxbR+5QC/1ejdYx6O3vaH/80DWHXwPuSKIG5dqvoKhlJcCb9UN4T8xlY4bTqFc0fXY+pENzzmNlD57hnu+wfhfVI1kmbtJr+H5cOn40oUIeKTCIZFjSGNCcLzl6GISVOFGQlL9scMhzrQDjuFMS2awnrkeIyx7YB6PS6gse2vyXNgVXMNVevhoiL55x2RC4BU/+YaLbkIXD/9pToM5Tew1WkTTp3j+unUiXBL3iA8u++PoKQNEqJY7/lwam+MJ5tnYN09/neAuXY7fOAGzMYtxujqfOBDsaouxa2D2/bkFA7XL5I7wecDpvzecgyffgVRFIFPIkMUNZYiJug5XobGJPWXLAmMYWQohOKZN056q/advXjCfUAhV30qGp8+ZTzqyMB11eS5nilvaVRG1dzwpApEYmoFcvWXVIF53vcE3JcDbfqI8xuX4/RNH3isnoa1Xh9B8lfw3eeKzX++R5GkOue+bG2bhsU+/LPTYh9i63YfVHBwgX2NrL4WCGBsZAih4hm8T3onrWPvM+0c9p9zUPb80vXJcdu5KYoZV8PI5AM7l5TxWK9KckbTYsaoNvL0559gzpymWV6a5a8mL1bWH7OsrC7yoazc8anMQMwaXQsfPLbg6OcrlTHwPXsV4h4zMKp2bq6HqVeAg1Qlgq+4Ycnk1fiLC+TivDdgwqLt8ApKG9RJoauvC10DQ+iotkTxAgdmDkO/1jVRpYk17Ozt0K/HBHi13IKDY2twSxcM2jWH4+CNi1hU6zJGNmsCyyEOGD9mGKxbNUO/XXpwPHMNB0fWSjcCZNR9HlbaVEPogckYOmE7wtrMweSWpihRpwVqGGmjROliaDVpGeybSHB9+VDYzPNCyZFrMaOjKbRDbuFusSYo6rWUC5CfcnHeQ+ybvxj7rr/C3SPLMXvHLS54CsSJFQux98YHruYzMkaHVWdwcHpHFHu0DoPbNEe3+XdRo21DFK/cAnVLCFGkVDGu+j2xasZW+CQqEeK5Bk47riUFerqN5+DUmVWwbVYU7733Y/v+y4hsuBAHV3ZEYaEMj44vxfy9XAAnf4Gjy1zgdjUIL8+7Ys7KMwhWJsJny2QsO/YAIbcPYtH0bbjFBRABHkuxgDtRp4vxVeLvY8fgLhixPxDv/J8haUBP5o/nwQSxMgynJ3RB79lHAK0WmLTMHk0k17F8qA3meZXEyLUz0NFUGyG37qJYu7YwSbN3aDUciSFNK8J6WFfk+F1HWALWG89gl2Mb6N1ain6tWqL3ipeo27YuTGr8inoldFCqQnFu5ysEq9mL0KdSKA5yQbDjrgj8b64jLIoXQ7XqYvhdeYZoRRTuuS/WrN0EhqhYpQQCdo1Gj07t0aZVczRtVBe1KpqiaPn2WOAVwRcwI320WHgKHs69UFvyHJ773XEptCZmHd0Nu4pcIBF1FwcWzMU+Pznkjw9iocse+AbcweEVTnD7h/vSEHgSK10O4A4XhxSymo1FfSoh9OBEDHbchYj/zYWjRXEUq1YdYr8reBbNh4ziGhhz8C9sGaSFPX1bodOgUXAYtQAP2u3GGZeWSLpIFHUP7ouXwP0pt96H+zB/8T5cf3UXR5bPxo5bqvWewIqFe3HjgxICw4qoUiIAu0b3QKf2bdCqeVM0qlsLFU2Lonz7Bchy04Um6MYdJxqIL8PZYRMSWrZE9MEFmLv3IVffftgxeTLWn3+VHOhyxxfPVTOw1SeRi7lPY6XTDlzzv6NBGbdiz9b5mLvPj8vzMQ4udMEe3wDcObwCTm7/JLXhyZUuOKCqwEw02/e0WkzCMvsmkFxfjqE28+BVciTWzugIU+0Q3LpbDO3amkCYUudDDHFsQGM06WQN677z8LzLXpxZ0prrjVkRwqSbPewaiHHZ2QGbEn6FVe1fc95/pF+6Pu7IrqsPXV0DGCYd2JNS0h/rk5J0oa+rCwNDndQTmZo0jfLSMP/MeWmYPytrASvr187/R6qLLy8roAeL+QexsfNzOPWegE3HjmHHbBvMD+ZiHNfeME1d8IsJVLf48//+OUQH4obPPQTFimFUshrq1TNDoay+sBcACQHuGNfdDlvufQIMm8PF6zymm3/vaQlMJh8OYlDP+xj3lwsa5v3L4dehDIGn0wL4tR2PToU+4N8PHxEVHYuYqHC8+ecQNj3rhWenRvAL/1yUIZ5wWuCHtuM7odCHf/HhYxSiY2MQFf4G/xzahGe9vHFqhAm/NMMwDJN/5Hj/6BpuvIhBocqN0KR6EeTXafLnC1J/RFF3sW2CHaa5/QNZ7Qk4dmY52qcdxmO+MwVeruuGMYkrcHJS1dzNldRE9BUstpmBc4Xt8McmW1T9ohUo8OyPrujsNRh39vdGpmcPhO+G3SwdbN3Yk0/4iSie4Y+uneE1+A7298781IXw3XaYpbMSG3tmN3bHfBG5H7bYjcWemM5YtnsSGuc0AZhhGCYXWCRUEBjUwbCt1/Ho6jaMLncJ9p0GYeW5gHQTkZlvLRY31tqgi7UdZswdCZtdpTBm2FcIUFXEBihuWhKlShVO/4zZ3FC+x0WPywi4sAFOO73gH8HfnaWMRfBtdziNv4R6DpbJaT8Z5fuL8LgcgAsbnLDTyx+pmx6M2+5OGH+pHhwsWYD6VQh0UcTUFKamxXJxgx3DMIxm2EhqAZQQ5gfvv73h90Ebv3QehNblC/B8hZ+VMgz7+tWGjXsYtCt1x+J9bhjbIBfPrP0O4l8cxYIp87DlzEP8myiCVFcbEpEhKrcditlLZsG6ys86zBWPF0cXYMq8LTjz8F8kiqTQ1ZZAZFgZbYfOxpJZ1vhpN51hGOYnxoJUhsmKPBwvn3+CceUKMC6o81DVUEQH44X/O8QKC6GkmRlM9P4rQ1wKRAe/gP+7WAgLlYSZmQn+M5vOMAzzE2JBKsMwDMMwDFPgsHEGhmEYhmEYpsBhQSrDMAzDMAxT4LAglWEYhmEYhilwWJDKMAzDMAzDFDgsSGUYhmEYhmEKHBakMgzDMAzDMAUOC1IZhmEYhmGYAucHCVJjERb6EUr+VW7FvHuCJ+9i+Fc/oJh3eHz/Hu4/DYGMT8qV6Bc4t3MfroV/aQ2mF/3iHHbuuwaNs1M9FP8BV/6HgYjMnyJoLjYYT1R19yQ4jz8zG40X53Zi37XwHPqhEpGBD3H/3gO8DOd/n1MdRTC8d7riyP0oPiFvFMHe2Ol6BPmU3RdJCL0Jd7c/8UrBJ6jkW/0zDMMwPwKlLByBT5/iXTSfkAcFPEiNgb/nStg1rwrzCee+KEBThhyBfVNzdFl6Gwl82vcif3oaq2fbonUNM1SoYIaqLfph+oojuJcUWMjx9PRqzLZtjZpmFVDBrCqa95uOFUfuI1r0L85Oaod6TUbj8IekrDSjDIfP9on4X40a6DBiHS6/z9vvNijDfbB94v9Qo0YHjFh3GZpmJ/t7Jn6t1wLD9r+G4Fv3OHEkLs38DfUaDsOe4C+JkJUI99mOif+rgRodRmDd5ffIfrO5DQzci6HN66H17EtZ9lnFk62YOGIMhsw/gbzHlQo82ToRI8YMwfwT3yFKjffDoVnWqFOpCfrN9YB/2tg8z/XPMAzDFHwKhPpuxYTu7WA5ejmOXn+JDwn5cMxX/eJUwSSjRx7radnUjlRGJCCjfu4Uw7+jMcVb2tevDEkEYqo47jLF88nfVwx52JqQUGBA3XdH8mlpxJ2kISWEJNDvRm4RfBpHEXKSRlYvRf3dP/EpmoqnKxOrkFjSmBY9lvNpuSB/TU+eR/MvOPFXaGIVMUkaLyLNsouny+OrULmeO8n/C1afHxT/niNH8xLU3e1fPiUncnr95Dml2WpusydSFbGEGi96zL2bk0R6sb07la3qSF5ZdrpI8vvrOF0JzKdeGelHfx2/QvmVXa4pXtGqVlISlbWn8zI+jZf7+tdQxr7JMAzDfHuKD+S7yorMSrcmp79DNDhHaq4Aj6RqobrlGEyZPxytjL6kmAoE7pmMrYU6ormETyoQxDA2NoRQoAcjIy0+LQ2hMYwNhRDoGsFYm0/jCE26YM3BqZDc8s7lZVMRihQxgoB/lVsfTszH/NPvUy9xi4qgiFEucku4B++PfbF7qy3MRHzaNyYs0g5LD8yH4T8XEMmnZevDCcyffxrv03wJFBUpAs03W4yKQ7bBrccHeN3P6pJ/IdRobwWLslL+dR4VqoH2VhbIr+w0FXVyMlpbWMCiRT9seiiHMtQDE1q3wYw/4/klvqD+NZSpbzIMwzDfWCxuLbdGF6e36L33KOa1MeGijvxTwC/3cwQ60NbOfYileLkDk/dUwHynptD/0gjtKxEIkgvE/0c9NW9q/zIOG6ZbILdxiED4Zc2sCDyI8ZP3IyhdFCBArrITV4PDOie0KMS/TpKA0GdPEZIax3x10moj4Drvf9DhX2dJEYiD4ydjf/qNVlViLncWY/zqvA4OVQv+LpYXBl1X4OLVq7h69Tzmt9GDyMQKqy9ewOIO6b+AaVz/GlLfNxmGYZhvKdrbCUOcrqGkw+9wamnEp+afH+IMmusYU/EMmyYfRg3n2Wiux6f94BTh93Fs1UQ4HQ3iUwDZm2vYvWA0nI6FcO/fgttcO/TvPwouJ/yzmH+rQJjvdsyy64f+9otwKiCrWbpKhHstgVXrwdj7UoZHO0egm6U1ZnqEpR+1UoTBd/ss2PXrD/tFp5CcnQKvr+7FivF9YWXZAwsuimBkAETc98D6qTboZmWNKavnoNsvtWAx5RKS41Q5Qn13wXniKAwZMADDZ26CV5D6EUhlyCWscejL5WMJq+62mL71KkKSChWN++7zMapnd9hM2Yv7SZNBExDktRlzHewweGA/jJy5GgduZD3ypgz3whKr1hi89yVkj3ZiRDdLWM/0QFiGDyjCfLF9lh369bfHolMBGeqaq7t7h7FiqgPshozB5PkrceRBJJQJ1+HSphqaTDyTtFRye07AxK0PuK3Pnjz4CrYtmInZc6bDccI8bL/0FO+CQxASGoHYpLIpEH7/GFZNmIitD1JzSwjywua5XDkGD0S/QaMxz+1GutHh3Pef9GKensLqKSNgO3AQRs13x9PYjLN1Nat/RfhduC+fCgc7Wwyym4zlR+5nc4Nd9n0zp21Wyd36GIZhGLUUL7F93kY80mqD0WMaQZs75kdHx2d5jv0i/GX/gkvmScNLiXMxJzWR/FZbUSeXfyhpatynHdRVqyDNSY0n7wlVSCwsQUNPxfFpafBzPoUmQ+gE/3bcA3dy6l2L9AViquToxeWgoLCrW2hyh/IkEUio8bglNKpTFxowYih1rKpPQu0GtOBuYvKHSU5PFjchiaQ+2S92pD797GmKYy+qbSQknSYu9CBlMTXkfs7UQCKllqsCuDXy5E9ocRMJSerb02LHPtTPfgo59qpNRkIdauLygKv9ZHGnh1FJkRZ12Z467zbedypVF0vIfPQqGtu8Ng1we8mVLppurOhI9butphvhcqLIqzS1Dpd/uUF08N3ntaajCD9NwyuKSVR2FJ1LO/+Rq7vJv9rQoTDV5xT07uBAKmfUklzuRJEiPpAO2ZqRxLANrX2ezYwZuR85N5CQtOUqCkizevmTxdREIqH69ovJsU8/sp/iSL1qG5FQpwm5fK7EePLbZE3Vm06kM6+53iZ7S+fmtKQiulVo0G5v2tuvHBn/9kea9hRRhTEXkvtpFuQvdlCP8pVpkHsQV1cKCj45nKpIBKRVshY1bTmAXB9G0QN3J+pdS58Eogo05kJybop3B2lgOSNq6XKHohTxFHjIlswkhtRm7fOkfDTvP+ooKPTsJGpQuR05/x1EMlkI+aztRqXFgjRzUjWrf9lDV+pWrTGNP/GK4rj6Czo/l1oV0aFK/XfRi1z2zey3OdmXro9hGIZJT+63kBpx5yOpeX+aProPdWlVk4ppaVOJxsNpp5+a+OYL/HRBavy9ZdTFcgU9SIlIC2qQKtCmck07U9euXdP/dWlJlQ2E6YJUFUXwBmonTQlSkyXenEm1JCIq3X0z+fGVI7s8nipxgaDFshf8iZkPUkWlqZebP//ZeLo6qSqJpa1odaD6QFAluyBVVLoXufnzJYm/SpOqiknaajWlZBfv5ciVI32QmpwfF+jNukqhcckLynxnUG3DlrTy811ViXR3SQsy1jenWb5ZtZicHi9tRtriilxQltorYi44kuUsX34b4+i4TVGSVBhDF/koMM5jMBUXGVP/w9nsPNkGqVxd93Kj1M2eRFXFUmq1OjCpfuSPV1DLQiXI5lhU8gIq8qe0oqUuF/hVpJ5LT9OjiORMk9szpyA1js6OKE3i4rbkkVJkrv4XNZaQuNoU8vlcPVzwuqEdSdMEqXHHbaiohHuduvE0uLiIjPsf5nJNpln/yUzx7zGyLWNIbde/StMvntKSply/+BykalD/XF0va25IprbHKbXG5PR8VSvSExpRB1fVlxj11PXNHLc5D+tjGIZh0gvb/BvpCMRUoc8Wusef2yKuzqEmXAwjrTqeLqQ5FX6pn2vCnOw2ls/0wW9Lx6PWN76BJNcERmg76zBOnDiR/u/IInQ1zdwsQn096GaY9yDQ0YY2hCjXtA2q6ianSSpVQlnu45ERH9I/KklYCnUblePns4pRqpQJhBSJ8C98dqqwVF00KsdXsrgUSpkIQZHhGj07VbuQCYpoq7YxATcOHMaT4nXRoHTKVGsxzKd54UPUXSxsnFUjilDFdiQ6Gr7CgT88+Mu5H3Bqzxv8OrgBv43a6Oh8EmcOzUILrVgEeu/C0j03EUsJkMV/6cUIIUrVbYTUzS4FEyEhMlz17FQ5/tm1Az5xVWBeh28MFVEl9OvdFNL41wiiSqjC3wSorj0zUX7Ey4AwKIVp5sOKysCsrDaUbwPw6vOVfSH09XTTTYvR7uiMk2cOYVYLLcQGemPX0j24GUtIkKVeislV//lMibf7f4d7SGW0/LVUmnKVRvnS2mnKkHP9y2/vhpuvDJVrmyO1xkQw69sHzaQfcXHfEQSmfeZqDnLa5vxeH8MwzH+XHEFvgrn/l8K8cx/U5s9tRs2mYm6fUlA834WNpz8mpeXF53PMzyDS3QUrrj/A9oFN0KBBg+S/Vs7wTlQg6NBING3UFUtuaDLbrgDiApVMMY26O6/EYi7MIygVymznhUgkYoASkZgfzzGDBMnZJSJ32cnxOjAIioR4JGj4zNUUQpMesO9VBpGnN2NPgALKwIM4Ku+GAWkeISAtWxvlgzZjqOVALPXRR8eeTWGcU2CYGxJJUl0nJiZwdS3DYz9/botEEKe7tVGIItWqcMGsEqFB77j3eeraMyOhMerVqwRR+D3cesZ/UhmJ9+EJ0K7TCHXS3JskFGbITVoWtcsHYfNQSwxc6gP9jj3RNOPGf1H/ScC92w8gE+hBXz/7w0dO9S978gj+XFAoFKW/F1RYuCoqc196lMFv8CY3QWMO25zv62MYhvkvU51DBLowMEj7CCV9tPyfBQwRjZfP3vJpX+6nClLFFVpjYI+2aJgSoKr+6pnBmDuBa5eojvoNaqOc4U+1yXlEWYyWfSFKkxvXedWEQElSFxNC30AXFHwd3k8y3D4kf4prvqH8C3X00HqUDX6RX8W2Ldfxz65zKN6/O4p/bl4Zbi/tDItJ/rDc6A7XqdYwL8xF0l9B8vaIYVhIDwLlWwSkDnEmEWhpQ0sghEmpktxSuSFFw2kb4dT6PTbbT8Pey9fguX4Str3vjtWuY1EtfayVjuz2UnS2mAR/y41wd50Ka/PCuVx31pK2VxmMt28ztFk6Ode/2LAQ9AQKvPb3RyKflkQghZYW13+Kl4RpNtuYUU7bnN/rYxiG+e8So2yFstCiGERExPFpySSmpijKxV36hgZ8ypf78SM2hQyx/OCofvOxWL9xIzam/Vs9ALVEQhRp6YjfXV3Qr9rXCVRyh4/S0sR0mWX75jeiCjSTR9VyWxqhjh50BIRPkZGfR+Rk4R8QzWWkkKeECFwQZtEQevJ72DRnO559HuSW4YHrCpyNyb6Di2sPw/DWOni6cwwcbvwC27ZpHuUg+xt/rL0CeRMrdC6ZNvLgtiWHjVF9OSSlAspcbbQUFr+1RmHlK5w/czfd3fEJ797hvbQhrCwr5vr5cUKpPgqVt8LchdYoGhkCRd05+OvWfoz4Jc1DdDOR4e8/1uKKvAmsOpdMt05lThufIynM69eCtiIAJ/ddRsaLOaSQJweAGtS/1OI3tC5MeP3nCdxM+9Nc8W/xNkyCBpZdUTHLCsvYN3Pe5tyuTyGLTdeOXApkKQebz9SkpTkmpcicl4b5q8lLs/xZWVOxsqZiZf3sP1HWr5u/UdtOaGGQiHu+N9I9v52ioxArqoGWrUryKV+u4AepFI/4eCUSZfGZAyX5bTg3LQbjaiNx+jv+ZnnuKBEZGcWdOOMQHaPm2qIyEpGfuBOvLAbp3ua2P4GrAdX8upR6oFhZ0iOcEhPTjAspFFwX5NISUrqS6jOqf3PBgzy1BinpxJ2Iz4upITA2gqFQgWfeJ+F9fiOW730ChWpOYVJ2iUjNTnUDHvefxITPHVhc6RdUN5TjxlYnbDp1DkfXT8VEt8dc2ZR49+w+/IPec2UXomT/GXCoo42wU2PQoqk1Ro4fA9sO9dDjQmPY/ppmbqc6wrLoN7Ibiv/7DPr/G4w6ab9/CLggWZvwUVXu0zfh47Ea09Z64SPJ8cp3H1w3/4lQddezBcYwMhRC8cwbJ73PY+PyvXjCVSglyJK2TZ4oT+2H3EYnb7bqHSGK9Z4Pp/bGeLJ5Btbdi0laBMo3OHzgBszGLcbo6mkioKT25ALY+OweFivHveXDMf1KFCjiE0SGRWEsjUHQ85cIzdB3ZPFJuXH7iuqVAHo62qCPqvKfxk0fD6yethZeHwnyV77Y57oZf3Ibr1n/yUiIcgOnYkgVIfy3DEK36ftx/cVL3D22Cnu4yE/57z/wPPonbr/TzrH+3xfpjflO7VH45TZMW+zDP+g/Fg+3bodPBQe42NfIMqjP3DefQTuHbT6n7Knx+uS3ndG0mDGqjTzN/2ytHLedm6KYcTWM/HywUZOm5piUOS8N81d3fNMof1ZWVlZWVlbWr5+/sMxAzBpdCx88tuDo55+9joHv2asQ95iBUbXzPihYgINUJYKvuGHJ5NX4K0KJOO8NmLBoO7zSPb1bCl19XegaGELnBxgTlj89A1eXMVh4IowLUqNwdqENpqX57f5nnq5wGeMMjzAugIj6Ey42U5Oe4fjxhSdWzdgKn0QuwDu9Ek47rsH/jjsWL3HHU7kcD/fNx+J91/Hq7hEsn70Dt+QKBJ5YgYV7L+LyvgWYu88PcvljHFzogj2+AbhzeAWc3P6BXBGIkytdcOCO+t8BEpp0g71dA4gvO8NhUwJ+bSOD+4K52Ocnh/zxQSx02QPfgDs4vMIJbv/IoQg8iZUuB5CUXSErzF7UB5VCD2LiYEfsivgf5jpaoHixaqgu9sOVZ9FJwRD0W2DhKQ8496oNyXNP7He/hNCas3B0t102o2ipjDqNwkCLbhjev0L6gEarBSYts0cTyXUsH2qDeV4lMXLtDHQ01UbIrbso1q4tTNT1GaEJutnboYH4MpwdNiHhVyuUenAAC+bugx9X148PLoTLHl8E3DmMFU5u+EdV1ydXwuXAHUSKa2DMwb+wZZAW9vRthU6DRsFh1AI8aLcbZ1xaImVcWJGmPUM81yS1p9qAmQs2DStWQYmAXRjdoxPat2mF5k0boW6tijAtWh7tF3ghgqvFF56rMGOrDxKVIfBc44Qd1yLRYtIy2DeR4PryobCZ54WSI9diRkdTaIfcwt1i7dAo5IgG/ecGPqgrl3EHrDpzENM7FsOjdYPRpnk3zL9bA20bFkflFnVRQlgEpUr/qkH9i1FjzEH8tWUIDI8NQOMmnWBt3RfznnfB3jNL0DrdD0Ckl6lvWtXGrzlsc1sTqebrk+pCX1cXBoY6nw+SUl196OoawDDNwSZzmppjkpq8NMtf3fFNs/xZWbPLn5WVlfW/Udavnj/0YDH/IDZ2fg6n3hOw6dgx7Jhtg/nBw3HQtTfU3AOeawLVLf78vxmGKVBUQawTFvi1xfhOhfDh3w/4GBWN2JgohL/5B4c2PUMv7xMYoTbaZhiGYZhvQY73j67hxosYFKrcCE2qF8m3eyBYkMowBZTi2R/o2tkLg+/sR299PvGzcOy2mwWdlRvRM5sRx/8eOfy22GHsnhh0XrYbkxpnN3eXYRiGKcjYEAzDFEhKvL/ogcsBF7DBaSe8/CO48Cs5PTb4NtydxuNSPQdYsgA1AwF0i5jC1NQUxQzY4Y1hGObHBfwfbCn35jFUVFMAAAAASUVORK5CYII=;" vertex="1" parent="1">
          <mxGeometry x="703.36" y="1099.62" width="191" height="39.26" as="geometry" />
        </mxCell>
        <mxCell id="LbAB_rmGIGJ7I_XkYfzX-56" value="_id: Pk" style="rounded=1;whiteSpace=wrap;html=1;" vertex="1" parent="1">
          <mxGeometry x="950" y="960" width="120" height="60" as="geometry" />
        </mxCell>
        <mxCell id="LbAB_rmGIGJ7I_XkYfzX-57" value="eduName: required" style="rounded=1;whiteSpace=wrap;html=1;" vertex="1" parent="1">
          <mxGeometry x="950" y="1050" width="120" height="60" as="geometry" />
        </mxCell>
        <mxCell id="LbAB_rmGIGJ7I_XkYfzX-58" value="eduId: Pk, manual" style="rounded=1;whiteSpace=wrap;html=1;" vertex="1" parent="1">
          <mxGeometry x="950" y="1138.88" width="120" height="60" as="geometry" />
        </mxCell>
        <mxCell id="LbAB_rmGIGJ7I_XkYfzX-59" style="edgeStyle=orthogonalEdgeStyle;rounded=0;orthogonalLoop=1;jettySize=auto;html=1;entryX=0.006;entryY=0.406;entryDx=0;entryDy=0;entryPerimeter=0;" edge="1" parent="1" source="LbAB_rmGIGJ7I_XkYfzX-51" target="LbAB_rmGIGJ7I_XkYfzX-56">
          <mxGeometry relative="1" as="geometry" />
        </mxCell>
        <mxCell id="LbAB_rmGIGJ7I_XkYfzX-62" value="eduType: required" style="rounded=1;whiteSpace=wrap;html=1;" vertex="1" parent="1">
          <mxGeometry x="950" y="1230" width="120" height="60" as="geometry" />
        </mxCell>
        <mxCell id="LbAB_rmGIGJ7I_XkYfzX-64" value="applicableSubjects: required" style="rounded=1;whiteSpace=wrap;html=1;" vertex="1" parent="1">
          <mxGeometry x="950" y="1320" width="170" height="60" as="geometry" />
        </mxCell>
        <mxCell id="LbAB_rmGIGJ7I_XkYfzX-66" value="formOfTraining: required" style="rounded=1;whiteSpace=wrap;html=1;" vertex="1" parent="1">
          <mxGeometry x="950" y="1410" width="170" height="60" as="geometry" />
        </mxCell>
        <mxCell id="LbAB_rmGIGJ7I_XkYfzX-67" value="goalsTraining: required" style="rounded=1;whiteSpace=wrap;html=1;" vertex="1" parent="1">
          <mxGeometry x="950" y="1500" width="170" height="60" as="geometry" />
        </mxCell>
        <mxCell id="LbAB_rmGIGJ7I_XkYfzX-68" value="goalsAfterTraining: required" style="rounded=1;whiteSpace=wrap;html=1;" vertex="1" parent="1">
          <mxGeometry x="950" y="1590" width="170" height="60" as="geometry" />
        </mxCell>
        <mxCell id="LbAB_rmGIGJ7I_XkYfzX-79" style="edgeStyle=orthogonalEdgeStyle;rounded=0;orthogonalLoop=1;jettySize=auto;html=1;entryX=0;entryY=0.5;entryDx=0;entryDy=0;" edge="1" parent="1" source="LbAB_rmGIGJ7I_XkYfzX-74" target="LbAB_rmGIGJ7I_XkYfzX-76">
          <mxGeometry relative="1" as="geometry" />
        </mxCell>
        <mxCell id="LbAB_rmGIGJ7I_XkYfzX-80" style="edgeStyle=orthogonalEdgeStyle;rounded=0;orthogonalLoop=1;jettySize=auto;html=1;exitX=1;exitY=0.5;exitDx=0;exitDy=0;entryX=0;entryY=0.5;entryDx=0;entryDy=0;" edge="1" parent="1" source="LbAB_rmGIGJ7I_XkYfzX-74" target="LbAB_rmGIGJ7I_XkYfzX-77">
          <mxGeometry relative="1" as="geometry" />
        </mxCell>
        <mxCell id="LbAB_rmGIGJ7I_XkYfzX-81" style="edgeStyle=orthogonalEdgeStyle;rounded=0;orthogonalLoop=1;jettySize=auto;html=1;exitX=1;exitY=0.5;exitDx=0;exitDy=0;entryX=0;entryY=0.5;entryDx=0;entryDy=0;" edge="1" parent="1" source="LbAB_rmGIGJ7I_XkYfzX-74" target="LbAB_rmGIGJ7I_XkYfzX-78">
          <mxGeometry relative="1" as="geometry" />
        </mxCell>
        <mxCell id="LbAB_rmGIGJ7I_XkYfzX-74" value="Output Type" style="rounded=1;whiteSpace=wrap;html=1;" vertex="1" parent="1">
          <mxGeometry x="1470" y="440" width="120" height="60" as="geometry" />
        </mxCell>
        <mxCell id="LbAB_rmGIGJ7I_XkYfzX-75" value="" style="shape=image;verticalLabelPosition=bottom;labelBackgroundColor=default;verticalAlign=top;aspect=fixed;imageAspect=0;image=data:image/png,iVBORw0KGgoAAAANSUhEUgAAAIkAAAAYCAYAAADOHt4vAAAAAXNSR0IArs4c6QAAAARnQU1BAACxjwv8YQUAAAAJcEhZcwAADsMAAA7DAcdvqGQAAAj3SURBVGhD7ZoNUFNXFsf/SQjfEVS+gxUVdRVRQKQyFJVKsSi6y6JWqbautLhdq7Xj2MrqqG11P0ShKtOuY91x1eL6sc7gFIVCrYzFooiwo6JgIKtVIUCA8A35OHtf8qKICIjGMmN+GeblnnvuO/c9zv3fk5cIiAEzZnpAyB/NmHki5iQx0yvmJDHTKwOnJmkpQebx87ijdUPwwihMsOftZn51Bo6S2HrhFU0m/vKnZdiaXs8bzQwEBtB2Y4VxcYdx5qtwyDPPQsVbzfz6mCxJOhqrUVlRgQrjX2UVVB3GThWqKo32OrTxZrRdw4USZwQ510P2wPh0aJr4uJUK1Pd0Dm0Z/vPZaqz6+EucVep443NC04Rq/fVVQtHjJHh0Lajl/CuVaNbytoEEV5OYgoaSNFr7qj0JWAiI/WlNWhHdbTR2yunnIyvJ396Lfrc9h+5pOKOGbiaH0SALMYnFDhS+p4xZnp5m2SGKHS4iCOwpJrWZt3ZFS4qjseQhEpOl2JImJuRRG9/Tb7S1dPPGPcOcm2V0KHY4iVjJZx+TSk+ahZHGU38gqYWEJq1Mo7v9uWgTYzIlkYyZhy2bF2OYiDV01Wiy8IbUWIxKvBAU6oMJbyXim7XT4MF8dFUnsfWf7Yg7dg3FJ95D64HtyOzHnmPrFYKAYb1cVssF7Ei6gYh9l1GavQWe6X/HoTvPoiY6VJ9OwAcp16Hhmqy+CgkY1keZViHz2E+QfnQMGbvnQcrdr4EGnyymQV1Im/zFTE2E5LzwCNXwZk41ZHtW0db8dr7NLPeLKF/eyt5p2YstRnkhXVNw73rD4P8ATTntCBX3qCRaZTHll9Rz70ij0ZKaxS66ozZ0doO2l2k0Xt5JEa5i8ozP4BVJQ+U7QkncFyVhClR88Tope4mh7XYSfbk/z45pC1eLiVgeNx12Ah1q0vfiUBm/4bZfQmq5L5YEWBraDNEQG8iSoxGxZB1WRk3DO8ea4ObUdXoqXN0fj7AAP/gHf4iklDgEuVvD2ikQq9Mq2HruDEGVvxOLp3jCztoVwetOQ8E7UOttZCZvxKZtCVgw0QVeMXtxU23oU13dj/iwAPj5B+PDpBTEBbnD2toJgavTUNGN2LQV7sKi3ycgS6FBTcZGREUux97rej3RQ6p87Fw8BZ521nANXofT3CR0dSj8ajlC/f0QELELyokSFGyORiBrB8YmIeW9sfAM+YKN7oDs2MeYE7kUq6J94DI2CttylPrzdhT8DdOdbeH02jZcMtZ6poJPFtNRe5xiXYVsZYtp/Kd5xGmH8sQ6Wn+KW8lGmun8uglk7RhNB5VErelxJBUPo7jvGvj+h2hk2ylEDBKIpBRzoIxqji6ioUIBWYbupHJuP3+gJGIaE3+K7ilZfGchCSynU5KcrTztbfp61iASub1FRyo1dHdXGFkypXOPSydOx1gA2h7CjReRNOYAldUcpUVDufGhtFMfoCtqupQwgamGqFslEY+Jp1P3lHQ81pmEAkuaniTXr3910SbyZ9chdI+jdBa4Ne1dchGCxJM3U1ryG+Tht4Fa8zaQn409Re2vonbm7ydm1zkjWR+hKW0ZuTF/ocsSOvn4bXqumFZJOAZHYcWiUbAgNUoO/wNnakuRmuOImFkOvAOj5QfsP1gMtcQKTYXnkHu/A1Z0H9mn83mHTgiFhr3eZipiFoyEvYsTBgkIVKeE8pHHglbwnTETHnZOGCoRgFhdpGCrnWkWJEMcYKVrRkOLFmoNJw+EupoaGHSOnd8QAFNjFmCkvQucBrHxVAflowH6hJXvDMz0sIPTUAlLGVa7KBSGusV4HUZEIn2bmu6gymcrLpzfiB/3HcDVjiHwfGUQLH1XIDHxz/hszVy9u928FPyUk44fc79GtERvMhmmTxJYIyR+GSZbCaC9fxK71yejZMLb6LTTQKcsx+06HahZhbqWVnRIFyPl1HfYHz+e9+gJAXuxm6vVQNvNdvAQDUsIdhBK8Xbq/3D/h6X4ZcMCfHKmgqUIe+l0XbarhwgMAaDpOUCf0Ogn8WQE9iMQHBaE4bbVKC2vhpYaoapn6Sv0QPhHW7H+t6N4TzuMem02pnmb/tH0C0gStkh+swzvv+HARL0BOadbEb5w+COBhXYS2IrYam1qgHhcBCIjI9nfm5g5yY33eJ5oUPqvpQiauhIFoYnYPX/EM98EfRI9JQKmJD0OE9rDUcI2LF0jruQVserkcTpUtQ+fPZmQF5Ik3CpYGB8Nd5EY499diUhH3m7EYTpmvmoLqC/hm8RMVHG1nTIHqWky3qETxK37Tke9DnQ5Ghz0LQ7jt1P6Y1smtif8G6VqH0TM8YKqVmVQENZp0ImH4x8Z1+nYFSsxJ4sErYapWaUMZfVMFXnnB0O6nEQw2BFsF9Srp0rdDtnVUjTpu4yK5oDwuWFwFGog+zYRh+XcZtgBee4FfW/b+fWYInWGNHA9zvfzwWNfeTFJwpDMiseSwHCseH8yOu00BkSjsCL5r5j7igi39s2Hn18o5nxyFd6ve/MORlS4npELObuL1HET57KLkPd9viGpKi4jq6AaqusZyDU4oPhsFoouZqOgmrW1lSjIyodC6AIp+0QkUF9A8gef42cbb3hYCKC++C325jNp7zT+5rlsFOV9j3xDAFzOKgB3qkexwOg358J/EKA4sQazN55Dm/oGMnLl7J9N6Cg+i6yii8hmc9OxqqeyIAv57BOO0HU2Ymd7wKIpHZ++Ph8ptyzBdmRob+chs6iW+QohXfYl9rwzHrZVafhjkC9C58ThYN0wfVRtYy3q2gnt9bVoNPFT2hf4LbAOdRVVsHJ3A9OM7mlXoLjwFhocRsNvnCurZkxEoxyXixthI6xGlY0PxgnluG0xFoFjhrCytn+0V1xD4S/WGDvZG4P7ehJtHWQFJWgf7g8fVyve2BUNamVXUFxtgxETfSG1481MVRTF/4Vy6CSMd31s2T1XXtqfL2qKtmDq1M9xRRSKxMKzWDtmID7qHBi8sO1moCFwHIGRzmJYe4yGl0M/Ks+XiJf7h9A6LasSRBC9tEulb5h/LW+mV8xryEwvAP8HIU9nR2iMp40AAAAASUVORK5CYII=;" vertex="1" parent="1">
          <mxGeometry x="1461.5" y="406" width="137" height="24" as="geometry" />
        </mxCell>
        <mxCell id="LbAB_rmGIGJ7I_XkYfzX-76" value="_id: PK" style="rounded=1;whiteSpace=wrap;html=1;" vertex="1" parent="1">
          <mxGeometry x="1650" y="340" width="120" height="60" as="geometry" />
        </mxCell>
        <mxCell id="LbAB_rmGIGJ7I_XkYfzX-77" value="id: PK, manual" style="rounded=1;whiteSpace=wrap;html=1;" vertex="1" parent="1">
          <mxGeometry x="1650" y="440" width="120" height="60" as="geometry" />
        </mxCell>
        <mxCell id="LbAB_rmGIGJ7I_XkYfzX-78" value="title: required" style="rounded=1;whiteSpace=wrap;html=1;" vertex="1" parent="1">
          <mxGeometry x="1650" y="540" width="120" height="60" as="geometry" />
        </mxCell>
        <mxCell id="LbAB_rmGIGJ7I_XkYfzX-88" style="edgeStyle=orthogonalEdgeStyle;rounded=0;orthogonalLoop=1;jettySize=auto;html=1;exitX=1;exitY=0.5;exitDx=0;exitDy=0;entryX=0;entryY=0.5;entryDx=0;entryDy=0;" edge="1" parent="1" source="LbAB_rmGIGJ7I_XkYfzX-82" target="LbAB_rmGIGJ7I_XkYfzX-87">
          <mxGeometry relative="1" as="geometry" />
        </mxCell>
        <mxCell id="LbAB_rmGIGJ7I_XkYfzX-90" style="edgeStyle=orthogonalEdgeStyle;rounded=0;orthogonalLoop=1;jettySize=auto;html=1;exitX=1;exitY=0.5;exitDx=0;exitDy=0;" edge="1" parent="1" source="LbAB_rmGIGJ7I_XkYfzX-82" target="LbAB_rmGIGJ7I_XkYfzX-89">
          <mxGeometry relative="1" as="geometry" />
        </mxCell>
        <mxCell id="LbAB_rmGIGJ7I_XkYfzX-92" style="edgeStyle=orthogonalEdgeStyle;rounded=0;orthogonalLoop=1;jettySize=auto;html=1;exitX=1;exitY=0.5;exitDx=0;exitDy=0;entryX=0;entryY=0.5;entryDx=0;entryDy=0;" edge="1" parent="1" source="LbAB_rmGIGJ7I_XkYfzX-82" target="LbAB_rmGIGJ7I_XkYfzX-91">
          <mxGeometry relative="1" as="geometry" />
        </mxCell>
        <mxCell id="LbAB_rmGIGJ7I_XkYfzX-94" style="edgeStyle=orthogonalEdgeStyle;rounded=0;orthogonalLoop=1;jettySize=auto;html=1;exitX=1;exitY=0.5;exitDx=0;exitDy=0;entryX=0;entryY=0.5;entryDx=0;entryDy=0;" edge="1" parent="1" source="LbAB_rmGIGJ7I_XkYfzX-82" target="LbAB_rmGIGJ7I_XkYfzX-93">
          <mxGeometry relative="1" as="geometry" />
        </mxCell>
        <mxCell id="LbAB_rmGIGJ7I_XkYfzX-111" style="edgeStyle=orthogonalEdgeStyle;rounded=0;orthogonalLoop=1;jettySize=auto;html=1;entryX=0.5;entryY=1;entryDx=0;entryDy=0;" edge="1" parent="1" source="LbAB_rmGIGJ7I_XkYfzX-82" target="LbAB_rmGIGJ7I_XkYfzX-109">
          <mxGeometry relative="1" as="geometry" />
        </mxCell>
        <mxCell id="LbAB_rmGIGJ7I_XkYfzX-82" value="Ouput standard" style="rounded=1;whiteSpace=wrap;html=1;" vertex="1" parent="1">
          <mxGeometry x="782.73" y="1760" width="120" height="60" as="geometry" />
        </mxCell>
        <mxCell id="LbAB_rmGIGJ7I_XkYfzX-85" style="edgeStyle=orthogonalEdgeStyle;rounded=0;orthogonalLoop=1;jettySize=auto;html=1;entryX=0.5;entryY=1;entryDx=0;entryDy=0;" edge="1" parent="1" source="LbAB_rmGIGJ7I_XkYfzX-83" target="LbAB_rmGIGJ7I_XkYfzX-74">
          <mxGeometry relative="1" as="geometry" />
        </mxCell>
        <mxCell id="LbAB_rmGIGJ7I_XkYfzX-83" value="contain" style="ellipse;whiteSpace=wrap;html=1;" vertex="1" parent="1">
          <mxGeometry x="1470" y="640" width="120" height="80" as="geometry" />
        </mxCell>
        <mxCell id="LbAB_rmGIGJ7I_XkYfzX-86" value="" style="shape=image;verticalLabelPosition=bottom;labelBackgroundColor=default;verticalAlign=top;aspect=fixed;imageAspect=0;image=data:image/png,iVBORw0KGgoAAAANSUhEUgAAAiwAAABKCAYAAACYRQ+HAAAAAXNSR0IArs4c6QAAAARnQU1BAACxjwv8YQUAAAAJcEhZcwAADsMAAA7DAcdvqGQAAEhASURBVHhe7Z0HQBRHF8f/3NEtFEVUFBufGLGA2BUs2FuCIjFolIixYQNEgRhLNEaxoMYKVixRURAj2GOLKEIQUcFCERuCUqRIu7v37d4dUu+oGpLszxDY3dmdN6/Mvpmd21MgBnxqPjzGeZ8beC5sjF7Wo9ChrnQ/BwcHBwcHB0cF4El/f1rUW0JfcB6rZ9tiVUCadCcHBwcHBwcHR8X4PAkLVPCF3SGc3T4Icef/wHvpXg4ODg4ODg6OilClhCUv4y3eJCQgoeDnTRLe5xUcfI+kNwX7U5Ej3Y2cBwh6rIPuOmmI/rizcggypfW+SUSavGsIY3ByxTzMddiEP5JF0p01hCATb8Xte4NEuUJIEX1AClv+TTKyhNJ9HBwcHBwcHJWiSglLbsItrLdsC72mTdG0xUi430lAZkHCkpuK2Ks/Y2Tb3ph98D5SxDdpIR7vdIbDxl3Y5eEIl92xzJ7Kk5d4Hk69mqNpUwNM8/sg3VsSEZJOLsW8lTvhuW0xHDaEIFd6pMqIUvH40WuJzHmJOO/UC82ZthtM84MsKQrIDJiDTs0NMXzVTXAPwzg4ODg4OKpGlRKWem3HYPmyb9Ccz2yI3iJT0QB6BQtp67VEdzMjdPh6HXY7maMpU0aU5ItVe3Nhd/wBIk9MQ/Z+d5yvwnMh9ZZ90KV5OSJ/CML6jVEY4hWKJ5eWo1nAWhx8Xp1ZFhHeBrpi1taHELCb6i3Rp0vzCiruPc4f/xN684/j3JYx0GP1xcHBwcHBwVFpqpSwsNQdPBu2nZSgIHwN/wO/I1m6n51NifOLguHMMWggvToJ22L+6cvYaGmA1mPW48KJmWiRW5EkQsT8K4GC9LcMRDkNYO19Bfu+64BmfRbD/9wydFOQXZeoHDEy/9qESdP24ml+0YLlCFEAc/H2c0/hrPswNJajaVGZQpQjGAcHBwcHx3+IKicsUOyEqXb9UIdJBt4F7MLBGOlDntw7OBLbEZO6KEu2Gfjaaoj2sMSQSc6wH2WOyccz0bhhyarf4/6e6RjQxRgmveZg41Y7dG+iCtWGXTHPP6HE7ZvwPmQDvunWDHVUddHLORCJ0gKUHY/zHkuw9GdXjO/UCC3H7cKjfMmx9/f3YPqALjA26YU5G7fCrnsTqKo2RNd5/kgoIz/IubsZE8a64mKiAO/OLcGo4VOx66F4nkUMvQ/Bhm+6oVkdVej2ckYgK4QoFXe3T4WZiTG6DNmM5E718NcyS3RltrvabMTWaYZMIrWSOTsP0ccdMHL4t5hraYRGhqPw8zVJ2pf31xr001FHw74/407BozYODg4ODo7/Mux7WKpMig/Z6PIICkrUfvFtymV2JZ9wJpfTaZLjYrLohnMHUtW0JO9kouwAO9JTak52Z9KlxwsRRLtTHyWQAl+Pxu2PoXfHJlADngIpm22gWAFbIJbWmymJ62s7/TS9Smbq1+GRgnI/2hgnJBLG046h9Ynf+Gv67Y2AXm4eQMrgURO7AMqWVEDufdjz+aQ3bj/FvDtGExqw55vRBnEFJcmnO64dSAl8ajb9HOWI9wkodr0Zs0+BlNpOp9OvksnHRod4CsrUb2McMVJQfvhSMmHawWtiRwFMxdn+U6gRD6Rkuoz8PQZTU+MfKPv2D2SsVpdG7UmiXKa8sRLTzv4e4hoy/W2pMVOe12gS+ZZWEwcHBwcHx3+Oqs+wsGiNwowJbaBI+Xh8aCfOpjzBkWuaGDdUQ1qA4cNl7PGORH49FWTevYqbr/OgQq9xKTBEWqAIPJ5kyketJ8aNb426jRqivgKBUpORXOz1diro2N8CTes0RIN6CiDRWyQmsjMffNTT1oCKKAvpH4TIF7DTJoTUd++ki3yZ60sqQM9x49G6biM0rM+cT6lILl5BhVDp2B8WTeugYYN6TPoiwtvERMk6l4J2FMDni7cp8zmSjFYh6MYSXPHaj/t52mimXx/KHWdg3To3rFgwWly8zpit+PNaAK7c3AHLeuJdHBwcHBwc/2mql7BAFX2m28JURQHC177Y4uKBxx0mosjTIIiSYxGfKgJlvUfqh2zk6X2DrafPYM/09tIS8lAQrxYhoQDCMh7ZFCJgkhPmF08PE488w+vL3+LFD+Ox6GwCk64w/0RlrIWRoiCpAAL5FVQIgVgI2SjUbYVeA7qjhfpbPIl9CyFl4H0ak0rxmmLQ/FVw+bKNtGQdtOk7AuYG3CuBOTg4ODg4WKqZsAD8drb4frAGeJSOa4HZGGTdothFeXXqQZ2vAMpMh9IXQzB8+HDmZxgsOjeWlqhJBHhy4Ft072mPv8zWYYtVq2o3UJzQVBIFHk/+slxeXWjWU4KCKANht8NR1jKVvPcphe+24eDg4ODg+I9T7YSFnR2wnm6JJnwltJ9ij+Ga0v0FaPSDRQ91IP8Odq87jyR2XWryNRzxj5YWKAKx8yFFfovnR0r8lhQQb7EUfBOS+HfOebi7HsWTfCMMGdkS71PeS2ZWmIOS+ZPC84udV+R3SVSU2OkiglAggPBNNGLSRExZSeGPp5S4iIKWJuoxGQs7q/Q+PxfR958gU3yoYKZHA4NGD4AmT4Dow+twKI59YJWHuJtB4qM5N1zQTU8Hel1dcKOKL9nj4ODg4OD4N1H9hIWh3tDpmNR1EGZ8b4oiT4Mk8NtghscvGK3Px1MvKxgbm2HkovswGGggLVDAezw8dxNxzB2d8h7h6qVw3L4QIklwEkJx8a+3eP/wHG5KCiDyj4sID76Ev94y28I3+OtiCBJ5jaDXRBUK+UHwmPUTbqkZoKmiAvKDD2NXSEax8x9dvYTw2xcQIqkAoRf/Anup4ijif8NGw6Q+kHhiAUYsuYqc/CicuxnHJB6EvMg/cDE8GJcY2UQQ4s1fFxGSKAJPdwRsRjSFYmYAFg+0wtanylBhEhhh/G2cD09hyvKgZ7sJv05uD/Ukf8zs3hFmI+3gndpcXKswIwWpuYTctBRkSD98xcHBwcHB8V+mhr6tWYTUhCSoNGkMdemeUuQmIvLuU6Rr/A/GX+hCVbq7xsmIQ2hkBtR4b5GkZoQveHGIVzRE17baqOp723ITHuDuC1UYmhpAq6IXEaYi+q/HyG1hAiNdFenOkgiQEh2GyLdqaNWpI/TqSHcjD4mR95DcoDPa65ZKATk4ODg4OP5z1FDCUrsQhC9Hz54/IYxvhnV3/4BTW+4VsxwcHBwcHP9kauSRUG1DQbMVWusoQbXp/9BSowqrZjk4ODg4ODhqFf/KGRYxIiGE4IP/r0zJODg4ODg4/lv8exMWDg4ODg4Ojn8N3PwDBwcHBwcHR62HS1g4ODg4ODg4aj1cwsLBwcHBwcFR6+ESFg4ODg4ODo5aD5ewcHBwcHBwcNR6uISFg4ODg4ODo9bDJSwcHBwcHBwctR4uYakoOVEI3LsXfn+xX17IwX4PUsyl/dhz7BYS/k0KEcTj2uE9OHz9Bf5t3zspiL+Gw3sO4/oL7hs1OTj+MwiT8OBqIC7f/+ffu7iEpYJknFuD+TseoX5LTU5pLDnX4TF3HW4p60P336QQRT3oCS5guaMnIgTSff8SFPX0ILiwHI6eEUy6ycHB8V9AcN8Xf2QA5zcdQvw/fKzC3XsrRCaCHjWHu+8vsGjAqYwlNzQMdVz8sN1S71/mRIowmLIPPrb5CIr8t2UsBpiyzwe2+UH4tzWNg4OjbBSNZ2KadhqMHaeh1T/8e4D5yxmkf38yRB9SkfguDRmZmchkf7LywFNTh3I5dzpRbgbeZytAWYUPmV9hKEpF1L1XUG+sDWXpLnnkZbzF25R0ZGTlAKp1oFJUBkEm3iYlIz2DlfEDhIp1oarIHlCGQd+B+ELj35esCJMj4O/lh5ctu6BN3dJaFqUGwcs9ANkdu0BfvfA4r2E7dGrO6K+uGnOLry4CvA33g5d/Alp3aY06cr6vMuvRZfhdfgI0a41Gqp/oiy1F+VBuYYJOevWhVv3GFUGArIw88FUU/7YkT5SvjBYmnaBXX4bdhMmI8PeC38uW6NKmbqm4E7wNh5+XPxJad0FreYaqDoK3CPfzgn9Ca3RpXUd27NdayvNnEVKDvOAekI2OXfRRGFYifEhJRHKOIurWgOPJj+2Kx1zV+Rx11BwV8+08ZLx9i3SRMuow96WPMPehIC93BGR3RBd99Ur7rOBFEE6dDUW6tiGa1ZN1djn6lCWD6AMyVJrif021qtSf1YgfCbKQkceHimI1ez72u4Q+NfkJEXR2uw0ZKCqQuvH35Blwh55lSQ+WIoPuH3GhSdZTaK7LMlrmOocmf/UV2W24Qq8F0iJi0ujh6bU0xbQBqfddRzHFjslCSGlPr9LBpaOplYoStbD5jeKF0kMsGXF0++QSGtC4I03b9wdFvmMOpgTQTs8wSmXLCdMofLcXnUuTFP+kpIXSPtdZNO/n43SfqU8QH0phCUWFrT7C1Ht01KEvaSl3pZUPy1ag4OlumtjbirY+zJfuYRA8pS1D9UlbsymNO/iK0Wp1ENK70INk30ODlHv+Qo/k2jGDTk7SI0M7X3pds6oogoCebhlK+tqa1HTcQXpVY/XkUvBaF9qweRpN31ddnVWR8uwmTKV7Rx2or5YydV35kNFEcYTvQumgfQ/SUO5Jv8g3VNURvqPQg/bUQ0OZev7yqJQMtZ+K+DPjY7snUm+rrVQ8rLbQUH1t0mw6jg5W0/Hkx3ZlYq6qfI46KoYw4QptcphFCz3OUkw2E4kRIRTO/C5KRX0784YzmepqkaaRI13LlO5kYWJr98TeZLX1IRUxacXJvkvrBjSm7mXEnYQK6LNMGarXn9WIH+UG01qXDbR52nTaV02//iwJi5jskzRRW4k6uoXINqgwmf5w7U6NuyykK8lFGpbzkDYP1aP/TTxEsR+Vkk+5udl0w6EtqVU4YSkgk05/14R4PE0y/yWUiuVOgsfkbj2XLuRIt5kONHCBCTVq0JSaNmxMXZ0vUFHRPg0Cijn4C63xWk3fdmlI6kwC1XfkUrpcNEBqCEHUz9RdXXbCUhohvWaSOqcDDyn16QlysnGjsynSQ5VB+IaObz0kTRjzKWK5KamX17FlnyWXbzfQXZnJbvURvj5JS5wO0MPUp3TCyYbcqtY4enN8Kx0qlg0zus5Oo1te7uQXXylnrSEqaDdBFP3cXb3MhIUlP2I5map/woSFJT+Clpuqf/KERfjmOG09FM9opqapoD8XRfiaTi5xogMPU+npCSeycTtLVfG8osiP7SrIWGk+Rx3lkUtBu1bS1h1u9GXb+lS3uSn1m7CJ7pVxEyrXt/MfkqfTcjr7KplCttmRrcc95uo1hzDBn+ZO+1XOvazy+qyJ/qz6fiSg7LRb5OXuR9Xt+j5jwuJPUxopk8nScKaJZZNxyZ4MlJrQZL/SUxj5IW7UQUmbRu+Ol+5hEdDDlV0rMcNSQA6dsx9F48a1I1UVQ5rxe2JhpyWIoY2TFtDlgoRFTDa9Cr9O1++9Zv76HAgpNemdJBiYUe/T27fpUTLTwPxkio1JrNEgETxdQ70qlbDkU2JCUuGNJOc1vUqqbJcvoPijk6ht/wK7CShyVffyAzErgV6nFKnrE+gjPzGBkgobR69fJVX6hiaIP0qT2vandaWcMofeJaV9ghtkRaig3ZhR2ppeshMWQeQqpvP6xAmLIJJWMUnTJ01YBPF0dFJb6r8uppw68ik5NoYSK+VkFfTnouQnUkKh4zHmeUWVDqsSyI/tKshYaT5HHeUhpHeJ7yQxl/uG7geFUFyG+EApyvXtjDf05uO5Qkp79YrSaziYcxPk2b3y+qyR/qwm/CjnHSWlVV9ZtWhRRhYu7j+OONUeGNRfQ7qvEMWOFjBv+h4XvE9I90hQUOCV8bxQgPDN1hj8vTdiZa2K5mnCfM0xrDFPxh47W+yMypMeKEHOY5xYtgjuxwJxZM18OO64jVQR+1zvPvw3zcf47z0R8eAY3L4eCLPBU7E1+D0yI3/DYqsB6D1wItZdL/1RMlFiEHbMGAzTLmaw3XADrxgZRan3cMTxS3y1cA9OHV2J6aOGYb5PKlM6Hx9encWPw3thuosTBhpPxu4HYTi53h5j7b0RFbIX8740R9+RC3A0umAlpQgpd3Zj2bKN2LHRBbMd3LH74CEc9v9LelwGwhgcmTkQvcfMxfrfbiMh7y3u+W3EXKuZ2BtXoEgeRE9P4qfFDrCzHAEr13NIVOZBkBRejkwFiJB0ZS3mLz2NuOhArHZajH1/FeiekB7iifljB8J8tCN8YphzRW9w9+QKWPfohlkBKmiikYwI3+XMdveP+tiXyGhYlIzgvauwZPmPmPftBMzZfgvJJRUvSEL4yfWwH2sP76gQ7J33Jcz7jsSCo9GMx0jgiZ7i5E+L4WBniRFWrjiXqAxeBc4rQJR0BWvnL8XpuGgErnbC4n2sznPw+MQyzFuwAuuXzsKE2Ttwm3WiClxXlHIHu5ctw8YdG+Ey2wHuuw/i0GF//JVUtHEiJAbtwIzBpuhiZosNN15ByOxLvXcEjl9+BWffJ8iVYTf5CBFzZCYG9h6Duet/w+0in1+n9BB4zh+Lgeaj4egTU6iH9+E4vMoFbm5OmDrRDj/5PcEH6SFJLM3DAjdXzLKxxmxpLMmE0hHiOR9jB5pjtKMPWHeQ8B7hh1fBxc0NTlMnwu4nPzz5WAnrCsHYu2oJlv84D99OmIPtt5KLx6AoCVfWzsfS03GIDlwNp8V7cP7OSayw7oFus3yQypR+G+GL5cx29+kucBpojMn7EqUnswiQFH4S6+3Hwt47CiF75+FL874YueAoirt7Gf7MIHh7D34b58Jq5l4UhpUIT0/+hMUOdrAcYQXXc4lQ5lW0ngpQMrY/KqRsGVnehx/GKhc3uDlNxUS7n+BXRMk5j09g2bwFcHOdBRvr2dhxm9WaLGTXIddfmCsmB+/FqiXL8eO8bzFhznbcKhXU7xFxzA3jepmgy4AZOPwkB7HH7DFo4BS4/8G+moCHOqlXsIKVddlyrPbYi7MP5Mkqx7eFCbi0qUDW77E5OBN8cQgJ8PaeHzbOtcLMvXElXodQgdgsEhfzHRdg2a5y4qJMfZYtQ1n9GT3/E3sXW6Jbt1lgbzGihNs4sOgrdOs+B34Z0hNlUVk/KmjbivVYOmtC+TFfHtLEpVJk3POlbVu20JYyf7bSoZtvpCWLUN4MiyCKVvdQIr7+LLpYbHZDiuAR/dKTOa73vXQHiyS7q1NqhiWXQtaNIbNv99DTMrO+HDo3dxJtjheS8M1pmmGoSnWMnelKKnOo2AwLc/01vUjDYqt4zUTuzYVkqN6PNsYJKT32Du2d0oqUWoyhJV5+FHz/Jm0a3YRUvhhHrusO0tV7IXRwchtS6/oT3S+jwcL4XTRcqxHZ+LCVsmTQWVcHOvxGXBE5GarTkB3SmR92u60a9Viwh7wO/UlPn9yi7dZ6TN0WZL9qH5277keOXetQY1t/Yp8aCZ550Wg9C9oifiSRRr/bNSc1o+9oq38Ye7ViFGbP+ZQdeYDm2q2mq9IUX5gWS8FeNtRcpTutipQoMuvmUrJeEECJbJHMIHLuqEzNbH0pNVq+TMWRTiN+tJvEjqoth5PLzt8p7MEftLR3fdKzC5DMaMnVRxAzIsmiW8sG0PA1EeLyuTccqK1Sc5rx8bmeBGFqNN3abk16Si3Iwn4V7Tt3nfwcu1KdxrbkzwqZdZOWWi+gAEnjKMi5Iyk3syXfuHLOK4FkarnvxxkWQSSjYw0L2ipxIlrItKXfxjjKL08ewTPyGq1HFlskjy3Sfrej5mpG9N1WfworNQwTUvyu4aTVyIYKXeosuTocJtalyrbbKUm5ohSZYcnPjqQDc+1o9dXCUZl4FKrakoa77KTfwx7QH0t7U309OwoQKz6C1luY0kzptHP2Aw8arNOcrA+y8suOpVKIZ1hUqeVwF9r5exg9+GMp9a6vR3aSSihivQWZzpQ+Msl+QB6Ddai59UHJ48WsW7RswHBaEyEpyz4yVmo+o/ARbwHSx059P86w5NJNJ0NSH7JDoiPxdltS67GA9ngdoqCi+hamUvSt7WStp0QtLOxp1b5zdN3PkbrWaUy2EsPJ8WdmZB4bTF42zUml+yqShFUW3VxqTQsCJP6dGeRMHZWbka1vXDn1yEdebMuXkWl9xHqyMJ0pfWyYTQ88BpNOc2s6yCqZsc+aXhpksfU1Iy+jp4WM3vptpNKmLC+u5fkLa8plNGD4GpKY8gY5tFWi5jMuiMsWJ58e7xhBjeqY0tI7qRTy8yRyOCPtKyosK1u0ir4tTKPYYC+yaa5C3VdFSv2pKPJisxJxIU+fZckgoz87xTQh96YTtVUfQjskzk65fzoy28PJS9K8YlTdjyrTtopRpRkWZd126NqtG5OhlfXTFR2b1ZWWrAw88FhphILCjLYYipLj/Iosc1ZG14X+uO49FQblfIyLpzsam46tQo8Xm/Dt9EN4Viw9VoBunylwnTUYOsyo7GFMMhREaUhNE6Feqy4wN2oKpQYmGG/7Fbp36I3JY4zBz22KIXMnoV+nrhg7uhtUX8QirowG8fS/wZyxqgjcexyvmIxTlHQal/kj8aX4pSaMLopNG7G64UHbyBLTJvaBwf+6wbxDEyg1GwZHF1sMNRuFb4a2RnpcDN4x18q9eRZXsxtDrxF7LQ2Y9ekMJAnRbIiJ5HKlIGSErsfsjVmYuskV/XQkbsHTaAXTvkZo8lGHWTi/0xvxWZE4vNkDHp5BUDDuj3bC19BsI1+misBrbA7baaNgYmSG0f1bIDU2WjpLIk8fvaCT7o8NO4WwsG4PVeaocu8f4BN4EA49VSTFpfA026CbeQc0UWqGYY4usB1qhlHfDEXr9DjEMEJmnd8J7/gsRB7eDA8PTwQpGKN/OyFeZ7SQe155KOj2wRRmJDpYR4SkhzFIVhAhLTUNjNLkXzf3Js5ezUZjvUZMixlLmvVBZyRB2GwITKQ2KoQH/W/mYKxqIPYef8WM4Zi6Tl8Gf+SX0OXJsttL6bmloYxQrJ+9EVlTN8G1n464/o/wGsPcdhpGmRjBbHR/tEiNRTRjqIwz7lgf2Qkj+2uJi6kaTcf8MSKccvdEmEB2LJUND43NbTFtlAmMzEajf4tUxEYnQ5RxBu7rI9FpZH+Ia1E1wvT5YyA65Q7PMAHS/Ddgp9AC1u3FnoDeP/gg8KADSrhCmfCKO5nYx3jaRrCcNhG9iuqbp4k23czRoYkSmg1zhIvtUJiN+gZDW6cjLubdx9F72f7Mg0YrU/Q1aoLCsDqPnd7xyIo8jM0eHvAMUoBx/3YQvs6oUD3yKTu2CyhbxgyccV+PyE4jITGlKoymz8cY0Sm4e4axDo0+U1wxa7AO0289REyyAkRpqZBlSllxLd9f0uC/YSeEFtaQmLI3fvAJxEGHnuKyxVFE2++3w33Ia3h8OxIbYY+VIyUxU1lZq+TbIg20Mu0Lo8KOsgTyYrOycSFDn0w/X1IGWf3Zy5fMDYn1bWk5MXx+iT62JFXxo8q3rTyK11pBlHW/QPeePdGzzJ8e6KRfR1qyEvCbwahdQyDlOeLLahBzU0xIIqi2Z26+NYxqZwcc2j0Z6qfnYuIvd5FN0gOMerR7jUGPl56Y73YAUVr6aMRj1/1Ij4ozqEKUlJTYKSvGtBJ4ikpQFAlLTBEWUA9DZk1Byxue2P0gF3HHQ9FwXD9UVHNs3QpFHExFSZnREVMXU7myUWcY5j1EuPgxF3NzTMuASruOaMeIVyaUjpu7fsWJsHiklxRWoYhjC5MQ+yyNcUI7ODg4MD9OWOt9Hhe97cWH5clUWVSUmXPz85BbgXMFL54gLkP00S7gNUCnQf1gWE+6XRQ2UIsLydzWGBmZRDkp9hnSmOTCTtw2Bzit9cb5i96w78gkyTLPK19AnnYvjOnxEp7z3XAgSgv6TCLJDBakB+VcV9kInQ3z8DA8CmJLpqUhQ6UdOsoyZL0hmDWlJW547saD3DgcD22Icf0YjyrHbqUhpN/chV9PhCG+lEOUQEWZkTcfebn5iLn3ACl8JSh9bI4qOnQwAJ5HIy5PfizJRwUSd8hFfsw9PEjhM7FWqDPVDh1ggOeIjvuAF0/ikCEqEoMNOmFQP0Mm2moaxm5MD18ohQok7i78WHdRSvqzAmP3AoRJsXiWxtxY7SR+5+C0Ft7nL8LbviNztHL1lEJebJfgo4z5Mbj3IAV8pj8rNGUHSEwZxzo0eo3pgZee8+F2IApa+kxyUKTfk0ehHgTy/eXDCzyJy4CoMKjRoNMg9CszqBn4LTBp5Wy0e/YQL/nq+Bgh1ZC14r7NbiuwoSwbWbFZzj2mPIr7VVEZhPL7s8pSFT+i6rWtLOSp+LORc+cs/khUxUDbCTAQBiMwMKnU6EEQeQnXXuhi3HQr6Z6ahIcmX23BkRWdEbV6FrZGFUyJZOHKwsGYcb8fVrk7Y4KpThGHrT6KJnaY1isG3lu3wTvWEF93KnAktpNiXE5UVAuMlStoacXOi7B3eXOcX/kjNv66Bh6PzLB3/zwYyhoAKGhg6DovTMnZhin2x8QzPmXC14C2pgA3fX3x4mMZIV6Hhkr//lTI1wevQUNoiiJw4dyLQr/JvIWAy0XXHZQHHxramhDc9IVvYeOYPDkUoc/LidByyLqyEINn3Ee/Ve5wnmAKnYo6kWJnLNq7HM3Pr8SPG3/FGo9HMNu7H/NkGlIRJnbT0CvGG1u3eSPW8GuIXarSdlOAxtB18JqSg21T7HFMpkMUhYdGujrgv32CqDeF5dmWKrYwQGvlmoklXiNd6PDf4knUm0JbSyqBQWtVNGioCVHEBZwrYsPMWwG4zK5zKgfxAETIjn8LYW9t1ehfKwRfQxuagpvw9S3iv8wALTT0uXSjGlQ0tovCawRdHT7ePolCoSnFSkYLg9asQ2Ph4Bm4328V3J0nwFSnSGJTYcrxF9UGaKgpQsSFc0V8NhO3Ai5L/y6B6DlO7E/Ft2uH49mamXC/myPZ/zlkZe7P5SMjNj/ZPaac/kw8EBWieJcqJ5moih99grZ9xoRFAIGAkMdkXsV4fxsbDj1CowY8qJsvw263DghevRgni94k3gfD3fEgFOftwbovG0h3ShAxGifmp7j+hIj1+QFz3P/A2zIVSxDkZSM/v6h11GHqfBheNvWRmiI9SfgKd4Kj8SEvHwJRFqKvh+KFIAdZyY8Q+YwZ4bDWZY0sKS2h6LbYARj5pJul4LWAzcxRyD64EXE9x6NlgTUUmQ6jIeFJcBDe5qUg3M8PoakifMjK/NhOcbtl1C1KCsTmC4ZYd2gtHOe6YdOulbCUFVXMSF58lsYQpvwP0A+0x7cbwiENd+k1C2YvNDHMeij4AQ4YPnktjl+6hrN7XOB2Jl1cVJ5MxVFgRsyKoLQUJGfHIiLqPVOMaZmkkkIKzi1HHzzdkbAeqIgrSyfBad953Lh8BCtm7cfrVg3Zs4vD+gp73eJCirc1h1ljKD8ADsMnY+1xJkE+uwcubmeQrs0kCHLOK4kCM8JQpDSkJGcjNuIBXt0JRvSHPOQLRMiKvo7QFwLkZCXjUeQzcRIm87qiJARuvgDDdYew1nEu3DbtwkrL1syoTza8FjaYOSobBzfGoef4ltIAl2+34rB+zUqggSFMvT/oB8L+2w0IL3AI5iDr0cWbzcrLQ2OrGbBqFIz9O4KZroolFbdDktB/1ncwVpAfS8VhrlemOxB4ja0ww6oRgvfvQLCkEqTeDkFS/1n4zlgZuiOtMVDxCpZOcsK+8zdw+cgKzNr/Gq0alujqFJjRsyIhLSUZ2bERiHqvyNyUGoKeBCPobR5Swv3gF5oK0YcsZBYEXTEYu7EzOSWELNiW68/iP5m/CmaCNIfBeigfAQ7DMXntcVy6dhZ7XNxwJl2bOSivniz85bUAM5b5FlmQXIRyYlumjLzGsJphhUbB+7GjUMkISeqPWd8ZM93iHQRHf2D6cgFEWdG4HvoCgpwsJD+KLPFIXU4djGfK9RdlXYy0HgjFK0sxyWkfzt+4zAwoZ2H/61biksXJw8Oda3F/oAvs53pg46iXcJ/+C4I/sF14xWVl5aqSb4sTD7Yca9ISbS1CmbFZzj2mJPL9qrgM8vozfiMdNKAY/HUnFXkp4Th5IhgpwjQkM75fyt2r6keVbFuFYBz/k5Mbc428fxpNzfkKpNjImIaNtSIrKysaO8aCuujVo04/hBZZiJtJUSeX0RTL8TR19nyaP+d7mjh+MrkdiaB0aQkJ2fT0kifN76NJijoDyHnPNYr7uNopi87ZG1DDPqtLf95e8JyCjvxCY9toU0/7HRTwIFWyOKuAzDv0y7dL6A/potvH+yZSe21NatlrAq04uYemtdaitpab6VqIP/1goUOKWua08Lc7FPswgNZYtiRFNROatus6xTy9RJtsDElJqS3Z/HqdnpdeiSUhJ4hcRjnQFfEqtAKE9NJnOnXSUiOttiNo6ZnTtKhra+pjt44CH2VS2gNfcjbTJH7DAeTqE0aPQ36jheZajB4saMnpSEqL+pWG6igST1GF1OtqkJaOHhmYWtLSwFfS60sQJobQESdz0uZrkbnzMQpNiKItgzSJp6RPI5Z4060nEeS7qB9zXJPMnHwogn17njCJrq6xos66aqSk3oRMJ22jUMYw5clU8pOEuSFryEKvAbUZ5EbHLh8jR9aOzLmLj4ZQZPCRwnN/j2I8Qr4+WIRvrtIv401IT6Me6Xa0pBUXXkkWnhUl7QH5OpuRJr8hDXD1obDHIfTbQnPSUtQhiyWnKTJDSElX15BVZ11SU1KnJqaTaJukceWcJ71+AbkhtMZCjxq0GURuZ16T4PE+mthemzRb9qIJK07SnmmtmXZY0uYrd+RfNy2Kfh3K+BhPkVTU65KGlg7pGZiS5dJAuS+AyglyoVEOVyQLGwuQYbdiCBMp5IgTmWvzScvcmY6FJlDUlkGkyVMi/RFLyPviZTrm2Ic0FRl5Fx+lkMhgOvJR3t8pijFFesgO+s7MlAbY2NMCezuavf6adBGr7FgKKaa/NIrwcaQ+morUcMBiOhoSScFHFpK5liLpWCyh3yWV0I7vzMh0gA3ZL7Anu9nr6Zp08SDTCHpz9Rcab6JHGvV0qaPlCrrwqqzgy6WQNRak16ANDXI7I14UKHzpQ9M7aZGaVlsasfQMnV7UlVr3saN1gY9KLBxPowe+zmSmyWdkdCWfsMcU8luhjL+d8pbrzwlMrCzqp018TTNy8okQv5RSmHSV1lh1Jl01JVJvYkqTtoUy/Z38ek7fD6dNFg2pQcM29J1/MWuXG9sXy425dArZ8R2ZmQ4gG/sFZG83m9ZfK1jI+pj2TWxP2potqdeEFXRyzzRqzejMcnNIsThPi/Appw55/sIgfENXfxlPJnoaVE+3I1muuEClTZlJ4V7fUPuWI2lzOOPQwnd0a+UAxmeVycDyZzr3NLJCsjLCkk+VfTudsdMi6sfEjaaZE/lEFKysLU3p2KxoXJSnz1C6U0oGGf0Zi/AlnZhpQg3rNyajEa7k5+dM3doOILvVpyiyiLNXz48e0N0Ktq2iKLD/k+YuHP8S8qIO4OdzzfDt6MbITHmP9KwMpL28jX2nVOB30kVaiqPWkxeFAz+fQ7NvR6NxZgrep2chI+0lbu87BZXVx+HyhaxHQ/8RhLnIJRWoVOGRvDwEOczYUVUVNXzZT4QISfvmYUPLDVg7oAIri2spwtxckIrKP0Ln/yRZ/218xkdCHJ8FYTS2z1mNuBYmMDAwgnH33jAfMBQj+7dH+y6m0kIctR8horfPweq4FjAxMICRcXf0Nh+AoSP7o337LjBt9h9PVpCKYxOboeFgD8RUcXa5LERv9sOqiS5GbH9eemq81sG+z+M49iQPgb35PzdZQeoxTGzWEIM9Yhivr+X8k2T9F8LNsPzbEKXg6qqvMcXjPuqb9BZ/xFwhOxvQHw7n5VNhXPMfl+D4JIiQcnUVvp7igfv1TdC7YzPUVchGNvQx3Hk5pnKGBHJSkCzQQIO6NZu8fUhJAWlqo05tH84xsf7kUTZatNfDPzhdEZOTkgyBRgPUsCk/Cf8kWf9tcAnLvxRB8mOEhEUjRVQf+p1M0bGJuvQIxz8KQTIeh4QhOkWE+vqdYNqxCThLcnBw/BfhEhYODg4ODg6OWg+3hoWDg4ODg4Oj1sMlLBwcHBwcHBy1Hi5h4eDg4ODg4Kj1cAkLBwcHBwcHR62HS1g4ODg4ODg4aj1cwsLBwcHBwcFR6+ESFg4ODg4ODo5aD5ewcNRaBDGXsH/PMdxKqP0vSefgqL2IkHDrGPYc+AOxn/198gLEXzuMPYev4wX3LnuOasIlLBy1lBxc95iLdbeUoa/LuSkHR9XhQVdfGbfWzcevN3Ol+z4XitDTE+DCckd4Rgik+zgqjSgFl34YCKMOAzHT6y+kChNw9vdb0oP/Hbg7AUftJDcUYXVc4LfdEnqcl3JwVAueniW2+zpDLSwMedJ9nwtFgynY52OL/KBIcClLFflwCy/bbYDn3DYIdTWHkclkXOMZSg/+d+AvZ5D+/e8lJxVv3mWDp64GJQXpvuoiTMF9f0+cfvM/mLRSR01dtiYQvA2Hn5c/Elp3Qes6f7dkQiRH+MPL7yVadmmDuiXFEaUiyMsdAdkd0UW/iB55DdGuU3PUUakLtZr6HnfBW4T7ecE/oTW6tK4jx2ZZeHTZD5efAM1aN4JqjagwEzEX9+HQfS10baddbKSQE30FvhejIGzaBrpqVa9M8CIIp86GIl3bEM3q1YjQVaJKclTYNlKEWUhJSkZaRiYyM5mfrBwoqNaBch4b62nIEO/PgkCphvynsvKVRVX6oWLtzELWh2wIeKpQVSriQRWULZ+ni86dW6CemlLV5K8yIuQrt4BJJz3Ur7FgrggCvAg6hbOh6dA2bIZKhURN2LsaiFKD4OUegOyOXaCvztbeCC0MW8CgsxlGWVnB8ttZsOmuWcNyZSHmWijSmjWHlqxBYtYzXDvsiRuibujc9G/49kf2u4RqnhQK2OlJYalC5m8hpYXvJq9zaZJDnxvhKzo43oAaaDWiYdtjSCDdXS2EiXTLy46M6yhT33U1dM0aQvgulA7a9yAN5Z70yyMZkqWF0j7XWTTv5+N0nzGLID6UwhJYW9U0Qkq9d5Qc+mqRcteV9LAscQRPaffE3mS19SHlS3cxO+nplqGkr61JTccdpFc1IZrwHYUetKceGsrU85dH8m2WcZIm6RmSne9rpgU1QSY9OLGYBjZWojbzrlGudK+ELAqwa0EGk47R8+pWln2X1g1oTN1XPvx7fbKyclTGNgXkvKQ7vmvoK30+8XQG0g/HblJcJnOppHu0d3IbUtI2panuxyjkdaFS0+8eILfZ82jlb+GUIhTQy7BQelmRyqoiX0mq2g/lvKKw39fRV834xG/Sm6bMm092I42ptdEIWuwbQ7kVlE346iCNN2hAWo2G0faYKrWgygiebqGh+tqk2XQcHayRYK442XfX0YDG3WllmZ2PDGrC3tVE8HQ3TextRVsfFvaKbF+5Zag+aWs2pXEHX9VQ3yRF8Jz8f3KhXXdSZF9XEE9/bJpAbZXq0rgjWdKdn5dPNNmugR76kbAzbAQ9PV20m/YYLbr9PV+Hn3plP8IGHMfTewfQ/dZ2+CfWwAJOXiP0tJ2HLw0/52ihYvAamGLCjOEwkCmaELG/X0Ri6+ZIPTkbPdp1Qv/Zp5Fa71O4Ag+anawwffj/IFMcvgHsDt2Ej337j2VECf44EG+DszEh2NLyLLZdSJUeqTyiRB9sO/wcIl4DmE6YgeGyFfORnD9DoOB4FFssm1T/makoCX/u24bTT1SgpQG8Dz8Kj5MPpQcZcu/gdt4MHN5pjebVrUzVGI5HdqFH/B+I/zsXOFZWjkrY5iMqeuhmaY+vjJXANxyOqeN6o2UdZr/oBe6+6YJNV65hj7M1ujaRKpXZH3DhFVrpZ8B/fm+069wfM3xTUF/OILEqviML2f2QCIk+23D4uYx+SaUpTEbNwJfGiuD/zwrLPTZh95kr2G72BBtsLLH8Tt0KyJaKK/vDMOD4U9w70B23tvujJrrBCiFKgP+BeNicjUHIlpY4u+0CI83nQ9XYEUd29UD8H/FMzyefmrR3pRElwmfbYRS4Ad/ADodu+sC+fYEMIiT4H0C8zVnEhGxBy7PbUI1usQQfcOfnmTjefA6mddOS3efx9TFgxiT0bVjFjqpEG6uENHH5JGS/Cqfr1+/R62zpjs+OkN69SSwcuecn0uvEIhlrdRBE0qpudWrdDAuLIHIVdVeXNcMipNSkd5JRvjCVnt6+TY+SmXL5yRQbk1hi9F8TCOjpml6kLmuGpQzyExMo6WPZHHr9KqlqowlmRHB0UlvqX2Aj1mbd1csdNWUlvGZG4NINhvzkWIpJrKpmcigp5iE9eBBG7hZqpD/lIEU8LzLbmPOaXr2r2VFnbsIrSqrZS1aJSslRQdsUJ4sOfqVKyuYbKY6pR5h4kdwsbWjrvTJGf8I0SnqXI/0zmoJvRdI7eV1BFX2nbGT3Q4L4ozSpbX9aJ3fWo3g7WXIuziJ9vhKZLo8oXzbhO3pTpN/LT3xNNdUNlgvT1oTCYGbc/e/wzVxKKK8PqSF7V62vEFD80UnUtv86ku0G+ZSYkFQoC9tv1JAiBQ/Xklnb7ymwIpMmOWfpe736VZhhqUgby6dKqZIgKRwn19tjrL03okL2Yt6X5ug7cgGORhcsqcrB4xPLsMj9GAKPrMF8xx24ncqkVYIkhJ9cD/ux9vCOCsHeeV/CvO9ILDgaXbgYS5SCO7uXYdnGHdjoMhsO7rtx8NBh+P+VJC1QiCgxCDtmDIZpFzPYbriBV0wKLUq9hyOOX+IrZ188yc3Duxvb4LjADa6zbGA97yTi2We/FZGjLDIf4Ldl8+HoughzFvyK4DRJqih8/if2LrZEt26z4MNkvaKE2ziw6Ct06z4HfhkCJIWfxHr7sbD3jkLI3nn40rwvRi44io/qYrLnlDu7sWzZRuzY6ILZDu7YffAQDvv/JT1elIpcTwKlh8Bz/lgMNB8NR58YCERvcPfkSkwfNQzzWUGRjw+vzuLH4b0w3cUJA40nY/eDsHJsWxlZSyOMOYKZA3tjzNz1+O32CyTe88PGuVaYuTfu4wiIJ3qKkz8thoOdJUZYueJcojJ4lbWZKAlX1s7H0tNxiA5cDafF+/BXwWpDSkeI53yMHWiO0Y4+iGEuIHpzFydXWKMHY8MAlSbQSI6A73Jmu/t0uDgNhPHkfcyJIiQH78WqJcvx47xvMWHOdtxKljNcyIvHWXdXrNrlDa8dvyEsjaCkoQ/D5hqS4+/DcXjdZmzd4IypE+3wk98TZqxTFswoPGgHZgw2RRczW2y48YrRlQip947A8cuv4Oz7BLk5j3Fi2TwscHNl4m0Blu26DTbkJLxH+OFVcHFzg9PUibD7yQ9Pyq6o+jEqQ47y+wwpZdimIohenmba5gXdHz1h30lduleC6PVlrPx6GIYMHolZnnfwrl4bdO8gwnmHYRg8cz/uZ0kLFlBJ35Ef/+xJZfdDoqQrWDt/KU7HRSNwtRMW76tYDLEIP2QzV1WEVkNt6R4GWbrLe4cb2xzFNpllY415J+Mh6QYraJMChMm4778J88d/D8+IBzjm9jUGmg3G1K3BeJ8Zid8WW2FA74GYuO46Ugp8jyfC05M/YbGDHSxHWMH1XCKUeUIk3/fHpvnj8b1nBB4cc8PXA80weOpWBL/PRORvi2E1oDcGTlyH6x8vVJzy+37WFU9g2bwFcHNl+uwFy7DrdioTNWVQjb5CbO+31ekrREi6shbzl55GXHQgVjstxr7gV7jntxFzrWZib9zHXhGipyfx02IH2FmOgJXrOSQq8ypvw1Lk4sZOTzzsPBB9i4RNoe5mwcZ6NnaU1F3uYxxdNBb9zYdhyqoAPP+4kluENzd2YlmBnI77cPd9GW38qOBKIk1cKgEzQo++Rdut9UiphQXZr9pH5677kWPXOtTY1p8ymRKCyDXUS8OCtrLPj3Nv0kJDdeq3MY7yU6Pp1nZr0lNqQRb2q2jfuevk59iV6jS2JX/2RCYLe+Y1mvQstlA8mzym/U52zdXI6Lut5B+WxBYohTB+Fw3XakQ2PqnSPRl01tWBDr8RVkOOMhBEk9dXnWnsnljxSCn/8SYaWL9wDUvuTSdqqz6EdiRKst7cPx2Z7eHk9S6Vom9tJ2s9JWphYU+r9p2j636O1LVOY7KVViZ45kWj9Sxoi6TR9Ltdc1Iz+o62+oeJjxdDWIHrsTMsqi1puMtO+j3sAf2xtDfV17OjAHami9GDE6OHITsSJSMOdrutGvVYsIe8Dv1JT5+UY9vKyCqmyAxLfjZFHphLdquvSkZZzKg3NtiLbJqrUPdVkWI9UtZNWmq9gALEesykIOeOpNzMlnzjqmCz/AhabqpeOAsmHjWpUsvhLrTz9zB68MdS6l1fj+zEipHY0LCoDVmbqvWgBXu86FBQEmXdWkYDhq+hCLEeb5BDWyVqPuOCuGwphEl0ZqYpDfz5LjM+ZjYTT9CkZkXWsORG0HoLU5p5NoXdouwHHjRYpzlZH4yXMRIUUvyu4aTVyIYKXf0suTocpjdCAUUyOtaw2EoSV1/ItKMfbRQPx3MpYr0Fmc48S+Kash+Qx2Adam59UBJjJRBWK0YTZMiRX26fUZ5tykYy86BkOJiGG+rQgI2PiqyDKk7u3eVMjBjQvKsF18ukwDlW9Iusab8q+E6Z8c8oXVY/xJbMj1hOpup9KzTDotTHnaKZYrkvz9HinppUp/0cCmRn5+TKJss3KmCTkqTH0p29U6gV4xtjlniRX/B9urlpNDVR+YLGua6jg1fvUcjBydRGrSv9dJ+1RBbdXGpNCwIkfU1mkDN1VG5GtqfiKfbOXprSiunDxiwhL79gun9zE41uokJfjHOldQev0r2QgzS5jRp1/em+TJvK6/tZnazppUEWW9l1aLl0c6EhqfcrnKEqxd/ZVzAtjFhuSup9JbMPwrRYCvayoeYq3WlVpMQvsm4uJesFASTpFoPIuaMyNbP1rbwNS5J7mxZ9oUrGS+8W6lme7sQzLKr0xZhFtGbvYdr94xhqrapCRs43xP1c2XKeYjaKt7GqVGGGhQfNNt1g3qEJlJoNg6OLLYaajcI3Q1sjPS4G75g0TEG3D6YwmdlgHSazehiDZAUR0lLTwJyIbuYd0ESpGYY5usB2qBlGfTMUrdPjEMOeyGR7N89eRXZjPTRiJdMwQ5/OQJKwGYaY6IhrLwlP/xvMGauKwL3H8Yq5hCjpNC7zR+JLXV415ChNzh/r8PMdE9jatBKvtVBsMwj92xZ5xsnjFX/2x+eDxy7h5mmiTTdzdGiihGbDHOFiOxRmo77B0NbpiIt5J85ac2+exdXsxtCTNBpmkkaj2RAT9krFqcD1xPAaw9x2GkaZGMFsdH+0SI1FtDjDZ+QstrSc2WZk1zayxLSJfWDwP/m2rZSsRaEMhK6fjY1ZU7HJtR902NN5Gmhl2hdGTQoXEmSd3wnv+CxEHt4MDw9PBCkYo387IV5ntKi0zcqGh8bmtpg2ygRGZqPRv0UqYqOTJXpj9FBcNaxutGFkOQ0TeynBf8NOCC2s0V6VOabcGz/4BOKgQ09J2RIIonZhxZEGGG/XCezAhddoCCxMlCQHGTLOuGN9ZCeM7K8l3lY1mo75Y0Q45e6JsDIHRzzofzMHY1UDsff4K0ZexqdPXwZ/5JfQZQyq22cKM3ofDB1mtPgwJhkKojSksjOAGWfgvj4SnUb2h7gmVSNMnz8GolPu8CyjIl61YrSRDDnYkJPvVxLk2EYe9VugUysl/PmjFeacelHmWgXlTrPhNDITx7f7IYm9YEog/N4PwsR2lfmkg3zfKTP+GWT1Q+W2qwT0NgSHNqzECo/LULXZh1t/bsbwBgW1ypJNlm9U1CZFqNcKXcyN0FSpAUzG2+Kr7h3Qe/IYGPNz0XTIXEzq1wldx45GN9UXiI1jfCvrPHZ6xyMr8jA2e3jAM0gBxv3bQfjyPVp1MYdRUyU0MBkP26+6o0PvyRhjzEdu0yGYO6kfOnUdi9HdVPEiNk7mrLe8vp9ROvpMccWswTrM/oeISVaAKC0V0knxCvJ5+oqS8DRawbSvEQq7xSyc3+mN+KxIHN7sAQ/PICgY90c74evK27AkeU/w+JkIWg10Cv23XN0po/2EZVj8nQ3sfjqG/bNa4unxI7iVK0vOl9Lzqk+xGKsM7E1OoYjFVJSUAaEQQmKOaffCmB4v4TnfDQeitKDP9GxMciQpyBq2+IlM85nz2BOZv4w6GyLvYTii2BkjJrDSMlTQrmM7FHb1JamHIbOmoOUNT+x+kIu446FoOK4f2PV3VZejJAI8DQrFmzpaRT7uxTpoMZeVg6RsYWkVSNQlhLjVRp1hmPcQ4ZJGIy0tAyrtOqKdzEbLv14pVJSZtuUjL7fMo6WQZ9vKyyqB0m9i168nEBafXuKGosCaQooQSbHPkMZ08HYODnBgfpzWeuP8RW/Yd2SSw0rZrCKoQJlpWn5ebtl6K4rgBZ7EZUBU4D+MDRp0GoR+hmUvJs8Mvo0HVB+aHxcz88H/6C8CxNx7gBS+UpGPt6qiQwcD4Hk04mTNltYbgllTWuKG5248yI3D8dCGGNdP7OnQ7jUGPV56Yr7bAURp6TPJBDG+ztQUcw8PUvhQKvI5WtUOHWCA54iWVVGVY1S2HCzy/Ko0FbeNglp7zDwegPX9U7F30gjM8WcfmZWAp4OxjrbQCdyIXQ/y8OrkGdDI8dVY6Fxx+eT2Q5WA17gXpiz8ET+vd8fyuV+ho8zPnhaVrSZtwsD6hvRPMUqMDzO1FIaFIpQURewlIEyKxbM05uZnJ4llB6e18D5/Ed72HdmC7KWKwFyH6UMK9cKDopIiROyFZCK772eUjl5jeuCl53y4HYiCln4j8JhrV17rBXy6vqJMFIroWZiE2GdpTOJpJ9GjgxPWep/HRW978eFK27AIoqxMfGBUzOr6I5XSnSpMe3SG2vtUpObJl7MmqHK4yiPrykIMnnEf/Va5w3mCKXQq/NIBRXRetBfLm5/Hyh834tc1Hnhkthf75xky3b1sFE3sMK1XDLy3boN3rCG+7iRRftXlKIkC1NRUIHrzFE+KpehsoErNKHYwIUTFDhcJZDkodl6Evcub4/zKH7Hx1zXweGSGvfvnwbAyg78KI+kohMUFFctaEaoqq4LGUKzzmoKcbVNgf4ydISgLPjS0NSG46QvfF4UlhK9DEfpcXsdVQ4g745I2lKqG1wANNUWIuHAOhaJl4lbAZenfxeGrqkIpJw6Piy3CKPAXHhrp6oD/9gmi3hRWxnqnYgsDtGb6m7JRhIndNPSK8cbWbd6INfwaElfPwpWFgzHjfj+scnfGBFOdj4kQr5EudPhv8STqTaHOJRXBQHZFcpAXo7Ll+OTUMca8YwHYwCQteyYOx9wykhblbrMxt18sPNdvh+cVLViPKrL+o7rIif+a64eqwt9nE76GNjQFN+Hr+6LQ94SvERr6XLpRfWT1/YzSsXDwDNzvtwruzhNgqlPD756pwb6iXPga0NYU4Kavb5HrCfE6NFT6d9Xh1WVspAZ8yMpixZdQSd3lZH0AtTZEW7VPJ2cBVU5YRIyl2M73YyNZxNtCvLoTjOgPecgXiJAVfR2hLwRMo5LxKPKZ+EbJZp5iw36kYFuEpMDNuGC4DofWOmKu2ybsWmkppwOXwmsBm5mjkH1wI+J6jkdLcauqI0dJ+Gg5cgy60kW4u/ggJpeRNDkGz1KESE1+h3yhCPxGOmhAMfjrTiryUsJx8kQwUoRpSH6bx7SK+Sdir1384gXboqRAbL5giHWH1sJxrhs27VoJS7mNln89thGMdYrbpqBtio2g25DwJDgIb/NSEO7nh9BUEeOwmcw5EmTbtiqyMpZgK2b+0xjC2PUHfQTaf4sN4TnSoxK5CkYjmsOsMZQfAIfhk7H2+CVcO7sHLm5nkK7NZESVshmDgjKUFQlpKcnIjo1A1HumLNPIkuUL9KbI3Nwb0hMEB70V29DPLxSpog/IymRO4ulipPVAKF5ZiklO+3D+xmUcWTEL+1+3Ep9bkjoDLTFEOwKerttxl114mfkUMQkCZKamIJu5kza2mgGrRsHYvyOYuaWwpOJ2SBL6z/oOxkUGOyXhtbDBzFHZOLgxDj3Ht5QEsPAV7gRH40NePgSiLERfD8ULQQ6ykh/hUY4lZlg1QvD+HQiWLi5NvR2CpP6z8J2siqoao3LkiHzGdu6y/Up8fTm2KZt8JraZ84QCyWiyTmfMZZKWdWZJ8Jw4FDN+i0axF9HzmsPG8RuoHnfD6ZY2GCAeisugkr4jO/6z8UJOPyRihu2KlIaU5GzERkSJr1UaIQRMA0nA6LVMdciRrVo2KQPxMeZf8ROKbLN/M/0Pu605DNZD+QhwGI7Ja4/j0rWz2OPihjPpbKIoOaekfYtui+USX0gOZfb9bLPvIDj6A/LyBRBlReN66AsIcrKQ/CgSTLNL8zf2FewIQllZEZSWguTsWEREvRdXLO7FxdVpYpj1UPADHDB88locv3QNZ/e4wO1Muvhs+f31VXg4LYdfmY1mUDVGly94SHz5kvEyCeXrjpCbI+2/BbE45hePEU526KAoT84y2lgVmIZWmrQHvuRspkn8hgPI1SeMHof8RgvNtUhRx4KWnI6ktMf7aGJ7bdJs2YsmrDhJe6a1Jq22lrT5yh3ydTYjTX5DGuDqQ2GPQ+i3heakpahDFktOU2SGgKJ+HUo6ijxSVFGnuhpapKNnQKaWSymwvBcO5QSRyygHulKwpo5BUGU5pBcoRj49O+1Kw9s1ooate5HlbDea3KMNmU35iXwi0oiEL+nETBNqWL8xGY1wJT8/Z+rWdgDZrT5M/kecyUyTTw0HuJJP2GMK+W0hmWspko7FEjrNVCaI+pWG6igST1GF1OtqkJaOHhmYWtLSwFfSuouSRg985Vwv+Db5OPYhTUWmbYuPUkhkMB352LbfKSpTSC99plMnLTVGFyNo6ZnTtKhra+pjt44CH2WWb9tKySqkxJAj5GSuTXwtc3I+FkoJUVtokCaPlPRH0BLvS3TlxCLqp80nTTMnRo/s4jkhJV1dQ1addUlNSZ2amE6ibaHprNNVwWa5FLLGgvQatKFBbsfo8jFH6qOpyOhtMR0NiaTgI4V6+z0qU2xDn+mdSEtNi9qOWEpnTi+irq37kN26QGJUwxx/Q1d/GU8mehpUT7cjWa64QK9kLiBj2vHnevq6ix410DOhYVNX0CyLZmRsuYg8b74Wl0gP2UHfmZnSABt7WmBvR7PXX5MsViuHnCAXGuVwhQpdXUCP902k9tqa1LLXBFpxcg9Na820wXIzhbB6SQ+hHd+ZkekAG7JfYE92s9fTNVkVlatneTGaJ1OOK3fk+VUw3fYpxzYlyXxMl/e60qDGfOJp9qAZW/zpPvuiyoyHdPz7TqSsAFLga5Px1660/fIz6UkMgij6pf8AWivrpYofqbzvlB3/p+j+XRn9EGuc3BBaY8H4SJtB5HZG4hfFYNu5z40Gs+3U6EGzd/xO95KL2i6NIuTq7n0VbRJJpUIqI5L8f7BgbK9F5gt/ozuxDylgjSW1VFQjk2m76HrMU7q0yYYMlZSorc2vdP25gIRJV2mNVWfSVVMi9SamNGlbKKUzV470/4EsmH5Ey3wh/XYnlh4GrCHLloqkZjKNdl2PoaeXNpGNoRIptbWhX68/lyyElUUZfT/T+dO+ie1JW7Ml9Zqwgk7umUattdqS5eaQ0u0S83f2FawbrCELvQbUZpAbnXkSQb6L+pE2X5PMnHwogvVrYRJdXWNFnXXVSEm9CZlO2kaSblG+DVPDVlPfxoY075LkI/2lEVDkL71Ic8h28aJsyS45uhMmU/DueTSid3+ynOZAi+bY07ITjwoX+MqQk6VYGz9WVjkU2P9Jc5daQB6iDvyMc82+xejGmUh5n46sjDS8vL0Pp1RW46TLF9JylUSYhzw2g67yfFIlYEYvOVCFqpxRcknyog7g53PN8O3oxshMeY/0rAykvbyNfadU4HfSRVqqdvBPkpXjU/CJYvRz8f4U5jolw9XTDk0/R39QlM/ZD3F8HqrQ39c2RG/9MNXiEAZe8sFk8Ur62kutkk4YvR1zVsehhYkBDIyM0b23OQYMHYn+7duji2kzaalKIniINWYN0Gra79Kp90+I6A32WzWB7ojtFX+bnzAa2+esRlwLExgYGMG4e2+YDxiKkf3bo30XU2mhWsI/SVaOT8InidFPjghpsfcQmZCMuztPgG857vMnK5+zH+L4PFSlv6+F8HS+xNqf9XBm2y1kSvfVVmrVDIso5SpWfT0FHvfrw6R3RzSrq4DsbEB/uDOWTzVGlV/u/yENaXxNaKpItz8lH1KQQprQrlPBHlGUgqurvsYUj/uob9IbHZvVhYKk0XBePhXGf883GpTNP0lWjk/CJ4vRT4ngLywx7YXVD9XQ8fv9CNz2N30D+Ofshzg+D5Xt72steYg7vRXHsgZi1jfGkL7astZRyx4JsQiQ/DgEYdEpENXXRyfTjmhS/MWV/0oEyY8REhaNFFF96HcyRcda3Oh/kqwcn4J/XoxmxgQhJLU5enRtLn4vDgcHR2kEbxOR3kAX2rU0/6qFCQsHBwcHBwcHR3H+6fNYHBwcHBwcHP8BuISFg4ODg4ODo9bDJSwcHBwcHBwctRzg/zy2fgo+iWazAAAAAElFTkSuQmCC;" vertex="1" parent="1">
          <mxGeometry x="746.73" y="1830" width="156" height="20.76" as="geometry" />
        </mxCell>
        <mxCell id="LbAB_rmGIGJ7I_XkYfzX-87" value="_id: PK" style="rounded=1;whiteSpace=wrap;html=1;" vertex="1" parent="1">
          <mxGeometry x="1002.73" y="1700" width="120" height="60" as="geometry" />
        </mxCell>
        <mxCell id="LbAB_rmGIGJ7I_XkYfzX-89" value="id: PK, manual" style="rounded=1;whiteSpace=wrap;html=1;" vertex="1" parent="1">
          <mxGeometry x="1002.73" y="1780" width="120" height="60" as="geometry" />
        </mxCell>
        <mxCell id="LbAB_rmGIGJ7I_XkYfzX-91" value="title: required" style="rounded=1;whiteSpace=wrap;html=1;" vertex="1" parent="1">
          <mxGeometry x="1002.73" y="1860" width="120" height="60" as="geometry" />
        </mxCell>
        <mxCell id="LbAB_rmGIGJ7I_XkYfzX-93" value="idOverView: required" style="rounded=1;whiteSpace=wrap;html=1;" vertex="1" parent="1">
          <mxGeometry x="1002.73" y="1940" width="180" height="60" as="geometry" />
        </mxCell>
        <mxCell id="LbAB_rmGIGJ7I_XkYfzX-96" style="edgeStyle=orthogonalEdgeStyle;rounded=0;orthogonalLoop=1;jettySize=auto;html=1;entryX=1;entryY=0.5;entryDx=0;entryDy=0;" edge="1" parent="1" source="LbAB_rmGIGJ7I_XkYfzX-95" target="LbAB_rmGIGJ7I_XkYfzX-83">
          <mxGeometry relative="1" as="geometry" />
        </mxCell>
        <mxCell id="LbAB_rmGIGJ7I_XkYfzX-99" style="edgeStyle=orthogonalEdgeStyle;rounded=0;orthogonalLoop=1;jettySize=auto;html=1;entryX=0;entryY=0.5;entryDx=0;entryDy=0;" edge="1" parent="1" source="LbAB_rmGIGJ7I_XkYfzX-95" target="LbAB_rmGIGJ7I_XkYfzX-97">
          <mxGeometry relative="1" as="geometry" />
        </mxCell>
        <mxCell id="LbAB_rmGIGJ7I_XkYfzX-100" style="edgeStyle=orthogonalEdgeStyle;rounded=0;orthogonalLoop=1;jettySize=auto;html=1;exitX=1;exitY=0.5;exitDx=0;exitDy=0;entryX=0;entryY=0.5;entryDx=0;entryDy=0;" edge="1" parent="1" source="LbAB_rmGIGJ7I_XkYfzX-95" target="LbAB_rmGIGJ7I_XkYfzX-98">
          <mxGeometry relative="1" as="geometry" />
        </mxCell>
        <mxCell id="LbAB_rmGIGJ7I_XkYfzX-102" style="edgeStyle=orthogonalEdgeStyle;rounded=0;orthogonalLoop=1;jettySize=auto;html=1;exitX=1;exitY=0.5;exitDx=0;exitDy=0;entryX=0;entryY=0.5;entryDx=0;entryDy=0;" edge="1" parent="1" source="LbAB_rmGIGJ7I_XkYfzX-95" target="LbAB_rmGIGJ7I_XkYfzX-101">
          <mxGeometry relative="1" as="geometry" />
        </mxCell>
        <mxCell id="LbAB_rmGIGJ7I_XkYfzX-104" style="edgeStyle=orthogonalEdgeStyle;rounded=0;orthogonalLoop=1;jettySize=auto;html=1;exitX=1;exitY=0.5;exitDx=0;exitDy=0;entryX=0;entryY=0.5;entryDx=0;entryDy=0;" edge="1" parent="1" source="LbAB_rmGIGJ7I_XkYfzX-95" target="LbAB_rmGIGJ7I_XkYfzX-103">
          <mxGeometry relative="1" as="geometry" />
        </mxCell>
        <mxCell id="LbAB_rmGIGJ7I_XkYfzX-106" style="edgeStyle=orthogonalEdgeStyle;rounded=0;orthogonalLoop=1;jettySize=auto;html=1;exitX=1;exitY=0.5;exitDx=0;exitDy=0;entryX=0;entryY=0.5;entryDx=0;entryDy=0;" edge="1" parent="1" source="LbAB_rmGIGJ7I_XkYfzX-95" target="LbAB_rmGIGJ7I_XkYfzX-105">
          <mxGeometry relative="1" as="geometry" />
        </mxCell>
        <mxCell id="LbAB_rmGIGJ7I_XkYfzX-108" style="edgeStyle=orthogonalEdgeStyle;rounded=0;orthogonalLoop=1;jettySize=auto;html=1;exitX=1;exitY=0.5;exitDx=0;exitDy=0;entryX=0;entryY=0.5;entryDx=0;entryDy=0;" edge="1" parent="1" source="LbAB_rmGIGJ7I_XkYfzX-95" target="LbAB_rmGIGJ7I_XkYfzX-107">
          <mxGeometry relative="1" as="geometry" />
        </mxCell>
        <mxCell id="LbAB_rmGIGJ7I_XkYfzX-95" value="Classification Scale" style="rounded=1;whiteSpace=wrap;html=1;" vertex="1" parent="1">
          <mxGeometry x="1860" y="650" width="150" height="60" as="geometry" />
        </mxCell>
        <mxCell id="LbAB_rmGIGJ7I_XkYfzX-97" value="_id: Pk" style="rounded=1;whiteSpace=wrap;html=1;" vertex="1" parent="1">
          <mxGeometry x="2050" y="551.3199999999999" width="120" height="60" as="geometry" />
        </mxCell>
        <mxCell id="LbAB_rmGIGJ7I_XkYfzX-98" value="idLevel: Pk, manual" style="rounded=1;whiteSpace=wrap;html=1;" vertex="1" parent="1">
          <mxGeometry x="2050" y="640" width="140" height="60" as="geometry" />
        </mxCell>
        <mxCell id="LbAB_rmGIGJ7I_XkYfzX-101" value="level: required" style="rounded=1;whiteSpace=wrap;html=1;" vertex="1" parent="1">
          <mxGeometry x="2050" y="730" width="120" height="60" as="geometry" />
        </mxCell>
        <mxCell id="LbAB_rmGIGJ7I_XkYfzX-103" value="name Level: required" style="rounded=1;whiteSpace=wrap;html=1;" vertex="1" parent="1">
          <mxGeometry x="2050" y="820" width="140" height="60" as="geometry" />
        </mxCell>
        <mxCell id="LbAB_rmGIGJ7I_XkYfzX-105" value="discription: required" style="rounded=1;whiteSpace=wrap;html=1;" vertex="1" parent="1">
          <mxGeometry x="2050" y="910" width="120" height="60" as="geometry" />
        </mxCell>
        <mxCell id="LbAB_rmGIGJ7I_XkYfzX-107" value="idOutputType: required" style="rounded=1;whiteSpace=wrap;html=1;" vertex="1" parent="1">
          <mxGeometry x="2050" y="1000" width="190" height="60" as="geometry" />
        </mxCell>
        <mxCell id="LbAB_rmGIGJ7I_XkYfzX-112" style="edgeStyle=orthogonalEdgeStyle;rounded=0;orthogonalLoop=1;jettySize=auto;html=1;entryX=0.5;entryY=1;entryDx=0;entryDy=0;" edge="1" parent="1" source="LbAB_rmGIGJ7I_XkYfzX-109" target="LbAB_rmGIGJ7I_XkYfzX-51">
          <mxGeometry relative="1" as="geometry" />
        </mxCell>
        <mxCell id="LbAB_rmGIGJ7I_XkYfzX-109" value="contain" style="ellipse;whiteSpace=wrap;html=1;" vertex="1" parent="1">
          <mxGeometry x="738.86" y="1480" width="120" height="80" as="geometry" />
        </mxCell>
      </root>
    </mxGraphModel>
  </diagram>
</mxfile>
